<svg width="109" height="47" viewBox="0 0 109 47" fill="none" xmlns="http://www.w3.org/2000/svg">
<path d="M54.1673 46.0393V44.2122L55.2425 44.185L56.3031 44.1045L57.3485 43.9718L58.3761 43.7882L59.386 43.555L60.3763 43.2738L61.3461 42.9457L62.294 42.5719L63.2185 42.1539L64.1192 41.6928L64.993 41.1901L65.8403 40.6466L66.659 40.0649L67.4478 39.4447L68.2059 38.7882L68.9308 38.097L69.6221 37.3717L70.2786 36.6139L70.8988 35.8247L71.4809 35.0061L72.0236 34.1587L72.5267 33.2845L72.9878 32.3842L73.4058 31.4597L73.7793 30.5114L74.1077 29.5416L74.3889 28.551L74.622 27.5415L74.8058 26.5135L74.9384 25.468L75.0189 24.4071L75.0461 23.3319H76.8732L76.8437 24.4993L76.7556 25.6525L76.6116 26.7886L76.4121 27.9073L76.1584 29.0061L75.8523 30.0844L75.4952 31.1396L75.0884 32.171L74.6334 33.1772L74.1323 34.156L73.5853 35.1073L72.995 36.0288L72.3616 36.9185L71.6877 37.7764L70.9744 38.6L70.2227 39.3888L69.4343 40.1405L68.6104 40.8537L67.7528 41.5276L66.8631 42.1607L65.9416 42.7511L64.9907 43.2983L64.0114 43.7995L63.0053 44.2546L61.9743 44.6609L60.919 45.0184L59.8411 45.3245L58.742 45.5781L57.6236 45.7777L56.4875 45.9217L55.3348 46.0098L54.1673 46.0393ZM54.1673 46.0393C53.6631 46.0393 53.2538 45.6299 53.2538 45.1257C53.2538 44.6216 53.6631 44.2122 54.1673 44.2122V46.0393ZM31.4595 23.3319H33.2865L33.3137 24.4071L33.3943 25.468L33.5269 26.5135L33.7106 27.5415L33.9438 28.551L34.225 29.5416L34.5534 30.5114L34.9268 31.4597L35.3449 32.3842L35.8063 33.2845L36.309 34.1587L36.8521 35.0061L37.4342 35.8247L38.054 36.6139L38.7105 37.3713L39.4022 38.097L40.1274 38.7882L40.8853 39.4447L41.674 40.0646L42.4927 40.6466L43.3404 41.1901L44.2143 41.6928L45.1149 42.1539L46.0394 42.5719L46.9876 42.9453L47.9575 43.2738L48.9481 43.555L49.9576 43.7882L50.9857 43.9718L52.0311 44.1045L53.092 44.185L54.1673 44.2122V46.0393L52.9998 46.0098L51.8466 45.9217L50.7105 45.7777L49.5918 45.5781L48.493 45.3245L47.4148 45.0184L46.3595 44.6612L45.3281 44.2546L44.322 43.7995L43.3427 43.2983L42.3918 42.7511L41.4707 42.1607L40.5802 41.528L39.7227 40.8537L38.8991 40.1405L38.1103 39.3888L37.3589 38.6004L36.645 37.7764L35.9708 36.9185L35.3381 36.0288L34.7473 35.1073L34.2008 34.156L33.6992 33.1772L33.2442 32.171L32.8375 31.1396L32.4803 30.0844L32.1742 29.0061L31.9206 27.9073L31.721 26.7886L31.5771 25.6525L31.489 24.4993L31.4595 23.3319ZM31.4595 23.3319C31.4595 22.8277 31.8688 22.4183 32.373 22.4183C32.8772 22.4183 33.2865 22.8277 33.2865 23.3319H31.4595ZM54.1673 0.625977V2.45299L53.092 2.4802L52.0311 2.5607L50.9857 2.69335L49.9576 2.87705L48.9481 3.11024L47.9575 3.39145L46.9876 3.71987L46.0394 4.09329L45.1149 4.51132L44.2143 4.97243L43.3404 5.4751L42.4927 6.01823L41.674 6.60025L40.8853 7.22048L40.1274 7.87699L39.4022 8.56826L38.7105 9.29353L38.054 10.0514L37.4338 10.8401L36.8521 11.6588L36.3086 12.5061L35.8063 13.38L35.3449 14.2806L34.9268 15.2051L34.553 16.153L34.225 17.1228L33.9438 18.1131L33.7106 19.123L33.5269 20.1506L33.3943 21.1961L33.3137 22.2566L33.2865 23.3319H31.4595L31.489 22.1643L31.5771 21.0116L31.721 19.8755L31.9206 18.7571L32.1742 17.658L32.4803 16.5801L32.8379 15.5248L33.2442 14.4938L33.6992 13.4877L34.2008 12.5084L34.7477 11.5575L35.3381 10.636L35.9711 9.74634L36.645 8.88875L37.3589 8.06445L38.1103 7.27643L38.8991 6.52466L39.7227 5.81146L40.5802 5.13757L41.4707 4.50413L42.3918 3.91417L43.3427 3.36687L44.322 2.86572L45.3281 2.41066L46.3595 2.00399L47.4148 1.64682L48.493 1.34065L49.5918 1.08705L50.7105 0.887517L51.8466 0.743496L52.9998 0.65543L54.1673 0.625977ZM54.1673 0.625977C54.6715 0.625977 55.0808 1.0353 55.0808 1.53949C55.0808 2.04367 54.6715 2.45299 54.1673 2.45299V0.625977ZM76.8732 23.3319H75.0461L75.0189 22.2566L74.9384 21.1961L74.8058 20.1506L74.622 19.123L74.3889 18.1131L74.1077 17.1228L73.7796 16.153L73.4058 15.2051L72.9878 14.2806L72.5267 13.38L72.024 12.5061L71.4809 11.6588L70.8988 10.8405L70.2786 10.0514L69.6221 9.29316L68.9308 8.56826L68.2059 7.87699L67.4478 7.22048L66.6586 6.60025L65.8403 6.01823L64.993 5.4751L64.1192 4.97243L63.2185 4.51132L62.294 4.09329L61.3461 3.71951L60.3763 3.39145L59.386 3.11024L58.3761 2.87705L57.3485 2.69335L56.3031 2.5607L55.2425 2.4802L54.1673 2.45299V0.625977L55.3348 0.65543L56.4875 0.743496L57.6236 0.887517L58.742 1.08705L59.8411 1.34065L60.919 1.64682L61.9743 2.00436L63.0053 2.41066L64.0114 2.86572L64.9907 3.36687L65.9416 3.91417L66.8631 4.50413L67.7531 5.13757L68.6104 5.81146L69.4343 6.52466L70.2227 7.27643L70.9744 8.06482L71.6877 8.88875L72.3616 9.74597L72.995 10.636L73.585 11.5575L74.1323 12.5084L74.6334 13.4877L75.0884 14.4938L75.4947 15.5248L75.8523 16.5801L76.1584 17.658L76.4121 18.7571L76.6116 19.8755L76.7556 21.0116L76.8437 22.1643L76.8732 23.3319ZM76.8732 23.3319C76.8732 23.836 76.4638 24.2454 75.9596 24.2454C75.4555 24.2454 75.0461 23.836 75.0461 23.3319H76.8732Z" fill="#25548D"/>
<path d="M62.0521 3.62569C61.6084 3.86493 61.054 3.69902 60.8148 3.2553C60.5755 2.81159 60.7414 2.25712 61.1851 2.01788L62.0521 3.62569ZM86.802 8.65512L85.3839 9.80636L84.3714 8.62563L83.352 7.56171L82.3274 6.6089L81.3013 5.76153L80.2763 5.01356L79.2539 4.35967L78.2372 3.79466L77.2285 3.31236L76.2299 2.90798L75.2442 2.57613L74.2725 2.31156L73.3181 2.10938L72.3835 1.96421L71.4711 1.87238L70.5829 1.82779L69.7227 1.82628L68.8919 1.86293L68.0948 1.93247L67.3333 2.03076L66.6103 2.15245L65.9291 2.29267L65.2931 2.4461L64.705 2.60865L64.1668 2.77456L63.683 2.93936L63.2551 3.0977L62.8878 3.24434L62.5832 3.37437L62.3432 3.48322L62.1719 3.56486L62.0718 3.6155L62.0521 3.62569L61.1851 2.01788L61.2433 1.98728L61.3714 1.92302L61.5752 1.8255L61.8492 1.70156L62.1924 1.55488L62.6013 1.39163L63.073 1.21738L63.6044 1.03671L64.1932 0.854934L64.8365 0.677288L65.5316 0.509498L66.2754 0.356398L67.0657 0.223376L67.8991 0.116043L68.7732 0.0396777L69.6849 0L70.6313 0.00151329L71.6094 0.0506398L72.6163 0.152325L73.6485 0.312586L74.7026 0.535925L75.7764 0.82847L76.8656 1.19509L77.9669 1.64107L79.0763 2.17172L80.1913 2.79194L81.3081 3.50629L82.423 4.31925L83.5331 5.23616L84.6348 6.26154L85.726 7.39957L86.802 8.65512ZM86.802 8.65512C87.1198 9.04668 87.0601 9.62193 86.6686 9.93979C86.277 10.2576 85.7018 10.1979 85.3839 9.80636L86.802 8.65512ZM107.46 24.2442L107.377 22.4194V24.2442L107.321 24.2408L107.219 24.2328L107.056 24.217L106.836 24.1909L106.563 24.1516L106.239 24.0979L105.864 24.0272L105.441 23.9369L104.97 23.8242L104.455 23.687L103.898 23.5234L103.298 23.331L102.659 23.1069L101.983 22.8491L101.271 22.5555L100.524 22.2236L99.7443 21.8506L98.9351 21.4348L98.0963 20.9734L97.2309 20.4646L96.34 19.906L95.4253 19.2949L94.4892 18.6293L93.5334 17.9067L92.5598 17.1247L91.5695 16.2818L90.5645 15.3751L89.5471 14.4023L88.5182 13.3614L87.4801 12.2498L86.435 11.0657L85.3839 9.80636L86.802 8.65512L87.8213 9.8759L88.8331 11.0222L89.8358 12.096L90.8283 13.1006L91.808 14.0372L92.7736 14.9084L93.7238 15.7172L94.6566 16.4659L95.5701 17.156L96.4632 17.7914L97.3333 18.373L98.1795 18.9037L98.9996 19.386L99.793 19.8217L100.557 20.2141L101.29 20.5652L101.99 20.8766L102.657 21.1514L103.288 21.3918L103.881 21.5993L104.435 21.7773L104.949 21.9281L105.419 22.0532L105.845 22.1552L106.226 22.2365L106.559 22.2996L106.843 22.3465L107.076 22.3797L107.255 22.4013L107.381 22.4134L107.456 22.419L107.46 22.4194V24.2442ZM107.46 22.4194C107.964 22.4421 108.353 22.8695 108.331 23.3734C108.308 23.8772 107.88 24.2668 107.377 24.2442L107.46 22.4194ZM86.802 38.0099L85.3839 36.858V36.8583L86.435 35.599L87.4801 34.4149L88.5182 33.3029L89.5471 32.262L90.5645 31.2896L91.5691 30.3825L92.5598 29.5393L93.5334 28.7577L94.4892 28.035L95.4253 27.3695L96.3397 26.7583L97.2305 26.1993L98.0963 25.6906L98.9347 25.2295L99.7443 24.813L100.524 24.4403L101.27 24.1085L101.983 23.8144L102.659 23.557L103.298 23.3325L103.898 23.1402L104.455 22.9765L104.971 22.8397L105.44 22.7274L105.863 22.6363L106.239 22.5657L106.564 22.512L106.836 22.4731L107.055 22.4466L107.219 22.4308L107.321 22.4228L107.377 22.4194L107.46 24.2442L107.456 24.2445L107.381 24.2502L107.256 24.2623L107.076 24.2842L106.843 24.3171L106.559 24.364L106.226 24.4271L105.846 24.5084L105.419 24.6108L104.948 24.7355L104.435 24.8863L103.881 25.0643L103.288 25.2722L102.657 25.5122L101.991 25.7873L101.29 26.0988L100.557 26.4495L99.7933 26.8418L98.9996 27.278L98.1799 27.7603L97.3336 28.2913L96.4632 28.8729L95.5701 29.5083L94.6566 30.1984L93.7238 30.9468L92.7741 31.756L91.808 32.6275L90.8283 33.5645L89.8358 34.5683L88.8331 35.6425L87.8213 36.7888L86.802 38.0096V38.0099ZM86.802 38.0096C86.4841 38.4011 85.9089 38.4609 85.5174 38.143C85.1258 37.8251 85.066 37.2499 85.3839 36.8583L86.802 38.0096ZM61.1851 44.6476L62.0521 43.0397L62.0718 43.05L62.1719 43.1006L62.3432 43.1822L62.5832 43.2911L62.8874 43.4211L63.2548 43.5674L63.683 43.7257L64.1668 43.8905L64.705 44.0564L65.2931 44.219L65.9291 44.3724L66.6103 44.5126L67.3329 44.6343L68.0945 44.7322L68.8923 44.8018L69.7227 44.8388L70.5829 44.8369L71.4711 44.7923L72.3835 44.7001L73.3181 44.5554L74.2725 44.3531L75.2438 44.0886L76.2299 43.7563L77.2285 43.352L78.2372 42.8697L79.2539 42.3046L80.2763 41.6508L81.3013 40.9028L82.3274 40.0554L83.352 39.1022L84.3718 38.0391L85.3839 36.858L86.802 38.0099L85.7256 39.2651L84.6348 40.4031L83.5331 41.4282L82.423 42.3451L81.3081 43.158L80.1913 43.8724L79.0763 44.4926L77.9669 45.0233L76.8656 45.4692L75.7767 45.8362L74.7026 46.1288L73.6485 46.3521L72.6163 46.512L71.6094 46.6141L70.6313 46.6632L69.6849 46.6651L68.7729 46.625L67.8994 46.5486L67.066 46.4417L66.2754 46.3087L65.5316 46.1556L64.8365 45.9878L64.1932 45.8102L63.6044 45.6283L63.073 45.4477L62.6017 45.2735L62.1927 45.1105L61.8492 44.9639L61.5752 44.8399L61.3714 44.7424L61.2433 44.6782L61.1851 44.6476ZM61.1851 44.6476C60.7414 44.4083 60.5755 43.8539 60.8148 43.4102C61.054 42.9664 61.6084 42.8005 62.0521 43.0397L61.1851 44.6476Z" fill="#25548D"/>
<path d="M46.2816 43.0397C46.7253 42.8005 47.2798 42.9664 47.5191 43.4102C47.7583 43.8539 47.5924 44.4083 47.1487 44.6476L46.2816 43.0397ZM21.5318 38.0096L22.9498 36.8583V36.858L23.962 38.0391L24.9818 39.1022L26.0064 40.0554L27.0325 40.9028L28.0575 41.6508L29.0799 42.3046L30.0966 42.8697L31.1053 43.352L32.1039 43.7563L33.09 44.0886L34.0613 44.3531L35.0156 44.5554L35.9503 44.7001L36.8627 44.7923L37.7509 44.8369L38.6115 44.8388L39.4415 44.8018L40.2393 44.7322L41.0009 44.6343L41.7235 44.5126L42.4046 44.3724L43.0407 44.219L43.6288 44.0564L44.167 43.8905L44.6507 43.7257L45.079 43.5674L45.4464 43.4211L45.7506 43.2911L45.9906 43.1822L46.1618 43.1006L46.262 43.05L46.2816 43.0397L47.1487 44.6476L47.0905 44.6782L46.9623 44.7424L46.7586 44.8399L46.4846 44.9639L46.1411 45.1105L45.7321 45.2735L45.2608 45.4477L44.7294 45.6283L44.1405 45.8102L43.4972 45.9878L42.8022 46.1556L42.0584 46.3087L41.2677 46.4417L40.4344 46.5486L39.5609 46.625L38.6493 46.6651L37.7025 46.6632L36.7244 46.6141L35.7175 46.512L34.6853 46.3521L33.6312 46.1288L32.5571 45.8362L31.4682 45.4692L30.3668 45.0233L29.2575 44.4926L28.1425 43.8724L27.0257 43.158L25.9108 42.3451L24.8007 41.4282L23.6989 40.4031L22.6082 39.2651L21.5318 38.0099V38.0096ZM21.5318 38.0099C21.2139 37.6184 21.2732 37.0428 21.6648 36.7249C22.0564 36.407 22.632 36.4664 22.9498 36.858L21.5318 38.0099ZM0.871783 22.4194L0.954903 24.2442V22.4194L1.01049 22.4228L1.11251 22.4308L1.27653 22.4466L1.49577 22.4731L1.76787 22.512L2.09253 22.5657L2.46782 22.6363L2.89154 22.7274L3.36133 22.8397L3.87651 22.9765L4.43436 23.1402L5.03377 23.3325L5.67252 23.557L6.34944 23.8144L7.06187 24.1085L7.80832 24.4403L8.58807 24.813L9.39801 25.2295L10.2359 25.6906L11.1018 26.1993L11.993 26.7583L12.9073 27.3695L13.8435 28.035L14.799 28.7577L15.7733 29.5393L16.7639 30.3825L17.7689 31.2896L18.7864 32.262L19.8151 33.3029L20.8534 34.4149L21.8988 35.599L22.9498 36.8583L21.5318 38.0096L20.5125 36.7888L19.5003 35.6425L18.4976 34.5683L17.5051 33.5645L16.5254 32.6275L15.559 31.756L14.6092 30.9468L13.6764 30.1984L12.7625 29.5083L11.8694 28.8729L10.999 28.2913L10.1531 27.7603L9.33261 27.278L8.53928 26.8418L7.77547 26.4495L7.0426 26.0988L6.34147 25.7873L5.67518 25.5122L5.04432 25.2722L4.45097 25.0643L3.89688 24.8863L3.38362 24.7355L2.9131 24.6108L2.48635 24.5084L2.10574 24.4271L1.77282 24.364L1.48898 24.3171L1.25535 24.2842L1.07545 24.2623L0.949957 24.2502L0.875917 24.2445L0.871783 24.2442V22.4194ZM0.871783 24.2442C0.367972 24.2215 -0.0217356 23.794 0.000941563 23.2902C0.0236187 22.7864 0.451092 22.3967 0.954903 22.4194L0.871783 24.2442ZM21.5318 8.65512L22.9498 9.80636L21.8988 11.0657L20.8534 12.2498L19.8151 13.3614L18.7864 14.4023L17.7689 15.3751L16.7635 16.2818L15.7733 17.1247L14.7993 17.9067L13.8435 18.6293L12.9073 19.2949L11.9927 19.906L11.1018 20.4646L10.2359 20.9734L9.39764 21.4348L8.58807 21.8506L7.80832 22.2236L7.0615 22.5555L6.34944 22.8491L5.67252 23.1069L5.0334 23.331L4.43436 23.5234L3.87688 23.687L3.36169 23.8242L2.89117 23.9369L2.46745 24.0272L2.09253 24.0979L1.76861 24.1516L1.49577 24.1909L1.27579 24.217L1.11251 24.2328L1.01049 24.2408L0.954903 24.2442L0.871783 22.4194L0.875917 22.419L0.949957 22.4134L1.07626 22.4013L1.25535 22.3797L1.48817 22.3465L1.77282 22.2996L2.10618 22.2365L2.48672 22.1552L2.91273 22.0532L3.38325 21.9281L3.89688 21.7773L4.45133 21.5993L5.04432 21.3918L5.67518 21.1514L6.34184 20.8766L7.0426 20.5652L7.77547 20.2141L8.53965 19.8217L9.33261 19.386L10.1531 18.9037L10.9994 18.373L11.8694 17.7914L12.7625 17.156L13.676 16.4659L14.6092 15.7172L15.5594 14.9084L16.5254 14.0372L17.5051 13.1006L18.4976 12.096L19.5003 11.0222L20.5125 9.8759L21.5318 8.65512ZM21.5318 8.65512C21.8496 8.26356 22.4249 8.20383 22.8164 8.52169C23.208 8.83955 23.2677 9.4148 22.9498 9.80636L21.5318 8.65512ZM47.1487 2.01788L46.2816 3.62569L46.262 3.6155L46.1618 3.56486L45.9906 3.48322L45.7506 3.37437L45.446 3.24434L45.0786 3.0977L44.6507 2.93936L44.167 2.77456L43.6288 2.60865L43.0407 2.4461L42.4046 2.29267L41.7235 2.15245L41.0005 2.03076L40.239 1.93247L39.4419 1.86293L38.6115 1.82628L37.7509 1.82779L36.8627 1.87238L35.9503 1.96421L35.0156 2.10938L34.0613 2.31156L33.0896 2.57613L32.1039 2.90798L31.1053 3.31236L30.0966 3.79466L29.0799 4.35967L28.0575 5.01356L27.0325 5.76153L26.0064 6.6089L24.9818 7.56171L23.9624 8.62563L22.9498 9.80636L21.5318 8.65512L22.6078 7.39957L23.6989 6.26154L24.8007 5.23616L25.9108 4.31925L27.0257 3.50629L28.1425 2.79194L29.2575 2.17172L30.3668 1.64107L31.4682 1.19509L32.5574 0.82847L33.6312 0.535925L34.6853 0.312586L35.7175 0.152325L36.7244 0.0506398L37.7025 0.00151329L38.6493 0L39.5605 0.0396777L40.4347 0.116043L41.2681 0.223376L42.0584 0.356398L42.8022 0.509498L43.4972 0.677288L44.1405 0.854934L44.7294 1.03671L45.2608 1.21738L45.7325 1.39163L46.1414 1.55488L46.4846 1.70156L46.7586 1.8255L46.9623 1.92302L47.0905 1.98728L47.1487 2.01788ZM47.1487 2.01788C47.5924 2.25712 47.7583 2.81159 47.5191 3.2553C47.2798 3.69902 46.7253 3.86493 46.2816 3.62569L47.1487 2.01788Z" fill="#25548D"/>
<path d="M51.0408 22.398C51.0167 22.9018 50.5885 23.2907 50.0847 23.2665C49.5809 23.2423 49.1919 22.8141 49.2161 22.3103L51.0408 22.398ZM53.8755 17.6399L53.9685 19.4647H53.9678L53.8321 19.4749L53.6971 19.4923L53.5618 19.5168L53.428 19.5478L53.2961 19.5853L53.1638 19.6302L53.0327 19.6813L52.9045 19.7383L52.7783 19.8015L52.6539 19.8706L52.5315 19.9462L52.4132 20.0259L52.2979 20.1125L52.1845 20.204L52.0764 20.2992L51.9718 20.3998L51.8709 20.5056L51.7752 20.6137L51.6853 20.7256L51.5991 20.8423L51.519 20.9614L51.4441 21.0831L51.3749 21.209L51.3115 21.3352L51.2551 21.4629L51.2045 21.5937L51.1603 21.7256L51.1229 21.8583L51.0923 21.9921L51.0681 22.1274L51.0511 22.2623L51.0408 22.398L49.2161 22.3103L49.2331 22.0794L49.2622 21.8515L49.3023 21.627L49.3533 21.4055L49.4149 21.1874L49.4864 20.9738L49.5672 20.7645L49.6583 20.5581L49.7581 20.3578L49.8658 20.1639L49.9822 19.9734L50.107 19.7886L50.2385 19.6106L50.3783 19.4367L50.5254 19.2697L50.6784 19.1102L50.8383 18.956L51.0053 18.8086L51.177 18.6695L51.3557 18.5368L51.5405 18.4117L51.7295 18.2953L51.9249 18.1861L52.1252 18.0859L52.3305 17.9948L52.5394 17.9136L52.7526 17.8414L52.9714 17.779L53.193 17.7276L53.4174 17.6872L53.6453 17.6577L53.8763 17.6399H53.8755ZM53.8763 17.6399C54.3801 17.615 54.8094 18.0028 54.8344 18.5066C54.8593 19.0104 54.4716 19.4397 53.9678 19.4647L53.8763 17.6399ZM58.9805 21.8186L57.1739 22.0884V22.0888L57.1501 21.9546L57.1195 21.822L57.082 21.6912L57.0378 21.5604L56.9872 21.4316L56.9301 21.3057L56.8666 21.181L56.7967 21.0581L56.7215 20.9383L56.6406 20.8219L56.5537 20.7078L56.4618 20.597L56.3651 20.4904L56.2626 20.3873L56.1565 20.2879L56.0469 20.1941L55.9335 20.1053L55.8155 20.0207L55.6935 19.9409L55.5695 19.8668L55.444 19.7992L55.3151 19.7365L55.1836 19.6798L55.0521 19.6295L54.9187 19.586L54.7838 19.5482L54.6488 19.5172L54.5128 19.493L54.3766 19.4757L54.2399 19.4647L54.1049 19.4613L53.9685 19.4647L53.8755 17.6399L54.1065 17.6343L54.3366 17.6407L54.5641 17.6585L54.7894 17.6872L55.0124 17.7273L55.2327 17.7771L55.4493 17.8376L55.6621 17.9075L55.8715 17.9873L56.0756 18.0757L56.2763 18.1725L56.4728 18.2787L56.6633 18.3928L56.8481 18.5141L57.0287 18.6434L57.2041 18.7806L57.3735 18.9257L57.5356 19.0766L57.691 19.2342L57.8406 19.3989L57.9831 19.5701L58.1176 19.747L58.2454 19.9307L58.3645 20.1201L58.4752 20.3147L58.5772 20.515L58.6699 20.721L58.753 20.9315L58.8259 21.1462L58.889 21.3669L58.9401 21.591L58.9805 21.8182V21.8186ZM58.9805 21.8182C59.055 22.3167 58.711 22.7824 58.2125 22.8568C57.714 22.9313 57.2484 22.5873 57.1739 22.0888L58.9805 21.8182ZM54.8597 25.5395L55.3352 27.303L54.8752 25.5354L55.0059 25.4987L55.1352 25.4552L55.2634 25.405L55.3881 25.3486L55.5098 25.2863L55.6308 25.2164L55.7497 25.1408L55.8636 25.0607L55.975 24.9737L56.085 24.8807L56.1893 24.784L56.2899 24.6816L56.3874 24.5746L56.4789 24.4643L56.5669 24.3486L56.6504 24.2288L56.7279 24.1075L56.8005 23.9816L56.8681 23.8527L56.9294 23.7227L56.9853 23.5904L57.0344 23.4563L57.0779 23.3206L57.115 23.1838L57.146 23.0466L57.1697 22.9093L57.1875 22.771L57.1984 22.6331L57.2027 22.4959L57.2 22.3598L57.1902 22.2234L57.1739 22.0884L58.9805 21.8186L59.0089 22.048L59.0247 22.2767L59.0297 22.5057L59.0224 22.7336L59.0047 22.9585L58.9764 23.1822L58.9374 23.4041L58.8883 23.6229L58.8301 23.8383L58.7617 24.0511L58.6846 24.2602L58.5984 24.4658L58.5039 24.6668L58.4007 24.863L58.2896 25.0554L58.1698 25.2432L58.0432 25.4242L57.909 25.6011L57.7662 25.7727L57.6172 25.9371L57.4608 26.0955L57.2968 26.2474L57.1278 26.391L56.9513 26.5286L56.7665 26.6586L56.5778 26.7789L56.3828 26.8911L56.1803 26.995L55.9724 27.0884L55.7604 27.1719L55.5427 27.2448L55.3197 27.3072L54.8597 25.5395ZM55.3197 27.3072C54.8306 27.4297 54.334 27.1326 54.2115 26.6435C54.0891 26.1545 54.3861 25.6578 54.8752 25.5354L55.3197 27.3072ZM60.9947 28.6331L59.3226 29.3686V29.3689L59.2587 29.2325L59.188 29.0983L59.1109 28.9668L59.0285 28.8391L58.9393 28.7139L58.8445 28.5919L58.7439 28.4736L58.6381 28.3583L58.5285 28.2487L58.4136 28.1432L58.2934 28.0412L58.1695 27.9448L58.0424 27.8537L57.9117 27.7672L57.7775 27.687L57.6407 27.6119L57.502 27.5431L57.3599 27.4796L57.2177 27.4233L57.0726 27.373L56.9267 27.3288L56.7797 27.2913L56.6334 27.2611L56.4872 27.2373L56.3409 27.2207L56.1938 27.2112L56.048 27.2082L55.9032 27.2127L55.7592 27.2241L55.6167 27.2434L55.4754 27.2694L55.3352 27.303L54.8597 25.5395L55.0944 25.4824L55.3295 25.439L55.5657 25.4076L55.8019 25.3887L56.0374 25.3812L56.2717 25.3857L56.5042 25.4012L56.7358 25.4277L56.9652 25.4643L57.1924 25.5119L57.4158 25.569L57.6365 25.6351L57.8542 25.7111L58.0689 25.7962L58.279 25.8899L58.4858 25.9919L58.6876 26.1027L58.8845 26.2214L59.0773 26.348L59.2647 26.4821L59.4462 26.6246L59.6215 26.7728L59.7924 26.9296L59.9564 27.0937L60.1129 27.2634L60.2625 27.4399L60.405 27.6232L60.5403 27.8133L60.6673 28.0098L60.7852 28.2116L60.8945 28.4191L60.9947 28.6327V28.6331ZM60.9947 28.6327C61.1976 29.0942 60.9882 29.6339 60.5267 29.8368C60.0652 30.0398 59.5255 29.8304 59.3226 29.3689L60.9947 28.6327ZM59.8218 35.3723L58.4446 34.172L58.5489 34.048L58.6491 33.9206L58.7447 33.7895L58.8361 33.6546L58.9238 33.5155L59.007 33.3745L59.0848 33.2309L59.1589 33.0827L59.2277 32.9345L59.2912 32.783L59.3509 32.6292L59.4042 32.475L59.4529 32.3174L59.4968 32.1601L59.5346 32.0021L59.5675 31.8419L59.5947 31.6816L59.6166 31.521L59.6332 31.3608L59.6438 31.2009L59.6487 31.0414L59.6483 30.883L59.6419 30.7247L59.6294 30.5663L59.6121 30.4106L59.5883 30.2568L59.5584 30.1033L59.5232 29.9525L59.482 29.8032L59.4348 29.6562L59.3819 29.5114L59.3226 29.3686L60.9947 28.6331L61.0835 28.8462L61.1628 29.0628L61.2327 29.2809L61.2936 29.5012L61.3454 29.7223L61.3881 29.9446L61.4224 30.1687L61.4482 30.3932L61.4652 30.6166L61.4746 30.8414L61.4757 31.0663L61.4686 31.2908L61.4534 31.515L61.4308 31.738L61.4006 31.9591L61.3628 32.1798L61.3178 32.3982L61.2656 32.6167L61.2059 32.8329L61.1398 33.0449L61.066 33.2573L60.9859 33.4656L60.899 33.6723L60.8045 33.8764L60.7048 34.0752L60.5974 34.2733L60.484 34.4664L60.3646 34.6554L60.2384 34.8409L60.1057 35.0227L59.9669 35.2L59.8218 35.3723ZM59.8218 35.3723C59.4904 35.7526 58.9132 35.7923 58.533 35.4608C58.1528 35.1293 58.1131 34.5522 58.4446 34.172L59.8218 35.3723ZM53.6325 38.0687L53.6128 36.2416H53.6125L53.784 36.2379L53.9557 36.2296L54.1279 36.2174L54.2999 36.2016L54.4711 36.1812L54.642 36.157L54.8117 36.129L54.981 36.0965L55.15 36.0602L55.3163 36.0202L55.4826 35.9755L55.6481 35.9272L55.811 35.875L55.9724 35.8191L56.1323 35.759L56.2902 35.6951L56.4459 35.6279L56.599 35.5564L56.7498 35.4812L56.8987 35.4022L57.045 35.3191L57.1875 35.2333L57.3281 35.1429L57.466 35.0492L57.5999 34.9524L57.731 34.8511L57.8595 34.7465L57.9831 34.6395L58.1037 34.5276L58.2216 34.4127L58.3342 34.2944L58.4446 34.172L59.8218 35.3723L59.6737 35.5371L59.5203 35.697L59.363 35.8512L59.2016 36.0001L59.0349 36.1449L58.8656 36.2829L58.6929 36.4159L58.5152 36.5444L58.3357 36.6668L58.1528 36.7844L57.9665 36.8966L57.7778 37.0032L57.5858 37.1056L57.392 37.202L57.195 37.2939L56.9963 37.38L56.796 37.4613L56.593 37.5373L56.3885 37.6083L56.1825 37.6741L55.9754 37.7345L55.7668 37.7905L55.5559 37.8411L55.3454 37.8865L55.133 37.9273L54.9194 37.9628L54.7062 37.9931L54.4919 38.018L54.2777 38.0384L54.063 38.0535L53.8483 38.0634L53.6328 38.0687H53.6325ZM53.6328 38.0687C53.1287 38.074 52.7144 37.6695 52.7091 37.1654C52.7039 36.6612 53.1083 36.2469 53.6125 36.2416L53.6328 38.0687ZM47.2984 36.188L48.244 34.6248L48.3997 34.7174L48.5558 34.8077L48.7142 34.8961L48.8733 34.9823L49.0332 35.0658L49.1949 35.1475L49.3571 35.2265L49.5208 35.3024L49.6852 35.3769L49.8499 35.4479L50.0159 35.5164L50.1829 35.5821L50.35 35.6452L50.5181 35.7053L50.6875 35.7628L50.8568 35.8172L51.0265 35.8682L51.197 35.9166L51.3678 35.962L51.5394 36.0039L51.7113 36.0428L51.8822 36.078L52.0549 36.1101L52.228 36.1388L52.4004 36.1645L52.5735 36.1864L52.7462 36.2046L52.9193 36.2193L53.0928 36.2307L53.2659 36.2382L53.4394 36.2416H53.6128L53.6325 38.0687H53.4197L53.2069 38.0637L52.9945 38.0547L52.7833 38.0411L52.5724 38.0233L52.3618 38.0006L52.1531 37.9742L51.9445 37.9439L51.7374 37.9092L51.5314 37.871L51.3243 37.8283L51.1206 37.7818L50.9173 37.7323L50.7147 37.6786L50.5133 37.6219L50.3133 37.5611L50.1145 37.4976L49.9172 37.4303L49.7203 37.3604L49.5253 37.2867L49.3318 37.2103L49.1394 37.1306L48.9481 37.0482L48.7588 36.9632L48.5709 36.8751L48.3839 36.784L48.1994 36.691L48.0161 36.5954L47.8343 36.4971L47.654 36.3966L47.4752 36.2934L47.2984 36.188ZM47.2984 36.188C46.8667 35.9272 46.7288 35.3652 46.9896 34.9336C47.2504 34.5019 47.8124 34.364 48.244 34.6248L47.2984 36.188Z" fill="#25548D"/>
<path d="M47.8003 12.8127C47.4344 12.4657 47.4194 11.8874 47.7663 11.5216C48.1133 11.1557 48.6916 11.1406 49.0574 11.4876L47.8003 12.8127ZM54.2901 13.4068L54.3922 15.2308L54.1654 15.2406L53.9398 15.244L53.7145 15.2418L53.4874 15.2339L53.2621 15.2195L53.0376 15.1995L52.8135 15.1737L52.5913 15.1428L52.3686 15.1061L52.1472 15.0634L51.9276 15.0158L51.7087 14.9621L51.4914 14.9035L51.2752 14.8389L51.0613 14.7689L50.8504 14.6945L50.6399 14.6147L50.4313 14.5293L50.2249 14.4386L50.0212 14.343L49.8201 14.2425L49.6213 14.1366L49.4259 14.0267L49.232 13.911L49.0411 13.7904L48.8537 13.6649L48.6696 13.5345L48.4889 13.4L48.311 13.2602L48.137 13.1158L47.9666 12.9665L47.8003 12.8127L49.0574 11.4876L49.1882 11.6081L49.3224 11.7257L49.4591 11.8391L49.5994 11.9494L49.743 12.0568L49.8893 12.16L50.0374 12.259L50.1883 12.3546L50.342 12.446L50.4989 12.5349L50.6569 12.6188L50.8179 12.6989L50.9808 12.7756L51.1448 12.8474L51.3104 12.9155L51.4785 12.9794L51.6486 13.0394L51.8195 13.095L51.9911 13.146L52.1645 13.1933L52.3387 13.2356L52.5145 13.2741L52.6899 13.3078L52.8664 13.3369L53.044 13.3618L53.2221 13.3823L53.4004 13.3978L53.5781 13.4091L53.7553 13.4155L53.9345 13.417L54.1125 13.4144L54.2901 13.4068ZM54.2901 13.4068C54.7936 13.3788 55.2252 13.7644 55.2532 14.2678C55.2812 14.7712 54.8956 15.2029 54.3922 15.2308L54.2901 13.4068ZM59.2776 10.9169L60.6745 12.0946L60.5264 12.2654L60.3733 12.4332L60.2165 12.5961L60.0558 12.7545L59.8906 12.9087L59.7217 13.0587L59.5497 13.2038L59.374 13.3445L59.1945 13.4809L59.0119 13.6128L58.826 13.7398L58.637 13.8623L58.445 13.9798L58.2507 14.092L58.0534 14.2001L57.8531 14.3033L57.6505 14.4008L57.4461 14.4938L57.2389 14.5815L57.0296 14.6643L56.8187 14.7417L56.6055 14.8139L56.3897 14.8812L56.1728 14.9424L55.9554 14.998L55.7351 15.0486L55.5144 15.0936L55.2921 15.1325L55.068 15.1662L54.8435 15.1938L54.6182 15.2153L54.3922 15.2308L54.2901 13.4068L54.4678 13.3943L54.6454 13.3773L54.8223 13.3558L54.9981 13.3297L55.1742 13.2983L55.3495 13.2632L55.5238 13.2231L55.698 13.1781L55.8704 13.1298L56.0408 13.0769L56.2109 13.019L56.3794 12.9574L56.5465 12.8913L56.7121 12.821L56.8757 12.7469L57.0375 12.6683L57.197 12.5863L57.355 12.5001L57.5106 12.4098L57.6634 12.3164L57.8138 12.2189L57.962 12.1176L58.1075 12.0129L58.2499 11.9044L58.3894 11.7926L58.5266 11.6769L58.66 11.5586L58.7904 11.4362L58.9178 11.3111L59.0414 11.1829L59.1612 11.0522L59.2776 10.9169ZM59.2776 10.9169C59.6026 10.5313 60.1794 10.4822 60.5649 10.8073C60.9504 11.1323 60.9996 11.709 60.6745 12.0946L59.2776 10.9169Z" fill="#25548D"/>
<path d="M54.1329 10.8764L54.0867 12.7026H54.089L53.9756 12.697L53.8622 12.6852L53.7492 12.6671L53.6423 12.6444L53.5365 12.6161L53.431 12.5821L53.3278 12.5428L53.2281 12.4981L53.1328 12.4501L53.0409 12.398L52.951 12.3413L52.8644 12.2804L52.7824 12.2166L52.702 12.1485L52.6252 12.076L52.5542 12.0034L52.4854 11.9267L52.42 11.8462L52.3591 11.7646L52.3005 11.6784L52.2472 11.591L52.1981 11.5038L52.1513 11.4111L52.1078 11.3148L52.0696 11.2184L52.036 11.1224L52.0061 11.023L51.9801 10.9213L51.9585 10.8174L51.9418 10.7134L51.9298 10.6084L51.9222 10.5014L53.747 10.4153L53.7485 10.4391L53.7515 10.4632L53.7553 10.487L53.7602 10.5101L53.7659 10.5332L53.7731 10.5562L53.7818 10.5812L53.7904 10.6035L53.7991 10.6228L53.8097 10.6435L53.8226 10.6666L53.835 10.6866L53.8475 10.7048L53.8615 10.7237L53.8755 10.7406L53.8899 10.7569L53.9057 10.7735L53.9197 10.7864L53.9337 10.7985L53.9499 10.811L53.9647 10.8212L53.9798 10.831L53.9961 10.8401L54.0111 10.848L54.0255 10.854L54.0387 10.8594L54.0528 10.8639L54.0686 10.868L54.0856 10.8718L54.0988 10.8741L54.114 10.8752L54.1306 10.8764H54.1329ZM54.1306 10.8764C54.6348 10.8877 55.0343 11.3061 55.023 11.8103C55.0116 12.3145 54.5932 12.7139 54.089 12.7026L54.1306 10.8764ZM54.45 10.7815L55.6625 12.1474L55.6621 12.1478L55.619 12.1852L55.5732 12.2222L55.5298 12.2559L55.4874 12.2872L55.4379 12.3213L55.3922 12.3511L55.3487 12.3783L55.2962 12.409L55.2471 12.4358L55.2017 12.4596L55.1511 12.4842L55.102 12.5065L55.0524 12.5276L55.0007 12.5484L54.953 12.5658L54.9066 12.5821L54.8502 12.6002L54.798 12.6153L54.7558 12.6266L54.7021 12.6403L54.6438 12.6531L54.597 12.6622L54.549 12.6705L54.4953 12.6788L54.4424 12.686L54.394 12.6913L54.3452 12.6958L54.292 12.6996L54.2384 12.7019L54.1846 12.7034H54.1366L54.0867 12.7026L54.1329 10.8764H54.1473H54.1635H54.1741L54.1846 10.8756L54.1956 10.8749L54.2111 10.8733L54.2262 10.8718L54.2368 10.8707L54.2466 10.8692L54.2614 10.8661L54.2773 10.8631L54.2818 10.8624L54.2901 10.8601L54.309 10.8548L54.3181 10.8525L54.3222 10.851L54.3362 10.8461L54.3483 10.8416L54.3555 10.8389L54.3641 10.8351L54.3732 10.831L54.3801 10.8276L54.3914 10.8219L54.3982 10.8185L54.4008 10.8166L54.4118 10.8098L54.4197 10.8049L54.4224 10.8027L54.4322 10.7955L54.4402 10.7898L54.4443 10.786L54.4504 10.7811L54.45 10.7815ZM54.4504 10.7811C54.8276 10.4466 55.405 10.4814 55.7395 10.8586C56.074 11.2358 56.0393 11.8133 55.6621 12.1478L54.4504 10.7811ZM54.408 9.98061L55.4897 8.50811L55.486 8.50545L55.596 8.59086L55.6987 8.68232L55.7944 8.7791L55.8839 8.88152L55.9652 8.98734L56.0378 9.09393L56.1054 9.20581L56.1659 9.32181L56.2188 9.43749L56.2653 9.55578L56.305 9.67445L56.3386 9.79503L56.3658 9.91598L56.3874 10.0399L56.4025 10.1643L56.4111 10.2867L56.4142 10.4096L56.4111 10.5347L56.4017 10.6598L56.3862 10.7822L56.3643 10.9058L56.336 11.0287L56.3012 11.1508L56.2592 11.2717L56.2105 11.3919L56.1545 11.5083L56.0922 11.6232L56.0207 11.7366L55.9429 11.8454L55.8567 11.9516L55.763 12.0525L55.6625 12.1474L54.45 10.7815L54.4643 10.7675L54.478 10.7528L54.4908 10.7373L54.5037 10.7191L54.5153 10.7002L54.5278 10.6775L54.5392 10.6534L54.5494 10.6284L54.5588 10.6012L54.5671 10.5721L54.5743 10.5415L54.5796 10.5101L54.5838 10.4761L54.5864 10.4432L54.5871 10.4096L54.5864 10.3744L54.5838 10.3389L54.58 10.306L54.5743 10.2743L54.5668 10.241L54.5581 10.2096L54.5479 10.1794L54.5369 10.1511L54.5248 10.1246L54.5127 10.1016L54.4995 10.0796L54.4844 10.0569L54.4704 10.0388L54.4572 10.0233L54.4424 10.009L54.4273 9.99534L54.4118 9.98323L54.408 9.98061ZM54.4118 9.98323C54.004 9.68692 53.9137 9.11508 54.21 8.70727C54.5063 8.29946 55.0782 8.20914 55.486 8.50545L54.4118 9.98323ZM54.0849 9.9175L53.8687 8.10332H53.8702L53.9235 8.09764L53.9715 8.09347L54.0195 8.09007L54.0728 8.08782L54.1208 8.08668L54.1744 8.08594L54.2281 8.08704L54.2765 8.08896L54.3249 8.09158L54.3785 8.09576L54.4318 8.1014L54.4848 8.10786L54.5384 8.1158L54.5864 8.1241L54.6344 8.13318L54.6873 8.14451L54.7451 8.1585L54.7924 8.17098L54.8446 8.18607L54.8975 8.20309L54.9485 8.22084L54.9991 8.23974L55.0494 8.25978L55.1008 8.28244L55.1514 8.30551L55.1998 8.32969L55.2452 8.35353L55.2985 8.38298L55.3529 8.41587L55.396 8.44348L55.4402 8.47293L55.4897 8.50811L54.408 9.98061L54.4046 9.97795L54.3951 9.9719L54.3846 9.96474L54.3839 9.96433L54.3812 9.96282L54.3698 9.95717L54.3607 9.95263L54.354 9.94924L54.3464 9.94621L54.3377 9.94281L54.3286 9.93901L54.3199 9.93639L54.3124 9.93374L54.3033 9.93148L54.2894 9.92731L54.2852 9.92617L54.2762 9.92466L54.2614 9.92163L54.2466 9.91938L54.2368 9.9175L54.2262 9.91635L54.216 9.91521L54.2062 9.91484L54.1903 9.91369L54.1744 9.91332L54.1639 9.91296H54.1533L54.1378 9.91332L54.1268 9.9141L54.1106 9.91521L54.0943 9.91635L54.0833 9.9175H54.0849ZM54.0833 9.9175C53.5825 9.97608 53.1282 9.61775 53.0697 9.11697C53.0111 8.61618 53.3694 8.1619 53.8702 8.10332L54.0833 9.9175ZM53.747 10.4153L51.9222 10.5014V10.5025L51.9196 10.3956L51.9215 10.2905L51.9283 10.1855L51.9393 10.0812L51.9559 9.97378L51.9762 9.87287L52.0005 9.77499L52.0295 9.67445L52.0628 9.57619L52.0999 9.48056L52.1415 9.3857L52.1871 9.2931L52.2363 9.20315L52.2881 9.11774L52.3444 9.03233L52.4082 8.945L52.4722 8.86639L52.5402 8.78855L52.615 8.71144L52.6902 8.64076L52.7688 8.57347L52.8535 8.50733L52.9419 8.44573L53.0304 8.38981L53.1268 8.33537L53.2235 8.28739L53.3237 8.24354L53.4283 8.20423L53.5346 8.17057L53.6449 8.14222L53.7557 8.11993L53.8687 8.10332L54.0849 9.9175L54.0686 9.91975L54.0523 9.92314L54.0387 9.92654L54.024 9.93148L54.0108 9.93599L53.9961 9.94281L53.9809 9.94998L53.9692 9.9568L53.9526 9.96736L53.9389 9.97681L53.9261 9.98703L53.9102 10.0006L53.8955 10.0146L53.8834 10.0267L53.8699 10.0426L53.8551 10.0607L53.8449 10.0747L53.8324 10.0936L53.8191 10.1155L53.8078 10.1359L53.7977 10.1567L53.7886 10.1775L53.7795 10.2006L53.7719 10.2225L53.7655 10.2444L53.7594 10.2712L53.7542 10.2958L53.7512 10.3162L53.7485 10.3404L53.747 10.3646L53.7466 10.3903L53.747 10.4141V10.4153ZM53.747 10.4141C53.7712 10.9179 53.3826 11.3465 52.8788 11.3707C52.375 11.3949 51.9464 11.0064 51.9222 10.5025L53.747 10.4141ZM53.747 10.4141C53.7712 10.9179 53.3826 11.3465 52.8788 11.3707C52.375 11.3949 51.9464 11.0064 51.9222 10.5025L53.747 10.4141Z" fill="#25548D"/>
</svg>
