<svg width="90" height="102" viewBox="0 0 90 102" fill="none" xmlns="http://www.w3.org/2000/svg">
<path d="M61.8492 67.9399L60.5574 66.648L61.345 65.82L62.0809 64.962L62.7665 64.0772L63.4007 63.1667L63.9842 62.2328L64.5175 61.2773L64.9994 60.3022L65.4307 59.3093L65.8113 58.3002L66.1412 57.2774L66.4205 56.243L66.6488 55.1983L66.8265 54.1458L66.9534 53.0871L67.0298 52.0247L67.0547 50.96L67.0298 49.8957L66.9534 48.8332L66.8265 47.7746L66.6488 46.722L66.4205 45.6773L66.1412 44.6429L65.8113 43.6201L65.4307 42.611L64.9994 41.6181L64.5175 40.643L63.9842 39.6875L63.4007 38.7536L62.7665 37.8431L62.0809 36.9583L61.345 36.1004L60.5574 35.2723L61.8492 33.9805L62.7003 34.8758L63.4967 35.8033L64.2382 36.7614L64.9253 37.7467L65.5573 38.7578L66.1344 39.7934L66.6564 40.8493L67.1239 41.9246L67.5355 43.0169L67.8927 44.1243L68.1954 45.2442L68.4426 46.375L68.6346 47.5138L68.7722 48.6586L68.8545 49.8087L68.8818 50.96L68.8545 52.1116L68.7722 53.2617L68.6346 54.4065L68.4426 55.5453L68.1954 56.6761L67.8927 57.796L67.5355 58.9034L67.1239 59.9957L66.6564 61.071L66.1344 62.127L65.5573 63.1625L64.9253 64.1736L64.2382 65.1589L63.4967 66.117L62.7003 67.0445L61.8492 67.9399ZM61.8492 67.9399C61.4928 68.2963 60.9138 68.2963 60.5574 67.9399C60.2009 67.5835 60.2009 67.0044 60.5574 66.648L61.8492 67.9399ZM27.8894 67.9399L29.1812 66.648L30.0093 67.4357L30.8669 68.1716L31.7521 68.8572L32.6625 69.4914L33.5968 70.0749L34.5523 70.6082L35.527 71.0901L36.5203 71.5214L37.5294 71.902L38.5518 72.2319L39.5866 72.5112L40.6309 72.7395L41.6835 72.9171L42.7425 73.0441L43.8046 73.1205L44.8693 73.1458L45.934 73.1205L46.996 73.0441L48.0551 72.9171L49.1077 72.7395L50.1519 72.5112L51.1868 72.2319L52.2091 71.902L53.2183 71.5214L54.2115 71.0901L55.1863 70.6082L56.1417 70.0749L57.076 69.4914L57.9865 68.8572L58.8717 68.1716L59.7293 67.4357L60.5574 66.648L61.8492 67.9399L60.9538 68.791L60.0259 69.5874L59.0682 70.3289L58.0829 71.016L57.0715 71.648L56.0366 72.2251L54.9803 72.747L53.9046 73.2146L52.8123 73.6262L51.7053 73.9833L50.5851 74.2861L49.4546 74.5333L48.3158 74.7253L47.1706 74.8628L46.0209 74.9452L44.8693 74.9728L43.7177 74.9452L42.5679 74.8628L41.4227 74.7253L40.284 74.5333L39.1535 74.2861L38.0333 73.9833L36.9262 73.6262L35.8339 73.2146L34.7583 72.747L33.7019 72.2251L32.6671 71.648L31.6557 71.016L30.6704 70.3289L29.7126 69.5874L28.7848 68.791L27.8894 67.9399ZM27.8894 67.9399C27.533 67.5835 27.533 67.0044 27.8894 66.648C28.2458 66.2916 28.8248 66.2916 29.1812 66.648L27.8894 67.9399ZM27.8894 33.9805L29.1812 35.2723L28.3939 36.1004L27.6577 36.9583L26.9721 37.8431L26.3379 38.7536L25.7543 39.6871L25.2214 40.643L24.7395 41.6181L24.3079 42.6114L23.9273 43.6201L23.5974 44.6429L23.3184 45.6773L23.0901 46.722L22.9125 47.7746L22.7855 48.8332L22.7092 49.8957L22.6838 50.96L22.7092 52.0247L22.7855 53.0871L22.9125 54.1458L23.0901 55.1983L23.3184 56.243L23.5974 57.2774L23.9273 58.3002L24.3079 59.3089L24.7395 60.3022L25.2214 61.2773L25.7543 62.2332L26.3379 63.1667L26.9721 64.0772L27.6577 64.962L28.3939 65.82L29.1812 66.648L27.8894 67.9399L27.0386 67.0445L26.2419 66.117L25.5003 65.1589L24.8132 64.1736L24.1813 63.1622L23.6045 62.127L23.0826 61.071L22.6154 59.996L22.2031 58.9034L21.8459 57.796L21.5435 56.6761L21.2964 55.5453L21.1044 54.4065L20.9668 53.2617L20.8844 52.1116L20.8568 50.96L20.8844 49.8087L20.9668 48.6586L21.1044 47.5138L21.2964 46.375L21.5435 45.2442L21.8459 44.1243L22.2031 43.0169L22.6154 41.9243L23.0826 40.8493L23.6045 39.7934L24.1813 38.7581L24.8132 37.7467L25.5003 36.7614L26.2419 35.8033L27.0386 34.8758L27.8894 33.9805ZM27.8894 33.9805C28.2458 33.624 28.8248 33.624 29.1812 33.9805C29.5376 34.3369 29.5376 34.9159 29.1812 35.2723L27.8894 33.9805ZM61.8492 33.9805L60.5574 35.2723L59.7293 34.4846L58.8717 33.7487L57.9865 33.0631L57.076 32.4289L56.1417 31.8454L55.1863 31.3121L54.2115 30.8302L53.2183 30.3989L52.2091 30.0184L51.1868 29.6884L50.1519 29.4091L49.1077 29.1808L48.0551 29.0032L46.996 28.8762L45.934 28.7998L44.8693 28.7745L43.8046 28.7998L42.7425 28.8762L41.6835 29.0032L40.6309 29.1808L39.5866 29.4091L38.5518 29.6884L37.5294 30.0184L36.5203 30.3989L35.527 30.8302L34.5523 31.3121L33.5968 31.8454L32.6625 32.4289L31.7521 33.0631L30.8669 33.7487L30.0093 34.4846L29.1812 35.2723L27.8894 33.9805L28.7848 33.1293L29.7126 32.3329L30.6704 31.5914L31.6557 30.9043L32.6671 30.2723L33.7019 29.6952L34.7583 29.1733L35.8339 28.7057L36.9262 28.2942L38.0333 27.937L39.1535 27.6342L40.284 27.3871L41.4227 27.1951L42.5679 27.0575L43.7177 26.9751L44.8693 26.9475L46.0209 26.9751L47.1706 27.0575L48.3158 27.1951L49.4546 27.3871L50.5851 27.6342L51.7053 27.937L52.8123 28.2942L53.9046 28.7057L54.9803 29.1733L56.0366 29.6952L57.0715 30.2723L58.0829 30.9043L59.0682 31.5914L60.0259 32.3329L60.9538 33.1293L61.8492 33.9805ZM61.8492 33.9805C62.2056 34.3369 62.2056 34.9159 61.8492 35.2723C61.4928 35.6287 60.9138 35.6287 60.5574 35.2723L61.8492 33.9805Z" fill="#E68C42"/>
<path d="M29.109 76.3014C29.5814 76.1252 30.1079 76.366 30.2841 76.8384C30.4602 77.3109 30.2194 77.8374 29.747 78.0135L29.109 76.3014ZM18.4016 77.4643L19.0872 75.7711L19.4856 75.9276L19.8782 76.0727L20.2641 76.2065L20.6447 76.329L21.0189 76.4408L21.3874 76.5421L21.7499 76.6328L22.1067 76.7137L22.4578 76.7848L22.8036 76.8468L23.1423 76.8989L23.4775 76.9424L23.8059 76.9775L24.1287 77.0036L24.447 77.0218L24.7595 77.0319L25.0668 77.0342L25.3692 77.0289L25.6674 77.0168L25.9595 76.9979L26.2464 76.9715L26.5295 76.939L26.8076 76.9L27.0813 76.8551L27.3493 76.8044L27.6138 76.7477L27.8738 76.6857L28.1293 76.6185L28.3803 76.5463L28.6275 76.4692L28.8705 76.3875L29.109 76.3014L29.747 78.0135L29.4715 78.1125L29.1906 78.207L28.9049 78.2962L28.6139 78.3797L28.3183 78.4576L28.0167 78.5294L27.7106 78.5952L27.3987 78.6541L27.082 78.7059L26.7608 78.7509L26.4338 78.7887L26.1016 78.8189L25.7641 78.8408L25.4228 78.8552L25.0751 78.8612L24.7225 78.8582L24.3653 78.8465L24.0032 78.8261L23.6351 78.7963L23.2628 78.7565L22.886 78.7078L22.5027 78.6488L22.1153 78.5793L21.7234 78.4999L21.3258 78.41L20.9233 78.3087L20.5155 78.1968L20.1027 78.0736L19.6851 77.939L19.2622 77.7924L18.8347 77.6344L18.4016 77.4643ZM18.4016 77.4643C17.9341 77.2754 17.7088 76.7425 17.8978 76.2749C18.0868 75.8074 18.6197 75.5821 19.0872 75.7711L18.4016 77.4643ZM0.541052 74.4176L1.49501 75.9756L0.613616 74.3776L0.655582 74.3576L0.724732 74.3262L0.833966 74.2789L0.982508 74.2189L1.16807 74.1485L1.38956 74.0703L1.64771 73.9857L1.9425 73.8964L2.27283 73.8054L2.63945 73.7139L3.04084 73.6247L3.47737 73.5393L3.94905 73.4599L4.45513 73.3885L4.99523 73.3269L5.56934 73.2774L6.1767 73.2426L6.81734 73.2233L7.49123 73.2222L8.19762 73.2415L8.93576 73.2831L9.70565 73.3484L10.5077 73.4403L11.3407 73.5601L12.2047 73.7101L13.0985 73.8927L14.0234 74.1089L14.9777 74.3613L15.9619 74.6516L16.9748 74.9823L18.0165 75.3546L19.0872 75.7711L18.4016 77.4643L17.3777 77.066L16.3837 76.7111L15.4192 76.3963L14.4849 76.1203L13.5812 75.8815L12.7077 75.6774L11.8653 75.5054L11.0534 75.3644L10.2733 75.2522L9.52424 75.1664L8.8065 75.1055L8.12052 75.067L7.46704 75.0492L6.84532 75.0496L6.25607 75.0674L5.69935 75.0998L5.17588 75.1448L4.68493 75.2004L4.22799 75.265L3.80392 75.3368L3.41349 75.4132L3.05746 75.4926L2.73545 75.5727L2.4482 75.6517L2.19574 75.728L1.97766 75.7998L1.79472 75.8645L1.64771 75.9204L1.53696 75.9654L1.46098 75.9983L1.41828 76.0175L1.42243 76.0156L0.541052 74.4176ZM1.42243 76.0156C0.9704 76.2386 0.422004 76.0531 0.199012 75.601C-0.0239798 75.149 0.161585 74.6006 0.613616 74.3776L1.42243 76.0156ZM8.36846 59.2814L10.1668 59.6042L9.94792 60.732L9.70792 61.8118L9.44714 62.8451L9.16821 63.8327L8.87303 64.7746L8.5631 65.6722L8.24033 66.526L7.90698 67.3367L7.56416 68.1058L7.21419 68.833L6.85892 69.5194L6.50023 70.166L6.14042 70.7734L5.77985 71.343L5.42231 71.8748L5.06894 72.3699L4.72083 72.8295L4.3803 73.2539L4.05035 73.6432L3.73173 74L3.42634 74.3239L3.13684 74.6161L2.86395 74.8772L2.61073 75.1082L2.37828 75.31L2.16889 75.4831L1.98408 75.629L1.82609 75.7477L1.69645 75.8414L1.59781 75.9087L1.53545 75.9502L1.49501 75.9756L0.541052 74.4176L0.535387 74.421L0.575821 74.3946L0.644233 74.3477L0.741378 74.2782L0.867609 74.1829L1.01916 74.0635L1.19605 73.9169L1.39599 73.7438L1.61595 73.5431L1.85558 73.3136L2.11258 73.0548L2.38547 72.7656L2.67158 72.4451L2.97054 72.0921L3.27933 71.707L3.59642 71.2882L3.92033 70.8347L4.2499 70.3452L4.58175 69.8202L4.9151 69.2574L5.24883 68.6569L5.57917 68.0174L5.90647 67.3378L6.22736 66.6178L6.54105 65.8563L6.84493 65.0516L7.13747 64.2038L7.41752 63.3119L7.68209 62.3742L7.93003 61.3908L8.15944 60.3601L8.36846 59.2814ZM8.36846 59.2814C8.45728 58.7852 8.93274 58.4548 9.429 58.5436C9.92525 58.6324 10.2556 59.1079 10.1668 59.6042L8.36846 59.2814ZM12.7618 50.4313L14.0393 51.7367L13.8805 51.8955L13.7229 52.0587L13.5668 52.2265L13.4126 52.3992L13.2596 52.5777L13.1087 52.7606L12.9598 52.9488L12.8128 53.1419L12.6677 53.3415L12.5244 53.5463L12.3842 53.7554L12.2463 53.9704L12.1106 54.1926L11.9771 54.4198L11.8475 54.6515L11.7201 54.8907L11.5954 55.136L11.4745 55.3866L11.3566 55.6444L11.2413 55.9082L11.1298 56.1784L11.0224 56.4547L10.9181 56.7385L10.8176 57.0288L10.7216 57.3259L10.629 57.6298L10.5409 57.9408L10.4566 58.2587L10.3777 58.5841L10.3024 58.917L10.2321 59.2568L10.1668 59.6042L8.36846 59.2814L8.4399 58.9023L8.517 58.5308L8.59901 58.1668L8.68632 57.8089L8.77891 57.4585L8.87605 57.115L8.97848 56.7778L9.08581 56.4483L9.19768 56.1255L9.31334 55.8092L9.43429 55.4989L9.55938 55.1954L9.68827 54.899L9.82131 54.6088L9.95889 54.3249L10.0995 54.0479L10.2435 53.7769L10.392 53.5112L10.5436 53.2531L10.6982 53.0013L10.8558 52.7545L11.0172 52.5138L11.1808 52.2802L11.3471 52.0519L11.516 51.8293L11.6876 51.6124L11.8619 51.4015L12.0376 51.1966L12.216 50.9967L12.3963 50.8024L12.5781 50.6142L12.7618 50.4313ZM12.7618 50.4313C13.122 50.0786 13.7006 50.0851 14.0533 50.4453C14.4059 50.8054 14.3995 51.3841 14.0393 51.7367L12.7618 50.4313Z" fill="#E68C42"/>
<path d="M60.7667 25.6511C60.2909 25.8174 59.7693 25.5664 59.603 25.0906C59.4367 24.6147 59.6876 24.0932 60.1635 23.9269L60.7667 25.6511ZM71.3369 24.5354L70.6513 26.2286H70.6517L70.2654 26.077L69.8844 25.9364L69.5091 25.8068L69.1387 25.6877L68.7729 25.5785L68.4131 25.4795L68.0582 25.3907L67.7078 25.3109L67.3635 25.2406L67.0241 25.1798L66.6885 25.1276L66.3585 25.0834L66.0346 25.0478L65.7149 25.0206L65.3993 25.0014L65.0893 24.9893L64.7847 24.9847L64.4842 24.9874L64.1883 24.9968L63.8973 25.0131L63.6116 25.0358L63.33 25.0649L63.0526 25.0996L62.7812 25.1405L62.5136 25.187L62.2502 25.2387L61.9916 25.2958L61.7377 25.3574L61.4882 25.4247L61.2433 25.4957L61.0025 25.5717L60.7667 25.6511L60.1635 23.9269L60.4364 23.8346L60.7142 23.7473L60.9969 23.6649L61.2856 23.5878L61.5789 23.5164L61.8775 23.4503L62.181 23.3909L62.4894 23.3369L62.8039 23.29L63.1221 23.25L63.446 23.2163L63.7748 23.1906L64.1082 23.1721L64.4464 23.1611L64.79 23.1577L65.1385 23.163L65.4915 23.1766L65.8487 23.1989L66.2115 23.2299L66.5792 23.27L66.9507 23.3195L67.3265 23.3784L67.7074 23.4469L68.0933 23.5255L68.483 23.6143L68.8772 23.7129L69.2763 23.8225L69.6792 23.9423L70.0874 24.0735L70.4997 24.216L70.9162 24.3702L71.3365 24.5354H71.3369ZM71.3365 24.5354C71.804 24.7243 72.0297 25.2569 71.8407 25.7244C71.6517 26.1919 71.1192 26.4176 70.6517 26.2286L71.3365 24.5354ZM89.1978 27.5821L88.2439 26.0241L89.1252 27.6221L89.0833 27.6421L89.0134 27.6739L88.9038 27.7208L88.7564 27.7808L88.5712 27.8511L88.3493 27.9294L88.0912 28.014L87.7967 28.1032L87.466 28.1947L87.099 28.2862L86.6973 28.3753L86.2607 28.4608L85.7894 28.5401L85.283 28.6116L84.7429 28.6732L84.1688 28.7227L83.561 28.7575L82.9204 28.7767L82.2469 28.7779L81.5409 28.7586L80.8023 28.7174L80.0317 28.6516L79.2304 28.5598L78.3971 28.44L77.5334 28.2899L76.6392 28.1078L75.7147 27.8912L74.7604 27.6387L73.7766 27.3481L72.7637 27.0177L71.7213 26.6451L70.6513 26.2286L71.3369 24.5354L72.3608 24.9337L73.3548 25.289L74.3193 25.6034L75.2533 25.8797L76.1569 26.1186L77.03 26.3231L77.8728 26.4947L78.6843 26.6357L79.4648 26.7479L80.2139 26.8337L80.9316 26.8949L81.6172 26.9331L82.2711 26.9509L82.8924 26.9505L83.4817 26.9327L84.0388 26.9002L84.5622 26.8552L85.0532 26.7997L85.5105 26.7351L85.9342 26.6632L86.3246 26.5869L86.681 26.5075L87.0027 26.4274L87.2903 26.348L87.5431 26.2717L87.7612 26.1999L87.9438 26.1352L88.0904 26.0793L88.2023 26.0343L88.2786 26.0011L88.3206 25.9822L88.3164 25.9841L89.1978 27.5821ZM88.3164 25.9841C88.7685 25.7611 89.3169 25.9466 89.5399 26.3987C89.7629 26.8507 89.5773 27.3991 89.1252 27.6221L88.3164 25.9841ZM81.37 42.7179L79.5717 42.3951L79.7906 41.2677L80.0306 40.1879L80.2914 39.1546L80.5703 38.1673L80.8655 37.2255L81.1754 36.3279L81.4982 35.4741L81.8319 34.663L82.1747 33.8946L82.5243 33.1674L82.8796 32.481L83.2383 31.834L83.5984 31.2266L83.9583 30.6571L84.3166 30.1253L84.6703 29.6302L85.018 29.171L85.3578 28.7465L85.6881 28.3564L86.0071 28.0001L86.3121 27.6761L86.602 27.384L86.8742 27.1232L87.1281 26.8915L87.361 26.6893L87.57 26.517L87.754 26.3711L87.9128 26.252L88.0424 26.1583L88.1411 26.091L88.2034 26.0494L88.2439 26.0241L89.1978 27.5821L89.2035 27.5786L89.163 27.6051L89.0946 27.652L88.9975 27.7215L88.872 27.8164L88.7197 27.9366L88.5424 28.0832L88.3429 28.2559L88.1229 28.4566L87.8833 28.6864L87.6259 28.9453L87.3534 29.2344L87.0669 29.5553L86.7683 29.9076L86.4596 30.2927L86.1421 30.7119L85.8178 31.1662L85.489 31.6549L85.1571 32.1798L84.8234 32.7426L84.4904 33.3435L84.1593 33.983L83.8324 34.6626L83.5108 35.3826L83.1974 36.1438L82.8936 36.9485L82.601 37.7962L82.321 38.6882L82.0564 39.6255L81.8085 40.6089L81.579 41.6396L81.37 42.7179ZM81.37 42.7179C81.2812 43.2142 80.8057 43.5445 80.3095 43.4557C79.8132 43.3668 79.4829 42.8914 79.5717 42.3951L81.37 42.7179ZM76.8285 51.6315L75.5889 50.2898L75.7582 50.1307L75.9249 49.9678L76.0893 49.8007L76.251 49.6303L76.4109 49.4549L76.5678 49.2754L76.722 49.0917L76.8735 48.9027L77.0228 48.7081L77.1698 48.5085L77.3127 48.3048L77.4537 48.0943L77.5916 47.8781L77.7266 47.6558L77.8589 47.4276L77.9881 47.1929L78.114 46.9514L78.2364 46.7038L78.3559 46.4475L78.4723 46.1849L78.5849 45.9154L78.6941 45.6368L78.8 45.3518L78.9016 45.0586L78.9995 44.7562L79.094 44.4455L79.1843 44.1265L79.2705 43.7985L79.3521 43.4621L79.4296 43.1155L79.5033 42.7599L79.5717 42.3951L81.37 42.7179L81.2956 43.1136L81.2158 43.4995L81.1315 43.8771L81.0416 44.2467L80.9464 44.6073L80.847 44.9595L80.7426 45.3035L80.6334 45.6391L80.5196 45.9679L80.401 46.2884L80.2781 46.601L80.1504 46.9068L80.0189 47.2042L79.8828 47.4945L79.743 47.7783L79.5982 48.0554L79.45 48.3248L79.2981 48.5879L79.142 48.8441L78.9829 49.0936L78.82 49.3374L78.6529 49.5751L78.4832 49.8057L78.3105 50.0305L78.1348 50.2498L77.9556 50.4637L77.7738 50.6712L77.5898 50.8738L77.403 51.0707L77.2137 51.2627L77.0221 51.4498L76.8285 51.6315ZM76.8285 51.6315C76.4582 51.9736 75.8799 51.9509 75.5378 51.5805C75.1958 51.2101 75.2185 50.6319 75.5889 50.2898L76.8285 51.6315Z" fill="#E68C42"/>
<path d="M59.9897 78.0112C59.5176 77.8343 59.2784 77.3071 59.4553 76.835C59.6321 76.3629 60.1594 76.1237 60.6315 76.3006L59.9897 78.0112ZM70.6514 75.7711L71.337 77.4643L70.9031 77.6351L70.4741 77.7935L70.0504 77.9401L69.6328 78.0751L69.22 78.1986L68.8119 78.3109L68.409 78.4122L68.0113 78.5029L67.6183 78.5827L67.2309 78.6518L66.8488 78.7108L66.4716 78.7603L66.0989 78.8L65.7312 78.8298L65.3695 78.8502L65.0123 78.8619L64.6604 78.865L64.3131 78.8593L63.971 78.8446L63.6343 78.8223L63.3028 78.792L62.9763 78.7542L62.6543 78.7089L62.3383 78.6564L62.0265 78.597L61.7203 78.5309L61.4195 78.4587L61.1232 78.3805L60.8321 78.2962L60.5464 78.2062L60.2656 78.1109L59.9897 78.0112L60.6315 76.3006L60.8703 76.3875L61.1133 76.4699L61.3598 76.547L61.6107 76.62L61.8662 76.6876L62.1262 76.75L62.3901 76.807L62.658 76.8581L62.9309 76.903L63.2083 76.9423L63.491 76.9748L63.7779 77.0013L64.0701 77.0206L64.3668 77.033L64.668 77.038L64.9753 77.0357L65.2878 77.0255L65.6057 77.0074L65.9281 76.9813L66.2561 76.9461L66.5903 76.9026L66.93 76.8498L67.2759 76.7881L67.6266 76.7167L67.9834 76.6358L68.3462 76.5444L68.7151 76.4427L69.09 76.3304L69.4714 76.2076L69.8588 76.0738L70.2515 75.9283L70.6514 75.7711ZM70.6514 75.7711C71.1189 75.5821 71.6518 75.8074 71.8408 76.2749C72.0298 76.7424 71.8045 77.2753 71.337 77.4643L70.6514 75.7711ZM88.2439 75.9755L89.1979 74.4176L88.3165 76.0156L88.3206 76.0175L88.2787 75.9986L88.2024 75.9653L88.0905 75.9203L87.9438 75.8644L87.7613 75.7998L87.5432 75.728L87.2907 75.6516L87.0035 75.5726L86.6811 75.4925L86.3247 75.4131L85.9342 75.3368L85.5106 75.265L85.0533 75.2003L84.5623 75.1448L84.0388 75.0998L83.4817 75.0673L82.8925 75.0495L82.2711 75.0492L81.6176 75.0669L80.9317 75.1055L80.2136 75.1663L79.4648 75.2521L78.6844 75.3644L77.8729 75.5054L77.0301 75.6773L76.157 75.8814L75.2533 76.1203L74.3194 76.3962L73.3549 76.711L72.3605 77.0659L71.337 77.4643L70.6514 75.7711L71.7217 75.3546L72.7637 74.9823L73.7766 74.6516L74.7605 74.3613L75.7148 74.1088L76.6393 73.8926L77.5335 73.7101L78.3971 73.5601L79.2305 73.4402L80.0321 73.3484L80.8024 73.283L81.5405 73.2414L82.247 73.2221L82.9205 73.2233L83.5611 73.2426L84.1688 73.2773L84.7429 73.3269L85.283 73.3885L85.7895 73.4599L86.2608 73.5392L86.6973 73.6247L87.0991 73.7139L87.4653 73.8053L87.7964 73.8964L88.0912 73.9856L88.3494 74.0703L88.5712 74.1485L88.7564 74.2188L88.9038 74.2789L89.0134 74.3258L89.0834 74.3575L89.1253 74.3776L88.2439 75.9755ZM89.1253 74.3776C89.5773 74.6005 89.7629 75.149 89.5399 75.601C89.3169 76.053 88.7685 76.2386 88.3165 76.0156L89.1253 74.3776ZM79.5718 59.6041L81.3701 59.2814L81.5791 60.3601L81.8085 61.3907L82.0565 62.3742L82.321 63.3118L82.6011 64.2038L82.8936 65.0516L83.1975 65.8562L83.5108 66.6174L83.8325 67.3378L84.1594 68.0174L84.4901 68.6569L84.8235 69.2574L85.1572 69.8202L85.489 70.3455L85.8179 70.8343L86.1421 71.2878L86.4596 71.7073L86.7684 72.0925L87.067 72.4447L87.3535 72.7656L87.626 73.0547L87.8834 73.3136L88.1226 73.543L88.3429 73.7437L88.5429 73.9168L88.7198 74.0635L88.8713 74.1829L88.9976 74.2782L89.0947 74.3477L89.1631 74.3946L89.2035 74.421L89.1979 74.4176L88.2439 75.9755L88.2035 75.9502L88.1411 75.9086L88.0425 75.8414L87.9128 75.7476L87.7549 75.6289L87.57 75.4831L87.3606 75.31L87.1282 75.1081L86.8746 74.8772L86.6021 74.616L86.3122 74.3239L86.0072 74L85.6882 73.6436L85.3579 73.2535L85.0181 72.8291L84.6704 72.3702L84.3166 71.8751L83.9583 71.3426L83.5985 70.7734L83.2383 70.166L82.88 69.5194L82.5244 68.833L82.1748 68.1058L81.8319 67.337L81.4982 66.526L81.1755 65.6722L80.8655 64.7745L80.5703 63.8327L80.2914 62.8451L80.0306 61.8117L79.7906 60.7319L79.5718 59.6041ZM79.5718 59.6041C79.483 59.1079 79.8133 58.6324 80.3096 58.5436C80.8058 58.4548 81.2813 58.7851 81.3701 59.2814L79.5718 59.6041ZM67.712 48.2296L67.7302 46.4026L67.7835 46.4041L67.8862 46.4079L68.0484 46.4174L68.2631 46.4344L68.528 46.4612L68.8387 46.5001L69.1913 46.5538L69.5833 46.6234L70.0103 46.7125L70.4703 46.8221L70.959 46.9563L71.473 47.1158L72.0086 47.304L72.5627 47.5225L73.1307 47.7746L73.7105 48.0618L74.2978 48.3876L74.889 48.7535L75.4797 49.1621L76.0663 49.6156L76.6449 50.116L77.2122 50.6659L77.7633 51.268L78.2943 51.9223L78.8015 52.6324L79.2815 53.3989L79.7294 54.2243L80.1425 55.1091L80.5163 56.0563L80.8474 57.0658L81.1331 58.1403L81.3701 59.2814L79.5718 59.6041L79.3552 58.5598L79.096 57.5843L78.7974 56.6754L78.4636 55.8303L78.0974 55.0453L77.7032 54.3188L77.2829 53.6476L76.8407 53.0289L76.3792 52.4601L75.9015 51.9389L75.4105 51.463L74.909 51.0291L74.4003 50.6361L73.8874 50.2812L73.3734 49.9629L72.8616 49.6795L72.3544 49.4285L71.8559 49.2074L71.3699 49.0154L70.8985 48.8499L70.4457 48.7093L70.016 48.5917L69.6112 48.495L69.2355 48.4171L68.8935 48.3559L68.5862 48.3098L68.3201 48.2761L68.0975 48.2538L67.9206 48.2398L67.7948 48.2327L67.7199 48.2296H67.712ZM67.712 48.2296C67.2078 48.2247 66.8027 47.8113 66.8076 47.3071C66.8125 46.8029 67.226 46.3977 67.7302 46.4026L67.712 48.2296Z" fill="#E68C42"/>
<path d="M29.7405 23.9853C30.2145 24.1577 30.4587 24.6823 30.2863 25.1562C30.114 25.6302 29.5894 25.8743 29.1154 25.702L29.7405 23.9853ZM19.0872 26.2285L18.4016 24.5352L18.8306 24.367L19.255 24.2102L19.6753 24.0655L20.0903 23.9328L20.5011 23.8107L20.9074 23.7003L21.3088 23.601L21.7053 23.5121L22.0976 23.4335L22.4854 23.3655L22.8682 23.3073L23.2462 23.2593L23.6192 23.2207L23.987 23.1916L24.3506 23.1716L24.7085 23.1603L25.0623 23.1572L25.4103 23.1633L25.7539 23.1773L26.0926 23.1992L26.4248 23.2286L26.7528 23.2657L27.0756 23.3099L27.3927 23.3606L27.7049 23.418L28.0122 23.4823L28.3142 23.5526L28.6101 23.6285L28.9004 23.7098L29.1857 23.7967L29.4662 23.8886L29.7405 23.9853L29.1154 25.702L28.8773 25.6181L28.6354 25.5383L28.3886 25.4635L28.1361 25.3928L27.8795 25.3267L27.6191 25.2662L27.3534 25.211L27.0828 25.1611L26.8073 25.1165L26.5276 25.0784L26.2426 25.0466L25.952 25.0209L25.6579 25.0013L25.3582 24.9895L25.0539 24.9842L24.7448 24.9865L24.4299 24.9964L24.1102 25.0141L23.7855 25.0402L23.4556 25.0742L23.1207 25.1169L22.7802 25.1683L22.4355 25.2288L22.0847 25.2991L21.7283 25.3788L21.367 25.4684L21.0008 25.5682L20.6292 25.6782L20.2513 25.7995L19.8688 25.9306L19.4806 26.0739L19.0872 26.2285ZM19.0872 26.2285C18.6197 26.4174 18.0868 26.1922 17.8978 25.7246C17.7088 25.2571 17.9341 24.7242 18.4016 24.5352L19.0872 26.2285ZM1.49538 26.024L0.540683 27.5819L1.42243 25.9839L1.41828 25.9821L1.46098 26.0013L1.53696 26.0342L1.64771 26.0792L1.79472 26.1351L1.97766 26.1997L2.19574 26.2716L2.44859 26.3479L2.73582 26.4273L3.05746 26.5074L3.41349 26.5868L3.80392 26.6631L4.22799 26.7349L4.68493 26.7996L5.17588 26.8551L5.69935 26.9001L6.25607 26.9326L6.84532 26.9504L7.46704 26.9507L8.12091 26.933L8.8065 26.8948L9.52385 26.8336L10.2733 26.7478L11.0534 26.6355L11.8653 26.4945L12.7077 26.3229L13.5812 26.1185L14.4849 25.8796L15.4192 25.6033L16.3837 25.2889L17.3773 24.9336L18.4016 24.5352L19.0872 26.2285L18.0168 26.645L16.9748 27.0176L15.9619 27.348L14.9777 27.6386L14.0234 27.8911L13.0985 28.1076L12.2047 28.2898L11.3407 28.4399L10.5077 28.5597L9.70604 28.6515L8.93576 28.7173L8.19724 28.7585L7.49123 28.7778L6.81734 28.7766L6.1767 28.7573L5.56934 28.7226L4.99523 28.673L4.45513 28.6114L3.94905 28.54L3.47737 28.4607L3.04084 28.3752L2.63945 28.2861L2.27246 28.1946L1.94212 28.1031L1.64771 28.0139L1.38956 27.9292L1.16807 27.851L0.982508 27.7807L0.833966 27.7206L0.724732 27.6734L0.655582 27.642L0.613616 27.622L1.49538 26.024ZM0.613616 27.622C0.161585 27.399 -0.0239798 26.8506 0.199012 26.3985C0.422004 25.9465 0.9704 25.7609 1.42243 25.9839L0.613616 27.622ZM10.1668 42.395L8.36846 42.7178L8.15944 41.6395L7.93003 40.6088L7.68209 39.6254L7.41752 38.6881L7.13747 37.7961L6.84493 36.9483L6.54105 36.1437L6.22736 35.3821L5.90647 34.6625L5.57917 33.9829L5.24847 33.3434L4.9151 32.7425L4.58175 32.1797L4.2499 31.6547L3.92033 31.1657L3.59642 30.7117L3.27933 30.293L2.97054 29.9079L2.67158 29.5548L2.38547 29.2343L2.11258 28.9452L1.85558 28.6863L1.61558 28.4565L1.3956 28.2554L1.19642 28.0831L1.01916 27.9364L0.866852 27.8162L0.741378 27.7214L0.644233 27.6518L0.575821 27.605L0.535387 27.5785L0.540683 27.5819L1.49538 26.024L1.53545 26.0493L1.59781 26.0909L1.69645 26.1582L1.82609 26.2519L1.98484 26.371L2.16889 26.5168L2.37791 26.6892L2.6111 26.8918L2.86434 27.1231L3.13684 27.3839L3.42634 27.676L3.73173 27.9999L4.05035 28.3567L4.3803 28.746L4.72083 29.1704L5.06894 29.63L5.42231 30.1255L5.77985 30.6569L6.14042 31.2265L6.50023 31.8339L6.85929 32.4809L7.21419 33.1673L7.56416 33.8945L7.90698 34.6632L8.24033 35.4739L8.5631 36.3277L8.87303 37.2254L9.16821 38.1672L9.44714 39.1544L9.70792 40.1878L9.94792 41.2676L10.1668 42.395ZM10.1668 42.395C10.2556 42.8913 9.92525 43.3667 9.429 43.4555C8.93274 43.5444 8.45728 43.214 8.36846 42.7178L10.1668 42.395ZM22.0258 53.771L22.0076 55.598L21.9543 55.5965L21.8515 55.5927L21.6894 55.5833L21.4747 55.5663L21.2098 55.5395L20.8991 55.5005L20.5468 55.4469L20.1553 55.3773L19.7275 55.2885L19.2675 55.1781L18.7788 55.0443L18.2652 54.8848L17.7296 54.6966L17.1755 54.4782L16.6071 54.2261L16.0273 53.9385L15.44 53.6127L14.8492 53.2468L14.2592 52.8386L13.6719 52.3851L13.0932 51.8843L12.5263 51.334L11.9753 50.7323L11.4442 50.0777L10.9367 49.3675L10.457 48.601L10.0088 47.7756L9.59605 46.89L9.22225 45.9432L8.89117 44.9334L8.60543 43.8588L8.36846 42.7178L10.1668 42.395L10.3833 43.4393L10.6426 44.4148L10.9412 45.3242L11.2749 46.1696L11.6408 46.9546L12.0354 47.6811L12.4553 48.3523L12.8978 48.971L13.3593 49.5402L13.8371 50.0618L14.3284 50.538L14.8292 50.9715L15.3379 51.3646L15.8508 51.7191L16.3652 52.0374L16.8769 52.3216L17.3834 52.5721L17.8823 52.7933L18.3683 52.9853L18.8396 53.1508L19.292 53.2914L19.7225 53.4093L20.1266 53.5061L20.5015 53.5836L20.8447 53.6448L21.1516 53.6909L21.4176 53.7245L21.6403 53.7468L21.8172 53.7608L21.943 53.768L22.0178 53.771H22.0258ZM22.0258 53.771C22.53 53.7759 22.9351 54.1894 22.9302 54.6936C22.9253 55.1978 22.5118 55.603 22.0076 55.598L22.0258 53.771Z" fill="#E68C42"/>
<path d="M58.3316 69.6626C58.0923 69.2189 58.2582 68.6644 58.702 68.4252C59.1457 68.1859 59.7001 68.3518 59.9394 68.7955L58.3316 69.6626ZM55.2528 86.9592L54.1015 85.5411L54.9115 84.8464L55.6402 84.1484L56.2917 83.448L56.8704 82.7473L57.381 82.0477L57.8266 81.3515L58.211 80.6595L58.5391 79.9728L58.8142 79.2943L59.0399 78.6238L59.2198 77.9639L59.3573 77.3157L59.4556 76.6804L59.5183 76.0602L59.5486 75.4562L59.5497 74.8711L59.5248 74.3057L59.4771 73.763L59.4102 73.2441L59.3275 72.7519L59.2318 72.2878L59.1271 71.8539L59.0168 71.453L58.9038 71.0871L58.7915 70.7575L58.6842 70.4668L58.5844 70.2178L58.4963 70.011L58.4234 69.85L58.3686 69.7363L58.335 69.669L58.3316 69.6626L59.9394 68.7955L59.9639 68.8428L60.0104 68.935L60.0804 69.0813L60.1692 69.2778L60.2739 69.5224L60.3895 69.813L60.5135 70.1475L60.6416 70.5247L60.7705 70.9419L60.896 71.3981L61.015 71.8902L61.1235 72.4171L61.2176 72.9765L61.2936 73.5672L61.348 74.1871L61.376 74.8333L61.3748 75.5046L61.3401 76.1985L61.2675 76.9132L61.1541 77.6461L60.9954 78.3948L60.7875 79.1568L60.5271 79.9301L60.2104 80.7113L59.8339 81.4986L59.3944 82.2888L58.8883 83.0795L58.3127 83.8691L57.6645 84.6537L56.9403 85.4319L56.1376 86.201L55.2528 86.9592ZM55.2528 86.9592C54.8612 87.2771 54.2859 87.2173 53.9681 86.8258C53.6502 86.4342 53.71 85.859 54.1015 85.5411L55.2528 86.9592ZM43.9565 101.126L45.7813 101.043H43.9565L43.9592 100.996L43.9652 100.92L43.9769 100.802L43.9958 100.643L44.0238 100.447L44.0623 100.215L44.1126 99.9483L44.1769 99.6467L44.257 99.313L44.3541 98.9482L44.4698 98.5537L44.6062 98.1296L44.7646 97.6783L44.9464 97.2014L45.1535 96.6987L45.3874 96.1722L45.6501 95.6226L45.9434 95.0523L46.2681 94.4623L46.626 93.8534L47.0187 93.2272L47.4484 92.5839L47.9163 91.9263L48.4235 91.255L48.9723 90.5713L49.5638 89.8766L50.1995 89.1714L50.8817 88.4578L51.6116 87.7367L52.3905 87.0091L53.2198 86.277L54.1015 85.5411L55.2528 86.9592L54.4095 87.6633L53.6181 88.3622L52.877 89.0542L52.1842 89.739L51.5382 90.4148L50.9373 91.0808L50.3798 91.7354L49.8643 92.3783L49.3888 93.0072L48.9519 93.6218L48.5517 94.2204L48.1869 94.8021L47.8555 95.3664L47.5558 95.911L47.2866 96.4352L47.0459 96.9379L46.8323 97.4183L46.6441 97.8749L46.4797 98.3072L46.3372 98.7124L46.2159 99.0911L46.1131 99.4411L46.0281 99.762L45.9585 100.052L45.9033 100.31L45.8606 100.536L45.8289 100.727L45.807 100.882L45.7926 101.002L45.7847 101.085L45.7809 101.131L45.7813 101.126H43.9565ZM45.7813 101.126C45.7586 101.63 45.3311 102.019 44.8273 101.997C44.3235 101.974 43.9338 101.547 43.9565 101.043L45.7813 101.126ZM34.485 86.9592L35.6363 85.5411L36.518 86.277L37.3476 87.0091L38.1266 87.7367L38.8564 88.4578L39.5382 89.1714L40.1743 89.8762L40.7658 90.5713L41.3146 91.255L41.8218 91.9263L42.2897 92.5839L42.7195 93.2272L43.1122 93.8534L43.4701 94.4623L43.7947 95.0523L44.088 95.623L44.3503 96.1722L44.5847 96.6983L44.7918 97.2014L44.9736 97.6787L45.132 98.13L45.268 98.5537L45.3837 98.9482L45.4808 99.313L45.5609 99.6467L45.6252 99.9483L45.6754 100.215L45.714 100.447L45.742 100.643L45.7609 100.802L45.7726 100.92L45.7786 100.996L45.7813 101.043L43.9565 101.126L43.9569 101.131L43.9531 101.085L43.9452 101.002L43.9308 100.882L43.9089 100.727L43.8771 100.536L43.8344 100.31L43.7793 100.052L43.7097 99.762L43.6247 99.4411L43.5219 99.0911L43.4002 98.712L43.2584 98.3069L43.094 97.8749L42.9058 97.4187L42.6919 96.9379L42.4515 96.4349L42.1824 95.911L41.8827 95.3664L41.5512 94.8021L41.1865 94.2204L40.7862 93.6218L40.3493 93.0072L39.8739 92.3783L39.3583 91.7354L38.8009 91.0812L38.1995 90.4148L37.554 89.739L36.8612 89.0542L36.12 88.3622L35.3282 87.6633L34.485 86.9592ZM34.485 86.9592C34.0935 86.6413 34.0337 86.0661 34.3516 85.6745C34.6694 85.283 35.2447 85.2233 35.6363 85.5411L34.485 86.9592ZM29.7992 68.7955L31.407 69.6626L31.4036 69.669L31.3699 69.7363L31.3151 69.85L31.2422 70.011L31.1541 70.2178L31.0543 70.4668L30.947 70.7575L30.8347 71.0871L30.7217 71.453L30.6114 71.8539L30.5067 72.2878L30.4111 72.7519L30.3283 73.2441L30.2614 73.763L30.2138 74.3057L30.1888 74.8711L30.19 75.4562L30.2202 76.0602L30.2829 76.6804L30.3812 77.3157L30.5188 77.9643L30.6983 78.6242L30.9239 79.2943L31.1991 79.9728L31.5271 80.6595L31.9115 81.3515L32.3571 82.0477L32.8674 82.7473L33.4464 83.448L34.098 84.1484L34.8267 84.8464L35.6363 85.5411L34.485 86.9592L33.6006 86.201L32.7978 85.4319L32.0737 84.6537L31.4251 83.8691L30.8499 83.0795L30.3438 82.2888L29.9042 81.4986L29.5278 80.7113L29.2111 79.9301L28.9506 79.1564L28.7432 78.3944L28.5844 77.6461L28.471 76.9132L28.3985 76.1985L28.3637 75.5046L28.3625 74.8333L28.3905 74.1871L28.4449 73.5672L28.5209 72.9765L28.615 72.4171L28.7235 71.8902L28.8426 71.3981L28.968 70.9419L29.0969 70.5247L29.225 70.1475L29.349 69.813L29.4647 69.5224L29.5694 69.2778L29.6582 69.0813L29.7281 68.935L29.7746 68.8428L29.7992 68.7955ZM29.7992 68.7955C30.0384 68.3518 30.5928 68.1859 31.0366 68.4252C31.4803 68.6644 31.6462 69.2189 31.407 69.6626L29.7992 68.7955Z" fill="#E68C42"/>
<path d="M31.407 32.3381C31.6462 32.7818 31.4803 33.3363 31.0366 33.5755C30.5928 33.8148 30.0384 33.6488 29.7992 33.2051L31.407 32.3381ZM34.485 15.0399L35.6363 16.458H35.6366L34.8267 17.1523L34.098 17.8508L33.4464 18.5515L32.8674 19.2526L32.3571 19.9518L31.9115 20.6484L31.5271 21.3408L31.1991 22.0271L30.9239 22.7059L30.6983 23.3757L30.5188 24.036L30.3812 24.6846L30.2829 25.3199L30.2202 25.9401L30.19 26.5441L30.1888 27.1295L30.2138 27.6949L30.2614 28.2377L30.3283 28.7562L30.4111 29.2487L30.5067 29.7128L30.6114 30.1467L30.7217 30.5477L30.8347 30.9136L30.947 31.2431L31.0543 31.5338L31.1541 31.7829L31.2422 31.9896L31.3151 32.1506L31.3699 32.2644L31.4036 32.3317L31.407 32.3381L29.7992 33.2051L29.7746 33.1579L29.7281 33.0657L29.6582 32.9194L29.5694 32.7228L29.4647 32.4783L29.349 32.1877L29.225 31.8532L29.0969 31.476L28.968 31.0587L28.8426 30.6025L28.7235 30.1104L28.615 29.5836L28.5209 29.0238L28.4449 28.4334L28.3905 27.8136L28.3625 27.1673L28.3637 26.4957L28.3985 25.8018L28.471 25.0871L28.5844 24.3542L28.7432 23.6059L28.9506 22.8435L29.2111 22.0703L29.5278 21.2886L29.9042 20.5018L30.3438 19.7111L30.8499 18.92L31.4251 18.1308L32.0737 17.3458L32.7978 16.568L33.6006 15.7985L34.4846 15.0399H34.485ZM34.4846 15.0399C34.8762 14.7221 35.4518 14.7814 35.7697 15.173C36.0875 15.5645 36.0282 16.1402 35.6366 16.458L34.4846 15.0399ZM45.7813 0.874639L43.9565 0.957796H45.7813L45.7786 1.0043L45.7726 1.08104L45.7609 1.19893L45.742 1.3573L45.714 1.55348L45.6754 1.78553L45.6252 2.05235L45.5609 2.3536L45.4808 2.68734L45.3837 3.05204L45.268 3.44664L45.132 3.86991L44.974 4.32121L44.7918 4.79893L44.5847 5.302L44.3503 5.82811L44.088 6.37688L43.7947 6.94761L43.4701 7.53757L43.1122 8.1461L42.7195 8.77274L42.2897 9.41563L41.8218 10.0729L41.3146 10.7445L40.7658 11.4279L40.1743 12.1233L39.5379 12.8278L38.8564 13.5414L38.1266 14.2625L37.3476 14.9901L36.518 15.7222L35.6363 16.458L34.485 15.0399L35.3282 14.3358L36.12 13.637L36.8612 12.945L37.554 12.2601L38.1999 11.5843L38.8009 10.9184L39.3583 10.2638L39.8739 9.62126L40.3493 8.99195L40.7862 8.37778L41.1865 7.77947L41.5512 7.19741L41.8827 6.63351L42.1824 6.08891L42.4515 5.56505L42.6919 5.06161L42.9058 4.5816L43.094 4.12544L43.2581 3.69382L43.4002 3.28789L43.5219 2.90916L43.6247 2.55919L43.7097 2.2383L43.7793 1.94841L43.8344 1.69026L43.8771 1.46501L43.9089 1.27378L43.9308 1.11843L43.9452 0.998618L43.9531 0.915461L43.9569 0.86973L43.9565 0.874639H45.7813ZM43.9565 0.874639C43.9792 0.370828 44.4066 -0.0188057 44.9105 0.00387142C45.4143 0.0265486 45.8039 0.453985 45.7813 0.957796L43.9565 0.874639ZM55.2528 15.0399L54.1015 16.458L53.2198 15.7222L52.3905 14.9901L51.6116 14.2625L50.8817 13.5414L50.1999 12.8278L49.5638 12.1229L48.9723 11.4279L48.4235 10.7445L47.9163 10.0729L47.4484 9.41563L47.0187 8.77274L46.626 8.1461L46.2681 7.53757L45.9434 6.94761L45.6501 6.37728L45.3874 5.82811L45.1535 5.302L44.9464 4.79893L44.7646 4.32158L44.6062 3.87032L44.4698 3.44664L44.3541 3.05204L44.257 2.68734L44.1769 2.3536L44.1126 2.05235L44.0623 1.78553L44.0238 1.55348L43.9958 1.3573L43.9769 1.19893L43.9652 1.08104L43.9592 1.0043L43.9565 0.957796L45.7813 0.874639L45.7809 0.86973L45.7847 0.915461L45.7926 0.998618L45.807 1.11843L45.8289 1.27378L45.8606 1.46501L45.9033 1.69026L45.9585 1.94841L46.0281 2.2383L46.1131 2.55919L46.2159 2.90916L46.3372 3.28752L46.4797 3.69341L46.6441 4.12544L46.8323 4.5816L47.0459 5.06161L47.2866 5.56469L47.5558 6.08891L47.8555 6.63351L48.1869 7.19741L48.5517 7.77947L48.9519 8.37778L49.3888 8.99195L49.8643 9.62126L50.3798 10.2638L50.9373 10.9187L51.5379 11.5843L52.1842 12.2601L52.877 12.945L53.6181 13.637L54.4095 14.3358L55.2528 15.0399ZM55.2528 15.0399C55.6443 15.3578 55.704 15.933 55.3862 16.3246C55.0683 16.7162 54.4931 16.7759 54.1015 16.458L55.2528 15.0399ZM59.9394 33.2051L58.3316 32.3381L58.335 32.3317L58.3686 32.2644L58.4234 32.1506L58.4963 31.9896L58.5844 31.7829L58.6842 31.5338L58.7915 31.2431L58.9038 30.9136L59.0168 30.5477L59.1271 30.1467L59.2318 29.7128L59.3275 29.2487L59.4102 28.7562L59.4771 28.2377L59.5248 27.6949L59.5497 27.1295L59.5486 26.5441L59.5183 25.9401L59.4556 25.3199L59.3573 24.6846L59.2198 24.0364L59.0399 23.3761L58.8142 22.7059L58.5391 22.0271L58.211 21.3408L57.8266 20.6484L57.381 19.9518L56.8704 19.2526L56.2917 18.5511L55.6402 17.8508L54.9115 17.1527L54.1015 16.458L55.2528 15.0399L56.1376 15.7981L56.9403 16.568L57.6645 17.3462L58.3127 18.1308L58.8883 18.92L59.3944 19.7111L59.8339 20.5018L60.2104 21.2886L60.5271 22.0703L60.7875 22.8431L60.9954 23.6055L61.1541 24.3542L61.2675 25.0871L61.3401 25.8018L61.3748 26.4957L61.376 27.1673L61.348 27.8136L61.2936 28.4334L61.2176 29.0238L61.1235 29.5836L61.015 30.1104L60.896 30.6025L60.7705 31.0587L60.6416 31.476L60.5135 31.8532L60.3895 32.1877L60.2739 32.4783L60.1692 32.7228L60.0804 32.9194L60.0104 33.0657L59.9639 33.1579L59.9394 33.2051ZM59.9394 33.2051C59.7001 33.6488 59.1457 33.8148 58.702 33.5755C58.2582 33.3363 58.0923 32.7818 58.3316 32.3381L59.9394 33.2051Z" fill="#E68C42"/>
<path d="M33.1897 43.6838C32.6856 43.6744 32.2845 43.2575 32.294 42.7533C32.3034 42.2491 32.7203 41.8481 33.2245 41.8576L33.1897 43.6838ZM57.0231 42.2793L56.9875 44.1056L56.2985 44.0924L55.5989 44.0792L54.8891 44.066L54.1707 44.0527L53.4435 44.0395L52.7087 44.0263L51.9668 44.013L51.2188 43.9998L50.4652 43.9866L49.7066 43.9733L48.9436 43.9601L48.1771 43.9469L47.4083 43.9337L46.6369 43.9208L45.8644 43.9076L45.0907 43.8944L44.3174 43.8811L43.5445 43.8679L42.7735 43.8547L42.004 43.8418L41.2375 43.8286L40.4744 43.8154L39.7155 43.8021L38.9618 43.7889L38.2135 43.7761L37.4712 43.7628L36.7357 43.7496L36.0085 43.7364L35.2896 43.7231L34.5795 43.7103L33.8791 43.6971L33.1897 43.6838L33.2245 41.8576L33.9139 41.8708L34.6135 41.884L35.3229 41.8969L36.0418 41.9101L36.769 41.9233L37.5037 41.9366L38.2452 41.9498L38.9936 41.9626L39.7472 41.9759L40.5062 41.9891L41.2692 42.0023L42.035 42.0156L42.8045 42.0284L43.5755 42.0417L44.3484 42.0549L45.1217 42.0681L45.8954 42.0813L46.6679 42.0945L47.4393 42.1074L48.2088 42.1206L48.9753 42.1339L49.7384 42.1471L50.497 42.1603L51.2513 42.1735L51.9993 42.1868L52.7412 42.2L53.4767 42.2132L54.2039 42.2265L54.9232 42.2397L55.633 42.2529L56.3333 42.2661L57.0231 42.2793ZM57.0231 42.2793C57.5272 42.2888 57.9279 42.7061 57.9184 43.2103C57.909 43.7145 57.4917 44.1151 56.9875 44.1056L57.0231 42.2793Z" fill="#E68C42"/>
<path d="M49.6197 38.3617L49.5796 40.1879H49.5793L49.4678 40.1826L49.3582 40.1709L49.2512 40.1539L49.1477 40.132L49.0426 40.1044L48.9379 40.07L48.8415 40.033L48.7455 39.9903L48.651 39.9426L48.5622 39.892L48.4768 39.8379L48.394 39.7797L48.3127 39.717L48.2334 39.649L48.162 39.5813L48.0932 39.5114L48.0251 39.435L47.9631 39.3583L47.9038 39.2789L47.8486 39.1973L47.7957 39.1119L47.7485 39.0265L47.7031 38.9376L47.6612 38.8439L47.6253 38.7536L47.5916 38.658L47.5629 38.562L47.5383 38.4656L47.5175 38.3654L47.5009 38.2641L47.4888 38.1609L47.482 38.0585L49.3068 37.9723L49.3083 37.9932L49.3105 38.0124L49.3136 38.0328L49.3177 38.0521L49.3234 38.0737L49.3294 38.0941L49.3359 38.1126L49.3446 38.1341L49.3517 38.1508L49.3608 38.1685L49.3718 38.1881L49.3816 38.2041L49.3929 38.2207L49.4047 38.2365L49.4175 38.252L49.4281 38.2641L49.4417 38.2781L49.4557 38.2913L49.4655 38.2997L49.4772 38.3087L49.4905 38.3178L49.5041 38.3265L49.5173 38.3341L49.5271 38.3393L49.5392 38.3443L49.5524 38.3496L49.5604 38.3522L49.5702 38.3548L49.5838 38.3579L49.5963 38.3597L49.6084 38.3609L49.6201 38.3617H49.6197ZM49.6201 38.3617C50.1243 38.3726 50.5238 38.791 50.5128 39.2952C50.5018 39.7994 50.0835 40.1989 49.5793 40.1879L49.6201 38.3617ZM49.8892 38.2826L51.1009 39.6501L51.1024 39.6486L51.059 39.6864L51.0166 39.7208L50.9766 39.7517L50.9308 39.7858L50.8855 39.8171L50.8401 39.8466L50.797 39.8735L50.749 39.9018L50.7003 39.9286L50.6553 39.9521L50.6073 39.9751L50.5567 39.9982L50.5102 40.0178L50.4625 40.0371L50.4104 40.0564L50.3681 40.0708L50.3186 40.087L50.2671 40.1021L50.2191 40.115L50.1723 40.1267L50.1197 40.1384L50.068 40.1486L50.0264 40.1558L49.9731 40.1645L49.9209 40.1713L49.8729 40.1766L49.8257 40.1807L49.7781 40.1841L49.7252 40.1868L49.6775 40.1879L49.6303 40.1887L49.5796 40.1879L49.6197 38.3617H49.6303H49.6435L49.6571 38.3613L49.6647 38.3609L49.6783 38.3597L49.6915 38.3586L49.704 38.3571L49.7116 38.3563L49.7187 38.3552L49.7361 38.3518L49.7441 38.3507L49.7505 38.3488L49.7626 38.3462L49.7728 38.3431L49.7788 38.3416L49.7868 38.339L49.8019 38.3337L49.8057 38.3325L49.814 38.3291L49.8234 38.3254L49.8272 38.3235L49.8336 38.3201L49.8423 38.3155L49.8465 38.3136L49.8506 38.311L49.859 38.3061L49.8643 38.3023L49.868 38.2997L49.8714 38.2974L49.8797 38.2906L49.885 38.2864L49.8877 38.2841L49.8892 38.2826ZM49.8877 38.2841C50.2641 37.9489 50.842 37.9826 51.1773 38.359C51.5125 38.7354 51.4789 39.3133 51.1024 39.6486L49.8877 38.2841ZM49.859 37.6065L50.9316 36.1279L50.9327 36.1287L51.0397 36.2122L51.1379 36.2999L51.2306 36.3933L51.3167 36.4915L51.3965 36.5951L51.4668 36.6994L51.5322 36.8075L51.5896 36.9186L51.6402 37.0286L51.686 37.145L51.7245 37.2603L51.7567 37.376L51.7827 37.4927L51.8035 37.611L51.8183 37.732L51.8266 37.8525L51.8292 37.9712L51.8262 38.0899L51.8171 38.2086L51.8024 38.3288L51.7809 38.449L51.754 38.5657L51.72 38.6837L51.6796 38.8016L51.6323 38.9172L51.5783 39.0314L51.517 39.1425L51.4486 39.2514L51.3723 39.3579L51.2888 39.4603L51.1988 39.5571L51.1009 39.6501L49.8892 38.2826L49.9002 38.2721L49.9115 38.26L49.9217 38.2475L49.9315 38.2339L49.9417 38.2173L49.9515 38.1991L49.961 38.1795L49.9697 38.1583L49.9776 38.1356L49.9844 38.1107L49.9909 38.0823L49.9958 38.0559L49.9992 38.0279L50.0014 37.9977L50.0022 37.9667L50.0018 37.9357L49.9995 37.9066L49.9962 37.8786L49.9912 37.8495L49.9848 37.8212L49.9769 37.7932L49.9686 37.7671L49.9599 37.7452L49.9485 37.7207L49.9379 37.7002L49.927 37.6821L49.9149 37.664L49.9047 37.6511L49.8934 37.6375L49.8816 37.6258L49.8688 37.6144L49.8578 37.6058L49.859 37.6065ZM49.8578 37.6058C49.45 37.3091 49.3601 36.7376 49.6568 36.3298C49.9534 35.9219 50.5249 35.832 50.9327 36.1287L49.8578 37.6058ZM49.5823 37.5536L49.3669 35.7394L49.3654 35.7398L49.4141 35.7341L49.4614 35.73L49.5146 35.7262L49.5615 35.7243L49.6091 35.7228L49.6624 35.7224L49.7097 35.7232L49.763 35.725L49.8102 35.7281L49.8578 35.7319L49.9104 35.7371L49.9629 35.7436L50.0113 35.7508L50.0574 35.7587L50.1095 35.7685L50.1632 35.7802L50.2097 35.7916L50.2603 35.8048L50.3136 35.8207L50.3594 35.8354L50.4085 35.852L50.4607 35.8717L50.5071 35.8906L50.5585 35.9125L50.6065 35.9352L50.65 35.956L50.6969 35.9806L50.746 36.0078L50.7963 36.0376L50.8409 36.0656L50.8874 36.0966L50.9316 36.1279L49.859 37.6065L49.8533 37.6023L49.8484 37.5993L49.8416 37.5948L49.8397 37.5936L49.8352 37.5914L49.8283 37.588L49.8174 37.5823L49.811 37.5793L49.8072 37.5778L49.7977 37.574L49.7932 37.5725L49.7849 37.5695L49.7739 37.566L49.769 37.5645L49.7614 37.5626L49.7497 37.5596L49.7444 37.5585L49.7369 37.557L49.724 37.5551L49.7127 37.5532L49.7048 37.5521L49.6976 37.5513L49.6847 37.5506L49.6715 37.5498L49.6643 37.5494H49.6511L49.6431 37.5491L49.6303 37.5498L49.6167 37.5502L49.6088 37.5509L49.5955 37.5521L49.5838 37.5532L49.5823 37.5536ZM49.5838 37.5532C49.0834 37.6133 48.628 37.2561 48.5679 36.7557C48.5078 36.2553 48.8649 35.7999 49.3654 35.7398L49.5838 37.5532ZM49.3068 37.9723L47.482 38.0585V38.0593L47.4794 37.9561L47.4816 37.8525L47.4881 37.7516L47.499 37.6511L47.5145 37.5509L47.5345 37.4504L47.5584 37.3548L47.5859 37.2584L47.6188 37.1632L47.654 37.0724L47.6948 36.9798L47.7379 36.8926L47.7855 36.8049L47.838 36.7183L47.8925 36.6367L47.9511 36.5569L48.0138 36.4783L48.0803 36.4031L48.1514 36.3294L48.2258 36.2595L48.3022 36.1941L48.3815 36.1325L48.467 36.072L48.5565 36.0157L48.6469 35.9647L48.7429 35.9167L48.8392 35.8751L48.9398 35.8373L49.0452 35.8041L49.1488 35.7776L49.2557 35.7557L49.3669 35.7394L49.5823 37.5536L49.571 37.5555L49.5585 37.5577L49.5449 37.5615L49.5362 37.5638L49.5256 37.5683L49.5131 37.5736L49.5033 37.5785L49.4916 37.5849L49.4814 37.5914L49.4708 37.5989L49.458 37.6091L49.4451 37.6201L49.4341 37.6303L49.4236 37.6413L49.4122 37.6545L49.4009 37.6681L49.3899 37.6836L49.3786 37.7002L49.3691 37.7157L49.3601 37.7324L49.3502 37.7524L49.3427 37.7694L49.3347 37.7906L49.3283 37.8087L49.3226 37.8287L49.317 37.8503L49.3136 37.8684L49.3102 37.8892L49.3083 37.9096L49.3064 37.9311V37.9508L49.3068 37.9716V37.9723ZM49.3068 37.9716C49.331 38.4754 48.9421 38.9036 48.4382 38.9278C47.9344 38.952 47.5062 38.5631 47.482 38.0593L49.3068 37.9716ZM49.3068 37.9716C49.331 38.4754 48.9421 38.9036 48.4382 38.9278C47.9344 38.952 47.5062 38.5631 47.482 38.0593L49.3068 37.9716Z" fill="#E68C42"/>
<path d="M52.0712 43.1189C52.1116 42.6162 52.5527 42.2416 53.0554 42.282C53.5581 42.3225 53.9326 42.7636 53.8922 43.2662L52.0712 43.1189ZM53.6756 61.5376L51.8516 61.6419L51.8199 61.0587L51.79 60.4763L51.7632 59.8943L51.7382 59.3134L51.7163 58.7324L51.6967 58.1527L51.6796 57.5736L51.6653 56.995L51.6532 56.4163L51.6437 55.8384L51.6365 55.261L51.632 54.6838L51.6301 54.1063L51.6305 53.5299L51.6335 52.9528L51.6392 52.376L51.6475 51.7997L51.6581 51.2229L51.6709 50.6461L51.6865 50.069L51.705 49.4923L51.7254 48.9147L51.7484 48.3369L51.7745 47.7593L51.8025 47.1811L51.8335 46.6024L51.8671 46.0234L51.9026 45.444L51.9412 44.8639L51.982 44.2829L52.0251 43.7009L52.0712 43.1189L53.8922 43.2662L53.8468 43.8407L53.8037 44.4144L53.7637 44.9878L53.7259 45.5604L53.6904 46.1323L53.6575 46.7037L53.6272 47.274L53.5993 47.8447L53.5739 48.4147L53.5509 48.9843L53.5305 49.5535L53.5127 50.1227L53.4972 50.6915L53.4844 51.2599L53.4738 51.8292L53.4662 52.398L53.4606 52.9664L53.4575 53.5352L53.4571 54.104L53.459 54.6732L53.4636 55.2428L53.47 55.8128L53.4795 56.3823L53.4915 56.9527L53.5059 57.5238L53.5229 58.0952L53.5418 58.6674L53.5637 59.24L53.5879 59.8134L53.6148 60.3871L53.6439 60.962L53.6756 61.5376ZM53.6756 61.5376C53.7043 62.041 53.3192 62.4731 52.8158 62.5018C52.3123 62.5305 51.8803 62.1454 51.8516 61.6419L53.6756 61.5376Z" fill="#E68C42"/>
<path d="M53.1574 49.1197C53.5591 49.4243 53.6381 49.9977 53.3335 50.3995C53.0289 50.8012 52.4555 50.8802 52.0538 50.5756L53.1574 49.1197ZM38.384 48.843L37.6454 47.1725L38.1164 46.9748L38.5941 46.7957L39.0779 46.6343L39.5673 46.4907L40.0617 46.3652L40.5598 46.2571L41.0621 46.166L41.5678 46.0923L42.0754 46.0356L42.5845 45.9959L43.0959 45.9725L43.6077 45.9661L44.1198 45.9759L44.6315 46.0023L45.1418 46.0443L45.6512 46.1021L46.1592 46.1762L46.6641 46.2662L47.1661 46.3716L47.6642 46.4929L48.1578 46.6286L48.648 46.7806L49.1318 46.9476L49.6099 47.1294L50.082 47.3263L50.5472 47.5387L51.0046 47.7655L51.4532 48.007L51.8939 48.2633L52.3251 48.5343L52.7462 48.8196L53.1574 49.1197L52.0538 50.5756L51.6955 50.314L51.3266 50.0642L50.9482 49.8265L50.5612 49.6012L50.1655 49.3885L49.7619 49.1881L49.351 49.0006L48.9334 48.8264L48.5089 48.665L48.0796 48.5169L47.6453 48.3823L47.2054 48.261L46.7624 48.1533L46.3164 48.0599L45.8674 47.9798L45.4161 47.914L44.9634 47.8623L44.5091 47.8249L44.0555 47.8014L43.6016 47.7931L43.1488 47.7988L42.6972 47.8192L42.2478 47.8543L41.8007 47.9042L41.3569 47.9688L40.9166 48.0486L40.4805 48.1431L40.0496 48.2527L39.6244 48.3774L39.2041 48.5177L38.7906 48.6726L38.384 48.843ZM38.384 48.843C37.9229 49.0468 37.3831 48.8381 37.1794 48.377C36.9757 47.9159 37.1843 47.3762 37.6454 47.1725L38.384 48.843ZM34.259 52.3418L32.6497 51.4778V51.4774L32.7547 51.2884L32.8647 51.1028L32.9792 50.9214L33.0975 50.7438L33.2207 50.5692L33.3485 50.398L33.48 50.2305L33.615 50.068L33.7537 49.9081L33.8965 49.7516L34.042 49.5994L34.1906 49.4508L34.3425 49.3053L34.4978 49.1632L34.6554 49.0249L34.8165 48.8896L34.9794 48.758L35.1445 48.6303L35.3123 48.5052L35.482 48.3839L35.654 48.2656L35.8279 48.1503L36.0032 48.0388L36.1805 47.9299L36.36 47.8241L36.5395 47.7224L36.7213 47.623L36.9035 47.527L37.088 47.4337L37.2735 47.3433L37.4587 47.2564L37.6454 47.1725L38.384 48.843L38.2222 48.9164L38.0604 48.992L37.9006 49.0694L37.7426 49.1499L37.5846 49.2331L37.4285 49.3181L37.2739 49.4062L37.1216 49.4954L36.9716 49.5876L36.8226 49.6825L36.676 49.7796L36.5312 49.879L36.3895 49.9807L36.2497 50.0846L36.1125 50.1912L35.9775 50.3001L35.846 50.4104L35.7171 50.5238L35.5913 50.6387L35.4688 50.7562L35.3482 50.8768L35.2315 50.9989L35.1181 51.1229L35.0081 51.2495L34.9011 51.3787L34.7983 51.5091L34.6993 51.6418L34.6041 51.7771L34.5115 51.9154L34.4234 52.0553L34.3391 52.1978L34.259 52.3421V52.3418ZM34.259 52.3421C34.0205 52.7862 33.466 52.9529 33.0219 52.7144C32.5779 52.476 32.4112 51.9215 32.6497 51.4774L34.259 52.3421ZM34.3803 57.1535L32.9131 58.242L32.9135 58.2424L32.7801 58.0545L32.655 57.8606L32.5397 57.6633L32.4342 57.4634L32.3367 57.2589L32.2479 57.0514L32.1682 56.8413L32.0971 56.6289L32.0344 56.4149L31.9799 56.1988L31.9334 55.9807L31.8953 55.7611L31.865 55.5412L31.8427 55.3212L31.8276 55.1001L31.8204 54.879V54.6567L31.8276 54.436L31.842 54.2149L31.8639 53.9942L31.8926 53.7753L31.9282 53.5565L31.9709 53.3399L32.0196 53.1245L32.0759 52.9106L32.1383 52.6986L32.2071 52.4884L32.2827 52.2805L32.3651 52.0757L32.4531 51.8735L32.5484 51.6736L32.6497 51.4778L34.259 52.3418L34.1849 52.4854L34.1154 52.6317L34.05 52.781L33.9895 52.9329L33.9336 53.0863L33.8822 53.2421L33.8357 53.3997L33.7945 53.5584L33.7578 53.7186L33.7265 53.8793L33.7 54.0407L33.6788 54.2028L33.663 54.3646L33.6524 54.526L33.6467 54.6877V54.848L33.6524 55.0078L33.663 55.167L33.6792 55.3249L33.7004 55.4807L33.7272 55.6337L33.7593 55.7853L33.7971 55.935L33.8402 56.0824L33.8886 56.2267L33.9426 56.3688L34.0012 56.5068L34.0662 56.6425L34.1369 56.7759L34.2121 56.9052L34.2926 57.0303L34.3799 57.1531L34.3803 57.1535ZM34.3799 57.1531C34.6804 57.5579 34.5961 58.1305 34.1913 58.431C33.7865 58.7314 33.2139 58.6472 32.9135 58.2424L34.3799 57.1531ZM38.7717 59.1793L38.5729 60.995H38.5726L38.3821 60.9727L38.1893 60.9478L37.9969 60.919L37.8053 60.8877L37.6114 60.8533L37.4183 60.8155L37.2252 60.7743L37.0313 60.7293L36.8385 60.6805L36.6469 60.6284L36.4553 60.5721L36.264 60.512L36.0739 60.4473L35.8857 60.3789L35.6971 60.3052L35.5111 60.227L35.3271 60.145L35.1441 60.0573L34.9646 59.9651L34.7862 59.8676L34.6101 59.7644L34.437 59.6555L34.2669 59.5414L34.0995 59.4216L33.9366 59.2957L33.7775 59.165L33.6206 59.0263L33.4687 58.8815L33.3228 58.7314L33.1811 58.575L33.0439 58.4113L32.9131 58.242L34.3803 57.1535L34.468 57.2669L34.5583 57.3753L34.6539 57.4804L34.7537 57.5828L34.8565 57.6807L34.9627 57.7748L35.075 57.8671L35.1903 57.9559L35.3086 58.0409L35.431 58.1233L35.5573 58.2019L35.6865 58.2779L35.8196 58.3505L35.9567 58.4208L36.0951 58.4873L36.2376 58.5512L36.3827 58.612L36.5297 58.6691L36.6802 58.7239L36.8325 58.7757L36.9867 58.8244L37.1435 58.8702L37.3019 58.9132L37.4621 58.9537L37.622 58.9911L37.7849 59.0255L37.9478 59.058L38.1115 59.0871L38.2774 59.1139L38.4418 59.1381L38.6066 59.16L38.7721 59.1793H38.7717ZM38.7721 59.1793C39.2733 59.2341 39.635 59.6858 39.5802 60.1869C39.5254 60.6881 39.0737 61.0498 38.5726 60.995L38.7721 59.1793ZM51.7461 54.1559L53.1241 55.3548L52.7877 55.7286L52.4389 56.0911L52.0776 56.4422L51.7053 56.7812L51.3217 57.1092L50.9275 57.4252L50.5238 57.7287L50.1103 58.0205L49.6882 58.3002L49.2569 58.567L48.8181 58.8221L48.3714 59.064L47.9182 59.2927L47.4582 59.5092L46.9918 59.7122L46.5198 59.9023L46.0424 60.0785L45.5605 60.2413L45.0741 60.3906L44.5843 60.5256L44.0907 60.6465L43.5948 60.7535L43.0959 60.8457L42.5947 60.9235L42.0924 60.9863L41.5894 61.0343L41.0856 61.0672L40.581 61.0842L40.0776 61.0861L39.5745 61.0717L39.0726 61.0419L38.5729 60.995L38.7717 59.1793L39.2124 59.2201L39.6546 59.247L40.1002 59.259L40.547 59.2579L40.9949 59.2424L41.4435 59.2133L41.8929 59.1706L42.3415 59.1147L42.789 59.0451L43.2357 58.962L43.681 58.8664L44.1239 58.7575L44.5639 58.6362L45.0004 58.5028L45.4332 58.3565L45.8621 58.1978L46.2858 58.0273L46.7046 57.8447L47.1177 57.6509L47.5247 57.4449L47.9246 57.2287L48.3173 57.0008L48.7024 56.7619L49.0793 56.5125L49.4481 56.2524L49.8072 55.9822L50.1568 55.7018L50.4966 55.4115L50.8258 55.1118L51.144 54.8022L51.4505 54.4836L51.7461 54.1559ZM51.7461 54.1559C52.0768 53.7757 52.6543 53.7357 53.0345 54.0664C53.4148 54.3971 53.4548 54.9746 53.1241 55.3548L51.7461 54.1559Z" fill="#E68C42"/>
</svg>
