<svg width="103" height="104" viewBox="0 0 103 104" fill="none" xmlns="http://www.w3.org/2000/svg">
<path d="M70.6905 71.384L69.3987 70.0921L70.305 69.1389L71.152 68.1525L71.9408 67.1339L72.6714 66.0866L73.3426 65.0117L73.956 63.9122L74.5108 62.7901L75.0075 61.6475L75.4455 60.4868L75.825 59.3099L76.1463 58.1194L76.409 56.9175L76.6138 55.7065L76.7597 54.4883L76.8474 53.2661L76.8765 52.0411L76.8474 50.8158L76.7597 49.5935L76.6138 48.3753L76.409 47.1644L76.1463 45.9625L75.825 44.7719L75.4455 43.595L75.0075 42.4343L74.5108 41.2917L73.956 40.1696L73.3426 39.0702L72.6714 37.9952L71.9408 36.9479L71.152 35.9294L70.305 34.9429L69.3987 33.9897L70.6905 32.6979L71.6603 33.7176L72.5678 34.7743L73.4125 35.8655L74.1953 36.9884L74.9156 38.1404L75.5729 39.3192L76.1678 40.5223L76.6999 41.7472L77.1698 42.9918L77.5764 44.2534L77.9211 45.5294L78.2027 46.8167L78.4219 48.1146L78.5784 49.4196L78.6721 50.7289L78.7035 52.0411L78.6721 53.353L78.5784 54.6622L78.4219 55.9673L78.2027 57.2652L77.9211 58.5525L77.5764 59.8284L77.1698 61.09L76.6999 62.3347L76.1678 63.5596L75.5729 64.7626L74.9156 65.9415L74.1953 67.0934L73.4125 68.2163L72.5678 69.3075L71.6603 70.3642L70.6905 71.384ZM70.6905 71.384C70.3341 71.7404 69.7551 71.7404 69.3987 71.384C69.0423 71.0276 69.0423 70.4486 69.3987 70.0921L70.6905 71.384ZM32.0051 71.384L33.297 70.0921L34.2502 70.9985L35.237 71.8455L36.2552 72.6343L37.3025 73.3648L38.3775 74.0361L39.4769 74.6495L40.599 75.2043L41.742 75.7009L42.9027 76.139L44.0792 76.5185L45.2698 76.8397L46.4721 77.1024L47.683 77.3072L48.9008 77.4531L50.1234 77.5408L51.3484 77.5699L52.5733 77.5408L53.7956 77.4531L55.0138 77.3072L56.2244 77.1024L57.4266 76.8397L58.6172 76.5185L59.7938 76.139L60.9544 75.7009L62.097 75.2043L63.2191 74.6495L64.3186 74.0361L65.3935 73.3648L66.4408 72.6343L67.459 71.8455L68.4455 70.9985L69.3987 70.0921L70.6905 71.384L69.6708 72.3538L68.614 73.2613L67.5233 74.106L66.4004 74.8887L65.2484 75.6091L64.0695 76.2664L62.8665 76.8613L61.6416 77.3934L60.397 77.8632L59.1357 78.2699L57.8598 78.6146L56.5721 78.8962L55.2746 79.1154L53.9695 79.2719L52.6603 79.3656L51.3484 79.3969L50.0365 79.3656L48.7269 79.2719L47.4222 79.1154L46.1243 78.8962L44.8366 78.6146L43.5607 78.2699L42.2995 77.8632L41.0549 77.3934L39.8303 76.8613L38.6265 76.2664L37.4477 75.6091L36.2957 74.8887L35.1728 74.106L34.082 73.2613L33.0249 72.3538L32.0051 71.384ZM32.0051 71.384C31.6487 71.0276 31.6487 70.4486 32.0051 70.0921C32.3616 69.7357 32.9406 69.7357 33.297 70.0921L32.0051 71.384ZM32.0051 32.6979L33.297 33.9897L32.391 34.9429L31.5433 35.9294L30.7549 36.9476L30.0251 37.9952L29.3534 39.0702L28.74 40.1693L28.1856 41.2914L27.6889 42.4343L27.2509 43.595L26.8714 44.7719L26.5502 45.9625L26.2875 47.164L26.083 48.3753L25.9368 49.5939L25.8491 50.8158L25.82 52.0411L25.8491 53.2661L25.9368 54.488L26.083 55.7065L26.2875 56.9178L26.5502 58.1194L26.8714 59.3099L27.2509 60.4868L27.6889 61.6475L28.1856 62.7905L28.74 63.9126L29.3534 65.0117L30.0251 66.0866L30.7549 67.1343L31.5433 68.1525L32.391 69.1389L33.297 70.0921L32.0051 71.384L31.0357 70.3642L30.1282 69.3075L29.2832 68.216L28.5004 67.0934L27.7804 65.9415L27.1231 64.7622L26.5286 63.5592L25.9965 62.3347L25.5267 61.09L25.12 59.8284L24.7753 58.5525L24.4937 57.2648L24.2749 55.9673L24.118 54.6626L24.0243 53.353L23.9929 52.0411L24.0243 50.7289L24.118 49.4192L24.2749 48.1146L24.4937 46.8171L24.7753 45.5294L25.12 44.2534L25.5267 42.9918L25.9965 41.7472L26.5286 40.5226L27.1231 39.3196L27.7804 38.1404L28.5004 36.9884L29.2832 35.8659L30.1282 34.7743L31.0357 33.7176L32.0051 32.6979ZM32.0051 32.6979C32.3616 32.3414 32.9406 32.3414 33.297 32.6979C33.6534 33.0543 33.6534 33.6333 33.297 33.9897L32.0051 32.6979ZM70.6905 32.6979L69.3987 33.9897L68.4458 33.0837L67.459 32.2367L66.4408 31.448L65.3935 30.7181L64.3186 30.0465L63.2191 29.4331L62.097 28.8783L60.9548 28.382L59.7938 27.944L58.6172 27.5641L57.4266 27.2433L56.2244 26.9806L55.0138 26.7757L53.7956 26.6298L52.5733 26.5421L51.3484 26.5131L50.1234 26.5421L48.9008 26.6298L47.683 26.7757L46.4721 26.9806L45.2698 27.2433L44.0792 27.5641L42.9027 27.944L41.7416 28.382L40.599 28.8783L39.4769 29.4331L38.3775 30.0465L37.3025 30.7181L36.2552 31.448L35.237 32.2367L34.2498 33.0837L33.297 33.9897L32.0051 32.6979L33.0253 31.7284L34.082 30.8209L35.1728 29.9762L36.2957 29.1935L37.4477 28.4735L38.6265 27.8162L39.8303 27.2213L41.0552 26.6888L42.2995 26.2198L43.5607 25.8127L44.8366 25.4684L46.1243 25.1868L47.4222 24.9676L48.7269 24.8111L50.0365 24.7174L51.3484 24.686L52.6603 24.7174L53.9695 24.8111L55.2746 24.9676L56.5721 25.1868L57.8598 25.4684L59.1357 25.8127L60.397 26.2198L61.6412 26.6888L62.8665 27.2213L64.0695 27.8162L65.2484 28.4735L66.4004 29.1935L67.5233 29.9762L68.614 30.8209L69.6704 31.7284L70.6905 32.6979ZM70.6905 32.6979C71.0469 33.0543 71.0469 33.6333 70.6905 33.9897C70.3341 34.3461 69.7551 34.3461 69.3987 33.9897L70.6905 32.6979Z" fill="#E5BA47"/>
<path d="M72.8558 36.4815C72.4616 36.7959 71.8864 36.7317 71.5719 36.3375C71.2574 35.9433 71.3217 35.368 71.7159 35.0536L72.8558 36.4815ZM87.9391 36.2377L86.7486 37.6233L86.0437 37.0496L85.3486 36.5453L84.6634 36.1062L83.9899 35.7278L83.3285 35.4073L82.6792 35.1405L82.0435 34.9239L81.4214 34.7539L80.8136 34.6269L80.2206 34.5399L79.6435 34.4897L79.0822 34.473L78.5372 34.487L78.0103 34.5282L77.502 34.5944L77.0133 34.6817L76.5458 34.7879L76.0998 34.9096L75.6761 35.0441L75.2777 35.1874L74.9051 35.3374L74.5589 35.4905L74.2406 35.6439L73.9515 35.7932L73.6937 35.9368L73.4677 36.0703L73.2753 36.1908L73.1162 36.2955L72.9934 36.3802L72.9087 36.4414L72.8588 36.4792L72.8558 36.4815L71.7159 35.0536L71.7544 35.0241L71.8263 34.9697L71.9427 34.8858L72.0973 34.7792L72.2896 34.6525L72.5198 34.5086L72.7866 34.351L73.089 34.1831L73.425 34.0089L73.7939 33.8313L74.1953 33.654L74.6284 33.4798L75.0918 33.3131L75.5835 33.1574L76.1036 33.0153L76.6512 32.8909L77.2246 32.7885L77.8221 32.711L78.4435 32.6623L79.0867 32.646L79.7508 32.6657L80.4337 32.7258L81.1341 32.8286L81.85 32.9782L82.5801 33.1778L83.3225 33.4307L84.0753 33.7405L84.8365 34.1095L85.6053 34.5407L86.3797 35.0373L87.1579 35.602L87.9391 36.2377ZM87.9391 36.2377C88.3216 36.5661 88.3651 37.1433 88.0366 37.5258C87.7082 37.9082 87.1311 37.9517 86.7486 37.6233L87.9391 36.2377ZM101.55 43.8433L101.191 42.0517L101.492 43.8527L101.45 43.858L101.379 43.8651L101.275 43.8731L101.138 43.8814L100.965 43.8882L100.759 43.8912L100.523 43.889L100.257 43.8806L99.9595 43.864L99.6337 43.8376L99.2789 43.8001L98.8967 43.7491L98.4882 43.6837L98.0539 43.6025L97.5943 43.5035L97.1105 43.3855L96.603 43.2465L96.0731 43.0851L95.522 42.9003L94.949 42.6897L94.3564 42.452L93.7449 42.1859L93.1148 41.89L92.4666 41.5623L91.8018 41.2017L91.1211 40.8064L90.4253 40.3748L89.7155 39.9057L88.9918 39.3974L88.2559 38.8486L87.5079 38.2575L86.7486 37.6233L87.9391 36.2377L88.6599 36.8402L89.3686 37.3995L90.0636 37.9181L90.7443 38.3962L91.411 38.8365L92.0622 39.2402L92.6968 39.609L93.3148 39.9447L93.9153 40.2482L94.4978 40.5214L95.0617 40.7663L95.6052 40.9844L96.1282 41.1768L96.6309 41.3457L97.1109 41.492L97.5686 41.6175L98.0033 41.7233L98.4145 41.8118L98.8011 41.8839L99.1621 41.9418L99.4966 41.986L99.8046 42.0189L100.086 42.0415L100.337 42.0559L100.561 42.0627L100.756 42.0642L100.918 42.0619L101.05 42.0567L101.152 42.0506L101.221 42.045L101.255 42.0415L101.249 42.0423L101.55 43.8433ZM101.249 42.0423C101.748 41.9754 102.209 42.3261 102.276 42.8258C102.343 43.3254 101.992 43.7858 101.492 43.8527L101.249 42.0423ZM91.9953 52.4749L90.4351 51.524L90.9057 50.7745L91.3785 50.064L91.8525 49.392L92.3264 48.7582L92.7989 48.161L93.2694 47.5989L93.7369 47.0713L94.2003 46.5777L94.6576 46.1166L95.1085 45.6869L95.5523 45.2878L95.9876 44.9178L96.4125 44.5761L96.8271 44.262L97.2296 43.974L97.6193 43.711L97.9946 43.4725L98.3544 43.257L98.6983 43.0631L99.0249 42.8904L99.3333 42.7377L99.6209 42.6039L99.8885 42.4871L100.135 42.3874L100.358 42.3031L100.557 42.2328L100.731 42.1761L100.878 42.1315L101.001 42.0975L101.094 42.074L101.15 42.0608L101.191 42.0517L101.55 43.8433L101.561 43.841L101.526 43.8489L101.471 43.8625L101.39 43.8852L101.28 43.9184L101.144 43.9623L100.986 44.0182L100.803 44.0874L100.598 44.1705L100.372 44.2692L100.125 44.3841L99.8586 44.5164L99.5744 44.6664L99.2728 44.8361L98.9546 45.0266L98.6208 45.2387L98.2727 45.4737L97.911 45.7322L97.5372 46.0161L97.1517 46.3253L96.7557 46.662L96.3505 47.0271L95.9366 47.4213L95.5148 47.8461L95.087 48.302L94.6542 48.791L94.2162 49.3137L93.7747 49.8716L93.331 50.4654L92.8858 51.0965L92.4402 51.7655L91.9953 52.4749ZM91.9953 52.4749C91.733 52.9054 91.1703 53.0418 90.7398 52.7795C90.3093 52.5172 90.1728 51.9545 90.4351 51.524L91.9953 52.4749Z" fill="#E5BA47"/>
<path d="M22.7911 69.5282C23.2945 69.5607 23.6763 69.9953 23.6437 70.4988C23.6112 71.0022 23.1766 71.3839 22.6731 71.3514L22.7911 69.5282ZM14.7565 67.7616L15.9471 66.376L16.189 66.5805L16.429 66.7771L16.6663 66.9653L16.9018 67.1448L17.1358 67.3175L17.3671 67.4819L17.5961 67.6388L17.8236 67.7885L18.0493 67.9309L18.2723 68.0659L18.4937 68.1936L18.7133 68.3149L18.931 68.4295L19.1476 68.5375L19.3611 68.6392L19.5739 68.7345L19.7845 68.824L19.9931 68.9068L20.2017 68.9847L20.4077 69.0569L20.611 69.123L20.8152 69.1835L21.0181 69.2398L21.2188 69.2908L21.418 69.3362L21.6168 69.3774L21.8144 69.4133L22.0114 69.445L22.2079 69.4722L22.4029 69.4953L22.5968 69.5138L22.7911 69.5282L22.6731 71.3514L22.4419 71.334L22.2086 71.3117L21.9751 71.2842L21.7407 71.2516L21.5053 71.2138L21.2683 71.1704L21.0302 71.1216L20.7902 71.0664L20.5502 71.0056L20.3102 70.9395L20.0683 70.8669L19.8241 70.7879L19.5803 70.7028L19.3362 70.6114L19.0898 70.5135L18.843 70.4088L18.5954 70.2977L18.3464 70.1794L18.0973 70.0547L17.8463 69.9228L17.595 69.784L17.3425 69.6381L17.0885 69.4843L16.8342 69.3237L16.5787 69.1559L16.3217 68.9801L16.0639 68.7968L15.805 68.606L15.5446 68.4068L15.2831 68.1997L15.0204 67.985L14.7565 67.7616ZM14.7565 67.7616C14.3741 67.4332 14.3306 66.8561 14.659 66.4736C14.9875 66.0911 15.5646 66.0476 15.9471 66.376L14.7565 67.7616ZM1.12192 60.1625L1.52858 61.9434L1.20354 60.1478L1.24551 60.1425L1.31392 60.1357L1.41861 60.127L1.55883 60.1186L1.73155 60.1122L1.93564 60.1092L2.17225 60.1111L2.43908 60.1198L2.73576 60.136L3.06308 60.1625L3.41683 60.2003L3.79896 60.2509L4.2079 60.3163L4.64179 60.3976L5.10175 60.4962L5.58554 60.6145L6.09275 60.7529L6.62301 60.9146L7.17483 61.0994L7.74666 61.31L8.33967 61.5473L8.95157 61.8134L9.58164 62.1097L10.2294 62.4374L10.8943 62.798L11.5749 63.1933L12.2704 63.6249L12.9806 64.0936L13.7043 64.6023L14.4402 65.1507L15.1882 65.7418L15.9471 66.376L14.7565 67.7616L14.0354 67.1592L13.3275 66.5998L12.6325 66.0816L11.9518 65.6031L11.2854 65.1632L10.6338 64.7595L9.99927 64.3907L9.38131 64.055L8.78037 63.7515L8.19794 63.4779L7.63518 63.233L7.0913 63.0153L6.56783 62.8229L6.06592 62.654L5.58554 62.5081L5.12746 62.3826L4.69281 62.2764L4.28197 62.1883L3.89494 62.1161L3.53439 62.0583L3.19914 62.0145L2.89073 61.9812L2.61105 61.9585L2.3582 61.9446L2.13445 61.9374L1.94094 61.9362L1.77691 61.9385L1.645 61.9434L1.5456 61.9495L1.47719 61.9551L1.44052 61.9589L1.44696 61.9582L1.12192 60.1625ZM1.44696 61.9582C0.947305 62.0251 0.486943 61.6743 0.420046 61.1747C0.353148 60.675 0.703887 60.2147 1.20354 60.1478L1.44696 61.9582ZM11.5545 50.0613L13.1555 50.942H13.1552L12.6669 51.8022L12.1729 52.6178L11.6759 53.3896L11.1762 54.1194L10.6754 54.8077L10.1746 55.4555L9.67574 56.0644L9.17986 56.6351L8.68776 57.1691L8.20135 57.6673L7.72097 58.131L7.24966 58.5607L6.78742 58.9591L6.33539 59.3261L5.89508 59.6625L5.46913 59.9701L5.05753 60.2506L4.66144 60.5045L4.28273 60.7328L3.92292 60.9369L3.58313 61.118L3.26453 61.2779L2.96783 61.4169L2.69609 61.5364L2.44853 61.638L2.22743 61.7231L2.03391 61.7919L1.87177 61.8455L1.73948 61.8867L1.63594 61.9162L1.56752 61.934L1.52858 61.9434L1.12192 60.1625L1.11775 60.1636L1.15139 60.1549L1.21489 60.1368L1.31165 60.1069L1.439 60.0646L1.59246 60.0102L1.77274 59.941L1.97949 59.856L2.21117 59.7539L2.46629 59.6345L2.74333 59.4958L3.04154 59.3367L3.35977 59.156L3.69615 58.9534L4.04991 58.7267L4.41992 58.475L4.80505 58.1968L5.20381 57.8914L5.61501 57.5576L6.03794 57.194L6.4707 56.7991L6.91253 56.3724L7.36192 55.912L7.81847 55.4173L8.27958 54.8867L8.74521 54.3186L9.2135 53.7123L9.6833 53.0664L10.1535 52.3797L10.6233 51.6502L11.0908 50.8785L11.5549 50.0613H11.5545ZM11.5549 50.0613C11.7979 49.6195 12.3535 49.4585 12.7954 49.7015C13.2372 49.9446 13.3982 50.5001 13.1552 50.942L11.5549 50.0613ZM26.3325 43.2669L25.7656 45.0032L25.7618 45.002L25.7043 44.9851L25.6012 44.9571L25.4553 44.9204L25.2712 44.8781L25.0482 44.8327L24.7893 44.7866L24.4983 44.7432L24.1748 44.7039L23.8233 44.6721L23.4453 44.6502L23.0439 44.6407L22.6195 44.646L22.1765 44.6683L21.7162 44.7106L21.2407 44.7753L20.7524 44.8645L20.2531 44.9809L19.7455 45.1268L19.2307 45.3044L18.7111 45.5172L18.1876 45.7663L17.663 46.0558L17.1381 46.3876L16.6153 46.7645L16.096 47.1904L15.5816 47.6678L15.0744 48.1999L14.5759 48.7903L14.0887 49.4415L13.6144 50.1577L13.1555 50.942L11.5545 50.0613L12.0633 49.1924L12.5943 48.3908L13.145 47.6541L13.7138 46.9806L14.2974 46.3684L14.8941 45.8146L15.5004 45.3177L16.1146 44.8743L16.7325 44.4835L17.3523 44.1418L17.9711 43.8467L18.586 43.5953L19.1937 43.3852L19.7928 43.2128L20.3797 43.076L20.9527 42.971L21.5083 42.8957L22.0458 42.8458L22.5613 42.8198L23.053 42.8137L23.5194 42.8247L23.9578 42.8504L24.366 42.8874L24.7417 42.9328L25.0834 42.9838L25.3884 43.0382L25.6545 43.0919L25.8801 43.1433L26.0615 43.189L26.1972 43.2261L26.2864 43.2521L26.3325 43.2669ZM26.3325 43.2669C26.8117 43.4234 27.0736 43.9393 26.9172 44.4185C26.7607 44.8978 26.2448 45.1597 25.7656 45.0032L26.3325 43.2669Z" fill="#E5BA47"/>
<path d="M55.5826 25.819C55.5263 26.3202 55.0739 26.6812 54.5727 26.6249C54.0715 26.5685 53.7106 26.1161 53.7669 25.615L55.5826 25.819ZM66.0765 14.9809L66.2148 16.8026L65.3107 16.8956L64.4622 17.0305L63.6674 17.204L62.9235 17.413L62.2293 17.6541L61.5814 17.9247L60.9782 18.2215L60.4185 18.5408L59.8988 18.8806L59.418 19.2385L58.9739 19.6112L58.5654 19.9967L58.1897 20.3913L57.8469 20.793L57.5339 21.1989L57.2505 21.6064L56.9942 22.0123L56.7652 22.4141L56.5607 22.8079L56.3805 23.1915L56.2224 23.5611L56.086 23.9142L55.9692 24.2471L55.8713 24.5571L55.7901 24.8417L55.7243 25.0957L55.6733 25.3175L55.6351 25.5031L55.6083 25.6493L55.5917 25.7533L55.583 25.8153L55.5826 25.819L53.7669 25.615L53.7733 25.5666L53.7858 25.4774L53.8085 25.3372L53.8421 25.1516L53.8894 24.9252L53.9502 24.661L54.0273 24.3609L54.1222 24.0295L54.2367 23.6681L54.3724 23.2815L54.5307 22.8718L54.7137 22.4432L54.9234 21.9976L55.1612 21.5395L55.4287 21.0712L55.7281 20.5965L56.0607 20.1188L56.4288 19.641L56.8336 19.1674L57.2773 18.7011L57.7607 18.246L58.2857 17.8053L58.8541 17.3824L59.466 16.9821L60.1233 16.6068L60.827 16.261L61.5784 15.9473L62.3778 15.6699L63.2267 15.4314L64.1251 15.2352L65.0749 15.0837L66.0765 14.9809ZM66.0765 14.9809C66.5795 14.9427 67.0183 15.3195 67.0565 15.8226C67.0946 16.3256 66.7178 16.7644 66.2148 16.8026L66.0765 14.9809ZM81.0917 10.7134L79.5452 9.74133L81.0445 10.7814L81.0184 10.8151L80.9746 10.8688L80.9066 10.9485L80.8143 11.0524L80.6972 11.1791L80.5539 11.3264L80.3854 11.4924L80.1907 11.6753L79.9688 11.8734L79.7194 12.0854L79.4424 12.3091L79.1362 12.5435L78.801 12.7869L78.4359 13.0363L78.0413 13.2911L77.6153 13.5499L77.1584 13.8107L76.6697 14.0711L76.1493 14.3301L75.5956 14.5859L75.0086 14.8373L74.3872 15.0818L73.7323 15.318L73.0429 15.5444L72.318 15.7594L71.5568 15.9613L70.7596 16.1484L69.9259 16.3188L69.0547 16.4708L68.1469 16.6031L67.1997 16.7146L66.2148 16.8026L66.0765 14.9809L67.0123 14.8974L67.9088 14.7919L68.7667 14.6672L69.5865 14.5236L70.3688 14.3637L71.1146 14.1887L71.8243 14.0005L72.4986 13.8005L73.1381 13.5908L73.7432 13.3727L74.3147 13.147L74.8533 12.9169L75.3593 12.6829L75.8337 12.4467L76.277 12.2105L76.6894 11.9754L77.0722 11.743L77.4252 11.5147L77.7495 11.2924L78.0455 11.0785L78.313 10.8729L78.5545 10.6779L78.7692 10.4953L78.9578 10.3268L79.1207 10.1741L79.259 10.0384L79.3721 9.92122L79.462 9.82408L79.5293 9.74812L79.5739 9.6956L79.5966 9.66762L79.5924 9.6733L81.0917 10.7134ZM79.5924 9.6733C79.8982 9.27267 80.4719 9.19554 80.8725 9.5013C81.2732 9.80707 81.3503 10.3808 81.0445 10.7814L79.5924 9.6733ZM80.857 25.2321L79.1026 25.7416V25.7412L78.8399 24.7876L78.612 23.8616L78.4181 22.9644L78.2556 22.0951L78.1229 21.2549L78.0186 20.4423L77.9411 19.6592L77.8882 18.9052L77.8584 18.1795L77.8504 17.4833L77.8618 16.8158L77.8916 16.1786L77.937 15.5701L77.9971 14.9915L78.07 14.4423L78.1539 13.9226L78.2469 13.4332L78.3474 12.9747L78.4533 12.5453L78.5636 12.1462L78.6759 11.7774L78.7881 11.4395L78.8996 11.1314L79.0073 10.8548L79.1101 10.6076L79.2069 10.391L79.2942 10.2073L79.3709 10.0535L79.4375 9.92801L79.4881 9.8377L79.5225 9.77835L79.5452 9.74133L81.0917 10.7134L81.0955 10.7066L81.077 10.7387L81.043 10.7996L80.9969 10.8865L80.9375 11.0056L80.8668 11.1545L80.7883 11.3302L80.7021 11.5366L80.6102 11.7725L80.5146 12.0374L80.4167 12.3314L80.3181 12.6542L80.2213 13.0064L80.1269 13.3882L80.0369 13.799L79.953 14.2386L79.8774 14.7076L79.8112 15.2054L79.7564 15.7319L79.7149 16.2882L79.688 16.8733L79.6774 17.4878L79.6846 18.1311L79.7122 18.8031L79.7613 19.505L79.8335 20.2359L79.931 20.9956L80.0554 21.7844L80.2089 22.6031L80.3922 23.4504L80.6072 24.3265L80.857 25.2325V25.2321ZM80.857 25.2325C80.9972 25.7166 80.7183 26.2238 80.2342 26.364C79.75 26.5043 79.2428 26.2254 79.1026 25.7412L80.857 25.2325ZM80.8094 33.9072L79.0912 33.2874L79.1547 33.1056L79.2152 32.9215L79.273 32.7333L79.3278 32.5417L79.3792 32.3474L79.4272 32.1498L79.4714 31.9483L79.513 31.7438L79.5501 31.5364L79.5841 31.3251L79.6136 31.11L79.6393 30.8923L79.6604 30.6708L79.6778 30.4448L79.6907 30.2161L79.6986 29.9837L79.702 29.7471L79.7012 29.5075L79.6948 29.2645L79.6835 29.0169L79.6668 28.7656L79.645 28.5101L79.6177 28.2512L79.5848 27.9885L79.5463 27.7213L79.5017 27.4503L79.4514 27.1763L79.3943 26.8977L79.3312 26.6146L79.2617 26.3278L79.1854 26.0364L79.1026 25.7416L80.857 25.2321L80.9489 25.5586L81.0328 25.8811L81.1106 26.2004L81.1806 26.516L81.2444 26.8278L81.3015 27.1373L81.3514 27.4424L81.3952 27.7436L81.4327 28.0418L81.4636 28.3362L81.4886 28.6272L81.5075 28.9149L81.5203 29.1987L81.5275 29.4795L81.529 29.7562L81.5249 30.0291L81.5154 30.2993L81.5003 30.5657L81.4807 30.8273L81.4557 31.0866L81.4255 31.3421L81.3907 31.5934L81.3514 31.841L81.3075 32.0855L81.2592 32.3263L81.2066 32.5633L81.1496 32.7964L81.0891 33.0262L81.0245 33.2519L80.9568 33.4734L80.885 33.6929L80.8094 33.9072ZM80.8094 33.9072C80.6386 34.3816 80.1147 34.6272 79.6404 34.4564C79.1661 34.2856 78.9204 33.7617 79.0912 33.2874L80.8094 33.9072Z" fill="#E5BA47"/>
<path d="M39.8844 86.5516C40.364 86.3963 40.8795 86.6593 41.0348 87.139C41.1902 87.6186 40.9271 88.1341 40.4475 88.2895L39.8844 86.5516ZM36.6188 89.0201L36.4813 87.1983H36.4805L36.6007 87.1889L36.7209 87.1783L36.8396 87.1673L36.9575 87.1552L37.0746 87.1428L37.1907 87.1295L37.3041 87.1155L37.4178 87.1008L37.5327 87.0849L37.6431 87.0694L37.7538 87.052L37.8657 87.0343L37.9749 87.0161L38.0834 86.9976L38.1904 86.978L38.2981 86.9576L38.4032 86.9371L38.5075 86.9152L38.6125 86.8933L38.7153 86.8706L38.8166 86.8476L38.9183 86.823L39.0196 86.7984L39.1186 86.7735L39.2161 86.7482L39.3144 86.7213L39.4119 86.6945L39.509 86.6665L39.6043 86.639L39.6973 86.6106L39.791 86.5811L39.8844 86.5516L40.4475 88.2895L40.3413 88.3235L40.2347 88.3568L40.1251 88.3896L40.0162 88.4218L39.907 88.4528L39.7974 88.4834L39.6863 88.5132L39.5729 88.5431L39.4588 88.5718L39.3462 88.5994L39.2316 88.6262L39.1152 88.6531L38.9981 88.6788L38.8816 88.7037L38.7629 88.7279L38.6435 88.7513L38.5245 88.774L38.4032 88.7959L38.2811 88.8175L38.1582 88.8379L38.0365 88.8571L37.9122 88.876L37.7852 88.8946L37.6605 88.9112L37.5339 88.9282L37.4046 88.9437L37.2757 88.9585L37.1465 88.9724L37.0164 88.9853L36.8849 88.9978L36.7534 89.0091L36.6196 89.0201H36.6188ZM36.6196 89.0201C36.1165 89.0582 35.6774 88.6818 35.6392 88.1787C35.601 87.6757 35.9774 87.2365 36.4805 87.1983L36.6196 89.0201ZM21.6043 93.2868L23.1509 94.2588L21.6515 93.2187L21.6776 93.1851L21.7214 93.1314L21.7895 93.0517L21.8817 92.9477L21.9992 92.8207L22.1421 92.6741L22.3103 92.5082L22.5053 92.3249L22.7272 92.1268L22.9766 91.9148L23.254 91.6907L23.5598 91.4567L23.8947 91.2141L24.2594 90.9642L24.6548 90.7087L25.0803 90.4506L25.5373 90.1898L26.0259 89.9294L26.5471 89.6705L27.1005 89.4146L27.6874 89.1633L28.308 88.9187L28.9634 88.6825L29.6528 88.4562L30.3781 88.2411L31.1389 88.0393L31.936 87.8525L32.7698 87.6821L33.6406 87.5302L34.5488 87.3975L35.4959 87.2864L36.4813 87.1983L36.6188 89.0201L35.6834 89.1036L34.7869 89.2087L33.9293 89.3337L33.1092 89.4774L32.3268 89.6373L31.5811 89.8119L30.8717 90.0001L30.197 90.2L29.5575 90.4098L28.9528 90.6279L28.3814 90.8535L27.8428 91.0837L27.3363 91.3176L26.862 91.5539L26.4187 91.7901L26.0063 92.0251L25.6238 92.2576L25.2708 92.4851L24.9469 92.7077L24.6506 92.9224L24.3826 93.1276L24.1415 93.3223L23.9268 93.5048L23.7382 93.6734L23.5757 93.8257L23.437 93.9622L23.3236 94.0793L23.234 94.1761L23.1667 94.252L23.1222 94.3046L23.0995 94.3325L23.1036 94.3269L21.6043 93.2868ZM23.1036 94.3269C22.7979 94.7275 22.2241 94.8046 21.8235 94.4989C21.4229 94.1931 21.3458 93.6194 21.6515 93.2187L23.1036 94.3269ZM21.839 78.7685L23.5935 78.259V78.2594L23.8561 79.2129L24.084 80.1389L24.2779 81.0362L24.4405 81.9055L24.5731 82.7457L24.6774 83.5583L24.7549 84.3414L24.8078 85.0954L24.8377 85.821L24.8456 86.5172L24.8343 87.1843L24.8044 87.8219L24.7591 88.4301L24.699 89.0091L24.626 89.5583L24.5421 90.0775L24.4491 90.567L24.3486 91.0258L24.2424 91.4548L24.1324 91.8539L24.0202 92.2224L23.9079 92.5611L23.7964 92.8688L23.6887 93.1458L23.5855 93.393L23.4892 93.6088L23.4018 93.7932L23.3247 93.9474L23.2586 94.0721L23.2079 94.1625L23.1735 94.2218L23.1509 94.2588L21.6043 93.2868L21.6005 93.2935L21.619 93.2614L21.6531 93.2006L21.6995 93.1129L21.7585 92.995L21.8291 92.8461L21.9082 92.6695L21.9939 92.464L22.0858 92.2277L22.1814 91.9632L22.2793 91.6691L22.378 91.346L22.4751 90.9937L22.5692 90.6124L22.6592 90.2012L22.7431 89.7616L22.8187 89.2929L22.8848 88.7952L22.9396 88.2683L22.9812 87.7123L23.008 87.1269L23.0186 86.5127L23.0114 85.8694L22.9838 85.1974L22.9347 84.4956L22.8625 83.7646L22.765 83.0049L22.6406 82.2161L22.4872 81.3975L22.3039 80.5501L22.0888 79.674L21.839 78.7681V78.7685ZM21.839 78.7681C21.6988 78.2839 21.9777 77.7767 22.4618 77.6365C22.946 77.4963 23.4532 77.7752 23.5935 78.2594L21.839 78.7681ZM21.8719 70.133L23.5923 70.7468L23.5299 70.9274L23.4703 71.1115L23.4136 71.2993L23.3595 71.4902L23.3088 71.6841L23.2616 71.8814L23.2178 72.0817L23.1777 72.2847L23.1411 72.4914L23.1082 72.7027L23.079 72.9166L23.0545 73.1336L23.0333 73.3547L23.0171 73.5788L23.0046 73.8071L22.997 74.0388L22.994 74.2738L22.9955 74.5123L23.0023 74.7554L23.0137 75.0018L23.0307 75.2512L23.0526 75.5052L23.0798 75.763L23.1131 76.0245L23.1516 76.2902L23.1962 76.5593L23.2465 76.8322L23.3032 77.1096L23.3663 77.3912L23.4351 77.6766L23.511 77.9657L23.5935 78.259L21.839 78.7685L21.7483 78.4442L21.664 78.1233L21.5869 77.8054L21.517 77.4921L21.4535 77.1814L21.3964 76.8745L21.3465 76.5706L21.3027 76.2709L21.2657 75.9746L21.2339 75.6814L21.209 75.3918L21.1897 75.1053L21.1768 74.8226L21.1692 74.5441L21.167 74.2686L21.1708 73.9964L21.1798 73.7277L21.1938 73.4631L21.2131 73.202L21.2373 72.9438L21.2664 72.6898L21.3008 72.4389L21.339 72.1928L21.3817 71.9491L21.4293 71.7083L21.4815 71.4725L21.537 71.2404L21.5967 71.0117L21.6598 70.7869L21.7271 70.5657L21.7974 70.3477L21.8719 70.133ZM21.8719 70.133C22.0412 69.6579 22.5639 69.4103 23.039 69.5797C23.5141 69.749 23.7616 70.2717 23.5923 70.7468L21.8719 70.133ZM27.4845 63.5132L28.3114 65.1421L28.3164 65.1395L28.2921 65.1527L28.2521 65.1739L28.1962 65.2064L28.1194 65.251L28.0291 65.3054L27.9244 65.3708L27.8061 65.4468L27.6757 65.5341L27.5328 65.6331L27.3806 65.7431L27.2184 65.8644L27.0479 65.997L26.8703 66.1411L26.6862 66.2968L26.4973 66.4634L26.3045 66.6422L26.108 66.8327L25.9092 67.0349L25.7096 67.2485L25.5108 67.4729L25.3124 67.7103L25.1155 67.9597L24.9216 68.2209L24.7319 68.4934L24.5474 68.7777L24.3683 69.0751L24.1959 69.3846L24.0311 69.7059L23.8754 70.04L23.7288 70.387L23.5923 70.7468L21.8719 70.133L22.0325 69.7082L22.2056 69.2985L22.3901 68.9039L22.5843 68.5237L22.7876 68.1597L22.9978 67.8101L23.2155 67.4745L23.4385 67.1543L23.6649 66.8493L23.8943 66.5591L24.1252 66.2824L24.358 66.0193L24.5901 65.7711L24.8199 65.5371L25.0474 65.3164L25.272 65.1089L25.4912 64.915L25.7047 64.7343L25.911 64.5669L26.1095 64.4123L26.2988 64.2706L26.4784 64.1417L26.6462 64.0253L26.8023 63.9206L26.9455 63.828L27.0736 63.7482L27.1866 63.6802L27.2807 63.625L27.3609 63.5797L27.4214 63.5464L27.4584 63.5264L27.4845 63.5132ZM27.4845 63.5132C27.9343 63.2849 28.4841 63.4644 28.7124 63.9142C28.9407 64.3639 28.7612 64.9138 28.3114 65.1421L27.4845 63.5132Z" fill="#E5BA47"/>
<path d="M30.9802 35.0536C31.3744 35.368 31.4386 35.9433 31.1242 36.3375C30.8097 36.7317 30.2345 36.7959 29.8403 36.4815L30.9802 35.0536ZM15.9471 37.6233L14.7565 36.2377L15.5378 35.602L16.316 35.0373L17.0904 34.5407L17.8592 34.1095L18.6207 33.7405L19.3733 33.4307L20.1155 33.1778L20.8458 32.9782L21.562 32.8286L22.2623 32.7258L22.9453 32.6657L23.6093 32.646L24.2526 32.6623L24.8736 32.711L25.4715 32.7885L26.0445 32.8909L26.5925 33.0153L27.1126 33.1574L27.6047 33.3131L28.0673 33.4798L28.5004 33.654L28.9022 33.8313L29.2711 34.0089L29.6071 34.1831L29.9094 34.351L30.1763 34.5086L30.4064 34.6525L30.5988 34.7792L30.7534 34.8858L30.8698 34.9697L30.9416 35.0241L30.9802 35.0536L29.8403 36.4815L29.8373 36.4792L29.7874 36.4414L29.7027 36.3802L29.5799 36.2955L29.4207 36.1908L29.2284 36.0703L29.0023 35.9368L28.7446 35.7932L28.4554 35.6439L28.1372 35.4905L27.7914 35.3374L27.418 35.1874L27.0196 35.0441L26.5963 34.9096L26.1503 34.7879L25.6824 34.6817L25.1941 34.5944L24.6854 34.5282L24.1589 34.487L23.6139 34.473L23.0526 34.4897L22.4755 34.5399L21.8825 34.6269L21.2743 34.7539L20.6522 34.9239L20.0165 35.1405L19.3676 35.4073L18.7058 35.7278L18.0323 36.1062L17.347 36.5453L16.652 37.0496L15.9471 37.6233ZM15.9471 37.6233C15.5646 37.9517 14.9875 37.9082 14.659 37.5258C14.3306 37.1433 14.3741 36.5661 14.7565 36.2377L15.9471 37.6233ZM1.52858 42.057L1.12192 43.8379L1.44696 42.0423L1.44052 42.0415L1.47455 42.045L1.5437 42.0506L1.64612 42.0567L1.77767 42.0619L1.94018 42.0642L2.13445 42.0627L2.3582 42.0559L2.61029 42.0415L2.89148 42.0189L3.19914 41.986L3.534 41.9418L3.89494 41.8839L4.2816 41.8118L4.69281 41.7233L5.12746 41.6175L5.58515 41.492L6.06592 41.3457L6.56783 41.1768L7.09091 40.9844L7.63479 40.7663L8.19832 40.5214L8.78074 40.2482L9.38131 39.9447L9.99927 39.609L10.6338 39.2402L11.2851 38.8365L11.9518 38.3962L12.6325 37.9181L13.3275 37.3999L14.0354 36.8402L14.7565 36.2377L15.9471 37.6233L15.1882 38.2575L14.4402 38.8482L13.7043 39.3974L12.9806 39.9057L12.2708 40.3748L11.5749 40.8064L10.8943 41.2017L10.2294 41.5623L9.58125 41.89L8.9512 42.1859L8.34006 42.452L7.74705 42.6897L7.17483 42.9003L6.62301 43.0851L6.09312 43.2465L5.58554 43.3855L5.10175 43.5035L4.64215 43.6025L4.2079 43.6837L3.79933 43.7491L3.41683 43.8001L3.06232 43.8376L2.73652 43.864L2.43908 43.8806L2.17225 43.889L1.9364 43.8912L1.73079 43.8882L1.55769 43.8814L1.42049 43.8731L1.31656 43.8651L1.24551 43.858L1.20354 43.8527L1.52858 42.057ZM1.20354 43.8527C0.703887 43.7858 0.353148 43.3254 0.420046 42.8258C0.486943 42.3261 0.947305 41.9754 1.44696 42.0423L1.20354 43.8527ZM12.2579 51.5195L10.7038 52.4795L10.2616 51.7837L9.81822 51.1264L9.37489 50.5054L8.93231 49.92L8.49236 49.3693L8.05545 48.8519L7.6227 48.3669L7.19485 47.9138L6.77344 47.4909L6.3592 47.097L5.9529 46.7316L5.55605 46.3933L5.16979 46.0818L4.79448 45.7954L4.43127 45.5334L4.08167 45.2946L3.74603 45.0784L3.42553 44.8826L3.12204 44.708L2.83518 44.5523L2.56683 44.4151L2.31813 44.2953L2.08948 44.1917L1.88234 44.1036L1.69829 44.0303L1.53691 43.9702L1.39933 43.9222L1.28745 43.8856L1.20393 43.8602L1.14685 43.8444L1.11549 43.8364L1.12192 43.8379L1.52858 42.057L1.56601 42.0661L1.62534 42.0816L1.71719 42.1073L1.83851 42.144L1.98515 42.192L2.15826 42.252L2.35668 42.3265L2.5793 42.415L2.82497 42.5196L3.09218 42.6406L3.38018 42.7793L3.68782 42.9369L4.01401 43.1138L4.35756 43.3118L4.71738 43.531L5.0923 43.7729L5.48122 44.0382L5.88373 44.3289L6.2976 44.6449L6.72241 44.9873L7.15705 45.3573L7.59964 45.756L8.05017 46.1839L8.50711 46.6424L8.96896 47.1325L9.43498 47.6545L9.90439 48.2097L10.3753 48.7997L10.8474 49.4245L11.3195 50.0855L11.79 50.7836L12.2579 51.5195ZM12.2579 51.5195C12.5228 51.9484 12.3898 52.5116 11.9608 52.7765C11.5319 53.0415 10.9687 52.9084 10.7038 52.4795L12.2579 51.5195Z" fill="#E5BA47"/>
<path d="M80.2342 71.2951C79.7322 71.3446 79.2843 70.9784 79.2348 70.4765C79.1853 69.9745 79.5516 69.5267 80.0535 69.4771L80.2342 71.2951ZM86.7485 66.376L87.9391 67.7616L87.6881 67.974L87.4364 68.1789L87.1855 68.3762L86.9353 68.5659L86.685 68.7488L86.4348 68.9246L86.185 69.0928L85.9359 69.2545L85.6872 69.4091L85.4397 69.5569L85.1925 69.6982L84.9453 69.8332L84.6993 69.9609L84.454 70.0826L84.2098 70.1979L83.9664 70.3071L83.7234 70.4107L83.4823 70.5074L83.2411 70.5989L83.0012 70.6843L82.7638 70.7637L82.5261 70.8381L82.2902 70.9066L82.0555 70.9697L81.8223 71.0279L81.5906 71.0804L81.3601 71.1284L81.1318 71.1711L80.905 71.2089L80.6798 71.2422L80.4564 71.2709L80.2342 71.2951L80.0535 69.4771L80.241 69.4567L80.4303 69.4326L80.6208 69.4046L80.8136 69.3721L81.007 69.3362L81.2021 69.2957L81.399 69.2507L81.5974 69.2016L81.7974 69.1476L81.9984 69.089L82.2006 69.0259L82.4055 68.9571L82.6107 68.8845L82.8171 68.8059L83.0257 68.722L83.2347 68.6335L83.4456 68.5387L83.658 68.4385L83.8716 68.3327L84.0859 68.2208L84.3013 68.1033L84.5182 67.9793L84.7371 67.8489L84.9563 67.7125L85.1766 67.5696L85.3985 67.4196L85.6207 67.2635L85.8445 67.1002L86.069 66.9301L86.295 66.7525L86.521 66.5681L86.7485 66.376ZM86.7485 66.376C87.131 66.0476 87.7082 66.0911 88.0366 66.4736C88.365 66.8561 88.3216 67.4332 87.9391 67.7616L86.7485 66.376ZM101.167 61.9434L101.574 60.1625L101.249 61.9582L101.255 61.9589L101.218 61.9551L101.15 61.9495L101.051 61.9434L100.919 61.9385L100.755 61.9362L100.561 61.9374L100.337 61.9446L100.085 61.9585L99.8053 61.9812L99.4965 62.0145L99.1617 62.0583L98.8011 62.1161L98.4141 62.1883L98.0032 62.2764L97.5686 62.3826L97.1109 62.5081L96.6309 62.654L96.1282 62.8229L95.6047 63.0153L95.0612 63.233L94.4981 63.4779L93.9156 63.7515L93.3147 64.055L92.6967 64.3907L92.0622 64.7595L91.4106 65.1632L90.7443 65.6031L90.0636 66.0816L89.3685 66.5998L88.6599 67.1592L87.9391 67.7616L86.7485 66.376L87.5078 65.7418L88.2558 65.1507L88.9917 64.6023L89.7155 64.0936L90.4256 63.6249L91.1211 63.1933L91.8018 62.798L92.4666 62.4374L93.1144 62.1097L93.7445 61.8134L94.3568 61.5473L94.9494 61.31L95.5219 61.0994L96.073 60.9146L96.6029 60.7529L97.1105 60.6145L97.5943 60.4962L98.0542 60.3976L98.4881 60.3163L98.8971 60.2509L99.2788 60.2003L99.633 60.1625L99.9599 60.136L100.257 60.1198L100.523 60.1111L100.76 60.1092L100.964 60.1122L101.137 60.1186L101.277 60.127L101.382 60.1357L101.45 60.1425L101.492 60.1478L101.167 61.9434ZM101.492 60.1478C101.992 60.2147 102.342 60.675 102.276 61.1747C102.209 61.6743 101.748 62.0251 101.249 61.9582L101.492 60.1478ZM89.542 50.942L91.1422 50.0613H91.1426L91.6064 50.8785L92.0735 51.6502L92.5433 52.3797L93.0135 53.0664L93.4833 53.7123L93.9516 54.3186L94.4168 54.8867L94.8779 55.4173L95.3341 55.912L95.7835 56.3724L96.2253 56.7991L96.6581 57.194L97.081 57.5576L97.4922 57.8917L97.8906 58.1968L98.2761 58.475L98.6461 58.7267L98.9999 58.9534L99.3363 59.1564L99.6541 59.3367L99.9523 59.4958L100.23 59.6345L100.484 59.7539L100.716 59.856L100.923 59.941L101.103 60.0102L101.257 60.0646L101.384 60.1069L101.481 60.1368L101.544 60.1549L101.578 60.1636L101.574 60.1625L101.167 61.9434L101.128 61.934L101.06 61.9162L100.956 61.8867L100.824 61.8455L100.662 61.7919L100.468 61.7231L100.247 61.638L99.9996 61.5364L99.7278 61.4169L99.4315 61.2779L99.1125 61.118L98.7727 60.9369L98.4125 60.7324L98.0346 60.5045L97.6385 60.2506L97.2269 59.9701L96.8006 59.6625L96.3606 59.3257L95.9086 58.9591L95.4464 58.5607L94.9751 58.131L94.4947 57.6673L94.0083 57.1691L93.5165 56.6351L93.0207 56.0644L92.5214 55.4555L92.0214 54.8077L91.5206 54.1194L91.0209 53.3896L90.5239 52.6178L90.0303 51.8022L89.5416 50.942H89.542ZM89.5416 50.942C89.2986 50.5001 89.46 49.9442 89.9018 49.7011C90.3436 49.4581 90.8996 49.6195 91.1426 50.0613L89.5416 50.942ZM76.9301 45.0032L76.3632 43.2669L76.4093 43.2521L76.4985 43.2261L76.6342 43.189L76.8156 43.1433L77.0412 43.0919L77.3073 43.0382L77.6123 42.9838L77.954 42.9328L78.3296 42.8874L78.7379 42.8504L79.1763 42.8247L79.6427 42.8137L80.1344 42.8198L80.6499 42.8458L81.1873 42.8957L81.7429 42.971L82.3159 43.076L82.9029 43.2128L83.5019 43.3852L84.1101 43.5953L84.7254 43.8467L85.3437 44.1418L85.9639 44.4835L86.5818 44.8743L87.196 45.3177L87.8023 45.8146L88.3987 46.3684L88.983 46.9806L89.5518 47.6541L90.1025 48.3908L90.6339 49.1924L91.1422 50.0613L89.542 50.942L89.0828 50.1577L88.6081 49.4415L88.1209 48.7903L87.6224 48.1999L87.1152 47.6678L86.6004 47.1904L86.0811 46.7645L85.5584 46.3876L85.0334 46.0558L84.5084 45.7663L83.9853 45.5172L83.4653 45.3044L82.9509 45.1268L82.4425 44.9809L81.9433 44.8645L81.4549 44.7753L80.9795 44.7106L80.5191 44.6683L80.0762 44.646L79.6517 44.6407L79.2503 44.6502L78.8724 44.6721L78.5209 44.7039L78.1974 44.7432L77.9064 44.7866L77.6474 44.8327L77.4245 44.8781L77.2404 44.9204L77.0945 44.9571L76.9913 44.9851L76.9339 45.002L76.9301 45.0032ZM76.9301 45.0032C76.4509 45.1597 75.9349 44.8978 75.7785 44.4185C75.622 43.9393 75.8839 43.4234 76.3632 43.2669L76.9301 45.0032Z" fill="#E5BA47"/>
<path d="M40.4301 15.7058C40.9097 15.8607 41.1728 16.3763 41.0178 16.8559C40.8629 17.3355 40.3473 17.5986 39.8677 17.4436L40.4301 15.7058ZM36.4809 16.8026L36.6192 14.9809H36.6188L36.7515 14.9911L36.883 15.0028L37.0134 15.0145L37.1446 15.0278L37.2735 15.0417L37.4012 15.0565L37.5271 15.072L37.6537 15.0878L37.7807 15.1052L37.9054 15.123L38.029 15.1419L38.1507 15.1611L38.2731 15.1812L38.3948 15.2024L38.5139 15.2239L38.6352 15.2466L38.7546 15.2704L38.8695 15.2938L38.9867 15.3184L39.1035 15.3445L39.2195 15.3705L39.3329 15.3978L39.4456 15.425L39.5593 15.4537L39.6708 15.4824L39.7823 15.5127L39.8919 15.5429L40.0011 15.5739L40.1107 15.6064L40.2177 15.6389L40.3243 15.6718L40.4301 15.7058L39.8677 17.4436L39.7755 17.4141L39.6818 17.3851L39.5877 17.3563L39.4939 17.3291L39.3983 17.3019L39.3008 17.2747L39.2044 17.249L39.1058 17.2233L39.0079 17.1983L38.9066 17.1742L38.8053 17.1499L38.7044 17.1269L38.6027 17.1046L38.4992 17.0831L38.3926 17.0611L38.2883 17.0404L38.1836 17.0207L38.0758 17.0014L37.9685 16.9825L37.8597 16.9648L37.7485 16.947L37.6378 16.9304L37.5267 16.9141L37.4156 16.899L37.3026 16.8846L37.1865 16.8706L37.0709 16.8574L36.9548 16.845L36.8388 16.8332L36.7205 16.8223L36.6011 16.8121L36.4813 16.8026H36.4809ZM36.4813 16.8026C35.9782 16.7648 35.6014 16.326 35.6392 15.823C35.677 15.3199 36.1158 14.9431 36.6188 14.9809L36.4813 16.8026ZM23.1509 9.74133L21.6043 10.7134L23.1036 9.6733L23.0995 9.66762L23.1222 9.6956L23.1667 9.74812L23.234 9.82408L23.324 9.92122L23.437 10.0384L23.5753 10.1741L23.7382 10.3268L23.9268 10.4953L24.1415 10.6779L24.383 10.8729L24.6506 11.0785L24.9465 11.2928L25.2704 11.5147L25.6238 11.743L26.0067 11.9754L26.4187 12.2105L26.862 12.4467L27.3363 12.6829L27.8428 12.9169L28.3814 13.147L28.9528 13.3727L29.5575 13.5908L30.197 13.8005L30.8717 14.0005L31.5811 14.1887L32.3268 14.3637L33.1092 14.5236L33.929 14.6672L34.7869 14.7919L35.6834 14.8974L36.6192 14.9809L36.4809 16.8026L35.4959 16.7146L34.5488 16.6031L33.6409 16.4708L32.7698 16.3188L31.936 16.1484L31.1389 15.9613L30.3781 15.7594L29.6528 15.5444L28.9634 15.318L28.3081 15.0818L27.6874 14.8373L27.1005 14.5859L26.5471 14.3301L26.0259 14.0711L25.5373 13.8107L25.08 13.5499L24.6548 13.2911L24.2598 13.0363L23.895 12.7865L23.5598 12.5435L23.2537 12.3091L22.9766 12.0854L22.7272 11.8734L22.5053 11.6753L22.3107 11.4924L22.1421 11.3264L21.9989 11.1791L21.8817 11.0524L21.7895 10.9485L21.7214 10.8688L21.6776 10.8151L21.6515 10.7814L23.1509 9.74133ZM21.6515 10.7814C21.3458 10.3808 21.4229 9.80707 21.8235 9.5013C22.2241 9.19554 22.7979 9.27267 23.1036 9.6733L21.6515 10.7814ZM23.5935 25.7416L21.839 25.2321V25.2325L22.0888 24.3265L22.3039 23.4504L22.4872 22.6031L22.6406 21.7844L22.765 20.9956L22.8625 20.2359L22.9347 19.505L22.9838 18.8031L23.0114 18.1311L23.0186 17.4878L23.008 16.8733L22.9812 16.2882L22.9396 15.7319L22.8848 15.2054L22.8187 14.7076L22.7431 14.2386L22.6592 13.799L22.5692 13.3882L22.4747 13.0064L22.378 12.6542L22.2793 12.3314L22.1814 12.0374L22.0858 11.7725L21.994 11.5366L21.9078 11.3302L21.8292 11.1545L21.7585 11.0056L21.6992 10.8865L21.6531 10.7996L21.619 10.7387L21.6005 10.7066L21.6043 10.7134L23.1509 9.74133L23.1735 9.77835L23.2079 9.8377L23.2586 9.92801L23.3251 10.0535L23.4018 10.2073L23.4892 10.391L23.5859 10.6076L23.6887 10.8548L23.7964 11.1314L23.9079 11.4395L24.0202 11.7774L24.1324 12.1462L24.2428 12.5453L24.3486 12.9747L24.4491 13.4332L24.5421 13.9226L24.626 14.4423L24.699 14.9915L24.7591 15.5701L24.8044 16.1786L24.8343 16.8158L24.8456 17.4833L24.8377 18.1795L24.8078 18.9052L24.7549 19.6592L24.6774 20.4423L24.5731 21.2549L24.4405 22.0951L24.2779 22.9644L24.084 23.8616L23.8561 24.7876L23.5935 25.7412V25.7416ZM23.5935 25.7412C23.4532 26.2254 22.946 26.5043 22.4619 26.364C21.9777 26.2238 21.6988 25.7166 21.839 25.2325L23.5935 25.7412ZM23.6044 33.2859L21.8862 33.9065L21.811 33.6918L21.7388 33.4726L21.6712 33.2507L21.6065 33.0255L21.5461 32.7957L21.489 32.5625L21.4365 32.3247L21.3885 32.0851L21.3443 31.8413L21.305 31.5926L21.2702 31.3406L21.2403 31.0858L21.215 30.8273L21.195 30.5642L21.1806 30.2986L21.1708 30.0291L21.1666 29.7554L21.1685 29.478L21.1757 29.198L21.1886 28.9141L21.2074 28.6265L21.2324 28.3358L21.2634 28.0414L21.3008 27.7432L21.3446 27.442L21.3945 27.137L21.4516 26.8274L21.5155 26.5156L21.5854 26.2L21.6632 25.8806L21.7475 25.5583L21.839 25.2321L23.5935 25.7416L23.5103 26.0367L23.4343 26.3274L23.3648 26.6143L23.3017 26.8974L23.2446 27.1759L23.1943 27.4499L23.1497 27.7209L23.1112 27.9881L23.0783 28.2508L23.0511 28.5097L23.0292 28.7648L23.0125 29.0161L23.0012 29.2637L22.9948 29.5075L22.9936 29.7471L22.997 29.9829L23.0053 30.2154L23.0182 30.4448L23.0352 30.6693L23.0568 30.8915L23.0821 31.11L23.1116 31.3243L23.1456 31.5352L23.183 31.7435L23.2242 31.9483L23.2684 32.149L23.3164 32.3467L23.3678 32.541L23.4226 32.7322L23.4804 32.9208L23.5405 33.1045L23.6044 33.2859ZM23.6044 33.2859C23.7756 33.7602 23.5299 34.2841 23.0556 34.4553C22.5813 34.6265 22.0575 34.3808 21.8862 33.9065L23.6044 33.2859Z" fill="#E5BA47"/>
<path d="M62.371 88.3284C61.8899 88.1772 61.6231 87.6639 61.7742 87.1828C61.9254 86.7017 62.4387 86.4348 62.9198 86.586L62.371 88.3284ZM66.2144 87.1983L66.0768 89.0201H66.0761L65.9468 89.0095L65.8209 88.9985L65.694 88.9872L65.5666 88.9743L65.4426 88.9607L65.3198 88.9471L65.1947 88.932L65.0719 88.9161L64.9509 88.8998L64.8307 88.8829L64.7105 88.8651L64.5904 88.8466L64.4716 88.8273L64.3545 88.8069L64.2385 88.7865L64.1202 88.7646L64.0057 88.7422L63.8934 88.7199L63.7785 88.6965L63.6647 88.672L63.5532 88.647L63.4406 88.6209L63.3306 88.5949L63.2214 88.568L63.1129 88.54L63.0048 88.5121L62.8971 88.483L62.7894 88.4535L62.6843 88.4229L62.5804 88.3926L62.4746 88.3605L62.371 88.3284L62.9198 86.586L63.0105 86.6144L63.0997 86.6412L63.1931 86.6684L63.2868 86.6953L63.3786 86.721L63.4727 86.7463L63.568 86.7712L63.6644 86.7954L63.7615 86.8192L63.8594 86.843L63.9561 86.8654L64.0563 86.8872L64.1549 86.9088L64.2547 86.9292L64.3587 86.95L64.4618 86.97L64.5627 86.9889L64.6675 87.0071L64.7733 87.0252L64.8784 87.0422L64.9842 87.0592L65.0915 87.0747L65.2004 87.0902L65.3107 87.105L65.4207 87.1193L65.5299 87.1322L65.6429 87.145L65.7563 87.1571L65.8686 87.1685L65.9827 87.179L66.0995 87.1892L66.2152 87.1983H66.2144ZM66.2152 87.1983C66.7182 87.2365 67.0947 87.6757 67.0565 88.1787C67.0183 88.6818 66.5791 89.0582 66.0761 89.0201L66.2152 87.1983ZM79.5452 94.2588L81.0918 93.2868L79.5924 94.3269L79.5966 94.3325L79.5739 94.3046L79.5293 94.252L79.462 94.1761L79.3724 94.0793L79.2591 93.9622L79.1203 93.8257L78.9578 93.6734L78.7692 93.5048L78.5546 93.3223L78.3134 93.1276L78.0455 92.9224L77.7495 92.7077L77.4249 92.4851L77.0722 92.2576L76.6894 92.0251L76.277 91.7901L75.8337 91.5539L75.3593 91.3176L74.8533 91.0837L74.3147 90.8535L73.7432 90.6279L73.1381 90.4098L72.4986 90.2L71.8243 90.0001L71.1146 89.8119L70.3689 89.6373L69.5865 89.4774L68.7664 89.3337L67.9088 89.2087L67.0123 89.1036L66.0768 89.0201L66.2144 87.1983L67.1997 87.2864L68.1469 87.3975L69.0551 87.5302L69.9259 87.6821L70.7597 87.8525L71.5568 88.0393L72.318 88.2411L73.0429 88.4562L73.7323 88.6825L74.3873 88.9187L75.0086 89.1633L75.5956 89.4146L76.1493 89.6705L76.6697 89.9294L77.1584 90.1898L77.6154 90.4506L78.0413 90.7087L78.4363 90.9642L78.801 91.2141L79.1362 91.4567L79.442 91.6907L79.7194 91.9148L79.9689 92.1268L80.1907 92.3249L80.3857 92.5082L80.5539 92.6741L80.6968 92.8207L80.8143 92.9477L80.9066 93.0517L80.9746 93.1314L81.0184 93.1851L81.0445 93.2187L79.5452 94.2588ZM81.0445 93.2187C81.3503 93.6194 81.2732 94.1931 80.8725 94.4989C80.4719 94.8046 79.8982 94.7275 79.5924 94.3269L81.0445 93.2187ZM79.1026 78.259L80.857 78.7685V78.7681L80.6072 79.674L80.3922 80.5501L80.2089 81.3975L80.0554 82.2161L79.9311 83.0049L79.8335 83.7646L79.7614 84.4956L79.7122 85.1974L79.6847 85.8694L79.6775 86.5127L79.688 87.1269L79.7149 87.7123L79.7564 88.2683L79.8113 88.7952L79.8774 89.2929L79.953 89.7616L80.0369 90.2012L80.1269 90.6124L80.2209 90.9937L80.3181 91.346L80.4168 91.6691L80.5146 91.9632L80.6102 92.2277L80.7021 92.464L80.7879 92.6695L80.8669 92.8461L80.9375 92.995L80.9965 93.1129L81.043 93.2006L81.077 93.2614L81.0956 93.2935L81.0918 93.2868L79.5452 94.2588L79.5225 94.2218L79.4881 94.1625L79.4375 94.0721L79.3713 93.9474L79.2942 93.7932L79.2069 93.6088L79.1105 93.393L79.0074 93.1458L78.8996 92.8688L78.7881 92.5611L78.6759 92.2224L78.5636 91.8539L78.4536 91.4548L78.3475 91.0258L78.2469 90.567L78.1539 90.0775L78.07 89.5583L77.9971 89.0091L77.937 88.4301L77.8916 87.8219L77.8618 87.1843L77.8504 86.5172L77.8584 85.821L77.8882 85.0954L77.9412 84.3414L78.0186 83.5583L78.1229 82.7457L78.2556 81.9055L78.4181 81.0362L78.612 80.1389L78.8399 79.2129L79.1026 78.2594V78.259ZM79.1026 78.2594C79.2428 77.7752 79.75 77.4963 80.2342 77.6365C80.7184 77.7767 80.9973 78.2839 80.857 78.7681L79.1026 78.2594ZM74.3842 65.1421L75.2112 63.5132L75.2547 63.5358L75.334 63.5793L75.4576 63.6496L75.6186 63.746L75.8144 63.8692L76.0408 64.0192L76.2948 64.1961L76.5726 64.4021L76.8704 64.6357L77.1849 64.898L77.5133 65.1901L77.8504 65.5118L78.194 65.864L78.5402 66.2473L78.8849 66.6623L79.2243 67.1086L79.555 67.5875L79.8736 68.0996L80.1756 68.645L80.4568 69.224L80.7138 69.8359L80.9429 70.4826L81.1394 71.1625L81.3 71.8761L81.4209 72.6233L81.4981 73.4038L81.5287 74.2168L81.5083 75.063L81.4342 75.9414L81.303 76.8515L81.1118 77.7941L80.857 78.7685L79.1026 78.259L79.3324 77.3798L79.5032 76.5385L79.6192 75.7327L79.6842 74.9632L79.7017 74.2281L79.6756 73.527L79.6091 72.8584L79.5062 72.2216L79.3698 71.6161L79.2035 71.0405L79.01 70.4943L78.7923 69.9761L78.5542 69.4863L78.2983 69.0241L78.0273 68.5891L77.745 68.1805L77.4547 67.7984L77.1592 67.4431L76.8613 67.1135L76.5654 66.8104L76.2744 66.5326L75.992 66.2813L75.7207 66.0553L75.4644 65.8542L75.2274 65.6792L75.012 65.5288L74.8226 65.4029L74.6616 65.3024L74.5339 65.2256L74.4421 65.1735L74.3869 65.1436L74.3842 65.1421ZM74.3842 65.1421C73.9345 64.9138 73.7549 64.3639 73.9832 63.9142C74.2115 63.4644 74.7614 63.2849 75.2112 63.5132L74.3842 65.1421Z" fill="#E5BA47"/>
<path d="M39.907 28.0721C40.1462 28.5159 39.9803 29.0703 39.5366 29.3096C39.0929 29.5488 38.5384 29.3829 38.2992 28.9391L39.907 28.0721ZM42.3535 13.1869L43.5047 14.6049L42.8149 15.1964L42.1947 15.7906L41.6407 16.3866L41.149 16.9819L40.7154 17.5764L40.3371 18.1671L40.0109 18.7541L39.7327 19.3357L39.4999 19.9114L39.3087 20.4794L39.1564 21.0384L39.0399 21.588L38.9564 22.1262L38.9035 22.6519L38.8778 23.164L38.8767 23.6603L38.8982 24.1399L38.9383 24.6003L38.995 25.0402L39.0653 25.4582L39.1465 25.8517L39.2353 26.2202L39.3291 26.56L39.4251 26.8706L39.5203 27.1503L39.6118 27.3967L39.6957 27.6076L39.7702 27.7819L39.8321 27.9187L39.8779 28.0147L39.9051 28.0687L39.907 28.0721L38.2992 28.9391L38.2769 28.8964L38.2353 28.8137L38.1745 28.6859L38.0974 28.5159L38.0063 28.303L37.9057 28.0506L37.7984 27.7603L37.6873 27.4338L37.5754 27.0717L37.4665 26.6767L37.3634 26.25L37.2693 25.7931L37.1876 25.3078L37.1218 24.7953L37.075 24.2586L37.0504 23.6981L37.0516 23.1156L37.0818 22.5136L37.1445 21.8934L37.2432 21.2577L37.3808 20.6083L37.561 19.9465L37.7871 19.2757L38.0614 18.598L38.388 17.915L38.7694 17.229L39.2081 16.5438L39.7067 15.8601L40.2679 15.1809L40.8946 14.5078L41.5889 13.8419L42.3535 13.1869ZM42.3535 13.1869C42.745 12.869 43.3203 12.9287 43.6381 13.3202C43.956 13.7118 43.8963 14.2871 43.5047 14.6049L42.3535 13.1869ZM52.26 1.12297L50.4352 1.20612L52.26 1.20575L52.2573 1.25071L52.2521 1.31648L52.2419 1.42156L52.2252 1.55949L52.201 1.73109L52.1674 1.93331L52.1239 2.16499L52.0676 2.42727L51.9984 2.71642L51.9141 3.0324L51.8144 3.37407L51.6965 3.74143L51.5596 4.13149L51.402 4.54495L51.2229 4.97997L51.0203 5.43502L50.7935 5.90898L50.5407 6.40183L50.2599 6.91207L49.9507 7.43743L49.6117 7.97827L49.2409 8.53313L48.8373 9.1008L48.3992 9.67983L47.926 10.2694L47.4158 10.8689L46.8674 11.4766L46.2789 12.0919L45.6504 12.7133L44.9791 13.3403L44.2644 13.9711L43.5047 14.6049L42.3535 13.1869L43.0746 12.5848L43.7515 11.9872L44.385 11.3957L44.9772 10.8107L45.5294 10.2331L46.0423 9.6647L46.5185 9.10534L46.9585 8.55653L47.3648 8.01987L47.7374 7.49601L48.0787 6.98504L48.3897 6.48875L48.6725 6.00801L48.9276 5.54387L49.157 5.09715L49.3619 4.66856L49.544 4.2596L49.7043 3.87143L49.8437 3.50407L49.9647 3.15863L50.0682 2.83737L50.1552 2.54029L50.2273 2.26742L50.2867 2.02138L50.3332 1.80365L50.3691 1.61279L50.3959 1.45216L50.4141 1.32139L50.4262 1.22126L50.4326 1.1532L50.4356 1.11389L50.4352 1.12334L52.26 1.12297ZM50.4352 1.12334C50.4579 0.619524 50.885 0.229484 51.3888 0.252162C51.8926 0.274839 52.2827 0.701943 52.26 1.20575L50.4352 1.12334ZM60.3421 13.1869L59.1909 14.6049L58.4312 13.9711L57.7169 13.3399L57.0456 12.7133L56.4167 12.0919L55.8286 11.4766L55.2802 10.8689L54.77 10.2694L54.2968 9.67983L53.8591 9.1008L53.4551 8.5335L53.0843 7.97827L52.7453 7.43743L52.4361 6.91207L52.1553 6.40183L51.9024 5.90935L51.6753 5.43502L51.4731 4.9796L51.294 4.54532L51.1364 4.13186L50.9991 3.74143L50.8812 3.37481L50.7811 3.03277L50.6968 2.71565L50.6276 2.42653L50.5717 2.16573L50.5278 1.93331L50.4946 1.73109L50.47 1.56064L50.4534 1.42156L50.4432 1.31648L50.4379 1.25071L50.4352 1.20612L52.26 1.12297L52.2596 1.11389L52.2626 1.1532L52.2691 1.22126L52.2812 1.32025L52.2997 1.45216L52.3261 1.61279L52.3624 1.80291L52.4093 2.02212L52.4679 2.26816L52.5401 2.53992L52.6273 2.8366L52.7309 3.15863L52.8515 3.5037L52.9917 3.87106L53.1519 4.25997L53.3338 4.66856L53.539 5.09675L53.7684 5.54387L54.0235 6.00801L54.3062 6.48875L54.6173 6.98504L54.9586 7.49564L55.3316 8.01987L55.7375 8.55653L56.1775 9.10534L56.6537 9.6647L57.1666 10.2331L57.7184 10.8107L58.311 11.3957L58.9445 11.9876L59.621 12.5848L60.3421 13.1869ZM60.3421 13.1869C60.7337 13.5047 60.7934 14.0799 60.4755 14.4715C60.1577 14.863 59.5824 14.9228 59.1909 14.6049L60.3421 13.1869ZM63.1484 16.0714L61.6842 17.1637L61.6238 17.0835L61.5625 17.0034L61.5009 16.9244L61.4371 16.8435L61.3724 16.7631L61.3067 16.6829L61.2405 16.6032L61.1736 16.5242L61.1037 16.4429L61.0338 16.3628L60.9623 16.2827L60.8898 16.2018L60.8176 16.1228L60.742 16.0419L60.6668 15.9622L60.5897 15.8824L60.5111 15.8015L60.4317 15.7214L60.3519 15.642L60.2696 15.5615L60.186 15.4806L60.1033 15.402L60.0178 15.3227L59.9302 15.2422L59.8413 15.1613L59.7529 15.0819L59.6626 15.0021L59.5715 14.9232L59.4777 14.843L59.3837 14.7637L59.288 14.6847L59.1909 14.6049L60.3421 13.1869L60.4491 13.2741L60.5553 13.3622L60.66 13.4506L60.7628 13.5383L60.8652 13.6271L60.9661 13.716L61.0659 13.8052L61.1631 13.8936L61.259 13.9817L61.355 14.0717L61.4507 14.1623L61.5425 14.2515L61.634 14.3404L61.725 14.4311L61.8143 14.521L61.902 14.611L61.9889 14.7013L62.0747 14.7924L62.1586 14.8823L62.2428 14.9742L62.3245 15.0649L62.405 15.1556L62.4848 15.2471L62.5622 15.3374L62.6405 15.4293L62.7164 15.5211L62.7912 15.6125L62.865 15.7044L62.9372 15.7951L63.0093 15.8877L63.0797 15.9799L63.1484 16.0714ZM63.1484 16.0714C63.45 16.4754 63.3665 17.048 62.9625 17.3496C62.5584 17.6512 61.9858 17.5677 61.6842 17.1637L63.1484 16.0714Z" fill="#E5BA47"/>
<path d="M62.7891 75.927C62.5498 75.4833 62.7157 74.9288 63.1594 74.6896C63.6032 74.4503 64.1576 74.6162 64.3969 75.0599L62.7891 75.927ZM60.3425 90.8126L59.1906 89.3946H59.1909L59.8807 88.8031L60.5009 88.2089L61.055 87.6129L61.5467 87.0176L61.9802 86.4235L62.3586 85.832L62.6847 85.2454L62.9629 84.6633L63.1961 84.0881L63.387 83.5204L63.5393 82.9607L63.6561 82.4111L63.7396 81.8729L63.7925 81.3472L63.8182 80.8358L63.819 80.3392L63.7978 79.8596L63.7577 79.3992L63.7007 78.9589L63.6304 78.5405L63.5495 78.1471L63.4607 77.7797L63.3666 77.4388L63.2706 77.1277L63.1757 76.8488L63.0842 76.6024L63.0003 76.3915L62.9259 76.2172L62.8639 76.0804L62.8181 75.9844L62.7909 75.9304L62.7891 75.927L64.3969 75.0599L64.4192 75.1027L64.4608 75.1854L64.5216 75.3132L64.5987 75.4833L64.6898 75.696L64.7903 75.9485L64.8977 76.2388L65.0092 76.5661L65.1203 76.9278L65.2295 77.3224L65.3327 77.7495L65.4264 78.2064L65.5081 78.6913L65.5742 79.2034L65.621 79.7409L65.6453 80.3014L65.6445 80.8834L65.6142 81.4855L65.5515 82.1057L65.4529 82.7422L65.3149 83.3916L65.1346 84.0526L64.909 84.7238L64.6342 85.4019L64.3077 86.0845L63.9263 86.7701L63.4875 87.4553L62.989 88.1394L62.4277 88.8186L61.8011 89.4917L61.1068 90.1576L60.3422 90.8126H60.3425ZM60.3422 90.8126C59.9506 91.1305 59.3754 91.0708 59.0575 90.6792C58.7396 90.2877 58.7994 89.7124 59.1909 89.3946L60.3422 90.8126ZM50.4353 102.877L52.26 102.795L50.4353 102.794L50.4379 102.75L50.4432 102.684L50.4534 102.579L50.47 102.439L50.4946 102.27L50.5279 102.067L50.5717 101.835L50.6277 101.574L50.6968 101.284L50.7811 100.968L50.8813 100.626L50.9992 100.259L51.1364 99.8684L51.294 99.4549L51.4731 99.0206L51.6754 98.5652L51.9025 98.0909L52.1554 97.5984L52.4362 97.0882L52.7453 96.5628L53.0844 96.022L53.4551 95.4667L53.8592 94.8994L54.2968 94.3204L54.77 93.7304L55.2803 93.1314L55.8283 92.5232L56.4168 91.908L57.0457 91.2866L57.7165 90.6599L58.4313 90.0284L59.1906 89.3946L60.3425 90.8126L59.621 91.4147L58.9449 92.0123L58.3111 92.6042L57.7184 93.1892L57.167 93.7667L56.6537 94.3355L56.1775 94.8945L55.7376 95.4429L55.3317 95.9804L54.9586 96.5046L54.6173 97.0152L54.3063 97.5115L54.0236 97.9922L53.7685 98.4564L53.539 98.9035L53.3338 99.3317L53.152 99.7403L52.9918 100.129L52.8516 100.497L52.731 100.842L52.6274 101.163L52.5401 101.461L52.4679 101.732L52.4093 101.978L52.3625 102.197L52.3262 102.387L52.2997 102.548L52.2812 102.68L52.2691 102.779L52.2627 102.847L52.2597 102.886L52.26 102.877L50.4353 102.877ZM52.26 102.877C52.2374 103.381 51.8099 103.771 51.3061 103.748C50.8023 103.725 50.4126 103.298 50.4353 102.794L52.26 102.877ZM42.3535 90.8126L43.5048 89.3946L44.2645 90.0284L44.9792 90.6599L45.6504 91.2866L46.2789 91.908L46.8674 92.5232L47.4158 93.1314L47.9261 93.7304L48.3992 94.32L48.8373 94.8994L49.241 95.4671L49.6117 96.022L49.9508 96.5628L50.2599 97.0882L50.5407 97.5984L50.7936 98.0913L51.0204 98.5652L51.223 99.0203L51.4021 99.4553L51.5597 99.8688L51.6965 100.259L51.8144 100.626L51.9142 100.968L51.9985 101.284L52.0677 101.573L52.124 101.835L52.1674 102.067L52.2011 102.27L52.2253 102.441L52.2419 102.579L52.2521 102.684L52.2574 102.75L52.26 102.795L50.4353 102.877L50.4357 102.886L50.4327 102.847L50.4262 102.779L50.4141 102.679L50.396 102.548L50.3691 102.387L50.3333 102.197L50.2868 101.979L50.2274 101.733L50.1552 101.46L50.0683 101.163L49.9648 100.842L49.8438 100.496L49.7043 100.129L49.5441 99.7406L49.3619 99.3317L49.1571 98.9031L48.9276 98.4564L48.6725 97.9922L48.3898 97.5115L48.0788 97.0152L47.7375 96.5042L47.3648 95.9804L46.9585 95.4433L46.5186 94.8945L46.0423 94.3355L45.5295 93.7667L44.9773 93.1892L44.385 92.6042L43.7516 92.0123L43.0746 91.4147L42.3535 90.8126ZM42.3535 90.8126C41.9619 90.4948 41.9023 89.9195 42.2201 89.528C42.538 89.1364 43.1132 89.0767 43.5048 89.3946L42.3535 90.8126ZM39.5476 87.9285L41.011 86.8347L41.0114 86.8351L41.0711 86.9148L41.1324 86.9946L41.1962 87.0766L41.259 87.1563L41.3228 87.2357L41.3894 87.3166L41.4563 87.3971L41.5235 87.4768L41.592 87.5566L41.6626 87.6371L41.7333 87.7168L41.8063 87.7973L41.8807 87.879L41.9544 87.9584L42.03 88.0381L42.1075 88.1186L42.1853 88.1987L42.2647 88.2788L42.3445 88.3582L42.4261 88.438L42.51 88.5189L42.5943 88.599L42.6797 88.6791L42.7655 88.7581L42.8532 88.8375L42.9435 88.918L43.0338 88.9981L43.1245 89.0767L43.2175 89.1561L43.3124 89.2355L43.4084 89.3152L43.5048 89.3946L42.3535 90.8126L42.2458 90.7249L42.1407 90.6377L42.0368 90.55L41.9333 90.4615L41.8304 90.3723L41.7303 90.2839L41.6316 90.1958L41.5334 90.1066L41.4362 90.0171L41.341 89.9278L41.2469 89.8387L41.1547 89.7495L41.0625 89.6599L40.9714 89.5692L40.8821 89.4792L40.7937 89.3885L40.7079 89.2989L40.6218 89.2079L40.5367 89.1164L40.4547 89.0264L40.3727 88.9361L40.2914 88.8443L40.2124 88.7539L40.1334 88.6621L40.0556 88.5702L39.9796 88.4784L39.9055 88.3877L39.8311 88.2955L39.7577 88.2029L39.6878 88.1126L39.6168 88.0207L39.5472 87.9281L39.5476 87.9285ZM39.5472 87.9281C39.2456 87.5241 39.3288 86.9511 39.7328 86.6495C40.1368 86.3479 40.7098 86.431 41.0114 86.8351L39.5472 87.9281ZM38.2992 75.0599L39.907 75.927L39.9074 75.9266L39.8863 75.9682L39.8522 76.0373L39.8054 76.1386L39.7468 76.2705L39.6803 76.4297L39.6066 76.616L39.5276 76.8288L39.4459 77.0665L39.3628 77.3288L39.28 77.6123L39.2006 77.9177L39.1254 78.2438L39.057 78.5882L38.9966 78.951L38.9463 79.3304L38.9081 79.725L38.8839 80.1343L38.8752 80.5573L38.8835 80.9919L38.9111 81.4379L38.9599 81.8941L39.031 82.359L39.1273 82.8333L39.2494 83.3148L39.4002 83.8035L39.5809 84.2979L39.794 84.7975L40.0412 85.3017L40.325 85.8097L40.6474 86.3207L41.011 86.8347L39.5476 87.9285L39.1288 87.3366L38.755 86.7432L38.4236 86.1506L38.1333 85.5587L37.8823 84.9706L37.6692 84.3871L37.4912 83.8099L37.3464 83.2407L37.2327 82.6802L37.148 82.13L37.0909 81.5921L37.058 81.0667L37.0482 80.5565L37.0584 80.0618L37.0871 79.5837L37.1313 79.1233L37.19 78.6819L37.2595 78.2608L37.3392 77.8606L37.4265 77.483L37.5187 77.1285L37.6144 76.7982L37.7111 76.4935L37.8071 76.215L37.8997 75.9644L37.9878 75.741L38.0694 75.5479L38.1408 75.3865L38.2013 75.2557L38.2497 75.1563L38.2807 75.0951L38.2992 75.0599ZM38.2992 75.0599C38.5385 74.6162 39.0929 74.4503 39.5367 74.6896C39.9804 74.9288 40.1463 75.4833 39.907 75.927L38.2992 75.0599Z" fill="#E5BA47"/>
<path d="M52.3719 44.8472C52.2729 44.3528 52.593 43.8709 53.0874 43.7719C53.5817 43.6729 54.0636 43.993 54.1626 44.4874L52.3719 44.8472ZM52.2532 53.5537L50.7596 52.5014H50.76L50.9009 52.2951L51.037 52.085L51.1674 51.871L51.2925 51.6537L51.4115 51.4334L51.5253 51.21L51.633 50.984L51.7351 50.7542L51.8318 50.5225L51.9222 50.2878L52.0072 50.0504L52.0862 49.8123L52.1588 49.5716L52.226 49.3286L52.2869 49.0844L52.3417 48.8383L52.3908 48.5915L52.4335 48.3429L52.4702 48.0942L52.5 47.8443L52.5246 47.5934L52.5424 47.3428L52.5541 47.0914L52.5594 46.8397L52.5586 46.5895L52.5507 46.3382L52.5375 46.0876L52.517 45.8378L52.4902 45.5887L52.4573 45.34L52.418 45.0932L52.3719 44.8472L54.1626 44.4874L54.2178 44.781L54.2647 45.0754L54.3044 45.371L54.3358 45.667L54.36 45.9644L54.3762 46.2611L54.3849 46.5578L54.3864 46.8564L54.3796 47.1534L54.3664 47.4501L54.3448 47.7468L54.3165 48.0416L54.2806 48.3368L54.2371 48.6309L54.1869 48.9234L54.1294 49.2148L54.0648 49.5047L53.9926 49.7927L53.914 50.0788L53.8278 50.3634L53.7344 50.6461L53.6343 50.925L53.5273 51.202L53.4132 51.4768L53.2922 51.7482L53.1641 52.0173L53.0292 52.2822L52.8874 52.5442L52.7389 52.8023L52.5836 53.057L52.4218 53.3072L52.2529 53.5537H52.2532ZM52.2529 53.5537C51.9626 53.9657 51.3922 54.0643 50.9803 53.774C50.5683 53.4838 50.4697 52.9134 50.76 52.5014L52.2529 53.5537ZM45 57.0123L43.4549 57.9867L44.0959 56.5954L44.3431 56.5565L44.5884 56.5104L44.8336 56.4582L45.0767 56.3993L45.3189 56.3339L45.5601 56.2628L45.7986 56.1854L46.0352 56.1018L46.2695 56.0123L46.5023 55.9166L46.7325 55.8154L46.9604 55.7084L47.1853 55.5957L47.4079 55.4774L47.6275 55.3535L47.8433 55.2246L48.0561 55.09L48.2658 54.9502L48.4718 54.8055L48.6733 54.6562L48.8721 54.5008L49.0667 54.3413L49.2568 54.1769L49.4431 54.008L49.6242 53.8352L49.8015 53.6569L49.9738 53.4747L50.1413 53.288L50.3034 53.0975L50.461 52.9028L50.6129 52.704L50.7596 52.5014L52.2532 53.5537L52.0779 53.7956L51.8964 54.0321L51.7094 54.2639L51.5162 54.4906L51.317 54.7121L51.113 54.9283L50.9032 55.1392L50.6881 55.3452L50.4678 55.5451L50.2429 55.739L50.0135 55.9272L49.7799 56.1098L49.5407 56.287L49.2977 56.4575L49.0508 56.6223L48.7995 56.781L48.5444 56.9333L48.2855 57.0792L48.0236 57.2187L47.7579 57.3517L47.4892 57.4783L47.2174 57.5978L46.943 57.7108L46.6648 57.817L46.3844 57.9156L46.1013 58.0075L45.8163 58.0922L45.5287 58.1696L45.2388 58.2392L44.9474 58.3019L44.6537 58.3563L44.3589 58.4036L45 57.0123ZM44.3589 58.4036C43.8597 58.4761 43.3959 58.1303 43.3233 57.631C43.2508 57.1318 43.5966 56.668 44.0959 56.5954L44.3589 58.4036ZM51.7162 66.2321L50.3147 67.4037L50.0819 67.1241L49.8494 66.8429L49.6185 66.5609L49.3895 66.2782L49.1608 65.9944L48.9329 65.709L48.7073 65.4233L48.4828 65.1368L48.2587 64.8492L48.0364 64.5608L47.8149 64.2713L47.595 63.9806L47.3758 63.6892L47.1585 63.3967L46.9422 63.1042L46.7268 62.8097L46.5133 62.5149L46.3005 62.219L46.0888 61.9223L45.8787 61.6245L45.6697 61.3263L45.4618 61.0266L45.2558 60.7269L45.0506 60.426L44.8461 60.1236L44.6436 59.8205L44.4425 59.517L44.2425 59.2131L44.0433 58.9077L43.8461 58.6012L43.6495 58.2947L43.4549 57.9867L45 57.0123L45.1908 57.3135L45.3828 57.614L45.5763 57.9137L45.771 58.2123L45.9671 58.5109L46.1644 58.8083L46.3625 59.1047L46.5617 59.3995L46.7631 59.6943L46.9653 59.9887L47.1686 60.2816L47.3731 60.5738L47.5787 60.8656L47.7858 61.1555L47.9941 61.4453L48.2038 61.7341L48.414 62.0217L48.6264 62.3089L48.8392 62.5954L49.0531 62.88L49.2685 63.1647L49.4855 63.4481L49.7032 63.7304L49.922 64.012L50.1428 64.2932L50.3639 64.5729L50.5857 64.8515L50.8098 65.1292L51.0351 65.4066L51.2608 65.6825L51.4879 65.9577L51.7162 66.2321ZM51.7162 66.2321C52.0397 66.6187 51.9879 67.1951 51.6013 67.5186C51.2146 67.8422 50.6383 67.7904 50.3147 67.4037L51.7162 66.2321Z" fill="#E5BA47"/>
<path d="M37.7089 45.2014C37.2047 45.192 36.8041 44.7747 36.8135 44.2706C36.823 43.7664 37.2402 43.3657 37.7444 43.3752L37.7089 45.2014ZM64.9865 43.8574L64.9517 45.6837L64.1629 45.6686L63.3617 45.6538L62.5491 45.6387L61.7266 45.6236L60.8944 45.6085L60.0531 45.5938L59.2038 45.5786L58.3477 45.5635L57.4849 45.5488L56.6163 45.5337L55.7429 45.5185L54.866 45.5034L53.9854 45.4887L53.1025 45.4736L52.2177 45.4584L51.3326 45.4433L50.447 45.4282L49.5626 45.4135L48.6797 45.3984L47.7987 45.3832L46.9215 45.3681L46.048 45.353L45.1795 45.3379L44.3166 45.3228L43.4594 45.3076L42.6101 45.2925L41.7685 45.2774L40.9358 45.2623L40.1126 45.2472L39.2997 45.232L38.498 45.2165L37.7089 45.2014L37.7444 43.3752L38.5336 43.3903L39.3344 43.4058L40.1467 43.4209L40.9691 43.436L41.8017 43.4511L42.6427 43.4663L43.4919 43.4814L44.3484 43.4965L45.2112 43.5116L46.0798 43.5267L46.9532 43.5418L47.8304 43.557L48.7107 43.5721L49.5936 43.5872L50.478 43.6019L51.3636 43.6171L52.2487 43.6322L53.1335 43.6473L54.0164 43.6624L54.897 43.6772L55.7746 43.6923L56.6481 43.7074L57.5166 43.7225L58.3795 43.7372L59.2363 43.7524L60.0856 43.7675L60.9269 43.7822L61.7599 43.7973L62.5831 43.8125L63.3957 43.8276L64.1969 43.8423L64.9865 43.8574ZM64.9865 43.8574C65.4907 43.8669 65.8917 44.2838 65.8822 44.7879C65.8728 45.2921 65.4559 45.6932 64.9517 45.6837L64.9865 43.8574Z" fill="#E5BA47"/>
<path d="M51.989 39.3736L51.9467 41.1999H51.9474L51.8284 41.1942L51.7086 41.1817L51.5918 41.1633L51.4799 41.1395L51.3673 41.1096L51.2558 41.0729L51.1503 41.0325L51.046 40.9864L50.9451 40.9353L50.8487 40.8805L50.7546 40.8212L50.6647 40.7581L50.5766 40.6897L50.4938 40.6186L50.4156 40.5457L50.3377 40.4663L50.2651 40.3847L50.1986 40.3026L50.1344 40.2165L50.0728 40.1261L50.0157 40.0339L49.9639 39.9406L49.9155 39.845L49.8706 39.7455L49.8298 39.6431L49.7939 39.5396L49.7633 39.4379L49.7353 39.3302L49.713 39.2209L49.6956 39.114L49.6823 39.0021L49.6744 38.8899L51.4992 38.8022L51.5011 38.8313L51.5045 38.8593L51.5098 38.8914L51.5154 38.919L51.5222 38.9458L51.5317 38.9772L51.5411 39.0044L51.5517 39.0304L51.5634 39.0565L51.577 39.0834L51.5918 39.1095L51.6065 39.1336L51.6212 39.1559L51.6387 39.1786L51.6576 39.2017L51.6749 39.2213L51.6916 39.2387L51.7116 39.2572L51.7309 39.2739L51.7494 39.2879L51.769 39.3018L51.7883 39.3143L51.8091 39.326L51.8276 39.3355L51.8465 39.3438L51.8673 39.3517L51.8851 39.3574L51.904 39.3623L51.9266 39.3672L51.9467 39.3706L51.9659 39.3725L51.9883 39.3736H51.989ZM51.9883 39.3736C52.4925 39.3846 52.8919 39.803 52.881 40.3072C52.87 40.8114 52.4516 41.2109 51.9474 41.1999L51.9883 39.3736ZM52.3866 39.2512L53.5976 40.6186L53.598 40.6183L53.5522 40.6579L53.5031 40.698L53.4611 40.7301L53.4158 40.7637L53.3636 40.8L53.3137 40.8325L53.2673 40.8609L53.2185 40.8896L53.1667 40.9183L53.1161 40.9444L53.0609 40.9713L53.0091 40.9943L52.9611 41.0151L52.9101 41.0355L52.8541 41.0563L52.8005 41.0744L52.7513 41.0903L52.698 41.1062L52.6451 41.1206L52.5915 41.1338L52.5378 41.1459L52.4837 41.1568L52.4293 41.1663L52.3749 41.1746L52.3209 41.1817L52.2664 41.1878L52.2161 41.1923L52.1617 41.1961L52.1073 41.1988L52.0525 41.2003L51.9977 41.2006L51.9467 41.1999L51.989 39.3736H52.0075L52.023 39.374L52.0378 39.3733L52.0529 39.3729L52.068 39.3714L52.0873 39.3699L52.1017 39.3684L52.1164 39.3665L52.1307 39.3642L52.1444 39.3616L52.1583 39.3589L52.1719 39.3559L52.1855 39.3525L52.1991 39.3487L52.2124 39.3449L52.229 39.3396L52.2404 39.3358L52.2487 39.3324L52.2619 39.3272L52.2774 39.3207L52.2883 39.3158L52.2951 39.3124L52.3057 39.3067L52.3144 39.3022L52.3246 39.2962L52.3371 39.2882L52.3454 39.2829L52.3499 39.2799L52.3605 39.272L52.3737 39.2618L52.3791 39.258L52.3862 39.2516L52.3866 39.2512ZM52.3862 39.2516C52.7634 38.9171 53.3409 38.9518 53.6754 39.329C54.0099 39.7062 53.9752 40.2838 53.598 40.6183L52.3862 39.2516ZM52.3379 38.2685L53.415 36.793L53.4135 36.7918L53.5288 36.8818L53.6354 36.9763L53.7367 37.0783L53.8293 37.1849L53.9151 37.2957L53.9929 37.4106L54.0613 37.5251L54.1252 37.6456L54.1819 37.7704L54.2299 37.8925L54.2719 38.0172L54.3077 38.1464L54.3365 38.2742L54.3588 38.4031L54.3743 38.5323L54.3841 38.6623L54.3871 38.7923L54.3841 38.9224L54.3743 39.0543L54.3576 39.1858L54.3346 39.3147L54.3055 39.4424L54.2681 39.5736L54.2242 39.6994L54.1739 39.8238L54.1143 39.9493L54.0477 40.0698L53.9744 40.1866L53.892 40.3019L53.8017 40.413L53.7034 40.5189L53.5976 40.6186L52.3866 39.2512L52.4055 39.233L52.4237 39.2134L52.4407 39.193L52.4565 39.1707L52.4731 39.1438L52.4883 39.1163L52.5011 39.0891L52.5144 39.0562L52.5264 39.0218L52.5359 38.9889L52.5446 38.9504L52.5518 38.9114L52.5563 38.8728L52.5593 38.8339L52.5601 38.7923L52.5593 38.7508L52.5563 38.71L52.5514 38.6691L52.5442 38.6295L52.5359 38.5902L52.5257 38.5546L52.5132 38.5176L52.4992 38.4817L52.4856 38.4514L52.4702 38.4223L52.4516 38.3917L52.435 38.3668L52.4172 38.3437L52.3987 38.3226L52.3806 38.3044L52.3594 38.2855L52.3393 38.2696L52.3379 38.2685ZM52.3393 38.2696C51.9315 37.9733 51.8412 37.4015 52.1375 36.9937C52.4338 36.5859 53.0057 36.4955 53.4135 36.7918L52.3393 38.2696ZM51.9312 38.1846L51.7143 36.3704H51.7154L51.7687 36.3648L51.8231 36.3599L51.8726 36.3568L51.927 36.3538L51.9868 36.3523H52.0362L52.0862 36.353L52.1455 36.3549L52.2003 36.3583L52.2502 36.3625L52.3091 36.3682L52.3632 36.3753L52.4127 36.3825L52.4679 36.3916L52.5268 36.4029L52.5794 36.4146L52.633 36.4275L52.6863 36.4419L52.7407 36.4573L52.7974 36.4759L52.85 36.4937L52.9029 36.5137L52.9558 36.5348L53.0076 36.5575L53.0597 36.5813L53.1108 36.6066L53.1633 36.6339L53.2166 36.6637L53.2691 36.6951L53.3171 36.7257L53.3644 36.7571L53.415 36.793L52.3379 38.2685L52.331 38.2636L52.3201 38.2564L52.3091 38.2492L52.302 38.2451L52.2948 38.2409L52.2861 38.2364L52.2744 38.2307L52.2638 38.2258L52.2528 38.2213L52.2415 38.2167L52.2301 38.2126L52.2169 38.2077L52.2086 38.205L52.1965 38.2016L52.1833 38.1978L52.1697 38.1948L52.1549 38.1914L52.1466 38.1899L52.1338 38.1876L52.1145 38.185L52.0997 38.1831L52.0899 38.182L52.071 38.1808L52.0563 38.1797L52.0461 38.1793H52.0264H52.0064H51.9966L51.9814 38.1801L51.9614 38.1816L51.9463 38.1827L51.9301 38.1846H51.9312ZM51.9301 38.1846C51.4293 38.2436 50.9746 37.8856 50.9156 37.3848C50.8566 36.884 51.2146 36.4294 51.7154 36.3704L51.9301 38.1846ZM51.4992 38.8022L49.6744 38.8899V38.8902L49.6714 38.7772L49.6737 38.665L49.6808 38.5558L49.6929 38.4461L49.7096 38.3369L49.7311 38.2284L49.7572 38.1234L49.7878 38.0183L49.8222 37.917L49.8604 37.8172L49.9054 37.7152L49.953 37.6188L50.0044 37.5247L50.0599 37.4329L50.1204 37.3421L50.1843 37.2548L50.2527 37.1698L50.3234 37.0897L50.3989 37.0107L50.4825 36.9324L50.5656 36.8614L50.6518 36.7945L50.7429 36.7302L50.8381 36.6702L50.9372 36.6142L51.0404 36.5624L51.145 36.5171L51.2542 36.4759L51.3665 36.4407L51.478 36.412L51.5956 36.3878L51.7143 36.3704L51.9312 38.1846L51.91 38.1876L51.8908 38.1914L51.8684 38.1974L51.8499 38.2031L51.8314 38.2103L51.8121 38.2186L51.7943 38.2273L51.7754 38.2379L51.7573 38.2496L51.7388 38.2625L51.7192 38.278L51.7003 38.2938L51.6855 38.3078L51.6681 38.3263L51.6496 38.3467L51.6333 38.3675L51.6171 38.3891L51.6027 38.411L51.588 38.4356L51.5736 38.4616L51.5608 38.4877L51.5506 38.5112L51.5396 38.5399L51.5294 38.5686L51.5215 38.5966L51.5143 38.6261L51.5086 38.6544L51.5041 38.6828L51.5011 38.713L51.4992 38.7436L51.4984 38.7727L51.4992 38.8018V38.8022ZM51.4992 38.8018C51.5234 39.3056 51.1348 39.7342 50.631 39.7584C50.1272 39.7826 49.6986 39.394 49.6744 38.8902L51.4992 38.8018ZM51.4992 38.8018C51.5234 39.3056 51.1348 39.7342 50.631 39.7584C50.1272 39.7826 49.6986 39.394 49.6744 38.8902L51.4992 38.8018Z" fill="#E5BA47"/>
</svg>
