<svg width="84" height="84" viewBox="0 0 84 84" fill="none" xmlns="http://www.w3.org/2000/svg">
<path d="M41.9078 68.1816V66.3546L43.1668 66.3228L44.4083 66.2287L45.6318 66.073L46.8359 65.8579L48.0182 65.585L49.1781 65.2555L50.3135 64.8715L51.4235 64.4338L52.506 63.9443L53.5601 63.4046L54.5836 62.8162L55.5753 62.1801L56.5342 61.4986L57.4579 60.7726L58.3453 60.0042L59.1942 59.1942L60.0042 58.345L60.7725 57.4579L61.4986 56.5346L62.1797 55.5757L62.8158 54.5836L63.4042 53.5601L63.9443 52.506L64.4338 51.4235L64.8711 50.3131L65.2555 49.1781L65.5846 48.0178L65.8579 46.8355L66.073 45.6314L66.2287 44.408L66.3228 43.166L66.3545 41.9071H68.1816L68.1475 43.2582L68.0459 44.5924L67.8788 45.9073L67.6479 47.2014L67.3542 48.4729L67.0001 49.7201L66.587 50.9412L66.1164 52.1348L65.5899 53.2989L65.0098 54.4317L64.3775 55.5323L63.6937 56.5985L62.9613 57.6284L62.1816 58.6205L61.3557 59.5741L60.4861 60.4861L59.5737 61.3558L58.6205 62.1816L57.628 62.9613L56.5981 63.6942L55.5322 64.3771L54.4316 65.0102L53.2989 65.5899L52.1348 66.1165L50.9416 66.5874L49.7201 67.0001L48.4732 67.3546L47.2018 67.6479L45.9077 67.8788L44.5928 68.0459L43.259 68.1475L41.9078 68.1816ZM41.9078 68.1816C41.4036 68.1816 40.9943 67.7723 40.9943 67.2681C40.9943 66.7639 41.4036 66.3546 41.9078 66.3546V68.1816ZM15.634 41.9071H17.4611L17.4928 43.166L17.5869 44.408L17.7426 45.6314L17.9577 46.8355L18.2306 48.0178L18.5601 49.1777L18.9445 50.3131L19.3818 51.4235L19.8713 52.506L20.411 53.5601L20.9998 54.5836L21.6355 55.5757L22.317 56.5346L23.043 57.4579L23.8114 58.345L24.6214 59.1942L25.4703 60.0042L26.3577 60.7726L27.281 61.4986L28.2399 62.1801L29.232 62.8158L30.2555 63.4046L31.3096 63.9443L32.3921 64.4338L33.5021 64.8715L34.6375 65.2555L35.7974 65.585L36.9797 65.8579L38.1835 66.073L39.4069 66.2287L40.6488 66.3228L41.9078 66.3546V68.1816L40.5566 68.1475L39.2224 68.0459L37.9075 67.8788L36.6138 67.6479L35.3424 67.3546L34.0955 67.0001L32.874 66.5874L31.6808 66.1165L30.5167 65.5899L29.384 65.0102L28.2834 64.3775L27.2171 63.6942L26.1872 62.9613L25.1951 62.1816L24.2419 61.3558L23.3295 60.4861L22.4599 59.5741L21.634 58.6205L20.8543 57.6284L20.1215 56.5985L19.4381 55.5323L18.8054 54.4317L18.2257 53.2989L17.6992 52.1348L17.2286 50.9412L16.8155 49.7205L16.461 48.4729L16.1677 47.2014L15.9368 45.9073L15.7697 44.5924L15.668 43.2582L15.634 41.9071ZM15.634 41.9071C15.634 41.4029 16.0434 40.9936 16.5475 40.9936C17.0517 40.9936 17.4611 41.4029 17.4611 41.9071H15.634ZM41.9078 15.634V17.4611L40.6488 17.4928L39.4069 17.5869L38.1835 17.7426L36.9797 17.9577L35.7974 18.2306L34.6375 18.5598L33.5021 18.9438L32.3921 19.3818L31.3096 19.8709L30.2559 20.411L29.232 20.9999L28.2395 21.6355L27.281 22.317L26.3577 23.0427L25.4703 23.8111L24.6214 24.621L23.8114 25.4703L23.043 26.3573L22.317 27.2807L21.6355 28.2395L20.9994 29.2313L20.411 30.2548L19.8713 31.3089L19.3818 32.3913L18.9445 33.5014L18.5601 34.6371L18.2306 35.7967L17.9577 36.9789L17.7426 38.1827L17.5869 39.4062L17.4928 40.6481L17.4611 41.9071H15.634L15.668 40.5559L15.7697 39.2217L15.9368 37.9068L16.1677 36.6131L16.461 35.3416L16.8155 34.0944L17.2286 32.8732L17.6992 31.68L18.2257 30.5159L18.8054 29.3832L19.4385 28.2826L20.1215 27.2168L20.8543 26.1869L21.634 25.1947L22.4599 24.2412L23.3295 23.3292L24.2419 22.4595L25.1951 21.6337L26.1872 20.8536L27.2175 20.1215L28.2834 19.4381L29.3836 18.8054L30.5167 18.2253L31.6808 17.6992L32.874 17.2286L34.0955 16.8151L35.3424 16.461L36.6138 16.1677L37.9075 15.9368L39.2224 15.7697L40.5566 15.6681L41.9078 15.634ZM41.9078 15.634C42.412 15.634 42.8213 16.0434 42.8213 16.5475C42.8213 17.0517 42.412 17.4611 41.9078 17.4611V15.634ZM68.1816 41.9071H66.3545L66.3228 40.6481L66.2287 39.4062L66.073 38.1827L65.8579 36.9789L65.5846 35.7967L65.2555 34.6368L64.8711 33.5014L64.4338 32.3913L63.9443 31.3089L63.4042 30.2548L62.8161 29.2313L62.1797 28.2395L61.4986 27.2807L60.7725 26.3573L60.0042 25.4703L59.1942 24.621L58.3453 23.8111L57.4579 23.0427L56.5342 22.317L55.5753 21.6355L54.5836 20.9994L53.5597 20.411L52.506 19.8709L51.4235 19.3818L50.3135 18.9438L49.1781 18.5598L48.0182 18.2306L46.8359 17.9577L45.6318 17.7426L44.4083 17.5869L43.1668 17.4928L41.9078 17.4611V15.634L43.259 15.6681L44.5928 15.7697L45.9077 15.9368L47.2018 16.1677L48.4732 16.461L49.7201 16.8151L50.9416 17.2286L52.1348 17.6992L53.2989 18.2253L54.432 18.8054L55.5322 19.4385L56.5981 20.1215L57.628 20.8536L58.6205 21.6337L59.5737 22.4595L60.4861 23.3292L61.3557 24.2412L62.1816 25.1947L62.9613 26.1869L63.6937 27.2168L64.3771 28.2826L65.0098 29.3832L65.5899 30.5159L66.1164 31.68L66.587 32.8732L67.0001 34.0948L67.3542 35.3416L67.6479 36.6131L67.8788 37.9068L68.0459 39.2217L68.1475 40.5559L68.1816 41.9071ZM68.1816 41.9071C68.1816 42.4113 67.7722 42.8206 67.2681 42.8206C66.7639 42.8206 66.3545 42.4113 66.3545 41.9071H68.1816Z" fill="#D74849"/>
<path d="M41.0328 67.0062C41.1772 66.5232 41.6866 66.2488 42.1697 66.3931C42.6527 66.5375 42.9271 67.047 42.7827 67.53L41.0328 67.0062ZM22.721 79.3441L22.9092 77.5269H22.9096L24.2589 77.6304L25.5405 77.6576L26.756 77.6142L27.9072 77.5046L28.9965 77.3341L30.0257 77.1077L30.997 76.8307L31.9124 76.5075L32.7734 76.1432L33.5818 75.7418L34.3404 75.3079L35.0498 74.8468L35.712 74.3623L36.3288 73.8585L36.901 73.341L37.4298 72.8142L37.9177 72.2817L38.3641 71.7495L38.7715 71.2215L39.1408 70.7029L39.473 70.1988L39.7689 69.7138L40.0308 69.252L40.2591 68.8204L40.4549 68.4224L40.6204 68.0626L40.7561 67.747L40.8631 67.4809L40.9432 67.2677L40.9976 67.1132L41.0279 67.0221L41.0328 67.0062L42.7827 67.53L42.7649 67.5875L42.7249 67.7088L42.6583 67.8966L42.5646 68.1453L42.4418 68.4507L42.2887 68.8064L42.1043 69.2085L41.8858 69.6519L41.6326 70.1311L41.3427 70.6413L41.015 71.1784L40.6473 71.7363L40.2387 72.31L39.7867 72.8954L39.2904 73.4866L38.7481 74.0788L38.1581 74.6669L37.5186 75.2448L36.8292 75.8076L36.0869 76.3511L35.2913 76.8681L34.4413 77.3542L33.5346 77.8039L32.5716 78.2114L31.5511 78.5716L30.4716 78.8796L29.3329 79.1294L28.134 79.3172L26.8739 79.4375L25.5526 79.4847L24.1681 79.4552L22.7206 79.3441H22.721ZM22.7206 79.3441C22.219 79.2919 21.8543 78.8425 21.9065 78.341C21.9586 77.8394 22.408 77.4747 22.9096 77.5269L22.7206 79.3441ZM0.238826 82.2865L1.58812 83.5178L0.297406 82.2275L0.33558 82.1939L0.406635 82.133L0.518508 82.0412L0.671959 81.9206L0.867362 81.7736L1.10358 81.6046L1.381 81.4157L1.70074 81.2085L2.06321 80.9859L2.46875 80.7508L2.91776 80.5055L3.41022 80.2527L3.94579 79.9953L4.52632 79.7349L5.15108 79.4748L5.82119 79.2175L6.53628 78.965L7.29709 78.7208L8.10364 78.4861L8.95668 78.265L9.85621 78.059L10.8026 77.8708L11.7959 77.703L12.8371 77.5586L13.9256 77.4392L15.0625 77.3478L16.2474 77.2869L17.4814 77.2589L18.7642 77.2668L20.0965 77.3122L21.4779 77.398L22.9092 77.5269L22.721 79.3441L21.3388 79.2197L20.008 79.137L18.7271 79.0931L17.4958 79.0859L16.3147 79.1124L15.1819 79.171L14.098 79.2579L13.0616 79.3713L12.0733 79.5089L11.1322 79.6676L10.2379 79.8452L9.38982 80.0399L8.58743 80.2481L7.83076 80.4677L7.11908 80.6968L6.45161 80.9318L5.82912 81.1711L5.25048 81.4123L4.71454 81.6522L4.22207 81.8892L3.77193 82.1201L3.36449 82.3427L2.99901 82.5552L2.67435 82.7544L2.39089 82.938L2.14824 83.1036L1.94604 83.2483L1.7839 83.3696L1.66144 83.4668L1.57678 83.536L1.53067 83.5756L1.52953 83.5768L0.238826 82.2865ZM1.52953 83.5768C1.15725 83.9169 0.578984 83.8905 0.238826 83.5182C-0.101331 83.1459 -0.0748772 82.5676 0.297406 82.2275L1.52953 83.5768ZM4.4719 61.0946L6.28909 60.9057V60.906L6.41798 62.3373L6.50377 63.7188L6.54912 65.051L6.55706 66.3338L6.52871 67.5678L6.46824 68.7527L6.37678 69.8896L6.25735 70.9785L6.11259 72.0194L5.94478 73.0126L5.75694 73.9586L5.55095 74.8585L5.32909 75.7116L5.09514 76.5181L4.85061 77.279L4.59813 77.9944L4.34074 78.6641L4.08071 79.2893L3.82031 79.8694L3.56292 80.4054L3.31007 80.8975L3.06478 81.3465L2.82969 81.752L2.60707 82.1145L2.39996 82.4342L2.21098 82.7117L2.04166 82.9482L1.89501 83.1433L1.77483 83.2963L1.6826 83.4089L1.62175 83.48L1.58812 83.5178L0.238826 82.2865L0.239957 82.2849L0.279644 82.2388L0.348429 82.1549L0.445944 82.0313L0.567643 81.8696L0.712024 81.6677L0.877563 81.4243L1.06125 81.1409L1.26043 80.8162L1.47284 80.4507L1.69545 80.0433L1.92638 79.5935L2.16336 79.1007L2.40336 78.5651L2.64449 77.9861L2.88374 77.3632L3.11958 76.6962L3.34824 75.9845L3.56783 75.2278L3.77608 74.4254L3.96997 73.5777L4.14799 72.683L4.30673 71.7419L4.44468 70.7532L4.55807 69.7172L4.645 68.6333L4.7032 67.5006L4.73004 66.3187L4.72286 65.0881L4.67901 63.8072L4.59624 62.4764L4.4719 61.0943V61.0946ZM4.4719 61.0943C4.42012 60.5927 4.78484 60.1433 5.28638 60.0916C5.78793 60.0398 6.23731 60.4045 6.28909 60.906L4.4719 61.0943ZM16.2856 41.0321L16.8094 42.7821L16.7935 42.787L16.7024 42.8172L16.5479 42.8716L16.3347 42.9518L16.0686 43.0587L15.753 43.1944L15.3936 43.3596L14.9956 43.5557L14.5632 43.784L14.1021 44.0459L13.6172 44.3419L13.1127 44.6741L12.5945 45.043L12.0665 45.4508L11.5339 45.8971L11.0022 46.3851L10.4745 46.9138L9.95675 47.4865L9.45369 48.1025L8.96916 48.7651L8.50767 49.4748L8.07416 50.233L7.67278 51.0418L7.30843 51.9025L6.98528 52.8178L6.70824 53.7892L6.48185 54.8183L6.31139 55.9076L6.20179 57.0588L6.15832 58.2747L6.18553 59.556L6.28909 60.9057L4.4719 61.0946L4.36078 59.6467L4.3313 58.2626L4.37854 56.9409L4.49873 55.6808L4.68657 54.482L4.9364 53.3432L5.24443 52.2638L5.60462 51.2433L6.01205 50.2799L6.46181 49.3743L6.94749 48.5239L7.4649 47.728L8.00764 46.986L8.57117 46.2959L9.14944 45.6568L9.73678 45.0668L10.329 44.5244L10.9205 44.0282L11.5052 43.5765L12.0793 43.1676L12.6376 42.7998L13.1739 42.4722L13.6849 42.1822L14.1641 41.929L14.6075 41.7109L15.0092 41.5261L15.3649 41.3731L15.6703 41.2502L15.919 41.1565L16.1068 41.09L16.2281 41.0499L16.2856 41.0321ZM16.2856 41.0321C16.7686 40.8878 17.2781 41.1621 17.4224 41.6452C17.5668 42.1282 17.2924 42.6377 16.8094 42.7821L16.2856 41.0321Z" fill="#D74849"/>
<path d="M67.006 42.7821C66.523 42.6377 66.2486 42.1282 66.393 41.6452C66.5374 41.1621 67.0469 40.8878 67.5299 41.0321L67.006 42.7821ZM79.3439 61.0943L77.5267 60.906V60.9057L77.6303 59.556L77.6575 58.2747L77.614 57.0588L77.5044 55.9076L77.334 54.8183L77.1076 53.7892L76.8305 52.8178L76.5074 51.9025L76.1431 51.0418L75.7417 50.2334L75.3078 49.4748L74.8467 48.7651L74.3621 48.1029L73.8583 47.4861L73.3409 46.9138L72.814 46.3851L72.2815 45.8971L71.7494 45.4508L71.2214 45.0433L70.7028 44.6741L70.1986 44.3419L69.7137 44.0459L69.2518 43.784L68.8202 43.5557L68.4222 43.3599L68.0624 43.1944L67.7468 43.0587L67.4807 42.9518L67.2676 42.8716L67.113 42.8172L67.0219 42.787L67.006 42.7821L67.5299 41.0321L67.5873 41.0499L67.7087 41.09L67.8965 41.1565L68.1452 41.2502L68.4506 41.3731L68.8062 41.5261L69.2084 41.7106L69.6517 41.929L70.131 42.1822L70.6412 42.4722L71.1783 42.7998L71.7361 43.1676L72.3099 43.5762L72.8953 44.0282L73.4864 44.5244L74.0787 45.0668L74.6668 45.6568L75.2447 46.2963L75.8074 46.9857L76.3509 47.728L76.868 48.5239L77.354 49.3739L77.8038 50.2799L78.2112 51.2433L78.5714 52.2638L78.8794 53.3432L79.1293 54.482L79.3171 55.6808L79.4373 56.9409L79.4845 58.2626L79.4551 59.6467L79.3439 61.0946V61.0943ZM79.3439 61.0946C79.2918 61.5962 78.8424 61.9609 78.3408 61.9088C77.8393 61.8566 77.4746 61.4072 77.5267 60.9057L79.3439 61.0946ZM82.2863 83.5768L83.5177 82.2275L82.2273 83.5178L82.1937 83.48L82.1328 83.4089L82.0406 83.2963L81.9204 83.1433L81.7738 82.9482L81.6045 82.7117L81.4155 82.4342L81.2084 82.1145L80.9858 81.752L80.7507 81.3465L80.5054 80.8975L80.2529 80.4057L79.9948 79.8694L79.7347 79.2889L79.4747 78.6641L79.2169 77.9944L78.9645 77.279L78.7203 76.5181L78.4864 75.7116L78.2645 74.8585L78.0585 73.9586L77.8707 73.0126L77.7029 72.0194L77.5581 70.9785L77.4387 69.8896L77.3472 68.7527L77.2867 67.5674L77.2588 66.3338L77.2663 65.051L77.3121 63.7188L77.3979 62.3373L77.5267 60.906L79.3439 61.0943L79.2196 62.4764L79.1368 63.8072L79.0926 65.0881L79.0858 66.3187L79.1122 67.5009L79.1705 68.6333L79.2574 69.7172L79.3708 70.7532L79.5087 71.7419L79.6675 72.683L79.8455 73.5777L80.0394 74.4254L80.2476 75.2278L80.4672 75.9845L80.6962 76.6962L80.9313 77.3632L81.171 77.9861L81.4121 78.5655L81.6517 79.1007L81.8887 79.5931L82.12 80.0433L82.3426 80.4507L82.555 80.8162L82.7542 81.1409L82.9379 81.4243L83.1034 81.6677L83.2478 81.8696L83.3695 82.0313L83.467 82.1549L83.5358 82.2388L83.5755 82.2849L83.5766 82.2865L82.2863 83.5768ZM83.5766 82.2865C83.9164 82.6587 83.8899 83.237 83.5177 83.5768C83.1454 83.9166 82.5671 83.8901 82.2273 83.5178L83.5766 82.2865ZM61.0945 79.3441L60.9055 77.5269H60.9059L62.3372 77.398L63.7186 77.3122L65.0509 77.2668L66.3333 77.2589L67.5677 77.2869L68.7526 77.3478L69.8894 77.4392L70.9779 77.5586L72.0192 77.703L73.0125 77.8708L73.9589 78.059L74.8584 78.265L75.7114 78.4861L76.518 78.7208L77.2788 78.965L77.9939 79.2175L78.664 79.4748L79.2891 79.7349L79.8693 79.9953L80.4052 80.2527L80.8973 80.5055L81.3463 80.7508L81.7519 80.9859L82.1143 81.2085L82.4341 81.4157L82.7115 81.6046L82.9481 81.7739L83.1431 81.9206L83.2962 82.0408L83.4088 82.133L83.4799 82.1939L83.5177 82.2275L82.2863 83.5768L82.2848 83.5756L82.2387 83.536L82.1548 83.4672L82.0312 83.3696L81.8694 83.2479L81.6676 83.1036L81.4242 82.938L81.1407 82.7544L80.8161 82.5552L80.4506 82.3427L80.0431 82.1201L79.5934 81.8892L79.1005 81.6522L78.565 81.4123L77.986 81.1711L77.3635 80.9318L76.696 80.6968L75.9843 80.4677L75.2277 80.2481L74.4253 80.0399L73.5771 79.8452L72.6829 79.6676L71.7418 79.5089L70.7534 79.3713L69.7171 79.2579L68.6331 79.171L67.5004 79.1124L66.3189 79.0859L65.0879 79.0931L63.807 79.137L62.4763 79.2197L61.0941 79.3441H61.0945ZM61.0941 79.3441C60.5926 79.3959 60.1432 79.0311 60.0914 78.5296C60.0396 78.028 60.4043 77.5787 60.9059 77.5269L61.0941 79.3441ZM41.0327 67.53L42.7827 67.0062L42.7876 67.0221L42.8178 67.1132L42.8722 67.2677L42.9524 67.4809L43.0593 67.747L43.195 68.0626L43.3606 68.4224L43.5563 68.8204L43.7846 69.252L44.0466 69.7138L44.3425 70.1988L44.6747 70.7029L45.044 71.2215L45.451 71.7495L45.8978 72.2817L46.3853 72.8142L46.9145 73.341L47.4863 73.8585L48.1031 74.3619L48.7657 74.8468L49.4751 75.3079L50.2336 75.7418L51.0421 76.1432L51.9027 76.5075L52.8181 76.8307L53.7894 77.1077L54.8186 77.3341L55.9078 77.5046L57.0591 77.6142L58.2746 77.6576L59.5562 77.6304L60.9055 77.5269L61.0945 79.3441L59.6469 79.4552L58.2625 79.4847L56.9412 79.4375L55.6811 79.3172L54.4822 79.1294L53.3434 78.8796L52.264 78.5716L51.2435 78.2114L50.2801 77.8039L49.3742 77.3542L48.5242 76.8681L47.7286 76.3511L46.9866 75.808L46.2965 75.2448L45.6574 74.6669L45.067 74.0788L44.525 73.4866L44.0284 72.8954L43.5767 72.31L43.1682 71.7363L42.8004 71.1784L42.4728 70.6413L42.1829 70.1311L41.9296 69.6519L41.7112 69.2085L41.5267 68.8064L41.3737 68.4507L41.2508 68.1453L41.1571 67.8966L41.0906 67.7088L41.0505 67.5875L41.0327 67.53ZM41.0327 67.53C40.8884 67.047 41.1628 66.5375 41.6458 66.3931C42.1288 66.2488 42.6383 66.5232 42.7827 67.0062L41.0327 67.53Z" fill="#D74849"/>
<path d="M42.7827 16.8095C42.6383 17.2925 42.1288 17.5669 41.6458 17.4225C41.1628 17.2781 40.8884 16.7686 41.0327 16.2856L42.7827 16.8095ZM61.0941 4.47156L60.9059 6.28876H60.9055L59.5562 6.1852L58.2746 6.15799L57.0591 6.20147L55.9078 6.31106L54.8186 6.48154L53.7894 6.70791L52.8181 6.98495L51.9027 7.30809L51.0421 7.67246L50.2336 8.07385L49.4751 8.50772L48.7657 8.96883L48.1031 9.45375L47.4863 9.95719L46.9145 10.4746L46.3853 11.0015L45.8978 11.534L45.451 12.0662L45.044 12.5942L44.6747 13.1127L44.3425 13.6169L44.0466 14.1018L43.7846 14.5637L43.5563 14.9953L43.3606 15.3933L43.195 15.7531L43.0593 16.0687L42.9524 16.3347L42.8722 16.5479L42.8178 16.7025L42.7876 16.7936L42.7827 16.8095L41.0327 16.2856L41.0505 16.2282L41.0906 16.1069L41.1571 15.919L41.2508 15.6703L41.3737 15.3649L41.5267 15.0093L41.7112 14.6071L41.9296 14.1638L42.1829 13.6845L42.4728 13.1743L42.8004 12.6372L43.1682 12.0794L43.5767 11.5057L44.0284 10.9202L44.525 10.3291L45.067 9.73685L45.6574 9.14873L46.2965 8.57084L46.9866 8.00771L47.7286 7.46459L48.5242 6.94752L49.3742 6.4615L50.2801 6.01172L51.2435 5.60432L52.264 5.24412L53.3434 4.93607L54.4822 4.68627L55.6811 4.4984L56.9412 4.37822L58.2625 4.33098L59.6469 4.36047L61.0945 4.47156H61.0941ZM61.0945 4.47156C61.596 4.52372 61.9608 4.97311 61.9086 5.47465C61.8564 5.9762 61.407 6.34092 60.9055 6.28876L61.0945 4.47156ZM83.5766 1.52885L82.2273 0.297475L83.5177 1.58779L83.4799 1.62142L83.4088 1.68228L83.2962 1.77452L83.1431 1.89469L82.9481 2.04134L82.7115 2.21068L82.4341 2.39965L82.1143 2.60675L81.7519 2.82935L81.3463 3.06447L80.8973 3.30973L80.4052 3.5626L79.8693 3.81997L79.2891 4.0804L78.664 4.34043L77.9943 4.5978L77.2788 4.85029L76.518 5.09482L75.7114 5.32916L74.8584 5.55061L73.9585 5.7566L73.0125 5.94447L72.0192 6.11226L70.9783 6.25702L69.8894 6.37646L68.7526 6.46792L67.5677 6.52838L66.3337 6.55673L65.0509 6.54879L63.7186 6.50343L62.3372 6.41765L60.9059 6.28876L61.0941 4.47156L62.4763 4.59591L63.807 4.6787L65.0879 4.72255L66.3185 4.72971L67.5004 4.70288L68.6331 4.64467L69.7171 4.55775L70.7531 4.44436L71.7418 4.3064L72.6829 4.14768L73.5775 3.96967L74.4253 3.77575L75.2277 3.56714L75.9843 3.34793L76.696 3.11928L77.3631 2.88342L77.986 2.64418L78.565 2.40305L79.1005 2.16303L79.5934 1.92607L80.0431 1.69513L80.4506 1.47252L80.8161 1.26011L81.1407 1.06091L81.4242 0.877249L81.6676 0.71171L81.8694 0.56732L82.0312 0.44563L82.1548 0.348115L82.2387 0.279316L82.2848 0.239638L82.2863 0.238494L83.5766 1.52885ZM82.2863 0.238494C82.6586 -0.101286 83.2368 -0.0748082 83.5766 0.297475C83.9164 0.669759 83.8899 1.24801 83.5177 1.58779L82.2863 0.238494ZM79.3439 22.721L77.5267 22.91V22.9096L77.3979 21.4783L77.3121 20.0969L77.2663 18.7646L77.2588 17.4815L77.2867 16.2482L77.3472 15.063L77.4387 13.9257L77.5581 12.8368L77.7029 11.7963L77.8707 10.8026L78.0585 9.85665L78.2645 8.95673L78.4864 8.10371L78.7203 7.29713L78.9645 6.53632L79.2169 5.82086L79.4747 5.15114L79.7347 4.52638L79.9948 3.94583L80.2529 3.40953L80.5054 2.91782L80.7507 2.46878L80.9858 2.06326L81.2084 1.70081L81.4155 1.38106L81.6045 1.10365L81.7738 0.867025L81.9204 0.672032L82.0406 0.518932L82.1328 0.406321L82.1937 0.335271L82.2273 0.297475L83.5766 1.52885L83.5755 1.53036L83.5358 1.57646L83.467 1.66036L83.3695 1.78397L83.2478 1.9457L83.1034 2.14752L82.9379 2.39094L82.7542 2.67441L82.555 2.99906L82.3426 3.36454L82.12 3.77198L81.8887 4.22213L81.6517 4.71461L81.4121 5.24976L81.171 5.82917L80.9313 6.45205L80.6962 7.11912L80.4672 7.8308L80.2476 8.58749L80.0394 9.38986L79.8455 10.2376L79.6675 11.1322L79.5087 12.0737L79.3708 13.0621L79.2574 14.098L79.1705 15.1824L79.1122 16.3147L79.0858 17.4966L79.0926 18.7276L79.1368 20.0085L79.2196 21.3392L79.3439 22.7214V22.721ZM79.3439 22.7214C79.3957 23.2229 79.031 23.6723 78.5294 23.7241C78.0279 23.7759 77.5785 23.4111 77.5267 22.9096L79.3439 22.7214ZM67.5299 42.782L67.006 41.0321L67.0219 41.0272L67.113 40.9969L67.2676 40.9425L67.4807 40.8624L67.7468 40.7554L68.0624 40.6197L68.4222 40.4542L68.8202 40.2584L69.2522 40.0301L69.7137 39.7686L70.1986 39.4723L70.7028 39.1404L71.2214 38.7711L71.7494 38.3637L72.2815 37.917L72.814 37.4298L73.3409 36.9011L73.8583 36.3288L74.3621 35.712L74.8467 35.0498L75.3078 34.3404L75.7417 33.5819L76.1431 32.7734L76.5074 31.9124L76.8305 30.9974L77.1076 30.0261L77.334 28.9969L77.5044 27.9077L77.614 26.7564L77.6575 25.5409L77.6303 24.2593L77.5267 22.91L79.3439 22.721L79.4551 24.1686L79.4845 25.553L79.4373 26.8743L79.3171 28.1344L79.1293 29.3333L78.8794 30.4721L78.5714 31.5515L78.2112 32.5716L77.8038 33.5346L77.354 34.4413L76.868 35.2914L76.3509 36.0869L75.8074 36.8292L75.2447 37.5186L74.6668 38.1581L74.0787 38.7481L73.4864 39.2905L72.8953 39.7863L72.3099 40.2384L71.7361 40.647L71.1783 41.0143L70.6412 41.3424L70.1306 41.6319L69.6517 41.8851L69.2084 42.1036L68.8062 42.288L68.4506 42.4411L68.1452 42.5639L67.8965 42.6576L67.7087 42.7242L67.5873 42.7642L67.5299 42.782ZM67.5299 42.782C67.0469 42.9264 66.5374 42.652 66.393 42.169C66.2486 41.6859 66.523 41.1764 67.006 41.0321L67.5299 42.782Z" fill="#D74849"/>
<path d="M16.8095 41.0321C17.2925 41.1764 17.5669 41.6859 17.4225 42.169C17.2781 42.652 16.7686 42.9264 16.2856 42.782L16.8095 41.0321ZM4.47194 22.7214L6.28914 22.9096V22.91L6.18558 24.2593L6.15837 25.5409L6.20183 26.7564L6.31143 27.9077L6.48189 28.9969L6.70828 30.0261L6.98533 30.9974L7.30847 31.9124L7.67282 32.7734L8.07421 33.5823L8.50772 34.3404L8.9692 35.0498L9.45373 35.7124L9.95679 36.3284L10.4746 36.9011L11.0018 37.4298L11.534 37.917L12.0665 38.3637L12.5945 38.7716L13.1123 39.1404L13.6173 39.4723L14.1022 39.7686L14.5633 40.0301L14.9957 40.2584L15.3936 40.4546L15.7531 40.6197L16.0687 40.7554L16.3347 40.8624L16.5479 40.9425L16.7025 40.9969L16.7936 41.0272L16.8095 41.0321L16.2856 42.782L16.2282 42.7642L16.1068 42.7242L15.919 42.6576L15.6703 42.5639L15.3649 42.4411L15.0093 42.288L14.6075 42.1032L14.1642 41.8851L13.6849 41.6319L13.1739 41.3424L12.6376 41.0143L12.0797 40.647L11.5053 40.238L10.9206 39.7863L10.3291 39.2905L9.7372 38.7481L9.14948 38.1581L8.57122 37.519L8.00769 36.8289L7.46495 36.0869L6.94753 35.2914L6.46186 34.441L6.0121 33.5346L5.60466 32.5716L5.24447 31.5515L4.93644 30.4721L4.68662 29.3333L4.49877 28.1344L4.37858 26.8743L4.33134 25.553L4.36082 24.1686L4.47194 22.721V22.7214ZM4.47194 22.721C4.5241 22.2195 4.97348 21.8548 5.47502 21.9069C5.97657 21.9591 6.34129 22.4085 6.28914 22.91L4.47194 22.721ZM1.52958 0.238494L0.297451 1.58779L1.58816 0.297475L1.6218 0.335271L1.68265 0.406321L1.77487 0.518932L1.89506 0.672032L2.0417 0.867025L2.21103 1.10365L2.4 1.38106L2.60712 1.70081L2.82973 2.06326L3.06482 2.46878L3.31012 2.91782L3.56296 3.4099L3.82035 3.94583L4.08076 4.52601L4.34079 5.15114L4.59818 5.82086L4.85065 6.53632L5.09518 7.29713L5.32914 8.10371L5.55099 8.95673L5.75698 9.85665L5.94482 10.8026L6.11263 11.7963L6.25739 12.8368L6.37682 13.9257L6.46829 15.063L6.52876 16.2478L6.5571 17.4815L6.54917 18.7646L6.50382 20.0969L6.41802 21.4783L6.28914 22.9096L4.47194 22.7214L4.59628 21.3392L4.67906 20.0085L4.7229 18.7276L4.73008 17.4966L4.70325 16.3151L4.64504 15.1824L4.55811 14.098L4.44473 13.0621L4.30678 12.0737L4.14803 11.1322L3.97002 10.2376L3.77613 9.38986L3.56788 8.58749L3.34829 7.8308L3.11963 7.11912L2.88378 6.45205L2.64454 5.82917L2.40341 5.25017L2.1634 4.71461L1.92643 4.22176L1.6955 3.77198L1.47288 3.36454L1.26047 2.99906L1.0613 2.67441L0.877607 2.39094L0.712068 2.14752L0.567688 1.9457L0.445988 1.78397L0.348473 1.66036L0.279688 1.57646L0.240001 1.53036L0.238871 1.52885L1.52958 0.238494ZM0.238871 1.52885C-0.100909 1.15656 -0.0744546 0.578273 0.297829 0.238494C0.670112 -0.101286 1.24838 -0.0748082 1.58816 0.297475L0.238871 1.52885ZM22.7206 4.47156L22.9096 6.28876H22.9092L21.4779 6.41765L20.0965 6.50343L18.7642 6.54879L17.4811 6.55673L16.2474 6.52838L15.0626 6.46792L13.9257 6.37646L12.8368 6.25702L11.7959 6.11226L10.8026 5.94447L9.85663 5.7566L8.95673 5.55061L8.10369 5.32916L7.29714 5.09482L6.53632 4.85029L5.82085 4.5978L5.15112 4.34043L4.52636 4.0804L3.94583 3.81997L3.41027 3.5626L2.9178 3.30973L2.46879 3.06447L2.06325 2.82935L1.70079 2.60675L1.38104 2.39965L1.10363 2.21068L0.867406 2.04171L0.672003 1.89469L0.518552 1.77411L0.406679 1.68228L0.335624 1.62142L0.297451 1.58779L1.52958 0.238494L1.53071 0.239638L1.57682 0.279316L1.66149 0.348484L1.78394 0.44563L1.94608 0.566951L2.14829 0.71171L2.39093 0.877249L2.6744 1.06091L2.99906 1.26011L3.36454 1.47252L3.77197 1.69513L4.22212 1.92607L4.71458 2.16303L5.25052 2.40305L5.82917 2.64418L6.45204 2.88342L7.11912 3.11928L7.83081 3.34793L8.58747 3.56714L9.38986 3.77575L10.2376 3.96967L11.1322 4.14768L12.0733 4.3064L13.062 4.44436L14.098 4.55775L15.182 4.64467L16.3147 4.70288L17.4962 4.72971L18.7272 4.72255L20.0081 4.6787L21.3388 4.59591L22.721 4.47156H22.7206ZM22.721 4.47156C23.2226 4.41979 23.6719 4.7845 23.7237 5.28605C23.7755 5.78759 23.4108 6.23699 22.9092 6.28876L22.721 4.47156ZM42.7827 16.2856L41.0328 16.8095L41.0279 16.7936L40.9977 16.7025L40.9432 16.5479L40.8631 16.3347L40.7562 16.0687L40.6205 15.7531L40.4549 15.3933L40.2591 14.9953L40.0309 14.5637L39.7689 14.1018L39.473 13.6169L39.1408 13.1127L38.7715 12.5942L38.3641 12.0662L37.9177 11.534L37.4298 11.0015L36.901 10.4746L36.3288 9.95719L35.712 9.45338L35.0498 8.96883L34.3404 8.50772L33.5819 8.07385L32.7734 7.67246L31.9124 7.30809L30.997 6.98495L30.0257 6.70791L28.9965 6.48154L27.9073 6.31106L26.756 6.20147L25.5405 6.15799L24.2589 6.1852L22.9096 6.28876L22.7206 4.47156L24.1682 4.36047L25.5526 4.33098L26.874 4.37822L28.134 4.4984L29.3329 4.68627L30.4717 4.93607L31.5511 5.24412L32.5716 5.60432L33.5346 6.01172L34.4413 6.4615L35.2913 6.94752L36.0869 7.46459L36.8292 8.00808L37.5186 8.57084L38.1581 9.14873L38.7481 9.73685L39.2905 10.3291L39.7867 10.9202L40.2387 11.5057L40.6473 12.0794L41.0151 12.6372L41.3427 13.1743L41.6326 13.6845L41.8859 14.1638L42.1043 14.6071L42.2888 15.0093L42.4418 15.3649L42.5647 15.6703L42.6584 15.919L42.7249 16.1069L42.765 16.2282L42.7827 16.2856ZM42.7827 16.2856C42.9271 16.7686 42.6527 17.2781 42.1697 17.4225C41.6867 17.5669 41.1772 17.2925 41.0328 16.8095L42.7827 16.2856Z" fill="#D74849"/>
<path d="M36.1927 52.7683C36.661 52.955 36.8889 53.4867 36.7022 53.955C36.5155 54.4233 35.9837 54.6512 35.5154 54.4645L36.1927 52.7683ZM30.1258 47.5782L31.9453 47.4112L31.9699 47.6285L32.0028 47.8443L32.0443 48.0571L32.0946 48.2695L32.1536 48.4808L32.2197 48.6886L32.2949 48.8946L32.3769 49.0987L32.4676 49.3002L32.5652 49.499L32.6698 49.6948L32.7821 49.8871L32.9015 50.0772L33.0274 50.2632L33.1593 50.445L33.298 50.623L33.4431 50.7972L33.5936 50.967L33.7504 51.1317L33.9126 51.2923L34.08 51.4481L34.252 51.5981L34.4285 51.7425L34.6099 51.8816L34.7951 52.0146L34.9848 52.1416L35.1787 52.263L35.3752 52.3771L35.5752 52.4848L35.7789 52.5865L35.9849 52.681L36.1927 52.7683L35.5154 54.4645L35.2509 54.3538L34.9905 54.2344L34.7346 54.107L34.4825 53.9713L34.2346 53.8269L33.9923 53.6754L33.7542 53.5158L33.5214 53.3488L33.2946 53.1749L33.0727 52.9935L32.8569 52.8049L32.6479 52.6107L32.445 52.41L32.248 52.2021L32.0583 51.9886L31.8754 51.769L31.6996 51.5433L31.5315 51.3116L31.3716 51.075L31.2196 50.8335L31.0756 50.586L30.94 50.3335L30.8137 50.0765L30.6966 49.8146L30.5888 49.5485L30.4909 49.2782L30.4029 49.0031L30.3258 48.7253L30.2589 48.4433L30.2029 48.1573L30.1587 47.8689L30.1258 47.5782ZM30.1258 47.5782C30.0797 47.0759 30.4498 46.6311 30.9521 46.585C31.4544 46.5388 31.8992 46.9089 31.9453 47.4112L30.1258 47.5782ZM34.9527 40.3147L35.4244 42.0797H35.4247L35.2256 42.1387L35.0309 42.2075L34.8397 42.2865L34.6526 42.3749L34.47 42.4725L34.2913 42.5798L34.1178 42.6951L33.9488 42.8198L33.7844 42.9525L33.6253 43.0934L33.4715 43.242L33.3241 43.3973L33.1824 43.5598L33.0467 43.7292L32.9174 43.9049L32.7957 44.0856L32.6808 44.2719L32.5727 44.4639L32.4726 44.6597L32.3803 44.8592L32.2957 45.0633L32.219 45.2701L32.1517 45.4787L32.0923 45.6907L32.0413 45.9043L32.0001 46.1186L31.9676 46.3344L31.9442 46.551L31.9302 46.7668L31.9257 46.9818L31.9306 47.1972L31.9453 47.4112L30.1258 47.5782L30.1058 47.2811L30.0986 46.9848L30.1047 46.6881L30.124 46.3929L30.1557 46.1L30.1995 45.8086L30.2559 45.5195L30.3235 45.2334L30.4025 44.9511L30.4932 44.6714L30.5949 44.3966L30.7068 44.126L30.83 43.8599L30.9634 43.5991L31.107 43.3444L31.2605 43.0953L31.4245 42.8527L31.5976 42.6172L31.7801 42.3889L31.9725 42.1682L32.1744 41.9554L32.3849 41.7525L32.6045 41.5578L32.8324 41.3737L33.0693 41.1991L33.3154 41.0355L33.569 40.8835L33.8309 40.743L34.1004 40.616L34.3771 40.5014L34.6617 40.4009L34.9523 40.3147H34.9527ZM34.9523 40.3147C35.4395 40.1843 35.9407 40.4738 36.071 40.961C36.2014 41.4482 35.9119 41.9494 35.4247 42.0797L34.9523 40.3147ZM40.4375 44.792L42.1784 45.3445L40.402 45.1854L40.3706 44.9926L40.3272 44.8037L40.272 44.6181L40.2047 44.4352L40.1269 44.2575L40.0384 44.0833L39.9383 43.9132L39.8283 43.7469L39.7081 43.5866L39.5784 43.4302L39.4394 43.2802L39.292 43.1358L39.1362 42.9986L38.9726 42.8678L38.8021 42.7442L38.6252 42.6286L38.4419 42.5212L38.2537 42.4218L38.061 42.3315L37.8637 42.2502L37.6637 42.1784L37.4615 42.1168L37.2563 42.0647L37.0507 42.0231L36.844 41.9921L36.6361 41.9713L36.4305 41.9615L36.2256 41.9626L36.0219 41.9751L35.8201 41.9989L35.6205 42.0336L35.4244 42.0797L34.9527 40.3147L35.2539 40.2437L35.557 40.1908L35.8601 40.1556L36.1644 40.1371L36.4683 40.1352L36.7706 40.1496L37.07 40.1794L37.3674 40.224L37.6622 40.2837L37.9521 40.3571L38.239 40.4444L38.5206 40.5456L38.7965 40.6594L39.0671 40.786L39.3309 40.9247L39.5875 41.0759L39.8377 41.2392L40.0792 41.4142L40.3117 41.6001L40.5354 41.7978L40.7486 42.0064L40.9512 42.2253L41.1428 42.4551L41.3219 42.6954L41.4879 42.9456L41.6402 43.2057L41.7785 43.4759L41.9002 43.7548L42.0053 44.0421L42.0937 44.3373L42.1636 44.6412L42.2139 44.9511L40.4375 44.792ZM42.2139 44.9511C42.2785 45.4511 41.9252 45.9095 41.4251 45.9742C40.9251 46.0388 40.4666 45.6854 40.402 45.1854L42.2139 44.9511ZM45.2972 39.0958L46.0448 40.7626H46.0452L45.8748 40.842L45.7073 40.927L45.5422 41.0173L45.3804 41.1122L45.2205 41.2127L45.0637 41.3178L44.9095 41.4282L44.7587 41.5419L44.6116 41.6606L44.4658 41.7846L44.3236 41.9123L44.1849 42.0442L44.0496 42.1795L43.9177 42.3194L43.7885 42.4634L43.6622 42.6112L43.5409 42.7612L43.4226 42.9154L43.3081 43.0726L43.197 43.2333L43.0892 43.3969L42.9861 43.5628L42.8867 43.7314L42.7914 43.903L42.6996 44.0769L42.6126 44.2526L42.5291 44.4303L42.4509 44.6098L42.376 44.7912L42.3058 44.9749L42.2396 45.159L42.1784 45.3445L40.4375 44.792L40.5124 44.5648L40.5929 44.3399L40.6783 44.1169L40.769 43.8962L40.8654 43.6766L40.967 43.4589L41.0736 43.2446L41.1851 43.033L41.3015 42.8236L41.4236 42.6164L41.5502 42.4127L41.6821 42.212L41.8182 42.0151L41.9599 41.8209L42.1062 41.6304L42.2578 41.4433L42.4135 41.2607L42.5737 41.082L42.7389 40.9074L42.909 40.7365L43.084 40.5706L43.2631 40.4096L43.446 40.2539L43.6346 40.102L43.8278 39.9557L44.0243 39.8158L44.2258 39.6805L44.4317 39.5513L44.6419 39.4277L44.8562 39.3109L45.0743 39.2001L45.2969 39.0958H45.2972ZM45.2969 39.0958C45.7568 38.8895 46.2981 39.0951 46.5044 39.555C46.7108 40.015 46.5052 40.5562 46.0452 40.7626L45.2969 39.0958ZM52.8007 40.0116L51.614 41.4009V41.4006L51.476 41.288L51.3339 41.181L51.1861 41.0793L51.0353 40.9837L50.8811 40.8949L50.7228 40.8117L50.5602 40.7339L50.3943 40.6624L50.2246 40.5967L50.053 40.537L49.8784 40.4837L49.7012 40.4361L49.522 40.3945L49.3406 40.3593L49.1573 40.3295L48.9732 40.3068L48.7865 40.2898L48.6002 40.2788L48.4127 40.2743L48.2249 40.2754L48.037 40.283L47.8492 40.2966L47.6617 40.3162L47.4762 40.3419L47.2909 40.374L47.1065 40.4118L46.9243 40.4557L46.7429 40.5056L46.5645 40.5611L46.3888 40.6224L46.2157 40.6897L46.0448 40.7626L45.2972 39.0958L45.5255 38.9979L45.7576 38.908L45.9923 38.8264L46.2289 38.7527L46.4678 38.6869L46.7089 38.6287L46.9515 38.5788L47.1957 38.5368L47.4418 38.5028L47.6874 38.4771L47.9342 38.459L48.1818 38.4491L48.4286 38.4473L48.6765 38.4533L48.9233 38.468L49.169 38.4903L49.415 38.5213L49.6596 38.5603L49.9022 38.6075L50.1441 38.6634L50.3834 38.7277L50.6207 38.8006L50.8558 38.8823L51.0867 38.9722L51.3154 39.0709L51.5406 39.1782L51.7625 39.2946L51.9802 39.4205L52.193 39.5547L52.4005 39.6979L52.6038 39.8502L52.8007 40.012V40.0116ZM52.8007 40.012C53.184 40.3397 53.2293 40.9164 52.9017 41.2997C52.574 41.6829 51.9972 41.7283 51.614 41.4006L52.8007 40.012ZM54.412 49.5156L52.7308 48.8005V48.8009L52.8268 48.5631L52.916 48.3205L52.9973 48.0745L53.071 47.825L53.1367 47.5722L53.1942 47.317L53.2437 47.0604L53.2849 46.8008L53.3178 46.5415L53.3416 46.2818L53.3571 46.0218L53.3639 45.7629L53.362 45.5044L53.351 45.2474L53.3318 44.993L53.303 44.7417L53.2656 44.4922L53.2191 44.2473L53.1632 44.0058L53.0989 43.7692L53.0252 43.5379L52.9425 43.3104L52.851 43.0897L52.7501 42.8742L52.6405 42.6656L52.5218 42.4634L52.3941 42.268L52.2569 42.0797L52.1106 41.898L51.9553 41.7249L51.7897 41.5593L51.614 41.4009L52.8007 40.0116L53.0483 40.235L53.2819 40.4693L53.5015 40.7142L53.7067 40.9678L53.8976 41.2301L54.0744 41.5004L54.2377 41.7782L54.3866 42.0624L54.5223 42.3527L54.6448 42.6482L54.754 42.9475L54.8511 43.2522L54.935 43.5606L55.0069 43.8716L55.0662 44.1861L55.1142 44.5013L55.1505 44.8199L55.175 45.1393L55.1883 45.459L55.1909 45.7795L55.1826 46.1004L55.1633 46.4209L55.1335 46.741L55.093 47.0593L55.0428 47.3756L54.9827 47.6905L54.9116 48.003L54.8315 48.3126L54.7412 48.6195L54.641 48.9222L54.5314 49.2208L54.412 49.5152V49.5156ZM54.412 49.5152C54.215 49.9794 53.6783 50.1955 53.2142 49.9986C52.7501 49.8017 52.5339 49.265 52.7308 48.8009L54.412 49.5152ZM48.3927 56.8437L47.1742 55.4823L47.3866 55.2922L47.5982 55.1017L47.8099 54.9101L48.02 54.7189L48.229 54.5261L48.4373 54.333L48.6436 54.1395L48.8481 53.9448L49.0507 53.749L49.2514 53.5521L49.4502 53.3541L49.6456 53.1553L49.8384 52.9553L50.0281 52.7535L50.2148 52.5502L50.3989 52.3453L50.5788 52.139L50.7553 51.9311L50.9269 51.7221L51.0954 51.5101L51.2591 51.2965L51.4189 51.0811L51.5735 50.8638L51.7236 50.6442L51.8687 50.4223L52.0086 50.1986L52.1427 49.9722L52.272 49.7435L52.3956 49.5118L52.5131 49.2775L52.625 49.0405L52.7308 48.8005L54.412 49.5156L54.2872 49.7987L54.1557 50.0772L54.0177 50.3516L53.8737 50.6219L53.7241 50.8876L53.5687 51.1487L53.4077 51.4065L53.2422 51.6593L53.0717 51.9092L52.8967 52.1545L52.718 52.3963L52.5347 52.6349L52.348 52.8696L52.1575 53.102L51.9636 53.3303L51.767 53.5556L51.5679 53.7778L51.366 53.9977L51.1612 54.2147L50.9548 54.4298L50.7458 54.6414L50.5364 54.8508L50.3252 55.0583L50.112 55.2639L49.8984 55.4668L49.6838 55.6687L49.4687 55.8679L49.2537 56.0659L49.0375 56.2624L48.8228 56.4571L48.6074 56.6513L48.3927 56.8437ZM48.3927 56.8437C48.017 57.1801 47.4391 57.148 47.1027 56.7723C46.7663 56.3966 46.7985 55.8187 47.1742 55.4823L48.3927 56.8437Z" fill="#D74849"/>
<path d="M48.788 39.4657C48.7294 39.9665 48.2751 40.3248 47.7743 40.2662C47.2735 40.2076 46.9153 39.7533 46.9738 39.2525L48.788 39.4657ZM46.2327 34.9242L47.8994 34.1759L47.9675 34.3297L48.0332 34.4851L48.0964 34.6396L48.1576 34.795L48.2169 34.9526L48.2732 35.1087L48.3277 35.2666L48.3802 35.4261L48.4297 35.5857L48.477 35.7467L48.5212 35.908L48.5628 36.0687L48.6024 36.2316L48.6391 36.396L48.6731 36.5608L48.7037 36.7252L48.7321 36.89L48.7574 37.057L48.7801 37.2252L48.7993 37.393L48.816 37.5612L48.8296 37.7313L48.8402 37.9017L48.847 38.0726L48.8511 38.2445L48.8523 38.4176L48.8496 38.5904L48.8443 38.7642L48.8349 38.9388L48.8228 39.1131L48.8073 39.2892L48.788 39.4657L46.9738 39.2525L46.9893 39.1101L47.0018 38.9694L47.0116 38.8277L47.0188 38.6871L47.0233 38.548L47.0252 38.4086L47.0249 38.271L47.0215 38.133L47.0154 37.9962L47.0071 37.859L46.9965 37.7237L46.9829 37.5873L46.9674 37.4512L46.9493 37.317L46.9285 37.1825L46.9054 37.0472L46.8801 36.9123L46.8529 36.7792L46.823 36.6465L46.7909 36.5132L46.7561 36.379L46.7195 36.2463L46.6805 36.114L46.6393 35.981L46.5966 35.8494L46.5505 35.7172L46.5025 35.5838L46.453 35.4519L46.4009 35.3199L46.3468 35.1873L46.2909 35.0562L46.2327 34.9242ZM46.2327 34.9242C46.0263 34.4643 46.2319 33.923 46.6919 33.7167C47.1519 33.5103 47.6931 33.7159 47.8994 34.1759L46.2327 34.9242Z" fill="#D74849"/>
<path d="M28.1321 35.0994C27.6279 35.0899 27.2269 34.6731 27.2364 34.1689C27.2458 33.6647 27.6627 33.2637 28.1669 33.2731L28.1321 35.0994ZM54.2951 33.7346L54.2604 35.5609L53.5033 35.5465L52.7353 35.5322L51.9564 35.5178L51.1672 35.5034L50.3686 35.4887L49.5624 35.4743L48.7479 35.46L47.9266 35.4456L47.0989 35.4312L46.2659 35.4169L45.4284 35.4021L44.587 35.3878L43.7427 35.3734L42.8957 35.3591L42.0472 35.3447L41.1979 35.3299L40.3491 35.3156L39.5006 35.3012L38.6536 35.2869L37.8092 35.2725L36.9671 35.2581L36.1296 35.2434L35.2966 35.229L34.4689 35.2147L33.6476 35.2003L32.8323 35.1859L32.0254 35.1716L31.2268 35.1568L30.4376 35.1425L29.6579 35.1281L28.8892 35.1138L28.1321 35.0994L28.1669 33.2731L28.9239 33.2875L29.6919 33.3018L30.4709 33.3162L31.2601 33.3306L32.0587 33.3453L32.8648 33.3597L33.6793 33.374L34.5006 33.3884L35.3283 33.4028L36.1613 33.4171L36.9989 33.4319L37.8402 33.4462L38.6846 33.4606L39.5315 33.4749L40.3801 33.4893L41.2289 33.5037L42.0782 33.5184L42.9267 33.5328L43.7737 33.5471L44.618 33.5615L45.4601 33.5758L46.2977 33.5906L47.1307 33.605L47.9584 33.6193L48.7797 33.6337L49.5949 33.648L50.4019 33.6624L51.2005 33.6772L51.9896 33.6915L52.7693 33.7059L53.5381 33.7202L54.2951 33.7346ZM54.2951 33.7346C54.7993 33.744 55.2003 34.1609 55.1909 34.6651C55.1814 35.1693 54.7646 35.5703 54.2604 35.5609L54.2951 33.7346Z" fill="#D74849"/>
<path d="M46.1695 29.4345L46.1272 31.2608L46.0115 31.2551L45.8947 31.243L45.7814 31.2249L45.671 31.2015L45.5584 31.1712L45.4537 31.1368L45.3516 31.0979L45.2481 31.0522L45.1509 31.003L45.0553 30.949L44.962 30.8893L44.8765 30.8292L44.7919 30.7642L44.7095 30.6939L44.6305 30.6198L44.5579 30.545L44.4895 30.4686L44.4211 30.3851L44.3576 30.2993L44.2994 30.2139L44.2442 30.1247L44.1921 30.0309L44.1452 29.9376L44.1021 29.8424L44.0624 29.743L44.0277 29.6432L43.997 29.5422L43.9706 29.4383L43.9487 29.3329L43.9309 29.2248L43.9184 29.1163L43.9109 29.0078L45.7356 28.9209L45.7379 28.9485L45.7405 28.9746L45.7447 28.9995L45.75 29.0256L45.7568 29.0509L45.7647 29.0777L45.7738 29.1035L45.7832 29.1273L45.7946 29.1522L45.8067 29.1768L45.8188 29.198L45.8324 29.2198L45.8475 29.2425L45.8619 29.2618L45.8758 29.2788L45.8944 29.2992L45.9117 29.3174L45.9272 29.3317L45.9431 29.3453L45.9605 29.359L45.9802 29.3729L45.9956 29.3828L46.0127 29.3922L46.0304 29.4013L46.0448 29.4077L46.0644 29.4149L46.083 29.4213L46.0966 29.4251L46.1155 29.4289L46.1328 29.4319L46.1499 29.4334L46.1695 29.4345ZM46.1695 29.4345C46.6737 29.4459 47.0728 29.8646 47.0615 30.3688C47.0501 30.873 46.6314 31.2721 46.1272 31.2608L46.1695 29.4345ZM46.5252 29.3253L47.7361 30.6927L47.7391 30.6905L47.6949 30.7287L47.6462 30.7687L47.605 30.8005L47.5574 30.836L47.5075 30.8704L47.464 30.8987L47.4164 30.9286L47.3638 30.9592L47.3162 30.9857L47.266 31.0117L47.213 31.0374L47.1662 31.0586L47.1144 31.0809L47.0637 31.1009L47.0112 31.121L46.9594 31.1384L46.9122 31.1535L46.8585 31.1697L46.806 31.1841L46.7542 31.1966L46.6998 31.2086L46.6461 31.2192L46.5985 31.2275L46.5444 31.2362L46.4904 31.2434L46.4413 31.2487L46.3876 31.2536L46.3335 31.2574L46.2848 31.2597L46.2307 31.2612L46.1763 31.2616L46.1272 31.2608L46.1695 29.4345H46.1869L46.1997 29.4349L46.2122 29.4342L46.23 29.4334L46.2425 29.4327L46.2553 29.4315L46.2727 29.4292L46.2844 29.4281L46.2961 29.4262L46.3135 29.4232L46.3256 29.4209L46.3354 29.4187L46.3479 29.4153L46.3596 29.4123L46.3694 29.4096L46.3849 29.4043L46.3959 29.4005L46.4054 29.3971L46.4159 29.3929L46.4254 29.3888L46.4382 29.3828L46.445 29.3797L46.4537 29.3748L46.4643 29.3695L46.4685 29.3669L46.4775 29.3612L46.4893 29.3533L46.4945 29.3499L46.5006 29.3453L46.5123 29.3363L46.5157 29.334L46.5221 29.3276L46.5252 29.3253ZM46.5221 29.3276C46.8982 28.9916 47.4761 29.0245 47.8121 29.4005C48.1481 29.7766 48.1152 30.3545 47.7391 30.6905L46.5221 29.3276ZM46.4813 28.4416L47.5577 26.9661L47.5566 26.965L47.6688 27.0523L47.7743 27.1464L47.8726 27.2458L47.9625 27.349L48.0445 27.4556L48.1209 27.5667L48.19 27.6823L48.2516 27.7999L48.3057 27.9189L48.3526 28.038L48.3934 28.1601L48.4278 28.2837L48.4561 28.4088L48.478 28.5361L48.4932 28.662L48.5026 28.7879L48.5056 28.9164L48.5022 29.0426L48.4928 29.1688L48.4765 29.2969L48.4546 29.4217L48.4255 29.5487L48.3892 29.6738L48.3473 29.7959L48.2974 29.9187L48.2399 30.0393L48.1749 30.1579L48.1027 30.2725L48.0234 30.3836L47.9349 30.4924L47.8393 30.5952L47.7361 30.6927L46.5252 29.3253L46.5414 29.3094L46.5569 29.2928L46.5713 29.2754L46.5864 29.2542L46.6004 29.2319L46.6132 29.2085L46.6253 29.1825L46.6367 29.1548L46.6476 29.1227L46.6567 29.0914L46.6639 29.0588L46.6707 29.0226L46.6748 28.9882L46.6775 28.9504L46.6786 28.9118L46.6779 28.8763L46.6752 28.8381L46.6707 28.8007L46.6646 28.7656L46.6567 28.7304L46.6472 28.6968L46.6359 28.6639L46.6231 28.631L46.6098 28.6019L46.5958 28.5751L46.5819 28.5516L46.5667 28.529L46.5497 28.507L46.5331 28.4878L46.5172 28.4715L46.5002 28.4568L46.4825 28.4428L46.4813 28.4416ZM46.4825 28.4428C46.0746 28.1465 45.9843 27.5746 46.2806 27.1668C46.5769 26.759 47.1488 26.6687 47.5566 26.965L46.4825 28.4428ZM46.1173 28.3687L45.9012 26.5545L45.8989 26.5549L45.9495 26.5493L46.0032 26.5443L46.0576 26.5405L46.1064 26.5383L46.1604 26.5368L46.2145 26.5364L46.2632 26.5372L46.3173 26.539L46.371 26.5421L46.4254 26.5462L46.4794 26.5519L46.5327 26.5587L46.5819 26.5659L46.6355 26.5749L46.6881 26.5851L46.7413 26.5965L46.7958 26.6097L46.8483 26.6237L46.9042 26.6399L46.953 26.6558L47.0059 26.674L47.0569 26.6932L47.1076 26.7133L47.1639 26.7375L47.2149 26.7613L47.2633 26.7855L47.3132 26.8115L47.3627 26.8391L47.4111 26.8679L47.4613 26.8992L47.5116 26.9329L47.5577 26.9661L46.4813 28.4416L46.4722 28.4356L46.4673 28.4322L46.4609 28.4281L46.4518 28.4227L46.4431 28.4178L46.4341 28.4129L46.4227 28.4076L46.414 28.4035L46.4091 28.4012L46.3986 28.3971L46.3876 28.3929L46.3785 28.3899L46.3638 28.3854L46.3562 28.3827L46.3453 28.38L46.3354 28.3774L46.3237 28.3751L46.3112 28.3725L46.2999 28.371L46.2833 28.3683L46.2708 28.3668L46.2591 28.3657L46.247 28.3645L46.2341 28.3638L46.2217 28.3634H46.2039L46.1914 28.363L46.179 28.3638L46.1604 28.3645L46.1483 28.3653L46.1355 28.3665L46.1196 28.3683L46.1173 28.3687ZM46.1196 28.3683C45.6192 28.4292 45.1634 28.0724 45.1025 27.572C45.0417 27.0716 45.3985 26.6158 45.8989 26.5549L46.1196 28.3683ZM45.7356 28.9209L43.9109 29.0078V29.0082L43.9078 28.899L43.9105 28.7875L43.9173 28.682L43.929 28.5766L43.9456 28.4681L43.9668 28.3638L43.9917 28.2621L44.0212 28.1616L44.0549 28.0614L44.0934 27.962L44.1361 27.8653L44.183 27.7704L44.2325 27.6801L44.2858 27.5912L44.3451 27.5024L44.4082 27.4166L44.4744 27.3339L44.5447 27.2545L44.6188 27.1782L44.6959 27.1052L44.7779 27.0349L44.8652 26.9669L44.9536 26.9049L45.0462 26.8463L45.143 26.7919L45.2416 26.7427L45.3467 26.697L45.4522 26.6577L45.5591 26.6237L45.6721 26.5946L45.7859 26.5716L45.9012 26.5545L46.1173 28.3687L46.0988 28.3714L46.0811 28.3748L46.0656 28.3789L46.0471 28.3849L46.03 28.391L46.0157 28.3974L45.9979 28.4065L45.9828 28.4148L45.9658 28.4258L45.9492 28.4371L45.9344 28.4485L45.9189 28.4621L45.9023 28.4776L45.8864 28.4942L45.8713 28.5116L45.8566 28.5293L45.8426 28.5486L45.8301 28.5679L45.8161 28.5909L45.8029 28.6147L45.7916 28.6378L45.7814 28.6613L45.7723 28.6843L45.7636 28.7096L45.756 28.7361L45.7492 28.7637L45.7439 28.7894L45.7402 28.8132L45.7375 28.8415L45.7352 28.8699L45.7349 28.8937L45.7356 28.9205V28.9209ZM45.7356 28.9205C45.7598 29.4243 45.3709 29.8526 44.8671 29.8768C44.3633 29.9009 43.9351 29.512 43.9109 29.0082L45.7356 28.9205ZM45.7356 28.9205C45.7598 29.4243 45.3709 29.8526 44.8671 29.8768C44.3633 29.9009 43.9351 29.512 43.9109 29.0082L45.7356 28.9205Z" fill="#D74849"/>
</svg>
