<svg width="99" height="98" viewBox="0 0 99 98" fill="none" xmlns="http://www.w3.org/2000/svg">
<path d="M69.8522 69.0125L68.5604 67.7207L69.5007 66.732L70.3795 65.7077L71.1981 64.651L71.9555 63.564L72.6525 62.449L73.2889 61.3076L73.8646 60.1435L74.3794 58.9579L74.834 57.7529L75.2282 56.5318L75.5612 55.2963L75.8341 54.0486L76.0465 52.7919L76.1977 51.5281L76.2887 50.2593L76.319 48.9882L76.2887 47.7168L76.1977 46.448L76.0465 45.1841L75.8341 43.9274L75.5612 42.6798L75.2282 41.4443L74.834 40.2231L74.3794 39.0182L73.8646 37.8326L73.2889 36.6677L72.6525 35.5267L71.9555 34.4117L71.1981 33.3244L70.3795 32.2676L69.5007 31.2434L68.5604 30.2546L69.8522 28.9628L70.8561 30.0188L71.7953 31.1126L72.6699 32.2426L73.4802 33.4049L74.2255 34.5977L74.9058 35.8181L75.5215 37.0638L76.0726 38.3319L76.5582 39.6199L76.9797 40.9257L77.3361 42.2467L77.6279 43.5797L77.8546 44.9233L78.0164 46.2741L78.1135 47.6299L78.146 48.9882L78.1135 50.3462L78.0164 51.7019L77.8546 53.0527L77.6279 54.3964L77.3361 55.7294L76.9797 57.0503L76.5582 58.3562L76.0726 59.6442L75.5215 60.9122L74.9058 62.158L74.2255 63.378L73.4802 64.5709L72.6699 65.7334L71.7953 66.8628L70.8561 67.9565L69.8522 69.0125ZM69.8522 69.0125C69.4958 69.3689 68.9168 69.3689 68.5604 69.0125C68.204 68.6561 68.204 68.0771 68.5604 67.7207L69.8522 69.0125ZM29.8025 69.0125L31.0943 67.7207L32.083 68.6611L33.1073 69.5398L34.1637 70.3584L35.251 71.1159L36.3664 71.8128L37.5074 72.4493L38.6723 73.0249L39.8579 73.5404L41.0628 73.9947L42.284 74.3889L43.5195 74.7219L44.7668 74.9948L46.0238 75.2068L47.2877 75.3584L48.5565 75.4494L49.8275 75.4797L51.099 75.4494L52.3677 75.3584L53.6316 75.2068L54.8887 74.9948L56.1359 74.7219L57.3711 74.3889L58.5923 73.9947L59.7972 73.5404L60.9828 73.0249L62.1477 72.4493L63.2887 71.8128L64.4036 71.1159L65.491 70.3584L66.5474 69.5398L67.5717 68.6611L68.5604 67.7207L69.8522 69.0125L68.7962 70.0164L67.7024 70.9556L66.5727 71.8302L65.4105 72.6405L64.2177 73.3858L62.9973 74.0661L61.7523 74.6818L60.4835 75.2329L59.1955 75.719L57.8896 76.1403L56.5691 76.4967L55.2357 76.7886L53.8924 77.015L52.5416 77.1771L51.1859 77.2742L49.8275 77.3067L48.4695 77.2742L47.1138 77.1771L45.763 77.015L44.4198 76.7886L43.0864 76.4967L41.7654 76.1403L40.4596 75.719L39.1715 75.2329L37.9027 74.6818L36.6578 74.0661L35.4374 73.3858L34.2442 72.6405L33.082 71.8302L31.9523 70.9556L30.8585 70.0164L29.8025 69.0125ZM29.8025 69.0125C29.4461 68.6561 29.4461 68.0771 29.8025 67.7207C30.1589 67.3643 30.7379 67.3643 31.0943 67.7207L29.8025 69.0125ZM29.8025 28.9628L31.0943 30.2546L30.154 31.2434L29.2752 32.2676L28.4566 33.3244L27.6992 34.4117L27.0022 35.5267L26.3657 36.6677L25.7901 37.833L25.2746 39.0186L24.8203 40.2231L24.4261 41.4443L24.0931 42.6798L23.8202 43.9271L23.6082 45.1841L23.4566 46.448L23.3655 47.7168L23.3353 48.9882L23.3655 50.2593L23.4566 51.5281L23.6082 52.7919L23.8202 54.049L24.0931 55.2963L24.4261 56.5318L24.8203 57.7529L25.2746 58.9575L25.7901 60.1431L26.3657 61.3076L27.0022 62.449L27.6992 63.564L28.4566 64.651L29.2752 65.7077L30.154 66.732L31.0943 67.7207L29.8025 69.0125L28.7986 67.9565L27.8594 66.8628L26.9848 65.7334L26.1745 64.5709L25.4292 63.378L24.7488 62.158L24.1332 60.9127L23.5821 59.6446L23.0961 58.3562L22.6746 57.0503L22.3182 55.7294L22.0265 54.396L21.8001 53.0527L21.6379 51.7019L21.5408 50.3462L21.5083 48.9882L21.5408 47.6299L21.6379 46.2741L21.8001 44.9233L22.0265 43.5801L22.3182 42.2467L22.6746 40.9257L23.0961 39.6199L23.5821 38.3315L24.1332 37.0634L24.7488 35.8181L25.4292 34.5977L26.1745 33.4049L26.9848 32.2426L27.8594 31.1126L28.7986 30.0188L29.8025 28.9628ZM29.8025 28.9628C30.1589 28.6064 30.7379 28.6064 31.0943 28.9628C31.4507 29.3192 31.4507 29.8982 31.0943 30.2546L29.8025 28.9628ZM69.8522 28.9628L68.5604 30.2546L67.5713 29.3143L66.5474 28.4351L65.491 27.6165L64.4036 26.8591L63.2887 26.1621L62.1477 25.5257L60.9832 24.95L59.7972 24.4349L58.5923 23.9802L57.3711 23.5864L56.1359 23.2531L54.8887 22.9806L53.6316 22.7681L52.3677 22.6166L51.099 22.5255L49.8275 22.4953L48.5565 22.5255L47.2877 22.6166L46.0238 22.7681L44.7668 22.9806L43.5195 23.2531L42.284 23.5864L41.0628 23.9802L39.8579 24.4349L38.6719 24.95L37.5074 25.5257L36.3664 26.1621L35.251 26.8591L34.1637 27.6165L33.1073 28.4351L32.0834 29.3143L31.0943 30.2546L29.8025 28.9628L30.8581 27.9589L31.9523 27.0193L33.082 26.1448L34.2442 25.3344L35.4374 24.5891L36.6578 23.9088L37.9031 23.2931L39.1715 22.7424L40.4596 22.256L41.7654 21.835L43.0864 21.4782L44.4198 21.1868L45.763 20.96L47.1138 20.7979L48.4695 20.7007L49.8275 20.6682L51.1859 20.7007L52.5416 20.7979L53.8924 20.96L55.2357 21.1868L56.5691 21.4782L57.8896 21.835L59.1955 22.256L60.4835 22.7424L61.7519 23.2931L62.9973 23.9088L64.2177 24.5891L65.4105 25.3344L66.5727 26.1448L67.7024 27.0193L68.7966 27.9589L69.8522 28.9628ZM69.8522 28.9628C70.2086 29.3192 70.2086 29.8982 69.8522 30.2546C69.4958 30.611 68.9168 30.611 68.5604 30.2546L69.8522 28.9628Z" fill="#009856"/>
<path d="M75.0728 23.6476C74.5698 23.6132 74.1896 23.1771 74.224 22.674C74.2584 22.171 74.6945 21.7908 75.1976 21.8252L75.0728 23.6476ZM78.5206 22.589L77.9128 24.3117H77.9124L77.8047 24.2735L77.7 24.2376L77.5942 24.2017L77.4921 24.1673L77.3935 24.1348L77.2937 24.1027L77.1977 24.0721L77.1043 24.0434L77.0117 24.0154L76.9184 23.9882L76.8269 23.9617L76.7404 23.9375L76.6527 23.9141L76.565 23.8911L76.4785 23.8695L76.3946 23.8491L76.3118 23.8298L76.2279 23.8113L76.1444 23.7939L76.0619 23.7769L75.9811 23.7614L75.9013 23.7474L75.8193 23.7338L75.7361 23.7206L75.6545 23.7081L75.5748 23.6975L75.4928 23.6873L75.4085 23.6775L75.3257 23.6688L75.2426 23.6609L75.1583 23.6537L75.0728 23.6476L75.1976 21.8252L75.3011 21.8327L75.4043 21.8414L75.5071 21.8508L75.6095 21.8618L75.7089 21.8731L75.8106 21.8856L75.913 21.9L76.0136 21.9147L76.1118 21.9302L76.212 21.9468L76.3137 21.9654L76.4149 21.9846L76.5147 22.0047L76.6141 22.0258L76.7139 22.0482L76.8156 22.0712L76.9177 22.0961L77.0178 22.1215L77.1183 22.1476L77.2211 22.1748L77.3266 22.2043L77.4286 22.2337L77.5318 22.264L77.6373 22.2957L77.745 22.329L77.8523 22.3634L77.9589 22.3978L78.0696 22.4341L78.18 22.4714L78.2904 22.5089L78.4057 22.5485L78.5209 22.589H78.5206ZM78.5209 22.589C78.9964 22.7568 79.2458 23.2791 79.078 23.7546C78.9102 24.2301 78.3879 24.4795 77.9124 24.3117L78.5209 22.589ZM91.3339 24.6428L90.3104 23.1295L91.2632 24.6859L91.2296 24.704L91.1763 24.7312L91.0939 24.7713L90.9869 24.8201L90.8527 24.8786L90.6917 24.9436L90.5058 25.014L90.2938 25.0888L90.0568 25.1655L89.7937 25.2445L89.505 25.3224L89.192 25.3987L88.8534 25.4717L88.4898 25.5397L88.102 25.602L87.6897 25.6561L87.2531 25.7014L86.7924 25.7362L86.3075 25.7589L85.7984 25.7683L85.2666 25.7627L84.7106 25.7407L84.132 25.7007L83.5307 25.6421L82.9063 25.5627L82.2593 25.4611L81.5895 25.3364L80.8979 25.1863L80.1843 25.0106L79.4484 24.8072L78.6914 24.5744L77.9128 24.3117L78.5206 22.589L79.2522 22.8358L79.9609 23.0535L80.6469 23.2432L81.3106 23.4069L81.9508 23.5456L82.5684 23.6605L83.1633 23.7539L83.7355 23.8264L84.2847 23.8805L84.8104 23.9167L85.3127 23.9364L85.7923 23.9413L86.2485 23.9334L86.6813 23.913L87.0906 23.882L87.4765 23.8419L87.839 23.7939L88.1784 23.7399L88.4928 23.6809L88.7839 23.6178L89.0514 23.5528L89.2948 23.487L89.5133 23.4216L89.7094 23.3578L89.8799 23.298L90.0266 23.2421L90.1475 23.193L90.2446 23.151L90.3176 23.1174L90.3644 23.0947L90.389 23.0819L90.3811 23.0864L91.3339 24.6428ZM90.3811 23.0864C90.8225 22.843 91.3785 23.0036 91.6219 23.4451C91.8653 23.8865 91.7047 24.4425 91.2632 24.6859L90.3811 23.0864ZM86.3903 35.4345L84.5791 35.1934L84.6986 34.3804L84.8358 33.5999L84.9881 32.8523L85.1555 32.1365L85.3361 31.4524L85.5289 30.7989L85.7326 30.1764L85.945 29.5842L86.1661 29.0214L86.3933 28.4873L86.6265 27.9824L86.8631 27.5058L87.1027 27.0568L87.3427 26.6358L87.5831 26.2408L87.822 25.8723L88.0578 25.5291L88.2895 25.212L88.5155 24.9191L88.734 24.6511L88.9441 24.4066L89.1452 24.1851L89.3341 23.9867L89.5103 23.8106L89.6739 23.6552L89.8217 23.5214L89.9513 23.4088L90.0636 23.3158L90.1585 23.241L90.2303 23.1869L90.2764 23.1533L90.3104 23.1295L91.3339 24.6428L91.3437 24.6356L91.3195 24.6534L91.2765 24.6855L91.2156 24.7339L91.1336 24.8019L91.0334 24.8881L90.9174 24.9932L90.787 25.1175L90.6419 25.2626L90.4831 25.4286L90.3146 25.6145L90.1354 25.8235L89.9464 26.0545L89.7507 26.3081L89.5484 26.5851L89.3413 26.886L89.1304 27.2114L88.9172 27.5625L88.7022 27.9389L88.4875 28.3418L88.2744 28.7708L88.0639 29.2273L87.8571 29.7123L87.6556 30.2259L87.4606 30.7683L87.2736 31.3409L87.0959 31.9437L86.9281 32.5772L86.7728 33.2424L86.6303 33.9401L86.5021 34.6706L86.3903 35.4345ZM86.3903 35.4345C86.3238 35.9345 85.8642 36.286 85.3641 36.2195C84.8641 36.153 84.5126 35.6934 84.5791 35.1934L86.3903 35.4345ZM76.8904 45.2291L76.7899 43.4051H76.7884L76.8372 43.401L76.9222 43.3923L77.0401 43.3779L77.1913 43.3553L77.3734 43.3242L77.5825 43.2831L77.8157 43.2305L78.0715 43.1648L78.3478 43.0854L78.6404 42.9913L78.9476 42.8802L79.2674 42.7513L79.5958 42.6043L79.9318 42.4368L80.2724 42.2482L80.6159 42.0369L80.9587 41.8026L81.3 41.543L81.6367 41.2576L81.9675 40.9443L82.2895 40.6018L82.6013 40.2296L82.9003 39.8248L83.1848 39.386L83.4532 38.9105L83.7019 38.398L83.9302 37.8447L84.1346 37.2498L84.3123 36.6114L84.4616 35.9266L84.5791 35.1934L86.3903 35.4345L86.2568 36.2645L86.0856 37.0499L85.8793 37.791L85.6393 38.4887L85.3694 39.1441L85.0716 39.7579L84.7481 40.3309L84.403 40.8642L84.0375 41.3581L83.6562 41.8143L83.2616 42.2331L82.8568 42.6167L82.4452 42.9663L82.0283 43.2834L81.6107 43.5691L81.1946 43.825L80.783 44.053L80.3782 44.2551L79.9825 44.4324L79.6 44.5862L79.2322 44.7193L78.8815 44.8323L78.5523 44.9275L78.2443 45.0061L77.9612 45.07L77.706 45.1203L77.4823 45.1588L77.2896 45.1875L77.1308 45.2072L77.0125 45.2197L76.935 45.2261L76.8904 45.2291ZM76.8904 45.2291C76.387 45.2567 75.9557 44.8708 75.9281 44.3674C75.9006 43.864 76.2865 43.4327 76.7899 43.4051L76.8904 45.2291Z" fill="#009856"/>
<path d="M24.527 74.3281C25.029 74.3773 25.3956 74.8248 25.3464 75.3267C25.2973 75.8286 24.8498 76.1952 24.3479 76.1461L24.527 74.3281ZM21.1338 75.4121L21.7415 73.6894L21.7412 73.6891L21.8356 73.7223L21.9297 73.754L22.0231 73.7854L22.1164 73.8157L22.2083 73.8447L22.3005 73.8731L22.3935 73.9011L22.4842 73.9275L22.5745 73.9536L22.6637 73.9782L22.7529 74.002L22.8432 74.0258L22.9328 74.0485L23.0201 74.07L23.1074 74.0904L23.1951 74.1108L23.2828 74.1301L23.3682 74.1486L23.4548 74.166L23.5406 74.1834L23.6241 74.1993L23.7091 74.2148L23.7919 74.2291L23.8754 74.2427L23.9605 74.2563L24.0413 74.2688L24.1238 74.2802L24.205 74.2915L24.2863 74.3013L24.3671 74.3112L24.4469 74.3198L24.527 74.3281L24.3479 76.1461L24.2541 76.1363L24.1593 76.1261L24.0648 76.1147L23.9692 76.1026L23.8736 76.0898L23.7776 76.0762L23.6793 76.0614L23.5844 76.0463L23.4873 76.0304L23.3886 76.0131L23.2908 75.9953L23.1906 75.9764L23.0919 75.9568L22.9933 75.9364L22.8928 75.9148L22.793 75.8925L22.6932 75.8698L22.5915 75.8456L22.4891 75.8203L22.3882 75.7946L22.2873 75.7685L22.1837 75.7409L22.0802 75.7118L21.9762 75.6828L21.8719 75.6517L21.7691 75.6207L21.664 75.5886L21.5586 75.555L21.4531 75.521L21.3469 75.4858L21.2407 75.4495L21.1341 75.4125L21.1338 75.4121ZM21.1341 75.4125C20.6583 75.2451 20.4085 74.7231 20.5759 74.2473C20.7434 73.7714 21.2653 73.5216 21.7412 73.6891L21.1341 75.4125ZM8.32003 73.3583L9.3443 74.8709L8.39108 73.3149L8.42474 73.2967L8.478 73.2695L8.56042 73.2295L8.66738 73.1807L8.80155 73.1221L8.96255 73.0571L9.1485 72.9868L9.36017 72.9123L9.5975 72.8349L9.86096 72.7562L10.1493 72.6784L10.4623 72.602L10.8009 72.5291L11.1645 72.4611L11.5523 72.3987L11.9646 72.3447L12.4012 72.2993L12.8619 72.2645L13.3468 72.2419L13.8559 72.2324L14.3877 72.2381L14.9436 72.26L15.5223 72.3001L16.1236 72.3587L16.748 72.438L17.3954 72.5397L18.0648 72.6648L18.7564 72.8144L19.47 72.9906L20.2059 73.1939L20.9629 73.4267L21.7415 73.6894L21.1338 75.4121L20.402 75.1653L19.6934 74.9476L19.0074 74.7579L18.3437 74.5938L17.7035 74.4555L17.0855 74.3402L16.491 74.2469L15.9188 74.1743L15.3696 74.1203L14.8439 74.084L14.3416 74.0643L13.8619 74.0594L13.4058 74.0674L12.973 74.0878L12.5637 74.1188L12.1778 74.1588L11.8154 74.2068L11.4759 74.2609L11.1615 74.3198L10.8705 74.3829L10.6029 74.4479L10.3591 74.5137L10.141 74.5787L9.94522 74.6426L9.77441 74.7027L9.62776 74.7586L9.50681 74.8078L9.40967 74.8497L9.33673 74.8834L9.28986 74.906L9.26528 74.9189L9.27321 74.9144L8.32003 73.3583ZM9.27321 74.9144C8.83176 75.1578 8.27583 74.9971 8.03243 74.5557C7.78903 74.1142 7.94963 73.5583 8.39108 73.3149L9.27321 74.9144ZM13.2644 62.5663L15.0756 62.8074L14.9558 63.6204L14.8189 64.4005L14.6662 65.1484L14.4984 65.8639L14.3181 66.548L14.125 67.2015L13.9213 67.824L13.7089 68.4162L13.4878 68.9794L13.2602 69.5127L13.0274 70.0176L12.7908 70.4942L12.5512 70.9436L12.3108 71.3646L12.0708 71.7592L11.832 72.1281L11.5961 72.4709L11.3648 72.7884L11.1388 73.0809L10.9203 73.3493L10.7098 73.5938L10.5095 73.8153L10.3201 74.0141L10.1433 74.1906L9.98077 74.3452L9.83335 74.479L9.70295 74.592L9.59071 74.6849L9.49585 74.7598L9.42402 74.8138L9.37792 74.8475L9.3443 74.8709L8.32003 73.3583L8.31058 73.3651L8.33479 73.3474L8.37786 73.3152L8.43873 73.2668L8.52074 73.1988L8.62014 73.113L8.73577 73.008L8.86732 72.8829L9.01245 72.7381L9.17005 72.5726L9.33935 72.3859L9.51888 72.1768L9.70712 71.9463L9.90289 71.6923L10.1055 71.4149L10.3126 71.1144L10.5235 70.7886L10.737 70.4379L10.9517 70.0614L11.1664 69.6589L11.3796 69.2292L11.5905 68.7726L11.7968 68.2877L11.9983 67.7745L12.1933 67.2321L12.3804 66.6595L12.5584 66.0567L12.7258 65.4232L12.8816 64.7576L13.0244 64.0603L13.1522 63.3301L13.2644 62.5663ZM13.2644 62.5663C13.3309 62.0662 13.7905 61.7147 14.2905 61.7812C14.7906 61.8478 15.1421 62.3074 15.0756 62.8074L13.2644 62.5663ZM22.7631 52.7705L22.8644 54.5945H22.8656L22.8168 54.5986L22.7333 54.6069L22.6138 54.6221L22.4615 54.6444L22.2812 54.6754L22.0722 54.7169L21.8379 54.7699L21.582 54.8349L21.3069 54.9142L21.014 55.0087L20.7067 55.1198L20.3877 55.2484L20.0585 55.3961L19.7225 55.5636L19.3816 55.7522L19.0384 55.9634L18.6952 56.1978L18.3543 56.4574L18.0175 56.7428L17.6868 57.0561L17.3652 57.3981L17.0534 57.7712L16.7544 58.176L16.4694 58.6152L16.2015 59.0898L15.9524 59.6031L15.7245 60.1557L15.52 60.7506L15.342 61.3893L15.1931 62.0742L15.0756 62.8074L13.2644 62.5663L13.3978 61.7363L13.5687 60.9509L13.7754 60.2101L14.0146 59.5117L14.2849 58.8563L14.5831 58.2425L14.9062 57.6695L15.2517 57.1366L15.6164 56.6426L15.9978 56.1864L16.3927 55.7673L16.7975 55.3837L17.2091 55.0341L17.6256 54.7169L18.0436 54.4312L18.4594 54.1753L18.8713 53.9467L19.2761 53.7452L19.6711 53.568L20.0536 53.4138L20.4213 53.2807L20.7717 53.1673L21.102 53.0721L21.41 52.9935L21.692 52.93L21.9471 52.8793L22.1728 52.8408L22.3644 52.8124L22.5216 52.7928L22.6414 52.7799L22.7189 52.7735L22.7631 52.7705ZM22.7631 52.7705C23.2666 52.7425 23.6978 53.1284 23.7258 53.6318C23.7537 54.1353 23.3678 54.5665 22.8644 54.5945L22.7631 52.7705Z" fill="#009856"/>
<path d="M59.4581 14.64C59.0035 14.8577 58.4577 14.6649 58.24 14.2102C58.0223 13.7556 58.215 13.2098 58.6697 12.9921L59.4581 14.64ZM62.06 11.9709L62.3669 13.7715L62.3665 13.7718L62.2527 13.7915L62.1408 13.8115L62.0312 13.8319L61.9231 13.8523L61.8196 13.8731L61.7156 13.8947L61.6132 13.9166L61.5134 13.9389L61.4156 13.9616L61.3188 13.9846L61.2224 14.0084L61.1291 14.0322L61.038 14.0564L60.9488 14.081L60.8588 14.1067L60.7696 14.1332L60.6831 14.1596L60.5958 14.1872L60.5115 14.2144L60.4272 14.2431L60.344 14.2719L60.2617 14.3017L60.1793 14.332L60.0991 14.3626L60.0179 14.3947L59.9366 14.4276L59.8569 14.4605L59.7779 14.4945L59.697 14.53L59.6173 14.5655L59.5383 14.6022L59.4581 14.64L58.6697 12.9921L58.7642 12.9475L58.8598 12.9033L58.9555 12.8602L59.05 12.8186L59.1471 12.7771L59.2442 12.7366L59.3406 12.6977L59.4377 12.6595L59.5375 12.6214L59.6358 12.585L59.7356 12.5492L59.8361 12.5144L59.937 12.4804L60.0394 12.4471L60.1411 12.415L60.245 12.3832L60.3486 12.353L60.4529 12.3228L60.561 12.2929L60.6695 12.2642L60.7779 12.2366L60.8864 12.2098L60.9975 12.1829L61.1098 12.1572L61.2239 12.1319L61.3377 12.1077L61.4537 12.0832L61.5739 12.0593L61.6926 12.0366L61.8136 12.014L61.936 11.9924L62.0603 11.9705L62.06 11.9709ZM62.0603 11.9705C62.5577 11.8862 63.0298 12.2207 63.1141 12.7181C63.1983 13.2155 62.8639 13.6876 62.3665 13.7718L62.0603 11.9705ZM74.2557 7.53524L72.6253 6.71132L74.2149 7.60744L74.1953 7.63841L74.1605 7.69056L74.1087 7.7639L74.0384 7.8599L73.9488 7.97631L73.8404 8.11085L73.7126 8.26243L73.5641 8.43059L73.3933 8.61392L73.2024 8.80969L72.9888 9.01834L72.7515 9.23755L72.4915 9.4662L72.2068 9.70242L71.8981 9.94506L71.5643 10.193L71.2045 10.4447L70.819 10.6995L70.4059 10.9549L69.966 11.2105L69.4984 11.4641L69.0022 11.715L68.4772 11.9614L67.9231 12.2026L67.3388 12.4365L66.7239 12.6626L66.078 12.8791L65.4007 13.0847L64.6916 13.2778L63.9497 13.4578L63.1749 13.6229L62.3669 13.7715L62.06 11.9709L62.8196 11.8307L63.5446 11.6761L64.2366 11.5083L64.8957 11.3288L65.5231 11.1383L66.1192 10.9391L66.6842 10.7312L67.2194 10.5169L67.7251 10.297L68.2025 10.0724L68.6511 9.84567L69.0725 9.61701L69.4671 9.38795L69.8356 9.15967L70.178 8.93367L70.4962 8.71066L70.7892 8.49297L71.0594 8.28056L71.3054 8.07608L71.5292 7.87994L71.731 7.69322L71.9113 7.51709L72.0719 7.35306L72.211 7.20302L72.3308 7.06734L72.4321 6.94754L72.5149 6.84471L72.5787 6.76159L72.6256 6.69733L72.6563 6.65348L72.6698 6.63307L72.6661 6.63912L74.2557 7.53524ZM72.6661 6.63912C72.9333 6.21166 73.4972 6.08161 73.9246 6.34883C74.3521 6.61604 74.4821 7.17998 74.2149 7.60744L72.6661 6.63912ZM75.1829 19.3708L73.4836 20.0406L73.1925 19.2722L72.9325 18.5234L72.7027 17.7955L72.5009 17.0884L72.3263 16.4028L72.177 15.7383L72.0519 15.095L71.9498 14.4737L71.8693 13.8743L71.8085 13.2975L71.7666 12.7434L71.7416 12.2116L71.7322 11.7029L71.7374 11.2176L71.7556 10.7558L71.7847 10.3177L71.824 9.9035L71.872 9.51344L71.9272 9.1476L71.988 8.80666L72.053 8.49109L72.1203 8.2008L72.1891 7.93512L72.2579 7.69399L72.3248 7.48007L72.3887 7.29223L72.4476 7.12895L72.5009 6.99327L72.5459 6.88401L72.5837 6.79898L72.6079 6.74682L72.6253 6.71132L74.2557 7.53524L74.2603 7.52617L74.2474 7.55337L74.227 7.5991L74.1964 7.67358L74.1575 7.7722L74.1129 7.89467L74.0626 8.04397L74.0085 8.21707L73.9519 8.41362L73.8952 8.6347L73.8377 8.88111L73.7825 9.15062L73.73 9.44391L73.6824 9.76063L73.6404 10.1008L73.6057 10.4644L73.5796 10.8518L73.5637 11.2622L73.5592 11.6954L73.5671 12.1519L73.5898 12.6308L73.628 13.1327L73.6828 13.6566L73.7565 14.2031L73.8502 14.7723L73.9647 15.3634L74.1027 15.9764L74.2644 16.6122L74.4519 17.2694L74.6666 17.9482L74.91 18.6486L75.1829 19.3708ZM75.1829 19.3708C75.3677 19.8399 75.1371 20.3705 74.6681 20.5553C74.199 20.7402 73.6684 20.5096 73.4836 20.0406L75.1829 19.3708ZM71.6445 32.5474L70.6693 31.0023L70.6701 31.0019L70.709 30.9763L70.7786 30.9275L70.8753 30.8564L70.9967 30.7635L71.1399 30.6486L71.302 30.5106L71.4808 30.3507L71.6732 30.1689L71.875 29.966L72.0848 29.7407L72.2995 29.4943L72.5156 29.2271L72.7314 28.938L72.9439 28.6284L73.1495 28.2981L73.3468 27.9466L73.5327 27.575L73.7047 27.182L73.8604 26.7689L73.9968 26.335L74.1117 25.8795L74.2028 25.4022L74.2678 24.9029L74.303 24.3813L74.3064 23.8356L74.2746 23.2668L74.2051 22.6726L74.0944 22.0535L73.9394 21.4091L73.7368 20.7383L73.4836 20.0406L75.1829 19.3708L75.4701 20.1607L75.7022 20.9299L75.8821 21.6778L76.0117 22.4043L76.0949 23.108L76.1326 23.7895L76.1285 24.4471L76.0858 25.0806L76.0072 25.6902L75.8957 26.2734L75.7551 26.8316L75.5876 27.3645L75.3972 27.8698L75.1874 28.3491L74.9614 28.8015L74.7225 29.2279L74.473 29.6277L74.2176 30.0007L73.9587 30.3474L73.6994 30.6682L73.4424 30.963L73.1918 31.2321L72.9492 31.4759L72.719 31.694L72.5032 31.8871L72.3047 32.0553L72.1267 32.1989L71.9721 32.3176L71.8444 32.4106L71.7461 32.4798L71.68 32.5243L71.6445 32.5474ZM71.6445 32.5474C71.2181 32.8165 70.6535 32.6888 70.3844 32.2624C70.1153 31.8361 70.243 31.2714 70.6693 31.0023L71.6445 32.5474Z" fill="#009856"/>
<path d="M40.2373 83.4053C40.6939 83.1914 41.2381 83.3879 41.4521 83.8445C41.666 84.3011 41.4694 84.8453 41.0129 85.0593L40.2373 83.4053ZM37.5943 86.0298L37.2874 84.2293L37.2878 84.2289L37.4008 84.2096L37.5112 84.1903L37.6196 84.1703L37.7273 84.1507L37.8339 84.1299L37.9405 84.1091L38.0433 84.0883L38.1446 84.0667L38.2459 84.0448L38.3464 84.0225L38.4439 84.0002L38.5403 83.9776L38.6375 83.9538L38.732 83.9299L38.8238 83.9061L38.9141 83.8816L39.006 83.8559L39.0963 83.8301L39.1836 83.8041L39.2724 83.7765L39.3582 83.7493L39.4413 83.7221L39.5249 83.6933L39.6088 83.6635L39.6916 83.6332L39.7705 83.6037L39.8495 83.5724L39.9304 83.5399L40.0083 83.5074L40.0858 83.4737L40.1625 83.4401L40.2373 83.4053L41.0129 85.0593L40.9161 85.1038L40.819 85.1473L40.7218 85.1893L40.6236 85.2301L40.5269 85.2694L40.4274 85.3083L40.3258 85.3469L40.2256 85.3831L40.1258 85.4183L40.0242 85.4531L39.9198 85.4879L39.8167 85.5203L39.7143 85.5517L39.6095 85.5831L39.5049 85.6133L39.4002 85.6428L39.2925 85.6719L39.184 85.7003L39.0759 85.7271L38.9689 85.7532L38.8589 85.7796L38.7478 85.8049L38.6375 85.8295L38.5256 85.8537L38.4114 85.8775L38.2965 85.9006L38.1831 85.9229L38.0675 85.9452L37.9507 85.9671L37.8324 85.9886L37.713 86.0094L37.5939 86.0302L37.5943 86.0298ZM37.5939 86.0302C37.0965 86.1145 36.6245 85.78 36.5402 85.2826C36.4559 84.7853 36.7904 84.3132 37.2878 84.2289L37.5939 86.0302ZM25.3974 90.4644L27.0279 91.2883L25.4382 90.3918L25.4598 90.3585L25.4926 90.3094L25.5448 90.2353L25.6158 90.1389L25.7043 90.0237L25.812 89.8895L25.9405 89.7372L26.0898 89.5686L26.2595 89.3864L26.4511 89.1895L26.6658 88.9809L26.9024 88.7624L27.1621 88.5345L27.447 88.2975L27.7558 88.0553L28.0896 87.8074L28.449 87.5556L28.8349 87.3009L29.248 87.0454L29.6879 86.7903L30.1554 86.5367L30.6517 86.2857L31.1767 86.0393L31.7315 85.7982L32.3154 85.5642L32.9304 85.3382L33.5763 85.1216L34.2536 84.916L34.9626 84.7229L35.7045 84.543L36.4793 84.3778L37.2874 84.2293L37.5943 86.0298L36.8346 86.1701L36.1097 86.3246L35.4177 86.4925L34.7585 86.672L34.1311 86.8625L33.5351 87.0616L32.9701 87.2695L32.4345 87.4838L31.9288 87.7038L31.4515 87.9283L31.0028 88.1551L30.5814 88.3837L30.186 88.6131L29.8183 88.8407L29.4755 89.0667L29.1576 89.2897L28.864 89.5074L28.5945 89.7194L28.3481 89.9239L28.124 90.1208L27.9214 90.3075L27.7415 90.4829L27.5816 90.6465L27.4421 90.7969L27.3223 90.9323L27.2218 91.0521L27.139 91.1545L27.074 91.2388L27.0271 91.3026L26.9969 91.3465L26.9814 91.3692L26.9871 91.3608L25.3974 90.4644ZM26.9871 91.3608C26.7195 91.7883 26.1556 91.9183 25.7281 91.6507C25.3006 91.3831 25.1706 90.8193 25.4382 90.3918L26.9871 91.3608ZM24.4718 78.6303L26.1711 77.9605H26.1714L26.4621 78.7293L26.7217 79.4776L26.9515 80.2056L27.1533 80.912L27.328 81.5983L27.4769 82.2628L27.602 82.9057L27.7037 83.527L27.7842 84.1261L27.845 84.7032L27.887 85.2573L27.9119 85.7887L27.9214 86.2974L27.9161 86.7827L27.8979 87.2446L27.8684 87.6826L27.8291 88.0965L27.7811 88.4865L27.726 88.8516L27.6655 89.1925L27.6005 89.5089L27.5328 89.7999L27.464 90.0656L27.3949 90.3056L27.3283 90.5195L27.2645 90.7074L27.2055 90.8703L27.1522 91.0067L27.1069 91.1163L27.0695 91.2006L27.0453 91.2528L27.0279 91.2883L25.3974 90.4644L25.3928 90.4734L25.4057 90.4462L25.4265 90.3997L25.4567 90.3264L25.4957 90.2278L25.5403 90.1049L25.5905 89.9556L25.645 89.7825L25.7013 89.5856L25.7587 89.3645L25.8158 89.1189L25.871 88.8501L25.9231 88.5568L25.9707 88.2393L26.0127 87.8992L26.0475 87.5352L26.0739 87.1478L26.0898 86.7381L26.0943 86.305L26.0864 85.8484L26.0637 85.3699L26.0255 84.868L25.9707 84.3438L25.8971 83.7969L25.8037 83.2284L25.6892 82.637L25.5516 82.0239L25.3898 81.389L25.2023 80.7317L24.9877 80.0529L24.7447 79.3522L24.4714 78.6303H24.4718ZM24.4714 78.6303C24.2866 78.1608 24.5171 77.6302 24.9865 77.4454C25.456 77.2606 25.9866 77.4911 26.1714 77.9605L24.4714 78.6303ZM28.0098 65.453L28.9849 66.998L28.9842 66.9984L28.9452 67.0241L28.8757 67.0728L28.7789 67.1439L28.6576 67.2369L28.5144 67.3518L28.3522 67.4897L28.1734 67.6496L27.9811 67.8314L27.7793 68.0344L27.5695 68.2596L27.3548 68.506L27.1386 68.7733L26.9228 69.062L26.7108 69.3719L26.5044 69.7026L26.3075 70.0538L26.1215 70.4257L25.9496 70.818L25.7942 71.2315L25.6574 71.6657L25.5425 72.1212L25.4515 72.5982L25.3868 73.0974L25.3513 73.6194L25.3483 74.1648L25.38 74.7343L25.4495 75.3281L25.5599 75.9472L25.7149 76.592L25.9178 77.2628L26.1711 77.9605L24.4718 78.6303L24.1845 77.8404L23.9521 77.0712L23.7722 76.3229L23.6422 75.5965L23.5598 74.8923L23.522 74.2116L23.5258 73.5536L23.5688 72.9198L23.6471 72.3109L23.7586 71.7266L23.8999 71.1684L24.067 70.6366L24.2571 70.1309L24.4669 69.6516L24.6929 69.1988L24.9321 68.7729L25.1808 68.3734L25.4367 68L25.6956 67.653L25.9549 67.3321L26.2119 67.0373L26.4625 66.7682L26.7051 66.5244L26.9353 66.3064L27.1511 66.1132L27.3495 65.945L27.5275 65.8014L27.6821 65.6828L27.8099 65.5898L27.9081 65.5206L27.9743 65.476L28.0098 65.453ZM28.0098 65.453C28.4361 65.1839 29.0008 65.3116 29.2699 65.7379C29.539 66.1643 29.4112 66.7289 28.9849 66.998L28.0098 65.453Z" fill="#009856"/>
<path d="M24.4998 23.6933C24.451 24.1952 24.0043 24.5626 23.5024 24.5138C23.0004 24.4651 22.6331 24.0184 22.6818 23.5164L24.4998 23.6933ZM23.4162 20.3072L25.1389 20.915L25.1056 21.0098L25.0739 21.1036L25.0425 21.1966L25.0127 21.2892L24.9832 21.3814L24.9552 21.4728L24.9273 21.5658L24.9004 21.6565L24.8747 21.7465L24.8494 21.8372L24.8252 21.926L24.8018 22.016L24.7791 22.104L24.7579 22.1917L24.7364 22.2798L24.7167 22.3656L24.6975 22.4529L24.6789 22.5379L24.6612 22.6245L24.6442 22.7106L24.6283 22.7934L24.6128 22.8781L24.5981 22.9631L24.5844 23.0444L24.5716 23.1275L24.5588 23.2099L24.5474 23.2919L24.5361 23.3736L24.5262 23.4526L24.5168 23.535L24.5077 23.6147L24.4998 23.6933L22.6818 23.5164L22.6913 23.4212L22.7019 23.3271L22.7128 23.2341L22.7249 23.137L22.7378 23.0418L22.7514 22.9453L22.7657 22.8493L22.7809 22.7526L22.7975 22.6539L22.8145 22.5576L22.8322 22.4593L22.8511 22.3591L22.8712 22.2616L22.8912 22.163L22.9128 22.0621L22.9351 21.9627L22.9585 21.861L22.9823 21.7608L23.0073 21.6596L23.0337 21.5571L23.0602 21.4559L23.0881 21.3527L23.1165 21.2506L23.146 21.147L23.1766 21.0435L23.2076 20.9407L23.2401 20.8356L23.2733 20.7306L23.3077 20.6251L23.3429 20.5193L23.3792 20.4135L23.4162 20.3072ZM23.4162 20.3072C23.584 19.8318 24.106 19.5819 24.5814 19.7498C25.0569 19.9176 25.3067 20.4395 25.1389 20.915L23.4162 20.3072ZM25.4696 7.4935L23.9571 8.51777L25.5131 7.56418L25.5312 7.59821L25.5584 7.65151L25.5985 7.73389L25.6472 7.84085L25.7058 7.97502L25.7708 8.13602L25.8411 8.32201L25.9156 8.53328L25.9931 8.7706L26.0717 9.03443L26.1495 9.32244L26.2259 9.63539L26.2988 9.97363L26.3672 10.3376L26.4292 10.7254L26.4837 11.137L26.529 11.5747L26.5634 12.0354L26.5861 12.5195L26.5959 13.0286L26.5899 13.5608L26.568 14.116L26.5282 14.695L26.4693 15.2967L26.3899 15.9211L26.2886 16.5682L26.1635 17.2379L26.0135 17.9299L25.8377 18.6435L25.6344 19.3794L25.4016 20.1364L25.1389 20.915L23.4162 20.3072L23.663 19.5755L23.8807 18.8669L24.0704 18.1809L24.2341 17.5172L24.3728 16.8766L24.4881 16.259L24.581 15.6641L24.6543 15.0919L24.7081 14.5431L24.7439 14.017L24.7636 13.5139L24.7689 13.0347L24.7606 12.5793L24.7402 12.1458L24.7096 11.7364L24.6695 11.3509L24.6211 10.9885L24.5674 10.649L24.5081 10.335L24.445 10.0436L24.38 9.77598L24.3142 9.53256L24.2492 9.31413L24.1853 9.1191L24.1252 8.94788L24.0693 8.80124L24.0202 8.68029L23.9782 8.58314L23.9446 8.51021L23.9219 8.46333L23.909 8.43879L23.9136 8.44709L25.4696 7.4935ZM23.9136 8.44709C23.6698 8.00564 23.8304 7.44968 24.2719 7.2059C24.7133 6.96212 25.2693 7.12273 25.5131 7.56418L23.9136 8.44709ZM36.262 12.4379L36.0209 14.249L35.2079 14.1292L34.4275 13.9924L33.6795 13.8397L32.964 13.6719L32.28 13.4916L31.6265 13.2985L31.004 13.0948L30.4113 12.8824L29.8486 12.6613L29.3149 12.4341L28.8099 12.2009L28.3334 11.9643L27.8844 11.7247L27.4629 11.4847L27.068 11.2443L26.6998 11.0055L26.3571 10.77L26.0392 10.5379L25.747 10.3123L25.4783 10.0938L25.2338 9.88294L25.0127 9.683L24.8139 9.49366L24.6374 9.31675L24.4828 9.15424L24.349 9.00682L24.236 8.87646L24.143 8.76418L24.0682 8.66932L24.0141 8.5975L23.9805 8.5514L23.9571 8.51777L25.4696 7.4935L25.4628 7.48405L25.4806 7.50826L25.5127 7.55134L25.5611 7.6122L25.6291 7.69421L25.7149 7.79361L25.82 7.90925L25.9451 8.04079L26.0898 8.18592L26.2554 8.34352L26.4425 8.51323L26.6507 8.69239L26.8816 8.88059L27.1353 9.07677L27.4123 9.27859L27.7135 9.48609L28.0393 9.69699L28.3897 9.91015L28.7665 10.1252L29.1686 10.3399L29.5984 10.553L30.0549 10.7636L30.5402 10.9703L31.0531 11.1717L31.5958 11.3668L32.1684 11.5539L32.7713 11.7319L33.4047 11.8993L34.0703 12.055L34.7676 12.1979L35.4982 12.3256L36.262 12.4379ZM36.262 12.4379C36.7621 12.5044 37.1136 12.964 37.0471 13.464C36.9805 13.9641 36.5209 14.3156 36.0209 14.249L36.262 12.4379ZM46.0567 21.9358L44.2327 22.0364V22.0379L44.2285 21.9891L44.2199 21.9041L44.2055 21.7862L44.1828 21.635L44.1518 21.4528L44.1106 21.2438L44.0581 21.011L43.9923 20.7551L43.913 20.4792L43.8185 20.1863L43.7073 19.8786L43.5792 19.56L43.4314 19.2312L43.264 18.8952L43.0754 18.5543L42.8641 18.2111L42.6294 17.8676L42.3705 17.527L42.0852 17.1903L41.7718 16.8596L41.4298 16.5379L41.0568 16.2265L40.652 15.9272L40.2132 15.6426L39.7381 15.3746L39.2252 15.1255L38.6726 14.8976L38.0777 14.6939L37.4386 14.5155L36.7542 14.3666L36.0209 14.249L36.262 12.4379L37.092 12.5713L37.877 12.7421L38.6182 12.9485L39.3159 13.1877L39.972 13.458L40.5855 13.7562L41.158 14.0793L41.6913 14.4244L42.1853 14.7895L42.6415 15.1705L43.0606 15.5654L43.4443 15.9702L43.7939 16.3818L44.111 16.7987L44.3964 17.2163L44.6522 17.6321L44.8809 18.0441L45.0823 18.4488L45.2596 18.8434L45.4142 19.227L45.5465 19.5944L45.6598 19.9441L45.7551 20.2744L45.8337 20.5816L45.8976 20.8651L45.9479 21.1202L45.9864 21.344L46.0151 21.5367L46.0348 21.6955L46.0472 21.8138L46.0537 21.8912L46.0567 21.9358ZM46.0567 21.9358C46.0843 22.4393 45.6984 22.8705 45.195 22.8981C44.6915 22.9257 44.2603 22.5398 44.2327 22.0364L46.0567 21.9358Z" fill="#009856"/>
<path d="M75.1557 74.3002C75.2048 73.7982 75.6523 73.4316 76.1542 73.4807C76.6561 73.5299 77.0227 73.9774 76.9736 74.4793L75.1557 74.3002ZM76.2381 77.693L74.5154 77.0853V77.0849L74.5483 76.9912L74.58 76.8971L74.6122 76.8018L74.6424 76.7092L74.6715 76.617L74.7002 76.5248L74.7274 76.4352L74.7539 76.343L74.7807 76.2508L74.8057 76.1612L74.8295 76.0727L74.8525 75.9843L74.8756 75.894L74.8971 75.807L74.9179 75.7182L74.9383 75.6324L74.9569 75.5463L74.9761 75.4574L74.9935 75.3728L75.0101 75.2889L75.0268 75.2012L75.0423 75.1188L75.0563 75.036L75.0706 74.9502L75.0838 74.8671L75.0963 74.7862L75.1076 74.7042L75.119 74.6222L75.1288 74.5413L75.1386 74.4604L75.1474 74.3803L75.1557 74.3002L76.9736 74.4793L76.9638 74.573L76.9536 74.6675L76.9422 74.7627L76.9302 74.858L76.9173 74.9536L76.9037 75.05L76.8889 75.1483L76.8735 75.245L76.8576 75.3399L76.8406 75.4393L76.822 75.5391L76.8039 75.6351L76.7842 75.7356L76.7631 75.8361L76.7423 75.9333L76.72 76.0346L76.6966 76.1363L76.6727 76.2364L76.6474 76.3384L76.6221 76.4386L76.5953 76.5422L76.5669 76.6457L76.5382 76.7489L76.5091 76.8509L76.4789 76.9538L76.4471 77.06L76.4146 77.1643L76.381 77.2701L76.3462 77.3755L76.3118 77.4799L76.2755 77.5861L76.2381 77.6934V77.693ZM76.2381 77.6934C76.0703 78.1689 75.548 78.4183 75.0725 78.2505C74.597 78.0827 74.3476 77.5604 74.5154 77.0849L76.2381 77.6934ZM74.1858 90.5068L75.6984 89.4825L74.1423 90.4361L74.1242 90.4021L74.097 90.3488L74.0569 90.2664L74.0082 90.1594L73.9496 90.0252L73.8846 89.8642L73.8143 89.679L73.7395 89.467L73.662 89.2289L73.5838 88.9662L73.5055 88.6782L73.4291 88.3649L73.3562 88.0266L73.2878 87.6634L73.2254 87.2749L73.1714 86.8629L73.126 86.426L73.0913 85.9653L73.0686 85.4807L73.0588 84.972L73.0644 84.4395L73.0867 83.8839L73.1264 83.3053L73.185 82.7036L73.2644 82.0792L73.366 81.4321L73.4908 80.7624L73.6408 80.0704L73.8165 79.3568L74.0199 78.6209L74.2527 77.8639L74.5154 77.0853L76.2381 77.693L75.9913 78.4248L75.7736 79.1334L75.5839 79.8194L75.4202 80.4831L75.2815 81.1237L75.1666 81.7413L75.0732 82.3362L75.0007 82.9084L74.9466 83.4572L74.9107 83.9837L74.8907 84.4864L74.8858 84.9652L74.8941 85.421L74.9145 85.8541L74.9455 86.2635L74.9856 86.6498L75.0336 87.0118L75.0876 87.3505L75.1469 87.6653L75.2101 87.9567L75.2751 88.2239L75.3412 88.4673L75.4066 88.6869L75.4697 88.8812L75.5302 89.0516L75.5861 89.199L75.6353 89.32L75.6772 89.4171L75.7108 89.4901L75.7335 89.5369L75.7464 89.5615L75.7419 89.5532L74.1858 90.5068ZM75.7419 89.5532C75.9856 89.9946 75.825 90.5506 75.3836 90.7944C74.9421 91.0381 74.3861 90.8775 74.1423 90.4361L75.7419 89.5532ZM63.3922 85.5627L63.6334 83.7516L64.4463 83.8714L65.2268 84.0082L65.9744 84.1609L66.6907 84.3284L67.3755 84.5094L68.0282 84.7022L68.6511 84.9055L69.2433 85.1183L69.8061 85.339L70.3402 85.5665L70.8451 85.7994L71.3217 86.0363L71.7707 86.2752L72.1921 86.5156L72.5871 86.756L72.9556 86.9948L73.2988 87.2306L73.6159 87.4624L73.908 87.6876L74.1771 87.9065L74.4217 88.1174L74.6428 88.3173L74.8416 88.5066L75.0181 88.6835L75.1727 88.846L75.3065 88.9934L75.4194 89.1238L75.5124 89.2361L75.5873 89.3309L75.6413 89.4028L75.675 89.4489L75.6984 89.4825L74.1858 90.5068L74.1926 90.5162L74.1749 90.492L74.1427 90.4489L74.0944 90.3881L74.0263 90.3061L73.9405 90.2067L73.8354 90.091L73.7104 89.9595L73.5656 89.8143L73.4001 89.6567L73.213 89.487L73.0047 89.3079L72.7742 89.12L72.5198 88.9235L72.2428 88.7213L71.9419 88.5142L71.6165 88.3033L71.2654 88.0901L70.8893 87.8755L70.4864 87.6608L70.0567 87.4472L69.6001 87.2371L69.1152 87.03L68.6016 86.8289L68.0592 86.6335L67.4862 86.4468L66.8834 86.2684L66.25 86.101L65.5844 85.9456L64.8867 85.8028L64.1561 85.675L63.3922 85.5627ZM63.3922 85.5627C62.8922 85.4962 62.5407 85.0367 62.6073 84.5366C62.6738 84.0366 63.1333 83.6851 63.6334 83.7516L63.3922 85.5627ZM53.5972 76.0644L55.4212 75.9639V75.9624L55.4254 76.0111L55.4341 76.0962L55.4484 76.2137L55.4711 76.3653L55.5021 76.5478L55.5433 76.7564L55.5958 76.9893L55.6612 77.2452L55.741 77.5207L55.8354 77.814L55.9462 78.1212L56.0747 78.4398L56.2225 78.769L56.3895 79.1051L56.5785 79.4456L56.7898 79.7891L57.0241 80.132L57.2834 80.4729L57.5691 80.81L57.8821 81.14L58.2245 81.462L58.5972 81.7742L59.0019 82.0727L59.4408 82.3577L59.9162 82.6257L60.4291 82.8747L60.9821 83.1027L61.5769 83.3071L62.2153 83.4851L62.9002 83.6341L63.6334 83.7516L63.3922 85.5627L62.5623 85.4294L61.7769 85.2585L61.0357 85.0518L60.338 84.8125L59.6823 84.5423L59.0689 84.2441L58.4959 83.9209L57.9626 83.5755L57.4686 83.2104L57.0128 82.8294L56.5933 82.4348L56.21 82.03L55.86 81.618L55.5433 81.2016L55.2576 80.7839L55.0017 80.3678L54.7734 79.9562L54.5716 79.5514L54.3943 79.1564L54.2401 78.7736L54.1075 78.4059L53.9941 78.0558L53.8992 77.7259L53.8202 77.4186L53.7563 77.1352L53.7061 76.8797L53.6675 76.6555L53.6388 76.4632L53.6191 76.3048L53.6067 76.1865L53.6002 76.109L53.5972 76.0644ZM53.5972 76.0644C53.5696 75.561 53.9555 75.1298 54.4589 75.1022C54.9624 75.0746 55.3936 75.4605 55.4212 75.9639L53.5972 76.0644Z" fill="#009856"/>
<path d="M15.469 39.373C15.6848 39.8288 15.4901 40.3734 15.0343 40.5892C14.5785 40.8051 14.0339 40.6104 13.818 40.1546L15.469 39.373ZM12.7983 36.7666L14.5989 36.4597L14.5993 36.4609L14.6186 36.572L14.6386 36.6831L14.6582 36.7905L14.6794 36.8978L14.6998 37.0021L14.721 37.1034L14.7433 37.2062L14.7656 37.3056L14.7886 37.4043L14.8117 37.5006L14.8359 37.5963L14.8601 37.6908L14.8842 37.7818L14.91 37.8737L14.936 37.9644L14.9625 38.0543L14.989 38.1413L15.0165 38.2282L15.0445 38.3144L15.0732 38.399L15.1023 38.4829L15.1322 38.5661L15.1632 38.6507L15.1942 38.7324L15.2255 38.8121L15.2588 38.8949L15.2917 38.9754L15.3253 39.0544L15.3605 39.1349L15.396 39.2146L15.4323 39.2944L15.469 39.373L13.818 40.1546L13.7738 40.0601L13.7307 39.966L13.6884 39.8711L13.6472 39.7763L13.606 39.6791L13.5664 39.5828L13.5278 39.4871L13.4888 39.3877L13.4518 39.2887L13.4155 39.1912L13.3796 39.0914L13.3445 38.9901L13.3105 38.8889L13.2772 38.7868L13.2443 38.6832L13.2126 38.5789L13.1816 38.4746L13.1517 38.3696L13.1223 38.2633L13.0928 38.1541L13.0648 38.0453L13.0376 37.936L13.0108 37.8245L12.9847 37.7123L12.9593 37.5985L12.9348 37.4851L12.9098 37.3672L12.8864 37.2493L12.8637 37.1314L12.841 37.0104L12.8195 36.8895L12.798 36.7655L12.7983 36.7666ZM12.798 36.7655C12.7141 36.2681 13.0489 35.7965 13.5463 35.7126C14.0437 35.6286 14.5154 35.9635 14.5993 36.4609L12.798 36.7655ZM8.36231 24.5712L7.53838 26.2017L8.4345 24.6121L8.4655 24.6317L8.51766 24.6665L8.59096 24.7183L8.68696 24.7886L8.80337 24.8782L8.93795 24.9866L9.0895 25.1144L9.25769 25.2629L9.44098 25.4337L9.63675 25.6246L9.8454 25.8381L10.0646 26.0755L10.2929 26.3355L10.5295 26.6201L10.7721 26.9289L11.0197 27.2623L11.2718 27.6221L11.5265 28.008L11.782 28.4203L12.0375 28.8606L12.2911 29.3289L12.5417 29.8244L12.7885 30.3494L13.0297 30.9038L13.264 31.4882L13.49 32.1031L13.7062 32.749L13.9122 33.4259L14.1053 34.1353L14.2848 34.8769L14.4504 35.6517L14.5989 36.4597L12.7983 36.7666L12.6581 36.007L12.5039 35.282L12.3357 34.5904L12.1562 33.9309L11.9661 33.3038L11.7665 32.7078L11.5587 32.1428L11.344 31.6076L11.124 31.1015L10.8999 30.6249L10.6727 30.1755L10.4441 29.7541L10.215 29.3599L9.98676 28.9914L9.76073 28.6486L9.53813 28.3311L9.32003 28.0378L9.10762 27.7676L8.90355 27.5215L8.707 27.2978L8.52028 27.096L8.34418 26.9157L8.18012 26.7551L8.03008 26.616L7.8944 26.4962L7.7746 26.3949L7.6718 26.3121L7.58865 26.2482L7.52439 26.2014L7.48054 26.1708L7.46013 26.1571L7.46618 26.1609L8.36231 24.5712ZM7.46618 26.1609C7.03872 25.8937 6.90871 25.3298 7.17593 24.9023C7.44314 24.4749 8.00704 24.3449 8.4345 24.6121L7.46618 26.1609ZM20.1968 23.6453L20.8665 25.3445V25.3449L20.0977 25.6356L19.3494 25.8952L18.6215 26.125L17.9147 26.3268L17.2287 26.5015L16.5639 26.6504L15.921 26.7755L15.3 26.8775L14.7006 26.9584L14.1234 27.0189L13.569 27.0608L13.0376 27.0854L12.5292 27.0948L12.0439 27.0895L11.5821 27.0714L11.1444 27.0423L10.7302 27.003L10.3401 26.955L9.97429 26.8998L9.63336 26.839L9.31815 26.774L9.02675 26.7063L8.76141 26.6375L8.52179 26.5691L8.30676 26.5022L8.11889 26.4383L7.95638 26.3794L7.81845 26.3253L7.71111 26.2807L7.62832 26.2444L7.57163 26.218L7.53838 26.2017L8.36231 24.5712L8.35551 24.5679L8.37744 24.5784L8.4262 24.5996L8.50179 24.6313L8.5989 24.6695L8.72214 24.7141L8.87066 24.7644L9.0434 24.8184L9.24068 24.8748L9.46213 24.9322L9.70743 24.9892L9.97732 25.0444L10.2706 25.097L10.5873 25.1446L10.9275 25.1866L11.2911 25.2213L11.6781 25.2474L12.0885 25.2633L12.5217 25.2678L12.9779 25.2599L13.4571 25.2376L13.9587 25.1994L14.4829 25.1442L15.0294 25.0709L15.5982 24.9772L16.1897 24.8626L16.8031 24.7251L17.4377 24.5633L18.0954 24.3759L18.7742 24.1611L19.4749 23.9181L20.1968 23.6449V23.6453ZM20.1968 23.6449C20.6662 23.4601 21.1968 23.6906 21.3816 24.16C21.5665 24.6295 21.3359 25.1601 20.8665 25.3449L20.1968 23.6449ZM33.3737 27.1837L31.8286 28.158L31.8283 28.1576L31.8026 28.1187L31.7538 28.0492L31.6828 27.9524L31.5898 27.8311L31.4749 27.6878L31.3366 27.5253L31.177 27.3465L30.9956 27.1545L30.7923 26.9524L30.5674 26.7426L30.321 26.5283L30.0534 26.3113L29.765 26.0959L29.4547 25.8835L29.1248 25.6775L28.7736 25.4806L28.4017 25.2946L28.0087 25.1227L27.5956 24.967L27.1617 24.8305L26.7062 24.7156L26.2289 24.6245L25.7296 24.5595L25.2077 24.5244L24.6627 24.5213L24.0927 24.5531L23.4989 24.6223L22.8802 24.7334L22.2351 24.8883L21.5642 25.0909L20.8665 25.3445L20.1968 23.6453L20.9867 23.3576L21.7566 23.1256L22.5038 22.9457L23.2306 22.8157L23.9347 22.7329L24.6158 22.6951L25.2734 22.6989L25.9072 22.7416L26.5169 22.8202L27.1001 22.9317L27.6583 23.0723L28.1912 23.2397L28.6965 23.4302L29.1758 23.64L29.6286 23.866L30.0545 24.1052L30.454 24.3543L30.8271 24.6098L31.1744 24.8691L31.4949 25.1284L31.7897 25.385L32.0592 25.6363L32.3026 25.8786L32.5211 26.1091L32.7138 26.3249L32.8816 26.523L33.0252 26.701L33.1439 26.8556L33.2369 26.9834L33.306 27.0816L33.3507 27.1478L33.3737 27.1837ZM33.3737 27.1837C33.6424 27.61 33.5147 28.1747 33.0884 28.4434C32.662 28.7121 32.0974 28.5843 31.8286 28.158L33.3737 27.1837Z" fill="#009856"/>
<path d="M84.1248 58.6649C83.9117 58.2083 84.109 57.664 84.5655 57.4509C85.0221 57.2377 85.5664 57.435 85.7795 57.8916L84.1248 58.6649ZM86.8574 61.2327L85.0561 61.5388L85.0565 61.5396L85.0376 61.433L85.0179 61.3272L84.9979 61.224L84.9768 61.1234L84.9548 61.0225L84.9322 60.9231L84.9091 60.8249L84.8853 60.7304L84.8607 60.6355L84.835 60.5403L84.809 60.4481L84.7825 60.357L84.7553 60.267L84.727 60.1771L84.6982 60.0871L84.6695 60.0002L84.64 59.9144L84.6094 59.8278L84.5777 59.7401L84.5463 59.6555L84.5149 59.5731L84.482 59.4892L84.4484 59.4053L84.414 59.3202L84.38 59.2382L84.3456 59.1573L84.3097 59.0742L84.2734 58.9914L84.2371 58.9098L84.2008 58.8297L84.163 58.7477L84.1248 58.6649L85.7795 57.8916L85.8207 57.9804L85.8623 58.07L85.9039 58.1622L85.9447 58.2537L85.9848 58.3455L86.0244 58.437L86.0649 58.5322L86.1042 58.6278L86.1424 58.7212L86.1806 58.8165L86.2187 58.9139L86.2569 59.0137L86.2935 59.1135L86.3291 59.2118L86.365 59.3127L86.4005 59.4166L86.4353 59.5209L86.4685 59.6245L86.5014 59.7296L86.5339 59.8377L86.5657 59.9461L86.5963 60.0565L86.6258 60.1661L86.6556 60.2784L86.684 60.394L86.7116 60.5089L86.738 60.6249L86.7637 60.7425L86.7887 60.8634L86.8125 60.9855L86.8351 61.1072L86.8571 61.2319L86.8574 61.2327ZM86.8571 61.2319C86.9417 61.7289 86.6076 62.2014 86.1106 62.286C85.6136 62.3707 85.1412 62.0366 85.0565 61.5396L86.8571 61.2319ZM91.2916 73.4296L92.1163 71.7991L91.2198 73.3888L91.1888 73.3691L91.1366 73.3343L91.0633 73.2826L90.9673 73.2123L90.8509 73.1227L90.7164 73.0142L90.5648 72.8865L90.3966 72.738L90.2137 72.5675L90.0168 72.3759L89.8085 72.1619L89.5897 71.9254L89.361 71.6646L89.1252 71.3807L88.8821 71.0719L88.6342 70.7378L88.3825 70.3784L88.1278 69.9925L87.8723 69.5798L87.6171 69.1398L87.3632 68.6719L87.1122 68.1757L86.8654 67.6503L86.625 67.0959L86.3907 66.5116L86.1647 65.8966L85.9481 65.2507L85.7429 64.573L85.5497 63.8644L85.3698 63.1221L85.205 62.3473L85.0561 61.5388L86.8574 61.2327L86.9973 61.992L87.1515 62.7177L87.3193 63.4093L87.4989 64.0689L87.6889 64.6959L87.8889 65.2919L88.096 65.8577L88.3107 66.3929L88.5307 66.899L88.7548 67.3759L88.9815 67.8246L89.2106 68.2464L89.4393 68.6409L89.6675 69.0091L89.8935 69.3519L90.1165 69.6697L90.3342 69.963L90.5463 70.2325L90.7511 70.4793L90.9473 70.7031L91.1344 70.9049L91.3101 71.0855L91.4738 71.2454L91.6242 71.3849L91.7599 71.5047L91.8797 71.606L91.9825 71.6887L92.0657 71.7526L92.1299 71.7995L92.1737 71.8301L92.1941 71.8437L92.1881 71.8399L91.2916 73.4296ZM92.1881 71.8399C92.6156 72.1071 92.7456 72.6711 92.4784 73.0985C92.2112 73.526 91.6473 73.656 91.2198 73.3888L92.1881 71.8399ZM79.4575 74.3552L78.7878 72.6559L79.5562 72.3649L80.3041 72.1049L81.0325 71.8751L81.7392 71.6733L82.4252 71.4986L83.09 71.3497L83.7325 71.2246L84.3539 71.1226L84.9529 71.0421L85.5301 70.9812L86.0846 70.9393L86.6159 70.9147L87.1243 70.9053L87.6096 70.9105L88.0718 70.9287L88.5099 70.9582L88.9237 70.9975L89.3138 71.0455L89.6796 71.1007L90.0205 71.1615L90.3358 71.2265L90.6271 71.2942L90.8921 71.363L91.1325 71.4314L91.3471 71.4982L91.5361 71.5621L91.6994 71.6219L91.834 71.6748L91.9432 71.7197L92.0282 71.7575L92.0804 71.7817L92.1163 71.7991L91.2916 73.4296L91.301 73.4341L91.2738 73.4213L91.2281 73.4009L91.1537 73.3703L91.0539 73.3309L90.9314 73.2864L90.7832 73.2361L90.6109 73.1821L90.4136 73.1257L90.1918 73.0683L89.9465 73.0112L89.6766 72.956L89.3833 72.9035L89.0666 72.8559L88.7264 72.8139L88.3625 72.7791L87.9751 72.7527L87.565 72.7368L87.1319 72.7323L86.6757 72.7402L86.1964 72.7625L85.6949 72.8007L85.1706 72.8555L84.6245 72.9292L84.0553 73.0229L83.4642 73.1374L82.8508 73.275L82.2162 73.4368L81.5586 73.6242L80.8801 73.8389L80.1798 74.0823L79.4575 74.3552ZM79.4575 74.3552C78.9885 74.54 78.4578 74.3095 78.273 73.8404C78.0882 73.3714 78.3187 72.8408 78.7878 72.6559L79.4575 74.3552ZM66.2806 70.8165L67.8256 69.8421L67.826 69.8424L67.8517 69.8814L67.9005 69.9509L67.9715 70.0477L68.0645 70.169L68.1794 70.3122L68.3177 70.4748L68.4772 70.6535L68.6586 70.8455L68.862 71.0477L69.0869 71.2575L69.3333 71.4722L69.6009 71.6887L69.8896 71.9045L70.1996 72.117L70.5295 72.3229L70.8806 72.5199L71.2525 72.7058L71.6452 72.8778L72.0583 73.0331L72.493 73.1696L72.9484 73.2848L73.4254 73.3759L73.9247 73.4409L74.4466 73.4761L74.9916 73.4791L75.5616 73.4474L76.1554 73.3782L76.774 73.2671L77.4192 73.1121L78.0901 72.9095L78.7878 72.6559L79.4575 74.3552L78.6676 74.6428L77.8977 74.8749L77.1505 75.0548L76.4237 75.1848L75.7196 75.2676L75.0385 75.3054L74.3809 75.3016L73.747 75.2589L73.1374 75.1803L72.5538 75.0688L71.9956 74.9278L71.4634 74.7604L70.9581 74.5703L70.4785 74.3605L70.0257 74.1345L69.5998 73.8953L69.2003 73.6462L68.8268 73.3907L68.4799 73.131L68.1594 72.8721L67.8646 72.6151L67.5951 72.3638L67.3517 72.1215L67.1333 71.891L66.9405 71.6751L66.7727 71.4771L66.629 71.2991L66.5104 71.1445L66.4174 71.0168L66.3482 70.9185L66.3036 70.8523L66.2806 70.8165ZM66.2806 70.8165C66.0118 70.3901 66.1396 69.8255 66.5659 69.5567C66.9922 69.288 67.5569 69.4157 67.8256 69.8421L66.2806 70.8165Z" fill="#009856"/>
<path d="M15.8382 57.9351C16.2699 58.1959 16.4082 58.7575 16.1474 59.1891C15.8866 59.6207 15.325 59.7591 14.8934 59.4983L15.8382 57.9351ZM11.5636 56.5329L12.9817 55.3816L12.9813 55.3813L13.0705 55.4901L13.1589 55.5955L13.2482 55.6995L13.3377 55.8023L13.4269 55.9025L13.5172 56.0015L13.6064 56.0982L13.6949 56.1916L13.7852 56.2846L13.8748 56.3757L13.9643 56.4645L14.0539 56.5514L14.1431 56.6364L14.2334 56.7203L14.323 56.8024L14.4122 56.8817L14.5018 56.9596L14.5918 57.0363L14.6817 57.1115L14.7698 57.1837L14.8597 57.2551L14.95 57.3258L15.0377 57.3927L15.1273 57.4588L15.2173 57.5246L15.3061 57.5877L15.3953 57.6497L15.4845 57.7098L15.5729 57.7688L15.6606 57.8251L15.7494 57.8803L15.8382 57.9351L14.8934 59.4983L14.7872 59.4337L14.6817 59.3671L14.5744 59.298L14.4678 59.2277L14.3627 59.1562L14.2569 59.0829L14.1507 59.0077L14.0456 58.9314L13.9402 58.8531L13.8328 58.7711L13.7289 58.6899L13.6238 58.6063L13.5176 58.5198L13.4133 58.4325L13.309 58.3436L13.2043 58.2522L13.0992 58.1585L12.9953 58.0636L12.8921 57.9676L12.7878 57.8689L12.6838 57.7677L12.5807 57.6652L12.4783 57.5613L12.3758 57.4555L12.2723 57.3462L12.1702 57.2359L12.0693 57.1247L11.9672 57.0103L11.8663 56.8946L11.7651 56.7763L11.6637 56.655L11.564 56.5333L11.5636 56.5329ZM11.564 56.5333C11.2461 56.1421 11.3054 55.5665 11.6966 55.2486C12.0878 54.9307 12.6634 54.9901 12.9813 55.3813L11.564 56.5333ZM1.71037 48.0871L1.79353 49.9119V48.0871L1.83169 48.0891L1.89407 48.094L1.9825 48.103L2.09965 48.117L2.24478 48.1378L2.41486 48.1662L2.60989 48.2028L2.82987 48.2497L3.07288 48.3079L3.33822 48.3785L3.62471 48.4625L3.93199 48.5611L4.25852 48.676L4.60396 48.8075L4.96755 48.9572L5.34702 49.1265L5.74276 49.3159L6.15397 49.5268L6.57954 49.7611L7.01795 50.0189L7.46887 50.3016L7.93109 50.6107L8.4039 50.9467L8.88619 51.3115L9.37676 51.7057L9.87566 52.1301L10.3814 52.5867L10.8931 53.0754L11.4101 53.5985L11.931 54.1567L12.4552 54.7505L12.9817 55.3816L11.5636 56.5329L11.0689 55.9402L10.5779 55.3843L10.0918 54.8639L9.61183 54.3778L9.13792 53.9246L8.67149 53.5036L8.21267 53.1132L7.76289 52.7522L7.32297 52.42L6.89323 52.1142L6.47483 51.8345L6.0693 51.5798L5.67548 51.3485L5.29601 51.1399L4.9309 50.9524L4.58056 50.785L4.24642 50.6361L3.9297 50.5053L3.63036 50.3911L3.34919 50.2929L3.08724 50.2086L2.84537 50.1375L2.62465 50.079L2.42545 50.0313L2.24858 49.9935L2.09438 49.9644L1.96434 49.9429L1.86004 49.9281L1.78068 49.9187L1.72624 49.9134L1.7017 49.9115L1.71037 49.9119V48.0871ZM1.71037 49.9119C1.20656 49.8892 0.816888 49.4617 0.839565 48.9579C0.862242 48.4541 1.28972 48.0645 1.79353 48.0871L1.71037 49.9119ZM11.5636 41.4681L12.9817 42.6193V42.6197L12.4552 43.2505L11.9306 43.8439L11.4098 44.4021L10.8931 44.9248L10.3814 45.4135L9.87566 45.8701L9.37676 46.2949L8.88579 46.6883L8.4039 47.0531L7.93109 47.3891L7.46887 47.6982L7.01795 47.9813L6.57917 48.2387L6.15397 48.4727L5.74276 48.6836L5.34702 48.8729L4.96719 49.0422L4.60359 49.1919L4.25852 49.323L3.93199 49.4379L3.62471 49.5366L3.33822 49.6205L3.07288 49.6912L2.82987 49.7494L2.61066 49.7963L2.41486 49.8333L2.24367 49.8616L2.09965 49.882L1.9825 49.896L1.89407 49.9051L1.83169 49.91L1.79353 49.9119L1.71037 48.0871L1.7017 48.0875L1.72624 48.0856L1.78068 48.0803L1.86004 48.0709L1.96549 48.0558L2.09438 48.035L2.24781 48.0055L2.42545 47.9677L2.62465 47.9201L2.84537 47.8615L3.08724 47.7905L3.34919 47.7062L3.63036 47.6079L3.9301 47.4934L4.24682 47.3634L4.58056 47.2144L4.9309 47.047L5.29601 46.8596L5.67585 46.6505L6.0693 46.4196L6.47483 46.1653L6.89323 45.8856L7.32297 45.5798L7.7633 45.2476L8.21267 44.8866L8.67149 44.4966L9.13792 44.0756L9.61183 43.6224L10.0922 43.1367L10.5783 42.6163L11.0689 42.0607L11.5636 41.4677V41.4681ZM11.5636 41.4677C11.8815 41.0761 12.4571 41.0168 12.8486 41.3347C13.2402 41.6525 13.2995 42.2281 12.9817 42.6197L11.5636 41.4677ZM24.7795 38.0771L23.9124 39.6849L23.9117 39.6845L23.8712 39.6641L23.7938 39.627L23.6842 39.5772L23.5443 39.5178L23.3727 39.4494L23.1728 39.3753L22.946 39.2978L22.6947 39.22L22.418 39.144L22.1183 39.0719L21.7982 39.0057L21.4592 38.9486L21.102 38.9025L20.7278 38.87L20.3385 38.8526L19.9356 38.8534L19.5207 38.8742L19.0943 38.9173L18.6582 38.9849L18.2129 39.0794L17.7594 39.203L17.299 39.3579L16.8322 39.5469L16.3602 39.7726L15.884 40.0375L15.4036 40.3448L14.9206 40.697L14.4357 41.098L13.9496 41.5497L13.4651 42.0558L12.9817 42.6193L11.5636 41.4681L12.1105 40.8297L12.6668 40.2496L13.23 39.7253L13.7988 39.2555L14.371 38.8375L14.9459 38.4697L15.5211 38.1496L16.0945 37.8756L16.6633 37.6451L17.2265 37.4553L17.7821 37.3038L18.3278 37.1881L18.8615 37.1054L19.3823 37.0524L19.888 37.0271L20.3763 37.0264L20.8465 37.0468L21.297 37.0861L21.7267 37.1413L22.1338 37.2097L22.5167 37.2886L22.8738 37.3752L23.2049 37.4663L23.5092 37.56L23.7836 37.6534L24.0266 37.7433L24.2382 37.8276L24.4181 37.9043L24.5625 37.9701L24.6695 38.0207L24.7417 38.057L24.7795 38.0771ZM24.7795 38.0771C25.2232 38.3163 25.3891 38.8708 25.1499 39.3145C24.9106 39.7582 24.3562 39.9241 23.9124 39.6849L24.7795 38.0771Z" fill="#009856"/>
<path d="M83.7881 40.1309C83.355 39.8728 83.2129 39.3119 83.471 38.8787C83.7292 38.4456 84.29 38.3035 84.7232 38.5617L83.7881 40.1309ZM88.0907 41.4677L86.6726 42.6197L86.6723 42.6193L86.5834 42.5109L86.4939 42.4047L86.4043 42.3007L86.3155 42.1998L86.2259 42.1012L86.1371 42.0048L86.0475 41.9107L85.9579 41.8185L85.8691 41.7293L85.7803 41.642L85.6903 41.5562L85.6008 41.4723L85.5123 41.3918L85.4216 41.3113L85.3317 41.233L85.2425 41.1571L85.1525 41.0822L85.0622 41.0089L84.9726 40.9379L84.8834 40.8691L84.7923 40.8003L84.7016 40.7326L84.6117 40.668L84.5206 40.6033L84.4306 40.541L84.3392 40.4794L84.247 40.4182L84.1562 40.3588L84.064 40.3002L83.9722 40.2424L83.8807 40.1869L83.7881 40.1309L84.7232 38.5617L84.8279 38.6244L84.9344 38.6898L85.0399 38.7559L85.145 38.8228L85.2516 38.892L85.3559 38.9615L85.4617 39.033L85.569 39.1074L85.6745 39.1819L85.7811 39.2594L85.8869 39.3376L85.9923 39.417L86.0997 39.5001L86.2059 39.5848L86.3113 39.6702L86.4172 39.7579L86.5238 39.8482L86.6288 39.94L86.7339 40.0334L86.8405 40.1305L86.9451 40.2288L87.0502 40.329L87.1557 40.4321L87.2611 40.538L87.3651 40.6453L87.4697 40.7553L87.5745 40.8683L87.6776 40.9828L87.7816 41.1004L87.8848 41.2202L87.9879 41.343L88.0911 41.4681L88.0907 41.4677ZM88.0911 41.4681C88.409 41.8597 88.3489 42.4353 87.9573 42.7531C87.5658 43.071 86.9901 43.0109 86.6723 42.6193L88.0911 41.4681ZM97.9439 49.9119L97.8608 48.0872V49.9119L97.8226 49.9101L97.7603 49.9052L97.6718 49.8961L97.5547 49.8821L97.4107 49.8617L97.2395 49.8333L97.0437 49.7963L96.8244 49.7494L96.5814 49.6912L96.3161 49.6205L96.0296 49.5366L95.7224 49.438L95.3958 49.3231L95.0507 49.1919L94.6871 49.0423L94.3073 48.8729L93.9116 48.6836L93.5004 48.4727L93.0752 48.2388L92.6364 47.9814L92.1855 47.6983L91.7232 47.3891L91.2504 47.0531L90.7685 46.6884L90.2776 46.2949L89.7787 45.8701L89.273 45.4136L88.7612 44.9248L88.2445 44.4021L87.7238 43.8439L87.1991 43.2505L86.6726 42.6197L88.0907 41.4677L88.5855 42.0607L89.076 42.6163L89.5621 43.1368L90.0425 43.6224L90.5164 44.0756L90.9828 44.4966L91.4416 44.8867L91.8911 45.2476L92.3313 45.5798L92.7611 45.8856L93.1795 46.1653L93.585 46.4197L93.9785 46.6506L94.3583 46.8596L94.7234 47.0471L95.0738 47.2145L95.4075 47.3634L95.7242 47.4934L96.024 47.6079L96.3052 47.7062L96.5671 47.7905L96.809 47.8615L97.0297 47.9201L97.2289 47.9678L97.4065 48.0056L97.56 48.035L97.6888 48.0558L97.7943 48.0709L97.8737 48.0804L97.9281 48.0857L97.9527 48.0876L97.9439 48.0872V49.9119ZM97.9439 48.0872C98.4478 48.1099 98.8374 48.5373 98.8148 49.0411C98.7921 49.5449 98.3646 49.9346 97.8608 49.9119L97.9439 48.0872ZM88.0907 56.5333L86.6726 55.3813V55.3817L87.1991 54.7505L87.7233 54.1567L88.2442 53.5985L88.7612 53.0754L89.273 52.5867L89.7787 52.1302L90.2776 51.7057L90.7682 51.3115L91.2504 50.9468L91.7232 50.6108L92.1855 50.3016L92.6364 50.0189L93.0748 49.7611L93.5004 49.5268L93.9116 49.3159L94.3073 49.1265L94.6868 48.9572L95.0504 48.8076L95.3958 48.676L95.7224 48.5611L96.0296 48.4625L96.3161 48.3786L96.5814 48.3079L96.8244 48.2497L97.0444 48.2029L97.2395 48.1662L97.4095 48.1379L97.5547 48.117L97.6718 48.103L97.7603 48.094L97.8226 48.0891L97.8608 48.0872L97.9439 49.9119L97.9527 49.9116L97.9281 49.9135L97.8737 49.9187L97.7943 49.9282L97.69 49.9429L97.56 49.9645L97.4058 49.9936L97.2289 50.0314L97.0297 50.079L96.809 50.1376L96.5671 50.2087L96.3052 50.2929L96.024 50.3912L95.7246 50.5053L95.4079 50.6361L95.0738 50.785L94.7234 50.9525L94.3583 51.1399L93.9789 51.3485L93.585 51.5798L93.1795 51.8346L92.7611 52.1143L92.3313 52.42L91.8914 52.7523L91.4416 53.1132L90.9828 53.5036L90.5164 53.9247L90.0425 54.3778L89.5625 54.8639L89.0764 55.3843L88.5855 55.9403L88.0907 56.5329V56.5333ZM88.0907 56.5329C87.7729 56.9245 87.1976 56.9842 86.8061 56.6663C86.4145 56.3485 86.3548 55.7732 86.6726 55.3817L88.0907 56.5329ZM74.8737 59.9224L75.7407 58.3146L75.7415 58.315L75.7819 58.3354L75.8583 58.3717L75.969 58.4219L76.1096 58.482L76.2801 58.55L76.4804 58.6241L76.7075 58.7016L76.9589 58.7795L77.2356 58.8554L77.5353 58.9276L77.8554 58.9938L78.1944 59.0508L78.5516 59.097L78.9258 59.1294L79.315 59.1468L79.7183 59.1461L80.1333 59.1253L80.5593 59.0822L80.9962 59.0146L81.4414 58.9205L81.8946 58.7969L82.3549 58.6419L82.8221 58.4529L83.2937 58.2273L83.7707 57.9627L84.2507 57.6554L84.7341 57.3032L85.2187 56.9026L85.7047 56.4505L86.1896 55.9452L86.6726 55.3813L88.0907 56.5333L87.5435 57.1713L86.9875 57.7514L86.4243 58.2753L85.8551 58.7454L85.2825 59.1627L84.7081 59.5305L84.1328 59.8502L83.5598 60.1242L82.9906 60.3548L82.4275 60.5445L81.8715 60.6961L81.3258 60.8113L80.7921 60.8941L80.2716 60.947L79.7659 60.9723L79.2772 60.9731L78.8071 60.9527L78.3565 60.9134L77.9268 60.8582L77.5198 60.7898L77.1369 60.7108L76.7797 60.6242L76.4487 60.5332L76.1444 60.4394L75.8704 60.3461L75.627 60.2561L75.4142 60.1715L75.235 60.0947L75.0918 60.0301L74.9837 59.9787L74.9115 59.9424L74.8737 59.9224ZM74.8737 59.9224C74.43 59.6832 74.2641 59.1287 74.5033 58.685C74.7426 58.2413 75.297 58.0754 75.7407 58.3146L74.8737 59.9224Z" fill="#009856"/>
<path d="M58.762 82.9886C59.0228 82.557 59.5848 82.4183 60.0164 82.6791C60.448 82.9398 60.5867 83.5019 60.326 83.9335L58.762 82.9886ZM57.3598 87.2636L56.2085 85.8456V85.8452L56.317 85.7567L56.4232 85.6675L56.5279 85.5783L56.6303 85.4892L56.7301 85.4003L56.8287 85.3111L56.9247 85.2219L57.0192 85.1323L57.1126 85.0424L57.2033 84.9528L57.2921 84.8632L57.3787 84.7744L57.4637 84.6849L57.548 84.5941L57.6293 84.5053L57.7083 84.4161L57.7876 84.325L57.864 84.2359L57.9377 84.1474L58.0114 84.0571L58.0836 83.9667L58.1527 83.8783L58.22 83.7895L58.2865 83.6999L58.3519 83.6099L58.4154 83.5211L58.4762 83.4323L58.5371 83.3431L58.5953 83.2547L58.6524 83.1663L58.7075 83.0774L58.762 82.9886L60.326 83.9335L60.261 84.0397L60.1944 84.1451L60.126 84.2517L60.0557 84.3583L59.9843 84.4641L59.9106 84.5703L59.835 84.6766L59.759 84.7816L59.6804 84.887L59.5995 84.9933L59.5168 85.0991L59.4332 85.2038L59.3482 85.3085L59.2601 85.4143L59.1702 85.5194L59.0802 85.6225L58.9869 85.7276L58.8912 85.8323L58.7949 85.9359L58.6962 86.0398L58.5953 86.1437L58.4929 86.2469L58.3878 86.3501L58.2824 86.4522L58.1743 86.5546L58.0631 86.6574L57.9509 86.7594L57.8367 86.8611L57.72 86.9624L57.6024 87.0629L57.4819 87.1635L57.3598 87.264V87.2636ZM57.3598 87.264C56.9682 87.5819 56.3926 87.5218 56.0747 87.1302C55.7569 86.7387 55.817 86.163 56.2085 85.8452L57.3598 87.264ZM48.9148 97.118L50.7396 97.0348H48.9148L48.9167 96.9967L48.9216 96.9343L48.9307 96.8459L48.9447 96.7291L48.9654 96.5832L48.9938 96.4131L49.0304 96.2181L49.0773 95.9981L49.1355 95.7551L49.2062 95.4898L49.2901 95.2033L49.3891 94.896L49.5037 94.5695L49.6352 94.224L49.7848 93.8604L49.9538 93.4806L50.1435 93.0849L50.3544 92.6732L50.5888 92.2477L50.8465 91.8096L51.1292 91.3588L51.438 90.8961L51.774 90.4237L52.1387 89.9411L52.5329 89.4505L52.9574 88.9512L53.414 88.4459L53.9026 87.9341L54.4257 87.4175L54.9836 86.8966L55.5774 86.372L56.2085 85.8456L57.3598 87.2636L56.7671 87.7584L56.2112 88.2489L55.6911 88.735L55.2051 89.2154L54.7519 89.6893L54.3309 90.1561L53.9404 90.6145L53.5795 91.0643L53.2473 91.5046L52.9415 91.934L52.6622 92.352L52.4075 92.7583L52.1762 93.1517L51.9675 93.5312L51.78 93.8967L51.6123 94.2471L51.4637 94.5808L51.3329 94.8975L51.2188 95.1976L51.1201 95.4788L51.0363 95.7407L50.9652 95.9826L50.9066 96.2033L50.859 96.4025L50.8212 96.5794L50.7921 96.7336L50.7705 96.8636L50.7558 96.968L50.7464 97.0477L50.7411 97.1021L50.7392 97.1267L50.7396 97.118H48.9148ZM50.7396 97.118C50.7169 97.6218 50.2894 98.0115 49.7856 97.9888C49.2818 97.9661 48.8921 97.5386 48.9148 97.0348L50.7396 97.118ZM42.2957 87.2636L43.447 85.8456L44.0777 86.372L44.6715 86.8966L45.2294 87.4175L45.7525 87.9341L46.2415 88.4459L46.6974 88.9516L47.1218 89.4505L47.516 89.9411L47.8807 90.4237L48.2167 90.8961L48.5255 91.3588L48.8082 91.8096L49.066 92.2477L49.3003 92.6732L49.5112 93.0852L49.7006 93.4809L49.8695 93.8604L50.0192 94.224L50.1507 94.5695L50.2652 94.896L50.3642 95.2033L50.4482 95.4898L50.5188 95.7551L50.577 95.9981L50.6239 96.2181L50.6605 96.4131L50.6889 96.5832L50.7097 96.7291L50.7237 96.8459L50.7327 96.9343L50.7377 96.9967L50.7396 97.0348L48.9148 97.118L48.9152 97.1267L48.9133 97.1021L48.908 97.0477L48.8986 96.968L48.8838 96.8636L48.8622 96.7336L48.8332 96.5794L48.7954 96.4025L48.7478 96.2033L48.6892 95.9826L48.6181 95.7407L48.5342 95.4788L48.4356 95.1976L48.3214 94.8975L48.1906 94.5808L48.0421 94.2467L47.8747 93.8963L47.6872 93.5312L47.4786 93.1517L47.2473 92.7583L46.9925 92.352L46.7132 91.934L46.4075 91.5046L46.0753 91.0643L45.7143 90.6145L45.3239 90.1557L44.9028 89.6893L44.4501 89.2154L43.964 88.735L43.4439 88.2489L42.888 87.7584L42.2957 87.2636ZM42.2957 87.2636C41.9042 86.9458 41.8444 86.3701 42.1623 85.9786C42.4802 85.587 43.0554 85.5277 43.447 85.8456L42.2957 87.2636ZM38.9047 74.0477L40.5125 74.9148L40.5121 74.9155L40.4917 74.956L40.4547 75.0334L40.4048 75.1431L40.3451 75.2829L40.2771 75.4545L40.203 75.6544L40.1255 75.8812L40.0476 76.1325L39.9717 76.4092L39.8995 76.7089L39.8333 77.029L39.7763 77.3681L39.7302 77.7252L39.6977 78.0994L39.6803 78.4887L39.681 78.8916L39.7018 79.3066L39.7449 79.7329L39.8126 80.1691L39.9071 80.6143L40.0306 81.0678L40.1856 81.5282L40.3746 81.995L40.6002 82.467L40.8652 82.9433L41.1724 83.4236L41.5247 83.9067L41.9257 84.3916L42.3774 84.8776L42.8834 85.3621L43.447 85.8456L42.2957 87.2636L41.6573 86.7167L41.0772 86.1604L40.553 85.5972L40.0832 85.0284L39.6652 84.4562L39.2974 83.8813L38.9773 83.3061L38.7033 82.7327L38.4727 82.1639L38.283 81.6007L38.1314 81.0452L38.0158 80.4994L37.933 79.9657L37.8801 79.4449L37.8548 78.9392L37.854 78.4509L37.8744 77.9807L37.9137 77.5302L37.9689 77.1005L38.0373 76.6934L38.1163 76.3105L38.2029 75.9534L38.294 75.6223L38.3877 75.3181L38.481 75.0437L38.571 74.8006L38.6556 74.589L38.732 74.4091L38.7978 74.2647L38.8484 74.1577L38.8847 74.0855L38.9047 74.0477ZM38.9047 74.0477C39.1439 73.604 39.6984 73.4381 40.1421 73.6774C40.5858 73.9166 40.7518 74.4711 40.5125 74.9148L38.9047 74.0477Z" fill="#009856"/>
<path d="M40.8924 15.0113C40.632 15.443 40.07 15.5817 39.6383 15.3213C39.2067 15.0609 39.068 14.4989 39.3284 14.0672L40.8924 15.0113ZM42.2957 10.7359L43.447 12.154H43.4473L43.3392 12.2428L43.2323 12.3324L43.1272 12.422L43.0248 12.5108L42.9246 12.6L42.8268 12.6892L42.7304 12.7788L42.6347 12.8691L42.5421 12.9583L42.4515 13.0479L42.3634 13.1367L42.2753 13.2274L42.1903 13.3166L42.1071 13.4058L42.0247 13.4961L41.945 13.5861L41.8667 13.6753L41.7908 13.7641L41.716 13.854L41.6426 13.944L41.5708 14.0336L41.5016 14.122L41.4344 14.2108L41.3679 14.3004L41.3032 14.3892L41.2394 14.4792L41.1774 14.5688L41.1173 14.6572L41.059 14.7457L41.002 14.8341L40.9468 14.9229L40.8924 15.0113L39.3284 14.0672L39.3934 13.9606L39.4599 13.8552L39.5283 13.7486L39.5987 13.642L39.6708 13.5354L39.7441 13.43L39.8186 13.3249L39.8953 13.2187L39.9739 13.1133L40.0549 13.0071L40.1376 12.9012L40.2215 12.7958L40.3069 12.6915L40.3939 12.5872L40.4842 12.4809L40.5753 12.3766L40.6687 12.2723L40.7631 12.1691L40.8599 12.0641L40.9593 11.9605L41.0587 11.8577L41.1619 11.7538L41.2669 11.6506L41.3731 11.5478L41.4808 11.4461L41.5908 11.3437L41.7039 11.2417L41.8184 11.1396L41.9352 11.0379L42.0531 10.937L42.1729 10.8368L42.2953 10.7359H42.2957ZM42.2953 10.7359C42.6869 10.4181 43.2625 10.4774 43.5804 10.869C43.8982 11.2605 43.8389 11.8362 43.4473 12.154L42.2953 10.7359ZM50.7396 0.882733L48.9148 0.965853H50.7396L50.7377 1.00405L50.7328 1.06639L50.7237 1.15483L50.7097 1.27165L50.6889 1.41751L50.6606 1.58759L50.6239 1.78262L50.577 2.0026L50.5188 2.24561L50.4482 2.51096L50.3643 2.79741L50.2652 3.10472L50.1507 3.43126L50.0192 3.77669L49.8695 4.13955L49.7006 4.51975L49.5112 4.91586L49.3003 5.32707L49.066 5.75264L48.8082 6.19068L48.5255 6.64157L48.2167 7.10419L47.8804 7.57663L47.516 8.05889L47.1218 8.54986L46.6974 9.04839L46.2415 9.55409L45.7525 10.0658L45.229 10.5829L44.6715 11.1033L44.0778 11.6276L43.447 12.154L42.2957 10.7359L42.888 10.2412L43.444 9.75023L43.9644 9.26457L44.4501 8.78457L44.9028 8.31061L45.3239 7.84422L45.7143 7.38577L46.0753 6.93562L46.4079 6.4957L46.7132 6.06633L46.9925 5.64833L47.2473 5.24203L47.4786 4.84858L47.6872 4.46911L47.8747 4.104L48.0421 3.75403L48.1907 3.41993L48.3214 3.10243L48.4356 2.80309L48.5342 2.52188L48.6181 2.25997L48.6892 2.0181L48.7478 1.79735L48.7954 1.59819L48.8332 1.42132L48.8623 1.26711L48.8838 1.13708L48.8986 1.03277L48.908 0.953008L48.9133 0.898604L48.9152 0.874022L48.9148 0.882733H50.7396ZM48.9148 0.882733C48.9375 0.378922 49.365 -0.0107492 49.8688 0.011928C50.3726 0.0346051 50.7623 0.462042 50.7396 0.965853L48.9148 0.882733ZM57.3598 10.7359L56.2085 12.154L55.5774 11.6276L54.9836 11.1033L54.4261 10.5829L53.9026 10.0658L53.414 9.55409L52.9574 9.04876L52.5329 8.54986L52.1387 8.05889L51.7744 7.57663L51.438 7.10419L51.1292 6.64157L50.8465 6.19068L50.5888 5.75264L50.3544 5.32707L50.1435 4.91623L49.9538 4.52012L49.7848 4.13955L49.6352 3.77669L49.5037 3.43126L49.3891 3.10472L49.2901 2.79741L49.2062 2.51096L49.1355 2.24561L49.0773 2.0026L49.0305 1.78262L48.9938 1.58759L48.9655 1.41751L48.9447 1.27165L48.9307 1.15483L48.9216 1.06639L48.9167 1.00405L48.9148 0.965853L50.7396 0.882733L50.7392 0.874022L50.7411 0.898604L50.7464 0.953008L50.7558 1.03277L50.7706 1.13708L50.7921 1.26711L50.8212 1.42132L50.859 1.59819L50.9066 1.79735L50.9652 2.0181L51.0363 2.25997L51.1202 2.52188L51.2188 2.80309L51.3329 3.10243L51.4637 3.41993L51.6123 3.75366L51.7801 4.10364L51.9675 4.46911L52.1762 4.84858L52.4075 5.24203L52.6622 5.64833L52.9415 6.06633L53.2469 6.4957L53.5795 6.93562L53.9404 7.38577L54.3309 7.84385L54.7519 8.31061L55.2051 8.78457L55.6908 9.26457L56.2112 9.75023L56.7672 10.2412L57.3598 10.7359ZM57.3598 10.7359C57.7513 11.0538 57.8111 11.629 57.4932 12.0206C57.1753 12.4122 56.6001 12.4719 56.2085 12.154L57.3598 10.7359ZM60.7496 23.9518L59.1418 23.0848L59.1422 23.084L59.1626 23.0436L59.1989 22.9672L59.2492 22.8565L59.3093 22.7159L59.3773 22.5451L59.4514 22.3451L59.5285 22.1191L59.6063 21.867L59.6827 21.59L59.7549 21.2907L59.821 20.9705L59.8781 20.6315L59.9242 20.2743L59.9567 19.9002L59.9741 19.5109L59.9733 19.108L59.9526 18.693L59.9094 18.2666L59.8418 17.8305L59.7473 17.3849L59.6241 16.9313L59.4691 16.4714L59.2802 16.0046L59.0545 15.5325L58.7896 15.056L58.4827 14.5756L58.1304 14.0929L57.7294 13.6076L57.2778 13.122L56.7721 12.6374L56.2085 12.154L57.3598 10.7359L57.9982 11.2829L58.5787 11.8392L59.1022 12.4027L59.5719 12.9712L59.99 13.5437L60.3573 14.1186L60.6775 14.6935L60.9515 15.2669L61.182 15.8357L61.3718 16.3992L61.5229 16.9548L61.6386 17.5002L61.7214 18.0339L61.7743 18.5546L61.7996 19.0603L61.8004 19.5487L61.7799 20.0188L61.7406 20.4694L61.6854 20.8991L61.6171 21.3061L61.5381 21.689L61.4515 22.0466L61.3601 22.3773L61.2671 22.6808L61.1733 22.9559L61.0834 23.1989L60.9987 23.4113L60.922 23.5905L60.8573 23.7337L60.806 23.8418L60.7697 23.914L60.7496 23.9518ZM60.7496 23.9518C60.5104 24.3955 59.9559 24.5615 59.5122 24.3222C59.0685 24.083 58.9026 23.5285 59.1418 23.0848L60.7496 23.9518Z" fill="#009856"/>
<path d="M35.019 41.8011C34.5148 41.7916 34.1141 41.3743 34.1236 40.8702C34.133 40.366 34.5503 39.9653 35.0545 39.9748L35.019 41.8011ZM63.2902 40.474L63.2554 42.3003L62.4376 42.2848L61.6072 42.2693L60.7651 42.2535L59.9124 42.2379L59.05 42.2224L58.1776 42.2069L57.2974 42.1915L56.4096 42.1756L55.5157 42.1601L54.6158 42.1446L53.7102 42.1291L52.8009 42.1132L51.8885 42.0977L50.9735 42.0822L50.0566 42.0667L49.1389 42.0509L48.2212 42.0354L47.3043 42.0199L46.3893 42.004L45.4766 41.9885L44.5668 41.973L43.6616 41.9571L42.7617 41.9416L41.8667 41.9261L40.9789 41.9103L40.0987 41.8948L39.2263 41.8793L38.3635 41.8634L37.5108 41.8479L36.6683 41.8324L35.8372 41.8166L35.019 41.8011L35.0545 39.9748L35.872 39.9903L36.7024 40.0061L37.544 40.0216L38.3967 40.0372L39.2596 40.053L40.1311 40.0685L41.0114 40.084L41.8992 40.0999L42.7935 40.1154L43.6933 40.1309L44.5986 40.1467L45.5075 40.1622L46.4203 40.1777L47.3353 40.1936L48.2522 40.2091L49.1699 40.2246L50.0876 40.2405L51.0045 40.256L51.9195 40.2715L52.8326 40.287L53.742 40.3028L54.6468 40.3183L55.5475 40.3338L56.4421 40.3493L57.3299 40.3652L58.2101 40.3807L59.0824 40.3962L59.9457 40.4117L60.7991 40.4272L61.6412 40.443L62.4715 40.4585L63.2902 40.474ZM63.2902 40.474C63.7944 40.4835 64.1954 40.9004 64.186 41.4046C64.1765 41.9088 63.7596 42.3098 63.2554 42.3003L63.2902 40.474Z" fill="#009856"/>
<path d="M49.3604 36.2517L49.3196 38.078H49.3192L49.1983 38.072L49.0773 38.0598L48.9571 38.0406L48.8407 38.0156L48.7262 37.985L48.6139 37.9483L48.5062 37.9068L48.4019 37.8611L48.2968 37.8085L48.1959 37.7507L48.1007 37.6902L48.0088 37.6256L47.9219 37.5579L47.835 37.4842L47.7537 37.4075L47.6762 37.3289L47.6021 37.2454L47.5334 37.1611L47.4665 37.0715L47.4037 36.9785L47.3463 36.8855L47.2934 36.791L47.2423 36.6898L47.1974 36.5892L47.1569 36.4883L47.1191 36.3814L47.0866 36.2732L47.059 36.164L47.036 36.0537L47.0178 35.9411L47.005 35.8277L46.9967 35.7135L48.8214 35.6258L48.8237 35.6583L48.8275 35.6909L48.8328 35.7218L48.8392 35.7543L48.8471 35.7849L48.8562 35.8152L48.866 35.8435L48.8792 35.8757L48.8925 35.9059L48.9057 35.9316L48.9224 35.9611L48.939 35.989L48.9556 36.0132L48.9726 36.0363L48.993 36.0609L49.0119 36.0824L49.0327 36.1036L49.0527 36.1228L49.0724 36.1391L49.0951 36.1569L49.1173 36.1723L49.1393 36.1867L49.1593 36.1977L49.179 36.2079L49.2024 36.2181L49.2255 36.2271L49.2462 36.2336L49.2685 36.24L49.2912 36.2445L49.3124 36.2479L49.3358 36.2502L49.3608 36.2517H49.3604ZM49.3608 36.2517C49.865 36.2631 50.2645 36.6815 50.2531 37.1856C50.2418 37.6898 49.8234 38.0893 49.3192 38.078L49.3608 36.2517ZM49.7962 36.1156L51.0071 37.4838L51.0094 37.4816L50.9629 37.5216L50.9161 37.5602L50.8688 37.5969L50.8204 37.6328L50.7702 37.6675L50.7203 37.7004L50.6681 37.7325L50.6186 37.7613L50.5665 37.7904L50.5154 37.8164L50.464 37.8418L50.4077 37.8675L50.3551 37.8898L50.3034 37.9102L50.2501 37.9302L50.1957 37.9491L50.1386 37.9672L50.0849 37.9827L50.0347 37.9964L49.9757 38.0111L49.9228 38.0228L49.8672 38.0338L49.8121 38.0436L49.7572 38.0519L49.7024 38.0591L49.6525 38.0648L49.5921 38.0704L49.5369 38.0742L49.4821 38.0769L49.4265 38.078L49.3763 38.0787L49.3196 38.078L49.3604 36.2517H49.3763H49.3978L49.4148 36.2514L49.4318 36.2502L49.4492 36.2494L49.4605 36.2483L49.4817 36.2457L49.4987 36.2438L49.515 36.2408L49.5308 36.2385L49.5456 36.2351L49.5622 36.2317L49.5735 36.229L49.5921 36.2238L49.6072 36.2196L49.6181 36.2158L49.6318 36.2113L49.645 36.2064L49.6597 36.2003L49.6729 36.1947L49.6817 36.1909L49.6945 36.1844L49.707 36.178L49.7176 36.1723L49.7293 36.1655L49.7383 36.1599L49.7482 36.1534L49.7569 36.1474L49.7667 36.1402L49.7761 36.133L49.7852 36.1255L49.7939 36.1179L49.7962 36.1156ZM49.7939 36.1179C50.1703 35.7823 50.7479 35.8156 51.0835 36.192C51.4191 36.5684 51.3858 37.146 51.0094 37.4816L49.7939 36.1179ZM49.7455 35.0468L50.8196 33.569L50.9376 33.6609L51.0476 33.7591L51.1488 33.8612L51.2445 33.97L51.3329 34.0853L51.4104 34.1998L51.483 34.3204L51.5472 34.4436L51.6043 34.568L51.6538 34.6942L51.6973 34.8231L51.7332 34.9542L51.763 35.0854L51.7853 35.2176L51.8016 35.3492L51.8114 35.4845L51.8144 35.6179L51.811 35.7494L51.8012 35.8847L51.7838 36.0196L51.7608 36.15L51.7305 36.282L51.6927 36.4142L51.6474 36.545L51.5949 36.6735L51.5351 36.799L51.4667 36.9233L51.3907 37.0439L51.3084 37.1592L51.2158 37.2733L51.1152 37.3814L51.0071 37.4838L49.7962 36.1156L49.8173 36.0956L49.837 36.0745L49.8555 36.0518L49.8752 36.0242L49.8929 35.9966L49.9084 35.9675L49.9243 35.9342L49.9383 35.9002L49.9504 35.8647L49.961 35.8277L49.97 35.7872L49.978 35.743L49.9832 35.7018L49.9863 35.6602L49.9874 35.6141L49.9866 35.5699L49.9836 35.5276L49.978 35.4822L49.9708 35.4399L49.9613 35.3979L49.9504 35.3582L49.9371 35.3201L49.9224 35.2815L49.9061 35.2464L49.8895 35.2139L49.8714 35.184L49.8506 35.1534L49.8325 35.1296L49.8124 35.1069L49.7897 35.0835L49.7682 35.0646L49.7455 35.0468ZM49.7455 35.0468C49.3377 34.7505 49.2474 34.1786 49.5437 33.7708C49.84 33.363 50.4118 33.2727 50.8196 33.569L49.7455 35.0468ZM49.2999 34.9516L49.0807 33.1382L49.0849 33.1374L49.14 33.1317L49.1907 33.1276L49.2459 33.1234L49.3056 33.1208L49.3611 33.1196H49.4114L49.4666 33.1204L49.5263 33.123L49.5766 33.1261L49.6321 33.1302L49.6911 33.1362L49.7467 33.1434L49.8015 33.1517L49.8555 33.1608L49.911 33.1718L49.9655 33.1835L50.023 33.1971L50.0781 33.2122L50.1325 33.2281L50.1885 33.2459L50.2429 33.2648L50.2962 33.2848L50.348 33.3052L50.4047 33.3294L50.4606 33.3555L50.512 33.3808L50.5645 33.4084L50.6148 33.4363L50.6666 33.4666L50.7207 33.501L50.7713 33.535L50.8196 33.569L49.7455 35.0468L49.7342 35.0385L49.7251 35.0325L49.7179 35.0283L49.7077 35.0222L49.6945 35.0147L49.6835 35.009L49.6707 35.0026L49.6616 34.9984L49.6525 34.9947L49.6378 34.9886L49.6246 34.9837L49.611 34.9792L49.5989 34.975L49.5853 34.9712L49.5709 34.9674L49.5588 34.9644L49.5437 34.961L49.529 34.9584L49.5119 34.9554L49.4964 34.9531L49.4802 34.9512L49.4681 34.9497L49.4519 34.9485L49.4303 34.947L49.4182 34.9466H49.4016H49.38L49.363 34.947L49.3509 34.9474L49.3336 34.9485L49.3124 34.9504L49.2958 34.9523L49.2999 34.9516ZM49.2958 34.9523C48.7946 35.0105 48.3411 34.6515 48.2829 34.1503C48.2247 33.6491 48.5837 33.1956 49.0849 33.1374L49.2958 34.9523ZM48.8214 35.6258L46.9967 35.7135V35.7131L46.9937 35.5986L46.9963 35.4833L47.0038 35.3696L47.0159 35.2592L47.033 35.1492L47.0553 35.037L47.0821 34.9285L47.1127 34.8231L47.1486 34.718L47.1883 34.6163L47.2325 34.5147L47.2824 34.4137L47.3342 34.3193L47.3916 34.224L47.454 34.1307L47.5179 34.0433L47.5878 33.9557L47.663 33.871L47.7408 33.7905L47.821 33.7153L47.9053 33.6423L47.9971 33.5709L48.0901 33.5055L48.1865 33.4447L48.2878 33.3872L48.3928 33.3347L48.5002 33.2882L48.6101 33.2466L48.7258 33.2099L48.8407 33.1805L48.9586 33.1559L49.0807 33.1382L49.2999 34.9516L49.2769 34.955L49.2534 34.9599L49.2293 34.9659L49.2096 34.9723L49.1873 34.9807L49.1661 34.9901L49.1457 35.0003L49.1253 35.0116L49.1038 35.0256L49.0834 35.0396L49.0648 35.0543L49.044 35.0721L49.0229 35.0921L49.0032 35.1122L48.9862 35.1319L48.9685 35.1538L48.9499 35.1791L48.9337 35.2029L48.9186 35.2286L48.9023 35.2581L48.8895 35.2841L48.877 35.3125L48.8653 35.3431L48.8551 35.3734L48.8456 35.4055L48.8377 35.4361L48.832 35.4652L48.8271 35.4981L48.8233 35.5313L48.821 35.5635L48.8207 35.5941L48.8214 35.6262V35.6258ZM48.8214 35.6262C48.8453 36.13 48.4563 36.5583 47.9525 36.5821C47.4487 36.6059 47.0205 36.217 46.9967 35.7131L48.8214 35.6262ZM48.8214 35.6262C48.8453 36.13 48.4563 36.5583 47.9525 36.5821C47.4487 36.6059 47.0205 36.217 46.9967 35.7131L48.8214 35.6262Z" fill="#009856"/>
<path d="M56.7531 41.2214C56.7701 40.7176 57.193 40.3226 57.6968 40.3396C58.2006 40.3566 58.5956 40.7796 58.5786 41.2834L56.7531 41.2214ZM57.7532 65.4069L55.9277 65.3442L55.9533 64.5902L55.9794 63.8366L56.0051 63.0829L56.0309 62.3293L56.0565 61.5749L56.0826 60.8209L56.1083 60.0673L56.1344 59.3132L56.1601 58.56L56.1858 57.8056L56.2119 57.0516L56.2376 56.2983L56.2633 55.5439L56.2894 54.7903L56.3151 54.0363L56.3412 53.2826L56.3668 52.529L56.3925 51.7753L56.4183 51.0209L56.4443 50.2669L56.47 49.5137L56.4957 48.7596L56.5214 48.0057L56.5475 47.2516L56.5732 46.4984L56.5989 45.7444L56.6246 44.9907L56.6503 44.2367L56.676 43.4831L56.7017 42.729L56.7274 41.9754L56.7531 41.2214L58.5786 41.2834L58.5529 42.0374L58.5272 42.791L58.5015 43.545L58.4758 44.2987L58.4501 45.0527L58.4244 45.8063L58.3987 46.5604L58.373 47.3144L58.3469 48.0684L58.3212 48.8217L58.2955 49.5757L58.2698 50.3297L58.2438 51.0837L58.218 51.8373L58.1923 52.591L58.1667 53.3453L58.1406 54.099L58.1149 54.853L58.0888 55.6066L58.0631 56.3603L58.0374 57.1143L58.0113 57.8683L57.9856 58.622L57.9599 59.376L57.9338 60.13L57.9081 60.8836L57.882 61.6376L57.8564 62.3913L57.8306 63.1449L57.8049 63.8993L57.7789 64.653L57.7532 65.4069ZM57.7532 65.4069C57.7362 65.9108 57.3129 66.3054 56.8091 66.2883C56.3052 66.2713 55.9106 65.8481 55.9277 65.3442L57.7532 65.4069Z" fill="#009856"/>
<path d="M43.7644 40.4755C44.0852 40.0866 44.6613 40.0314 45.0502 40.3523C45.4391 40.6732 45.4943 41.2492 45.1734 41.6381L43.7644 40.4755ZM40.0332 51.1663L38.2485 50.7762V50.7759L38.3321 50.413L38.4243 50.0525L38.5233 49.6949L38.6303 49.3389L38.7444 48.9862L38.8657 48.6363L38.9935 48.2878L39.128 47.9427L39.2686 47.6003L39.4156 47.2605L39.5683 46.9226L39.7275 46.5882L39.8911 46.2563L40.0604 45.9275L40.2343 45.601L40.4138 45.2763L40.5971 44.9561L40.785 44.6379L40.9777 44.3216L41.1739 44.0086L41.3738 43.6991L41.5771 43.3918L41.7846 43.0868L41.9948 42.7856L42.2072 42.487L42.423 42.191L42.6415 41.8978L42.8622 41.6071L43.0852 41.3199L43.3097 41.0357L43.5365 40.7541L43.7644 40.4755L45.1734 41.6381L44.9545 41.9053L44.7384 42.1741L44.5237 42.4462L44.3113 42.7198L44.1011 42.9961L43.894 43.2743L43.6895 43.5551L43.4877 43.8378L43.2889 44.1231L43.0943 44.4093L42.903 44.6984L42.7152 44.9898L42.5311 45.2823L42.3519 45.5767L42.177 45.8738L42.0058 46.1728L41.8398 46.4725L41.6788 46.7749L41.5224 47.0787L41.3716 47.3841L41.2261 47.6914L41.0862 47.9998L40.952 48.3101L40.8243 48.6215L40.7018 48.9349L40.5862 49.2493L40.4769 49.5661L40.3742 49.8832L40.2785 50.2021L40.1893 50.5226L40.1077 50.8439L40.0332 51.1667V51.1663ZM40.0332 51.1667C39.9255 51.6591 39.4379 51.9713 38.9455 51.8636C38.453 51.7559 38.1408 51.2684 38.2485 50.7759L40.0332 51.1667ZM40.6285 57.5881L39.1046 58.5957L39.1042 58.595L38.9628 58.3712L38.8306 58.1433L38.7081 57.9108L38.5959 57.6769L38.4923 57.4403L38.3978 57.1999L38.312 56.9577L38.2349 56.7146L38.1657 56.469L38.1041 56.2218L38.0508 55.9731L38.0051 55.7244L37.9658 55.4738L37.9341 55.2232L37.9084 54.9727L37.8891 54.7202L37.8762 54.4689L37.8691 54.2175L37.8672 53.9658L37.871 53.7141L37.88 53.4639L37.8932 53.2133L37.9121 52.9635L37.9344 52.7159L37.9613 52.4683L37.9919 52.2219L38.027 51.9766L38.0648 51.7336L38.1064 51.491L38.151 51.2517L38.1983 51.0125L38.2485 50.7762L40.0332 51.1663L39.9875 51.3806L39.9448 51.5956L39.9047 51.8122L39.8677 52.0284L39.8336 52.2457L39.8031 52.463L39.7762 52.68L39.7524 52.8973L39.7324 53.1146L39.7165 53.3305L39.7048 53.5455L39.6972 53.7602L39.6942 53.9733L39.6953 54.185L39.7018 54.3955L39.7123 54.6045L39.7278 54.8102L39.749 55.0154L39.7747 55.2183L39.8057 55.4175L39.8424 55.6156L39.8843 55.8098L39.9316 56.0018L39.9848 56.1908L40.0438 56.3771L40.1084 56.5597L40.1795 56.7388L40.2566 56.9157L40.3401 57.0899L40.4293 57.2589L40.5253 57.4248L40.6289 57.5888L40.6285 57.5881ZM40.6289 57.5888C40.9067 58.0095 40.7903 58.5765 40.3696 58.8542C39.9489 59.132 39.382 59.0156 39.1042 58.595L40.6289 57.5888ZM44.4186 60.126L43.9197 61.8835H43.9193L43.7459 61.8325L43.572 61.7784L43.3993 61.721L43.2269 61.6613L43.0546 61.5974L42.8845 61.5309L42.7152 61.4613L42.5455 61.388L42.3784 61.3117L42.2121 61.2323L42.0473 61.1495L41.8844 61.0641L41.7219 60.9742L41.5617 60.8816L41.4033 60.7852L41.2464 60.685L41.0923 60.5822L40.9396 60.4756L40.7899 60.3653L40.6417 60.2512L40.497 60.134L40.3545 60.0134L40.2135 59.8876L40.0771 59.7587L39.944 59.6275L39.8129 59.4911L39.6855 59.3512L39.5623 59.2084L39.4417 59.0606L39.3253 58.9094L39.2131 58.7544L39.1046 58.5957L40.6285 57.5881L40.7067 57.703L40.7888 57.8156L40.8734 57.926L40.9615 58.0337L41.053 58.1395L41.147 58.2431L41.2442 58.344L41.3455 58.4441L41.4487 58.5413L41.5533 58.6346L41.6626 58.7272L41.7741 58.8179L41.8882 58.9056L42.0046 58.991L42.1233 59.0742L42.245 59.1558L42.3679 59.2341L42.4937 59.31L42.6215 59.3845L42.7507 59.4555L42.8826 59.5251L43.0156 59.592L43.1502 59.6563L43.287 59.7182L43.4242 59.7779L43.5633 59.8346L43.7046 59.8898L43.8445 59.9416L43.9874 59.9915L44.1306 60.0391L44.2742 60.0833L44.419 60.126H44.4186ZM44.419 60.126C44.9043 60.264 45.1858 60.7693 45.0479 61.2546C44.9099 61.7399 44.4046 62.0215 43.9193 61.8835L44.419 60.126ZM51.5124 59.465L52.3265 61.1H52.3269L52.0831 61.2176L51.8367 61.3298L51.5876 61.4357L51.3374 61.5354L51.0838 61.6295L50.8287 61.7176L50.5709 61.8L50.3128 61.8756L50.0524 61.9463L49.7901 62.0102L49.527 62.0683L49.2632 62.1201L48.9975 62.1666L48.7307 62.2067L48.4639 62.2407L48.1963 62.2687L47.9267 62.291L47.6577 62.3065L47.3893 62.3163L47.1198 62.3205L46.8496 62.3178L46.5801 62.3091L46.3118 62.2947L46.043 62.2739L45.7739 62.2471L45.5064 62.2139L45.2395 62.1746L44.9727 62.1288L44.7077 62.0767L44.4443 62.0188L44.1809 61.9542L43.9197 61.8835L44.4186 60.126L44.6375 60.1854L44.8578 60.2394L45.0797 60.2882L45.303 60.332L45.5267 60.3702L45.752 60.4035L45.978 60.4314L46.2041 60.4545L46.4312 60.4715L46.6595 60.4844L46.8874 60.4915L47.1146 60.4934L47.3424 60.49L47.5715 60.4817L47.799 60.4685L48.0254 60.45L48.253 60.4257L48.4797 60.397L48.705 60.363L48.9298 60.3241L49.1536 60.2799L49.3766 60.2308L49.5973 60.1767L49.8177 60.1174L50.0365 60.0531L50.2527 59.9843L50.4677 59.9099L50.6805 59.8309L50.8922 59.7462L51.1012 59.6578L51.3075 59.5637L51.512 59.465H51.5124ZM51.512 59.465C51.9633 59.2401 52.5121 59.4238 52.737 59.8751C52.9619 60.3264 52.7782 60.8752 52.3269 61.1L51.512 59.465ZM56.3117 54.1997L58.0147 54.8597L57.9141 55.111L57.8072 55.3597L57.6946 55.6057L57.5763 55.8488L57.4527 56.0884L57.3234 56.3254L57.1881 56.5597L57.0483 56.7899L56.9031 57.017L56.7527 57.2408L56.5974 57.4607L56.4371 57.6777L56.2716 57.8905L56.1019 58.0998L55.9269 58.3047L55.7477 58.5061L55.5641 58.7031L55.3766 58.8954L55.1838 59.0844L54.9869 59.2689L54.7859 59.4487L54.5806 59.6237L54.3724 59.7934L54.1596 59.9598L53.9427 60.1204L53.7223 60.2761L53.4982 60.4269L53.271 60.572L53.0397 60.7126L52.805 60.8475L52.5676 60.9764L52.3265 61.1L51.5124 59.465L51.7142 59.3611L51.9138 59.2526L52.1107 59.1396L52.305 59.0217L52.4966 58.8992L52.6852 58.7726L52.8708 58.6411L53.0537 58.5054L53.2332 58.3655L53.4105 58.2208L53.584 58.073L53.7533 57.9211L53.92 57.7653L54.0825 57.6059L54.242 57.4422L54.3977 57.2755L54.5496 57.1051L54.6974 56.9312L54.8414 56.7543L54.9813 56.5741L55.1166 56.3911L55.2485 56.2044L55.3754 56.0154L55.4979 55.8238L55.6166 55.6284L55.73 55.4319L55.8388 55.2319L55.9435 55.0294L56.0429 54.8256L56.1374 54.6189L56.227 54.4103L56.3117 54.1997ZM56.3117 54.1997C56.4938 53.7296 57.0229 53.496 57.4931 53.6782C57.9633 53.8604 58.1969 54.3895 58.0147 54.8597L56.3117 54.1997Z" fill="#009856"/>
</svg>
