<svg width="97" height="97" viewBox="0 0 97 97" fill="none" xmlns="http://www.w3.org/2000/svg">
<path d="M64.3408 64.3045L63.049 63.0127L63.7917 62.2314L64.4863 61.4226L65.1326 60.5881L65.7306 59.7298L66.2809 58.8487L66.784 57.9477L67.2382 57.0285L67.6453 56.0916L68.0043 55.1403L68.3154 54.1761L68.5784 53.2003L68.7939 52.2149L68.9617 51.2228L69.0811 50.2242L69.153 49.2219L69.1772 48.2184L69.153 47.2146L69.0811 46.2123L68.9617 45.2141L68.7939 44.2216L68.5784 43.2363L68.3154 42.2608L68.0043 41.2963L67.6453 40.3453L67.2382 39.4084L66.784 38.4892L66.2809 37.5881L65.7306 36.7072L65.1326 35.8492L64.4863 35.0143L63.7917 34.2058L63.049 33.4246L64.3408 32.1328L65.147 32.9805L65.9015 33.8593L66.6044 34.7667L67.2552 35.7003L67.8539 36.6584L68.4008 37.6388L68.8952 38.6396L69.3378 39.6582L69.7286 40.693L70.0668 41.7422L70.3533 42.8032L70.5876 43.8739L70.7698 44.9533L70.8999 46.0384L70.9777 47.1269L71.0042 48.2184L70.9777 49.3096L70.8999 50.3981L70.7698 51.4836L70.5876 52.5626L70.3533 53.6334L70.0668 54.6947L69.7286 55.7435L69.3378 56.7787L68.8952 57.7973L68.4008 58.7981L67.8539 59.7785L67.2552 60.7366L66.6044 61.6705L65.9015 62.5776L65.147 63.4568L64.3408 64.3045ZM64.3408 64.3045C63.9844 64.6609 63.4054 64.6609 63.049 64.3045C62.6926 63.9481 62.6926 63.3691 63.049 63.0127L64.3408 64.3045ZM32.1706 64.3045L33.4625 63.0127L34.2433 63.7553L35.0525 64.4496L35.8871 65.0959L36.7453 65.6946L37.626 66.2445L38.527 66.7472L39.4466 67.2019L40.3828 67.6086L41.3341 67.9676L42.2987 68.2786L43.2741 68.5417L44.2594 68.7571L45.2516 68.925L46.2498 69.0444L47.2521 69.1166L48.2559 69.1404L49.2594 69.1166L50.2617 69.0444L51.2599 68.925L52.252 68.7571L53.2374 68.5417L54.2128 68.2786L55.1774 67.9676L56.1287 67.6086L57.0649 67.2019L57.9844 66.7472L58.8855 66.2445L59.7661 65.6946L60.6244 65.0959L61.459 64.4496L62.2682 63.7553L63.049 63.0127L64.3408 64.3045L63.4927 65.1107L62.614 65.8654L61.7069 66.5677L60.773 67.2185L59.8152 67.8176L58.8348 68.3641L57.8344 68.8588L56.8151 69.3018L55.7806 69.6918L54.7314 70.0301L53.6705 70.3166L52.5997 70.5509L51.5207 70.7331L50.4356 70.8631L49.3471 70.9413L48.2559 70.9674L47.1644 70.9413L46.0759 70.8631L44.9908 70.7331L43.9118 70.5509L42.841 70.3166L41.7801 70.0301L40.7309 69.6918L39.6964 69.3018L38.6771 68.8588L37.6766 68.3641L36.6963 67.8176L35.7385 67.2185L34.8046 66.5677L33.8975 65.8654L33.0188 65.1107L32.1706 64.3045ZM32.1706 64.3045C31.8142 63.9481 31.8142 63.3691 32.1706 63.0127C32.5271 62.6563 33.1061 62.6563 33.4625 63.0127L32.1706 64.3045ZM32.1706 32.1328L33.4625 33.4246L32.7198 34.2058L32.0255 35.0143L31.3792 35.8492L30.7806 36.7072L30.2306 37.5878L29.7279 38.4892L29.2733 39.4087L28.8662 40.3449L28.5075 41.2963L28.1965 42.2608L27.9334 43.2363L27.718 44.2216L27.5502 45.2141L27.4307 46.2123L27.3585 47.2146L27.3348 48.2184L27.3585 49.2219L27.4307 50.2242L27.5502 51.2228L27.718 52.2149L27.9334 53.2003L28.1965 54.1761L28.5075 55.1403L28.8666 56.092L29.2733 57.0281L29.7279 57.9477L30.2306 58.8491L30.7809 59.7298L31.3792 60.5881L32.0255 61.4226L32.7198 62.2314L33.4625 63.0127L32.1706 64.3045L31.3645 63.4568L30.6097 62.5776L29.9074 61.6705L29.2563 60.7366L28.6576 59.7781L28.111 58.7981L27.6163 57.7977L27.1733 56.7783L26.7833 55.7435L26.445 54.6947L26.1585 53.6334L25.9242 52.5626L25.7421 51.4836L25.6121 50.3981L25.5338 49.3096L25.5078 48.2184L25.5338 47.1269L25.6121 46.0384L25.7421 44.9533L25.9242 43.8739L26.1585 42.8032L26.445 41.7422L26.7833 40.693L27.1737 39.6586L27.6163 38.6392L28.111 37.6388L28.6576 36.6588L29.2566 35.7003L29.9074 34.7667L30.6097 33.8593L31.3645 32.9805L32.1706 32.1328ZM32.1706 32.1328C32.5271 31.7764 33.1061 31.7764 33.4625 32.1328C33.8189 32.4892 33.8189 33.0682 33.4625 33.4246L32.1706 32.1328ZM64.3408 32.1328L63.049 33.4246L62.2682 32.682L61.459 31.9872L60.6244 31.341L59.7661 30.743L58.8855 30.1924L57.9844 29.6897L57.0653 29.2354L56.1283 28.8284L55.1774 28.4693L54.2128 28.1582L53.2374 27.8952L52.252 27.6797L51.2599 27.5119L50.2617 27.3925L49.2594 27.3207L48.2559 27.2965L47.2521 27.3207L46.2498 27.3925L45.2516 27.5119L44.2594 27.6797L43.2741 27.8952L42.2987 28.1582L41.3341 28.4693L40.3831 28.8284L39.4462 29.2354L38.527 29.6897L37.626 30.1924L36.7453 30.743L35.8871 31.341L35.0525 31.9872L34.2433 32.682L33.4625 33.4246L32.1706 32.1328L33.0188 31.3266L33.8975 30.5722L34.8046 29.8692L35.7385 29.2184L36.6963 28.6201L37.6766 28.0728L38.6775 27.5785L39.696 27.1359L40.7309 26.7451L41.7801 26.4068L42.841 26.1203L43.9118 25.886L44.9908 25.7038L46.0759 25.5738L47.1644 25.4959L48.2559 25.4695L49.3471 25.4959L50.4356 25.5738L51.5207 25.7038L52.5997 25.886L53.6705 26.1203L54.7314 26.4068L55.7806 26.7451L56.8155 27.1359L57.834 27.5785L58.8348 28.0728L59.8152 28.6201L60.773 29.2184L61.7069 29.8692L62.614 30.5722L63.4927 31.3266L64.3408 32.1328ZM64.3408 32.1328C64.6973 32.4892 64.6973 33.0682 64.3408 33.4246C63.9844 33.781 63.4054 33.781 63.049 33.4246L64.3408 32.1328Z" fill="#674575"/>
<path d="M15.1223 56.6626C15.4368 57.0568 15.3718 57.6321 14.9776 57.9465C14.5834 58.261 14.0082 58.196 13.6937 57.8018L15.1223 56.6626ZM0.875785 46.9262L0.951376 48.7517L0.966509 46.9269L1.0122 46.9307L1.08211 46.9372L1.18944 46.9492L1.33383 46.9689L1.51151 46.9976L1.72013 47.0366L1.96048 47.0872L2.23184 47.151L2.53236 47.2301L2.86041 47.3257L3.2168 47.4391L3.59815 47.5728L4.00482 47.7267L4.4357 47.9036L4.88961 48.1043L5.36582 48.331L5.86284 48.585L6.37987 48.8673L6.91506 49.1803L7.46877 49.5246L8.03873 49.9018L8.62455 50.3138L9.22551 50.762L9.83969 51.2477L10.4667 51.7723L11.1047 52.3377L11.7537 52.9447L12.4124 53.5959L13.0795 54.2914L13.7545 55.0336L14.4356 55.8236L15.1223 56.6626L13.6937 57.8018L13.0364 56.9982L12.3863 56.2446L11.7438 55.5378L11.1107 54.8772L10.4875 54.2615L9.87483 53.6885L9.27387 53.1564L8.68619 52.6642L8.11203 52.2103L7.5527 51.7931L7.00844 51.4106L6.48159 51.0614L5.97172 50.7443L5.48039 50.4578L5.00868 50.1996L4.55706 49.9691L4.12692 49.7642L3.71914 49.5839L3.33359 49.426L2.97232 49.2888L2.63629 49.1716L2.32677 49.0726L2.0433 48.9906L1.78819 48.9229L1.56141 48.8696L1.3641 48.828L1.19704 48.7974L1.06247 48.7755L0.960455 48.7619L0.890106 48.7536L0.851203 48.7502L0.860652 48.7509L0.875785 46.9262ZM0.860652 48.7509C0.357219 48.7218 -0.0275545 48.2895 0.00154786 47.786C0.0306502 47.2826 0.463075 46.8978 0.966509 46.9269L0.860652 48.7509ZM13.5788 38.1089L14.987 39.273L14.2871 40.0992L13.5946 40.8759L12.9117 41.6054L12.2378 42.2887L11.5752 42.9271L10.924 43.5223L10.2849 44.0757L9.65942 44.5885L9.04827 45.0633L8.45145 45.5002L7.87094 45.9019L7.30703 46.2685L6.76085 46.6026L6.23327 46.9058L5.72569 47.179L5.23811 47.424L4.77173 47.642L4.32726 47.8352L3.90657 48.0045L3.51009 48.1515L3.13819 48.2781L2.79198 48.3854L2.47264 48.4754L2.18157 48.5491L1.91855 48.6085L1.68499 48.6549L1.48235 48.6905L1.31006 48.7158L1.17099 48.7328L1.0655 48.7438L0.995593 48.749L0.951376 48.7517L0.875785 46.9262L0.866336 46.9266L0.899998 46.9243L0.965327 46.9179L1.0621 46.9062L1.18988 46.8869L1.3486 46.8596L1.53683 46.8223L1.75379 46.7727L2.00019 46.7104L2.27266 46.634L2.572 46.541L2.89709 46.4303L3.24744 46.3007L3.622 46.1502L4.01958 45.9775L4.43984 45.7806L4.88208 45.5584L5.34508 45.3093L5.82881 45.0319L6.33115 44.7242L6.85275 44.3848L7.39171 44.0126L7.94764 43.6051L8.51951 43.1614L9.10718 42.6788L9.70932 42.1579L10.325 41.5951L10.9535 40.99L11.5941 40.34L12.2454 39.6446L12.9075 38.9011L13.5788 38.1089ZM13.5788 38.1089C13.9 37.7204 14.4764 37.6656 14.8649 37.9868C15.2534 38.3081 15.3083 38.8845 14.987 39.273L13.5788 38.1089Z" fill="#674575"/>
<path d="M81.2977 40.2885C80.9832 39.8943 81.0482 39.3191 81.4424 39.0046C81.8366 38.6901 82.4118 38.7551 82.7263 39.1493L81.2977 40.2885ZM95.5506 49.5869L95.6406 47.7621L95.6062 49.588L95.5582 49.5877L95.4868 49.5858L95.3775 49.5805L95.2306 49.5703L95.0487 49.5529L94.8363 49.5268L94.5914 49.4909L94.3151 49.4421L94.0097 49.3801L93.6753 49.3027L93.3139 49.2074L92.9261 49.094L92.5131 48.9599L92.0754 48.8034L91.6146 48.6227L91.1316 48.4164L90.6285 48.1835L90.1047 47.9209L89.5627 47.6279L89.0026 47.3025L88.4262 46.9435L87.8343 46.5485L87.2278 46.1165L86.6079 45.646L85.976 45.1346L85.3327 44.5813L84.6796 43.9841L84.017 43.3424L83.3465 42.653L82.6692 41.9156L81.9859 41.1279L81.2977 40.2885L82.7263 39.1493L83.3828 39.9502L84.0329 40.6993L84.6747 41.3989L85.3081 42.0497L85.9321 42.6545L86.5452 43.2146L87.1469 43.7324L87.7357 44.2082L88.311 44.6455L88.8715 45.045L89.4165 45.4082L89.9452 45.7378L90.4562 46.0345L90.9491 46.301L91.4222 46.5379L91.8754 46.7481L92.307 46.9325L92.7172 47.0928L93.1034 47.2311L93.4658 47.3486L93.8038 47.4477L94.1152 47.5293L94.3991 47.5955L94.656 47.6476L94.8832 47.6873L95.082 47.7164L95.2498 47.7372L95.3839 47.75L95.4864 47.7572L95.5578 47.7602L95.596 47.7614L95.585 47.761L95.5506 49.5869ZM95.585 47.761C96.0892 47.7553 96.5034 48.1597 96.5091 48.6639C96.5148 49.1681 96.1104 49.5823 95.6062 49.588L95.585 47.761ZM82.8136 57.8554L81.4054 56.6913L82.1073 55.8651L82.8019 55.091L83.4886 54.3672L84.1664 53.6922L84.8338 53.0644L85.4903 52.482L86.1355 51.9438L86.7678 51.4479L87.3865 50.9921L87.9905 50.5752L88.579 50.1958L89.1511 49.8511L89.7059 49.5408L90.2419 49.2622L90.759 49.0143L91.2556 48.7951L91.7307 48.6027L92.1838 48.4353L92.6128 48.292L93.018 48.17L93.3982 48.0679L93.7523 47.984L94.0789 47.9171L94.3771 47.8646L94.6469 47.8253L94.8851 47.7973L95.0941 47.778L95.2709 47.7666L95.413 47.7614L95.52 47.7599L95.5926 47.7606L95.6406 47.7621L95.5506 49.5869H95.5631H95.5299L95.4629 49.5877L95.3647 49.5914L95.237 49.599L95.0778 49.6137L94.8874 49.6364L94.6689 49.6681L94.4221 49.7116L94.1469 49.7679L93.8464 49.839L93.5191 49.9267L93.1669 50.0329L92.7901 50.1587L92.3906 50.3058L91.9684 50.4769L91.524 50.6735L91.059 50.8965L90.5738 51.1486L90.0688 51.4309L89.5458 51.7454L89.0049 52.0946L88.4478 52.479L87.8737 52.9015L87.2852 53.3634L86.6823 53.8668L86.0659 54.413L85.437 55.0044L84.7964 55.6425L84.1452 56.3292L83.4838 57.0662L82.8136 57.8554ZM82.8136 57.8554C82.4924 58.2439 81.916 58.2987 81.5275 57.9774C81.1389 57.6562 81.0841 57.0798 81.4054 56.6913L82.8136 57.8554Z" fill="#674575"/>
<path d="M57.769 82.3808C57.2689 82.3162 56.9156 81.8578 56.9802 81.3577C57.0449 80.8577 57.5033 80.5043 58.0034 80.5689L57.769 82.3808ZM72.3757 89.0256L73.9102 88.0339L72.3886 89.0449L72.3898 89.0468L72.3663 89.0139L72.321 88.9546L72.2495 88.865L72.155 88.7512L72.0356 88.6148L71.8901 88.4553L71.7181 88.2758L71.5193 88.0781L71.2922 87.8634L71.0367 87.6336L70.7517 87.3906L70.4364 87.1359L70.091 86.8709L69.7138 86.5984L69.3045 86.3187L68.8623 86.0349L68.3869 85.7476L67.8763 85.4592L67.3312 85.1709L66.7499 84.8852L66.132 84.6032L65.477 84.3265L64.7835 84.0578L64.0506 83.7978L63.2788 83.5487L62.4662 83.3121L61.6124 83.0903L60.7166 82.8843L59.7778 82.6961L58.7955 82.5275L57.769 82.3808L58.0034 80.5689L59.079 80.7231L60.1112 80.9L61.0999 81.0981L62.0463 81.3154L62.9508 81.5508L63.814 81.8018L64.6364 82.0675L65.4184 82.3449L66.1618 82.6333L66.866 82.9304L67.5315 83.2342L68.1605 83.5434L68.7523 83.856L69.3075 84.1701L69.8276 84.4838L70.3129 84.7956L70.7638 85.1032L71.1811 85.4052L71.5658 85.6996L71.9181 85.9846L72.2393 86.2586L72.5296 86.5194L72.79 86.7658L73.0205 86.9953L73.2227 87.2058L73.397 87.3963L73.5444 87.5652L73.6645 87.71L73.7579 87.8268L73.829 87.9193L73.8736 87.9809L73.8974 88.0146L72.3757 89.0256ZM73.8974 88.0146C74.1816 88.4311 74.0743 88.9999 73.6578 89.2841C73.2413 89.5684 72.6728 89.4614 72.3886 89.0449L73.8974 88.0146ZM72.6143 71.9629L74.3393 72.5639L74.0119 73.5466L73.7246 74.4956L73.4756 75.4118L73.2621 76.2947L73.0833 77.1451L72.9362 77.9622L72.8191 78.7468L72.7303 79.4993L72.6668 80.219L72.6282 80.9057L72.6116 81.5611L72.6143 82.1839L72.6358 82.7743L72.6736 83.3329L72.725 83.8605L72.7888 84.3556L72.8629 84.8186L72.9461 85.251L73.0353 85.652L73.1286 86.0213L73.225 86.3588L73.3222 86.6664L73.4178 86.9423L73.5103 87.1865L73.5988 87.4012L73.6793 87.5845L73.7511 87.736L73.8131 87.8585L73.8622 87.9507L73.8955 88.0097L73.9136 88.0391L73.9102 88.0339L72.3757 89.0256L72.3527 88.9886L72.3142 88.9243L72.259 88.8261L72.1902 88.6975L72.1093 88.5365L72.0171 88.3419L71.9169 88.1147L71.8111 87.8562L71.7004 87.5645L71.5881 87.2402L71.4751 86.8841L71.3643 86.4952L71.2574 86.0738L71.1568 85.6207L71.0639 85.1346L70.9807 84.6156L70.9101 84.0654L70.8526 83.4833L70.811 82.868L70.788 82.2202L70.7846 81.5414L70.8027 80.8301L70.845 80.0867L70.9131 79.3111L71.0087 78.5042L71.1334 77.6651L71.2902 76.7943L71.4804 75.8918L71.706 74.9567L71.9687 73.9907L72.2711 72.9925L72.6143 71.9629ZM72.6143 71.9629C72.7802 71.4867 73.301 71.235 73.7772 71.4009C74.2534 71.5668 74.5052 72.0877 74.3393 72.5639L72.6143 71.9629Z" fill="#674575"/>
<path d="M38.742 14.1305C39.2421 14.1948 39.5955 14.6533 39.5312 15.1533C39.467 15.6533 39.0085 16.0067 38.5085 15.9424L38.742 14.1305ZM24.1489 7.50993L22.5857 8.45558L24.1217 7.46759L24.1206 7.46571L24.1441 7.4986L24.1894 7.55795L24.2608 7.64753L24.3553 7.76128L24.4748 7.89773L24.6203 8.05722L24.7918 8.23638L24.9914 8.4344L25.2186 8.64947L25.4737 8.8789L25.7586 9.12191L26.0735 9.37666L26.4193 9.64123L26.7965 9.9141L27.2058 10.1934L27.648 10.4776L28.1235 10.7645L28.6337 11.0529L29.1795 11.3412L29.7604 11.627L30.3784 11.9085L31.0341 12.1852L31.7276 12.4543L32.4598 12.7143L33.2323 12.963L34.0445 13.1996L34.8987 13.4215L35.7945 13.6275L36.7333 13.8157L37.7151 13.9835L38.742 14.1305L38.5085 15.9424L37.4325 15.7886L36.3999 15.6117L35.4112 15.4137L34.4648 15.1964L33.56 14.9609L32.6971 14.7099L31.8747 14.4446L31.092 14.1672L30.3493 13.8784L29.6451 13.5821L28.9788 13.2779L28.3503 12.9687L27.7584 12.6561L27.2028 12.3421L26.6828 12.0288L26.1975 11.7166L25.7465 11.4093L25.3293 11.1069L24.9449 10.8129L24.5923 10.5279L24.271 10.2539L23.9804 9.99271L23.7207 9.74668L23.4902 9.51762L23.2876 9.30672L23.1133 9.11623L22.966 8.94729L22.8457 8.80253L22.7524 8.68575L22.6813 8.59315L22.6368 8.53154L22.6129 8.49792L24.1489 7.50993ZM22.6129 8.49792C22.3287 8.08142 22.4361 7.5126 22.8526 7.22838C23.2691 6.94416 23.8375 7.05109 24.1217 7.46759L22.6129 8.49792ZM23.7147 24.6187L21.9897 24.0178L22.3178 23.0343L22.6069 22.0838L22.8586 21.1661L23.0752 20.281L23.2581 19.4283L23.4104 18.6077L23.5329 17.8205L23.6278 17.065L23.6973 16.3412L23.743 15.6507L23.7672 14.9919L23.7713 14.3649L23.7578 13.77L23.7283 13.2065L23.6848 12.6758L23.6281 12.1765L23.562 11.7082L23.4871 11.2725L23.4055 10.8681L23.319 10.4939L23.2297 10.1522L23.1395 9.8419L23.0498 9.56261L22.9633 9.31465L22.8805 9.09773L22.8042 8.91175L22.7366 8.75795L22.6783 8.63434L22.6326 8.54214L22.5997 8.48013L22.5815 8.44839L22.5857 8.45558L24.1489 7.50993L24.172 7.54887L24.2067 7.61235L24.2586 7.70987L24.324 7.84064L24.4003 8.00355L24.4868 8.19969L24.5798 8.42798L24.6792 8.68878L24.7824 8.98284L24.887 9.309L24.991 9.66765L25.0931 10.0585L25.191 10.4818L25.2832 10.9376L25.3671 11.4263L25.4408 11.9467L25.5028 12.4997L25.5508 13.0847L25.5833 13.7019L25.5984 14.3505L25.5935 15.032L25.5678 15.7452L25.5183 16.4901L25.4434 17.2668L25.3418 18.0752L25.211 18.9154L25.0496 19.7873L24.8553 20.6907L24.6267 21.6257L24.3614 22.5918L24.0578 23.5899L23.7147 24.6187ZM23.7147 24.6187C23.5487 25.0949 23.0279 25.3467 22.5517 25.1807C22.0755 25.0148 21.8238 24.494 21.9897 24.0178L23.7147 24.6187Z" fill="#674575"/>
<path d="M39.2659 81.0375C39.7629 80.9528 40.2349 81.2873 40.3196 81.7843C40.4042 82.2813 40.0698 82.7534 39.5727 82.8381L39.2659 81.0375ZM24.1822 89.1332L25.8527 89.8717L24.2127 89.0705L24.2355 89.0297L24.2713 88.9681L24.33 88.8728L24.4101 88.7496L24.5121 88.6L24.6384 88.4257L24.7884 88.2288L24.9638 88.0107L25.166 87.7734L25.395 87.5182L25.6528 87.2476L25.9393 86.9626L26.2571 86.6656L26.6052 86.3587L26.9858 86.0423L27.3996 85.7196L27.8471 85.3915L28.3294 85.0596L28.8483 84.7267L29.4032 84.3937L29.9962 84.0626L30.6281 83.7349L31.2993 83.4129L32.0107 83.0977L32.7635 82.7915L33.5584 82.4956L34.3967 82.2121L35.2788 81.9427L36.2056 81.6887L37.1788 81.4521L38.1985 81.2344L39.2659 81.0375L39.5727 82.8381L38.5546 83.0259L37.5847 83.233L36.6629 83.4575L35.7868 83.6979L34.9553 83.9515L34.1692 84.2176L33.4258 84.4938L32.7243 84.7796L32.0636 85.0721L31.443 85.37L30.8617 85.6712L30.3186 85.9751L29.8114 86.2793L29.34 86.582L28.9039 86.8814L28.501 87.1769L28.131 87.4657L27.7927 87.7465L27.4847 88.0186L27.2069 88.2787L26.9575 88.5266L26.7352 88.7594L26.5402 88.9768L26.3705 89.1763L26.2253 89.3566L26.104 89.5157L26.0058 89.6522L25.9287 89.7648L25.8727 89.851L25.8368 89.9099L25.8176 89.9428L25.8221 89.9345L24.1822 89.1332ZM25.8221 89.9345C25.5836 90.3786 25.0295 90.5457 24.5854 90.3072C24.1414 90.0687 23.9742 89.5146 24.2127 89.0705L25.8221 89.9345ZM22.71 72.8068L24.4093 72.1363L24.7952 73.153L25.1406 74.1436L25.4483 75.1078L25.7197 76.0455L25.9566 76.956L26.1607 77.8389L26.3335 78.6938L26.4771 79.5204L26.5935 80.3182L26.6842 81.087L26.7511 81.8259L26.7957 82.5357L26.8199 83.2149L26.8259 83.8634L26.8154 84.481L26.7897 85.0665L26.7514 85.6205L26.7016 86.1433L26.6426 86.6327L26.5758 87.0889L26.5036 87.5118L26.4272 87.9018L26.349 88.2575L26.2704 88.5784L26.194 88.8645L26.1203 89.1162L26.0519 89.3324L25.991 89.5123L25.9388 89.6563L25.8976 89.7637L25.8697 89.8321L25.8527 89.8717L24.1822 89.1332L24.181 89.1359L24.1977 89.0947L24.2268 89.0198L24.266 88.9106L24.3156 88.7655L24.3719 88.5863L24.4343 88.3732L24.5008 88.1256L24.5696 87.8448L24.6387 87.5307L24.7067 87.1837L24.7714 86.8039L24.8315 86.3915L24.8851 85.9475L24.9305 85.4716L24.9656 84.9644L24.9891 84.4258L24.9989 83.8566L24.9936 83.2564L24.9709 82.6264L24.9294 81.9665L24.867 81.2767L24.7823 80.5571L24.6735 79.8091L24.5382 79.0317L24.3753 78.2259L24.1825 77.3921L23.9584 76.53L23.7007 75.6399L23.4081 74.7226L23.0785 73.7782L22.71 72.8068ZM22.71 72.8068C22.5252 72.3378 22.7554 71.8068 23.2244 71.6219C23.6935 71.4371 24.2245 71.6673 24.4093 72.1363L22.71 72.8068Z" fill="#674575"/>
<path d="M57.2433 15.4752C56.7463 15.5599 56.2742 15.2254 56.1895 14.7284C56.1048 14.2314 56.4393 13.7593 56.9363 13.6747L57.2433 15.4752ZM72.327 7.37797L70.6556 6.63945L72.2963 7.44068L72.2733 7.48151L72.2374 7.54311L72.1788 7.63837L72.0986 7.76157L71.997 7.9105L71.8715 8.08472L71.7211 8.2824L71.5453 8.50046L71.3435 8.7386L71.1141 8.99295L70.8567 9.26357L70.5699 9.54891L70.2527 9.84563L69.9042 10.1529L69.5241 10.4688L69.1105 10.792L68.6627 11.1204L68.1804 11.4519L67.6618 11.7856L67.1066 12.1183L66.5137 12.4493L65.8821 12.7774L65.2112 13.0994L64.4995 13.4146L63.7466 13.7208L62.9515 14.0167L62.1132 14.3002L61.231 14.5696L60.3035 14.824L59.3306 15.0606L58.3105 15.2783L57.2433 15.4752L56.9363 13.6747L57.9545 13.4868L58.9247 13.2797L59.8469 13.0552L60.723 12.8152L61.5538 12.5608L62.3407 12.2948L63.0845 12.0185L63.786 11.7327L64.4463 11.4402L65.0664 11.1424L65.6481 10.8407L66.192 10.5369L66.6989 10.233L67.1698 9.93026L67.606 9.63056L68.0085 9.33539L68.3781 9.04624L68.7167 8.76503L69.0244 8.4933L69.3022 8.23287L69.552 7.98532L69.7739 7.75176L69.9693 7.53443L70.1386 7.33564L70.2834 7.15534L70.4043 6.99622L70.5025 6.8598L70.58 6.74642L70.636 6.66023L70.6719 6.60125L70.6911 6.56837L70.6863 6.57671L72.327 7.37797ZM70.6863 6.57671C70.9248 6.13223 71.4788 5.96518 71.9233 6.20366C72.3677 6.44215 72.5348 6.99621 72.2963 7.44068L70.6863 6.57671ZM73.8002 23.7055L72.1009 24.376L71.715 23.3593L71.3696 22.3687L71.0616 21.4045L70.7906 20.4668L70.5536 19.5567L70.3495 18.6738L70.1764 17.8189L70.0328 16.9919L69.9163 16.1941L69.8256 15.4253L69.7587 14.6857L69.7141 13.9766L69.6896 13.2974L69.6835 12.6489L69.6941 12.0309L69.7198 11.4455L69.758 10.891L69.8079 10.3687L69.8669 9.87999L69.9334 9.42305L70.0056 8.99974L70.0819 8.60972L70.1598 8.2548L70.238 7.93317L70.3151 7.64668L70.3884 7.39573L70.4568 7.17877L70.518 6.9981L70.5699 6.85563L70.6103 6.74941L70.639 6.67913L70.6556 6.63945L72.327 7.37797L72.3277 7.37532L72.3118 7.41463L72.2828 7.49059L72.2423 7.60209L72.1931 7.7457L72.1368 7.92409L72.0749 8.13801L72.0083 8.3852L71.9399 8.666L71.8704 8.98084L71.8023 9.32783L71.7377 9.70729L71.678 10.1196L71.6244 10.5645L71.579 11.0399L71.5438 11.5475L71.5204 12.0861L71.5105 12.6557L71.5158 13.2551L71.5389 13.8852L71.5805 14.5458L71.6428 15.2356L71.7275 15.9552L71.8364 16.7032L71.9717 17.4803L72.135 18.286L72.3277 19.1206L72.5518 19.9823L72.8092 20.8724L73.1021 21.7897L73.4317 22.7342L73.8002 23.7055ZM73.8002 23.7055C73.985 24.1746 73.7548 24.7056 73.2858 24.8904C72.8168 25.0752 72.2858 24.845 72.1009 24.376L73.8002 23.7055Z" fill="#674575"/>
<path d="M38.9156 67.8941C39.1885 67.4701 39.7538 67.3476 40.1779 67.6205C40.6019 67.8934 40.7244 68.4588 40.4515 68.8829L38.9156 67.8941ZM23.2169 73.3182L23.9025 71.6249L24.8444 71.9768L25.7526 72.2606L26.6272 72.4795L27.4685 72.6378L28.2777 72.7399L29.0544 72.7905L29.8004 72.7928L30.5148 72.7516L31.1988 72.6692L31.8543 72.5501L32.4794 72.3986L33.0762 72.2172L33.6442 72.0097L34.1839 71.7791L34.6953 71.5293L35.1787 71.264L35.6326 70.9869L36.0586 70.7004L36.4562 70.4094L36.8239 70.1173L37.1633 69.8274L37.4729 69.5439L37.7529 69.2703L38.0035 69.0106L38.2239 68.7684L38.4143 68.5476L38.5746 68.3522L38.7047 68.1859L38.8037 68.0532L38.8732 67.9558L38.9125 67.8991L38.9156 67.8941L40.4515 68.8829L40.4228 68.9263L40.3669 69.008L40.2777 69.1327L40.1552 69.2971L39.9995 69.4959L39.8113 69.7253L39.5898 69.9816L39.3355 70.2609L39.0479 70.5591L38.727 70.872L38.3728 71.1963L37.985 71.5278L37.5628 71.863L37.107 72.1964L36.6176 72.5252L36.0933 72.8453L35.5351 73.1515L34.9429 73.4406L34.3162 73.7082L33.6552 73.9497L32.9602 74.1614L32.2314 74.3379L31.4703 74.4758L30.6758 74.571L29.8488 74.6191L28.9908 74.616L28.1023 74.5586L27.1835 74.4422L26.2348 74.2634L25.2575 74.0189L24.251 73.7048L23.2169 73.3182ZM23.2169 73.3182C22.7494 73.1292 22.5241 72.5962 22.7131 72.1287C22.902 71.6612 23.435 71.4359 23.9025 71.6249L23.2169 73.3182ZM6.32734 70.3493L7.2813 71.9073L6.3999 70.3093L6.44035 70.29L6.5065 70.2601L6.6108 70.2151L6.7529 70.1573L6.9294 70.0908L7.13875 70.0163L7.38442 69.9358L7.66449 69.8512L7.97748 69.7646L8.32517 69.6781L8.70652 69.593L9.12042 69.5122L9.5671 69.4369L10.0471 69.3689L10.5592 69.3107L11.1028 69.2638L11.6784 69.2306L12.2858 69.2125L12.9241 69.2113L13.5927 69.2294L14.2923 69.2687L15.0214 69.3308L15.7814 69.4177L16.5699 69.5314L17.3877 69.6735L18.2347 69.8463L19.1097 70.0511L20.013 70.2904L20.9447 70.5651L21.9031 70.8781L22.8896 71.2307L23.9025 71.6249L23.2169 73.3182L22.2501 72.9421L21.312 72.6068L20.4019 72.3098L19.5201 72.0494L18.6675 71.8237L17.8432 71.6309L17.0483 71.4688L16.2826 71.3358L15.5464 71.2296L14.84 71.1487L14.1631 71.0913L13.5163 71.055L12.9 71.0383L12.3137 71.0387L11.7585 71.0553L11.2335 71.0863L10.7399 71.1286L10.2777 71.1808L9.8468 71.242L9.44692 71.3097L9.07916 71.3815L8.74395 71.456L8.44085 71.5319L8.17023 71.6064L7.93245 71.6782L7.72761 71.7458L7.55531 71.8067L7.41735 71.8589L7.31452 71.9008L7.2435 71.9314L7.20379 71.95L7.20873 71.9473L6.32734 70.3493ZM7.20873 71.9473C6.7567 72.1703 6.20825 71.9847 5.98526 71.5327C5.76227 71.0807 5.94787 70.5323 6.3999 70.3093L7.20873 71.9473ZM13.7038 56.0756L15.5021 56.3983L15.295 57.4657L15.0679 58.4876L14.8211 59.4658L14.5569 60.4005L14.2776 61.2921L13.9839 62.1421L13.6785 62.9501L13.3629 63.7185L13.0378 64.4465L12.7068 65.1351L12.3704 65.7852L12.0307 66.3978L11.689 66.9731L11.3484 67.5124L11.009 68.017L10.6738 68.486L10.3442 68.921L10.0218 69.3232L9.70883 69.6928L9.40647 70.0307L9.11695 70.338L8.8422 70.615L8.58369 70.8622L8.34296 71.0822L8.12261 71.2734L7.92382 71.4378L7.74806 71.5765L7.59835 71.6892L7.47515 71.778L7.37955 71.8434L7.31946 71.883L7.2813 71.9073L6.32734 70.3493L6.32239 70.3523L6.35908 70.3285L6.42146 70.2858L6.51292 70.2197L6.63154 70.1305L6.77409 70.0182L6.94033 69.8803L7.1282 69.7177L7.3357 69.5288L7.56092 69.3126L7.8032 69.0688L8.06024 68.7963L8.33012 68.4939L8.61129 68.1621L8.90266 67.7985L9.20199 67.4036L9.50782 66.9761L9.81772 66.5154L10.131 66.0199L10.4455 65.4892L10.7596 64.9227L11.0718 64.3194L11.3802 63.6784L11.6833 62.9989L11.9792 62.2804L12.2657 61.5215L12.542 60.7214L12.8062 59.8796L13.056 58.9949L13.2899 58.0666L13.5065 57.0938L13.7038 56.0756ZM13.7038 56.0756C13.7927 55.5793 14.2681 55.249 14.7644 55.3378C15.2606 55.4266 15.591 55.9021 15.5021 56.3983L13.7038 56.0756ZM17.9747 47.583L19.2076 48.9308L19.0485 49.0793L18.8912 49.2323L18.7363 49.3884L18.5855 49.5475L18.4365 49.712L18.2899 49.8805L18.1463 50.0532L18.0045 50.2309L17.8666 50.4127L17.7309 50.6002L17.5975 50.7929L17.4671 50.991L17.3393 51.1943L17.215 51.4037L17.0926 51.6191L16.9735 51.8414L16.8571 52.0693L16.7441 52.3036L16.6337 52.5458L16.5264 52.7949L16.4221 53.0508L16.3215 53.3135L16.2233 53.5852L16.1292 53.8638L16.0384 54.151L15.9504 54.4466L15.8664 54.7497L15.786 55.0615L15.7093 55.3824L15.6363 55.7116L15.5675 56.0503L15.5021 56.3983L13.7038 56.0756L13.7745 55.6995L13.8493 55.3321L13.9291 54.9719L14.0134 54.6208L14.1014 54.278L14.1944 53.9424L14.2915 53.6151L14.3929 53.2953L14.499 52.9828L14.6086 52.6778L14.7228 52.3796L14.8415 52.0882L14.9639 51.8051L15.0902 51.528L15.2205 51.2574L15.3551 50.994L15.4931 50.737L15.6352 50.486L15.7807 50.2418L15.9304 50.003L16.0834 49.7709L16.2395 49.5449L16.3994 49.3242L16.5631 49.1091L16.7289 48.9005L16.8983 48.6968L17.0706 48.4987L17.246 48.3056L17.4248 48.117L17.6055 47.9345L17.7884 47.7564L17.9747 47.583ZM17.9747 47.583C18.3466 47.2428 18.9248 47.2685 19.265 47.6404C19.6051 48.0123 19.5795 48.5906 19.2076 48.9308L17.9747 47.583Z" fill="#674575"/>
<path d="M57.5933 28.62C57.3204 29.044 56.7546 29.1661 56.3305 28.8933C55.9064 28.6204 55.7843 28.0546 56.0572 27.6305L57.5933 28.62ZM73.2934 23.1941L72.6078 24.8873L71.6659 24.5351L70.7581 24.2516L69.8835 24.0328L69.0422 23.8744L68.233 23.772L67.4559 23.7214L66.7106 23.7191L65.9959 23.7607L65.3114 23.8427L64.6568 23.9613L64.0309 24.1137L63.4341 24.2951L62.8661 24.5029L62.3259 24.7335L61.815 24.983L61.332 25.2483L60.8769 25.5261L60.4513 25.8122L60.0541 26.1032L59.6852 26.3957L59.3462 26.6856L59.0363 26.9691L58.7562 27.2427L58.5056 27.5028L58.2849 27.745L58.0948 27.9658L57.9341 28.1612L57.8045 28.3271L57.7051 28.4605L57.6356 28.558L57.5963 28.6147L57.5933 28.62L56.0572 27.6305L56.0859 27.5874L56.1419 27.5058L56.2311 27.3811L56.3539 27.2166L56.5093 27.0175L56.6978 26.788L56.919 26.5318L57.1737 26.2525L57.4613 25.9547L57.7822 25.641L58.1367 25.3167L58.5248 24.9852L58.9466 24.6504L59.4021 24.3162L59.8927 23.987L60.4165 23.6677L60.9744 23.3608L61.5678 23.0713L62.194 22.8044L62.8551 22.5625L63.5501 22.3509L64.2788 22.1744L65.0408 22.036L65.8348 21.9412L66.6615 21.8928L67.5194 21.8958L68.4083 21.9533L69.3271 22.0701L70.2758 22.2489L71.2532 22.4934L72.2593 22.8071L73.2934 23.1941ZM73.2934 23.1941C73.7609 23.3831 73.9861 23.916 73.7972 24.3835C73.6082 24.851 73.0753 25.0763 72.6078 24.8873L73.2934 23.1941ZM90.1822 26.1629L89.2275 24.605L90.1093 26.203L90.0688 26.2223L90.0027 26.2521L89.8968 26.2979L89.7567 26.3545L89.5809 26.4214L89.3704 26.4959L89.1247 26.5768L88.845 26.6607L88.5321 26.7476L88.184 26.8341L87.8033 26.9188L87.3895 26.9997L86.9424 27.0749L86.4632 27.1426L85.951 27.2011L85.4067 27.248L84.8315 27.2809L84.2245 27.299L83.5866 27.3002L82.9176 27.282L82.2184 27.2427L81.4889 27.1807L80.7292 27.0938L79.9408 26.9801L79.1229 26.838L78.2763 26.6656L77.401 26.4607L76.4973 26.2215L75.5664 25.9467L74.6072 25.6341L73.6207 25.2815L72.6078 24.8873L73.2934 23.1941L74.2602 23.5702L75.1982 23.9054L76.1084 24.2021L76.9901 24.4625L77.8432 24.6882L78.6671 24.8809L79.4623 25.0427L80.228 25.1757L80.9643 25.2819L81.6703 25.3628L82.3476 25.4202L82.9939 25.4565L83.6107 25.4731L84.1966 25.4728L84.7522 25.4561L85.2767 25.4255L85.7704 25.3832L86.2326 25.3307L86.6634 25.2698L87.0629 25.2022L87.4307 25.1303L87.766 25.0555L88.0687 24.9803L88.3393 24.9055L88.5774 24.8337L88.7815 24.7664L88.9535 24.7055L89.0914 24.653L89.1962 24.6106L89.2657 24.5808L89.3053 24.5623L89.3005 24.5649L90.1822 26.1629ZM89.3005 24.5649C89.7525 24.3419 90.3009 24.5275 90.5239 24.9796C90.7469 25.4316 90.5613 25.98 90.1093 26.203L89.3005 24.5649ZM82.8076 40.4371L81.0093 40.1135V40.1139L81.2164 39.0466L81.4435 38.0246L81.6904 37.0464L81.9545 36.1118L82.2339 35.2202L82.5271 34.3702L82.8329 33.5617L83.1485 32.7941L83.4732 32.0662L83.8043 31.3771L84.1406 30.7271L84.4804 30.1148L84.8214 29.5392L85.1622 28.9998L85.5017 28.4953L85.8369 28.0266L86.1657 27.5916L86.4881 27.1894L86.801 26.8194L87.103 26.4815L87.3925 26.1742L87.6673 25.8972L87.9258 25.65L88.1666 25.4301L88.387 25.2392L88.585 25.0748L88.7611 24.9357L88.9108 24.8231L89.034 24.7343L89.1296 24.6689L89.1897 24.6292L89.2275 24.605L90.1822 26.1629L90.1867 26.1599L90.15 26.1837L90.0877 26.2264L89.9963 26.2925L89.8776 26.3817L89.7355 26.4936L89.5692 26.6316L89.3813 26.7945L89.1739 26.9834L88.9486 27.1996L88.7063 27.4434L88.4501 27.7159L88.1798 28.0183L87.8986 28.3498L87.6079 28.7134L87.3086 29.1083L87.0028 29.5361L86.693 29.9969L86.38 30.4924L86.0656 31.0226L85.7515 31.5896L85.4393 32.1928L85.1309 32.8334L84.8281 33.5129L84.5322 34.2322L84.2453 34.9908L83.9694 35.7909L83.7052 36.6326L83.4554 37.5174L83.2215 38.4456L83.0049 39.4185L82.8076 40.4367V40.4371ZM82.8076 40.4367C82.7188 40.9329 82.2433 41.2632 81.7471 41.1744C81.2508 41.0856 80.9205 40.6102 81.0093 40.1139L82.8076 40.4367ZM78.5953 48.8745L77.3231 47.5637L77.4739 47.4141L77.6236 47.2606L77.7714 47.1023L77.9188 46.9386L78.0643 46.7708L78.2075 46.5981L78.3496 46.4204L78.4895 46.2375L78.6278 46.0497L78.7635 45.8569L78.8973 45.6585L79.0284 45.4552L79.1573 45.2465L79.2839 45.0315L79.4079 44.8111L79.5296 44.5847L79.6479 44.3534L79.7628 44.1157L79.8758 43.8715L79.9854 43.6217L80.0913 43.3662L80.194 43.1043L80.2931 42.8352L80.389 42.5596L80.4805 42.2784L80.5686 41.9893L80.6529 41.6945L80.7326 41.3922L80.8086 41.083L80.88 40.767L80.9469 40.4443L81.0093 40.1135L82.8076 40.4371L82.7392 40.7988L82.6655 41.154L82.5865 41.5025L82.503 41.8434L82.4141 42.1783L82.3208 42.5063L82.2229 42.8272L82.1201 43.1424L82.0128 43.4512L81.9017 43.7528L81.786 44.0488L81.6658 44.3383L81.5418 44.6214L81.4145 44.8973L81.2829 45.1683L81.1472 45.4328L81.0089 45.691L80.8668 45.9431L80.722 46.1891L80.5735 46.4303L80.422 46.6646L80.2678 46.8933L80.1102 47.117L79.9506 47.3335L79.7889 47.5452L79.6241 47.7516L79.4575 47.9523L79.2885 48.1473L79.1184 48.3366L78.9457 48.5215L78.7711 48.7006L78.5953 48.8745ZM78.5953 48.8745C78.2336 49.2256 77.655 49.2169 77.3039 48.8552C76.9527 48.4935 76.9614 47.9149 77.3231 47.5637L78.5953 48.8745Z" fill="#674575"/>
<path d="M62.5297 73.8356C62.0576 73.6583 61.8191 73.1311 61.9964 72.659C62.1737 72.1869 62.7009 71.9484 63.1729 72.1257L62.5297 73.8356ZM72.6078 71.6249L73.2933 73.3182L72.8814 73.4803L72.4743 73.6304L72.0733 73.7698L71.6769 73.8976L71.285 74.0151L70.8975 74.1221L70.5154 74.2181L70.1382 74.3039L69.7663 74.3798L69.3986 74.446L69.0361 74.5019L68.6786 74.5491L68.3248 74.5866L67.9767 74.6149L67.6335 74.6346L67.2945 74.6455L66.9608 74.6485L66.6316 74.6429L66.3069 74.6293L65.9872 74.6078L65.6735 74.579L65.3636 74.5431L65.0578 74.5L64.7581 74.4497L64.4629 74.3934L64.1718 74.3307L63.8865 74.2619L63.6057 74.1871L63.3294 74.107L63.0577 74.0215L62.7916 73.9308L62.5297 73.8356L63.1729 72.1257L63.3978 72.2073L63.6268 72.2852L63.8585 72.3585L64.0948 72.4273L64.3348 72.4908L64.5793 72.5498L64.8265 72.6035L65.0794 72.6514L65.336 72.6941L65.5964 72.7312L65.8617 72.7618L66.1323 72.7868L66.406 72.8053L66.6852 72.8166L66.9683 72.8215L67.2575 72.8193L67.5511 72.8098L67.8497 72.7924L68.154 72.7679L68.4624 72.735L68.7768 72.6938L69.097 72.6439L69.4224 72.5853L69.7535 72.5184L70.0898 72.4417L70.4319 72.3555L70.7792 72.2599L71.1334 72.1537L71.4928 72.0373L71.859 71.9107L72.2306 71.7735L72.6078 71.6249ZM72.6078 71.6249C73.0753 71.4359 73.6082 71.6612 73.7972 72.1287C73.9861 72.5963 73.7609 73.1292 73.2933 73.3182L72.6078 71.6249ZM89.2275 71.9073L90.1822 70.3493L89.3001 71.9473L89.3053 71.95L89.2657 71.9314L89.1946 71.9009L89.0914 71.8589L88.9542 71.8067L88.7815 71.7459L88.5767 71.6782L88.3393 71.6064L88.0687 71.5319L87.7655 71.456L87.4307 71.3815L87.0629 71.3097L86.663 71.2421L86.2326 71.1808L85.7704 71.1287L85.2764 71.0863L84.7518 71.0554L84.1965 71.0387L83.6107 71.0383L82.9939 71.055L82.3476 71.0913L81.6703 71.1487L80.9643 71.2296L80.228 71.3358L79.4623 71.4688L78.6675 71.631L77.8432 71.8237L76.9901 72.0494L76.1087 72.3098L75.1982 72.6069L74.2601 72.9421L73.2933 73.3182L72.6078 71.6249L73.6207 71.2307L74.6072 70.8781L75.566 70.5651L76.4973 70.2904L77.401 70.0511L78.2759 69.8463L79.1229 69.6735L79.9408 69.5314L80.7292 69.4177L81.4889 69.3308L82.2183 69.2688L82.9176 69.2295L83.5866 69.2113L84.2245 69.2125L84.8319 69.2306L85.4072 69.2639L85.951 69.3107L86.4631 69.3689L86.9428 69.437L87.3895 69.5122L87.8033 69.5931L88.1843 69.6781L88.5321 69.7646L88.845 69.8512L89.1254 69.9359L89.3704 70.0164L89.5802 70.0908L89.7567 70.1574L89.8984 70.2152L90.0027 70.2602L90.0688 70.29L90.1097 70.3093L89.2275 71.9073ZM90.1097 70.3093C90.5617 70.5326 90.7472 71.0811 90.5239 71.5331C90.3005 71.9851 89.7521 72.1707 89.3001 71.9473L90.1097 70.3093ZM81.0093 56.3984L82.8076 56.0756L83.0049 57.0938L83.2215 58.0666L83.4554 58.9949L83.7052 59.8797L83.9694 60.7214L84.2453 61.5215L84.5322 62.28L84.8281 62.9993L85.1309 63.6789L85.4393 64.3195L85.7515 64.9227L86.0656 65.4896L86.38 66.0199L86.6929 66.5154L87.0028 66.9761L87.3086 67.4039L87.6079 67.7989L87.8986 68.1625L88.1798 68.494L88.4501 68.7963L88.7063 69.0688L88.9486 69.3126L89.1739 69.5288L89.3813 69.7178L89.5692 69.8807L89.7355 70.0186L89.8776 70.1305L89.9963 70.2197L90.0877 70.2858L90.15 70.3285L90.1867 70.3524L90.1822 70.3493L89.2275 71.9073L89.1897 71.8831L89.1296 71.8434L89.034 71.778L88.9108 71.6892L88.7611 71.5766L88.585 71.4375L88.3869 71.2731L88.1666 71.0822L87.9258 70.8622L87.6673 70.615L87.3925 70.338L87.103 70.0307L86.801 69.6929L86.4881 69.3228L86.1657 68.9207L85.8369 68.4857L85.5017 68.017L85.1622 67.5124L84.8213 66.9731L84.4804 66.3975L84.1406 65.7852L83.8043 65.1351L83.4732 64.4461L83.1485 63.7182L82.8329 62.9505L82.5271 62.1421L82.2338 61.2921L81.9545 60.4005L81.6904 59.4658L81.4435 58.4877L81.2164 57.4657L81.0093 56.3984ZM81.0093 56.3984C80.9204 55.9021 81.2508 55.4266 81.7471 55.3378C82.2433 55.249 82.7187 55.5793 82.8076 56.0756L81.0093 56.3984ZM69.848 45.6872L69.8661 43.8602L69.9163 43.8617L70.0154 43.8651L70.1704 43.8741L70.3745 43.8904L70.625 43.9161L70.9195 43.9528L71.2547 44.0034L71.6266 44.0699L72.0321 44.1542L72.4679 44.2585L72.9313 44.3851L73.4188 44.5367L73.9269 44.7151L74.4526 44.9226L74.9919 45.1618L75.5418 45.4347L76.0985 45.7435L76.6594 46.0904L77.2195 46.4782L77.7767 46.9083L78.3258 47.3838L78.8636 47.9054L79.3867 48.4761L79.8905 49.0974L80.3721 49.7713L80.8271 50.4985L81.2523 51.2812L81.6439 52.1207L81.9984 53.0183L82.3125 53.976L82.5831 54.9946L82.8076 56.0756L81.0093 56.3984L80.8052 55.4134L80.561 54.4946L80.2795 53.6382L79.965 52.8418L79.6203 52.1029L79.2488 51.4184L78.8535 50.7865L78.437 50.2041L78.0027 49.6689L77.5529 49.1783L77.0907 48.7301L76.6193 48.3219L76.1409 47.9522L75.6578 47.6181L75.1741 47.3188L74.6922 47.0516L74.2148 46.815L73.7458 46.6075L73.2881 46.4264L72.8444 46.2707L72.4188 46.1388L72.0136 46.0281L71.6323 45.9366L71.2789 45.8629L70.9569 45.8055L70.6692 45.7624L70.4179 45.731L70.2074 45.7098L70.0418 45.6966L69.9247 45.6898L69.8552 45.6872H69.848ZM69.848 45.6872C69.3438 45.6823 68.9386 45.2688 68.9435 44.7646C68.9484 44.2604 69.3619 43.8552 69.8661 43.8602L69.848 45.6872Z" fill="#674575"/>
<path d="M33.8147 22.6173C34.2905 22.7836 34.5415 23.3052 34.3752 23.781C34.2089 24.2569 33.6873 24.5078 33.2114 24.3415L33.8147 22.6173ZM23.9025 24.8873L23.2169 23.194L23.6156 23.0372L24.0106 22.8913L24.4006 22.7567L24.7873 22.632L25.1701 22.5183L25.5477 22.4143L25.9215 22.3206L26.2911 22.2363L26.657 22.1615L27.0183 22.0968L27.3747 22.0409L27.7274 21.994L28.0759 21.9563L28.4198 21.9268L28.7592 21.9056L29.0933 21.8928L29.4236 21.8875L29.7502 21.8905L30.071 21.9011L30.3874 21.9185L30.6996 21.943L31.0069 21.9748L31.3093 22.0129L31.6074 22.0575L31.9007 22.1086L32.188 22.1653L32.471 22.2276L32.7504 22.2956L33.0236 22.3686L33.292 22.4468L33.5558 22.5296L33.8147 22.6173L33.2114 24.3415L32.9896 24.2667L32.7628 24.1953L32.5323 24.1283L32.2976 24.0652L32.0591 24.007L31.8153 23.9537L31.5673 23.9046L31.3157 23.8611L31.0598 23.8226L30.799 23.7897L30.534 23.7625L30.265 23.7409L29.9909 23.7258L29.7124 23.7168L29.4304 23.7145L29.1432 23.719L28.8507 23.7303L28.5544 23.7485L28.2527 23.7742L27.9473 23.8074L27.6371 23.849L27.3214 23.8982L27.001 23.956L26.6767 24.0217L26.3471 24.097L26.0126 24.1809L25.6728 24.2742L25.3285 24.3767L24.9797 24.4893L24.6251 24.6117L24.2664 24.744L23.9025 24.8873ZM23.9025 24.8873C23.435 25.0762 22.902 24.851 22.7131 24.3835C22.5241 23.9159 22.7494 23.383 23.2169 23.194L23.9025 24.8873ZM7.2813 24.6049L6.32734 26.1629L7.20873 24.5649L7.20379 24.5622L7.2435 24.5807L7.31304 24.6106L7.41735 24.6529L7.55605 24.7055L7.72761 24.7663L7.93209 24.8336L8.17023 24.9054L8.44085 24.9802L8.74358 25.0555L9.07916 25.1303L9.44692 25.2021L9.84643 25.2698L10.2777 25.3306L10.7399 25.3831L11.2331 25.4255L11.7581 25.4561L12.3137 25.4727L12.9 25.4731L13.5163 25.4564L14.1631 25.4202L14.84 25.3627L15.5464 25.2819L16.2826 25.1756L17.0483 25.0426L17.8435 24.8808L18.6675 24.6881L19.5201 24.4624L20.4023 24.202L21.312 23.9054L22.2501 23.5701L23.2169 23.194L23.9025 24.8873L22.8896 25.2815L21.9031 25.6341L20.9443 25.9467L20.013 26.2214L19.1097 26.4607L18.2343 26.6655L17.3877 26.8379L16.5699 26.98L15.7814 27.0938L15.0214 27.1807L14.2923 27.2427L13.5927 27.282L12.9241 27.3001L12.2858 27.299L11.6788 27.2808L11.1031 27.248L10.5592 27.2011L10.0471 27.1425L9.56754 27.0749L9.12042 26.9996L8.70652 26.9188L8.32554 26.8341L7.97748 26.7475L7.66449 26.6606L7.38487 26.5767L7.13875 26.4958L6.92867 26.4214L6.7529 26.3545L6.61228 26.2978L6.5065 26.2521L6.44035 26.2222L6.3999 26.2029L7.2813 24.6049ZM6.3999 26.2029C5.94787 25.9799 5.76227 25.4315 5.98526 24.9795C6.20825 24.5275 6.7567 24.3419 7.20873 24.5649L6.3999 26.2029ZM15.5021 40.1139L13.7038 40.4366L13.5065 39.4184L13.2899 38.4456L13.056 37.5173L12.8062 36.6325L12.542 35.7908L12.2657 34.9907L11.9792 34.2318L11.6833 33.5133L11.3802 32.8337L11.0718 32.1927L10.7596 31.5895L10.4455 31.0229L10.131 30.4923L9.81772 29.9968L9.50782 29.5361L9.20199 29.1086L8.90266 28.7137L8.61129 28.3501L8.33012 28.0182L8.06024 27.7159L7.8032 27.4434L7.56092 27.1996L7.3357 26.9834L7.1282 26.7944L6.94033 26.6319L6.77409 26.4939L6.63154 26.3817L6.51292 26.2925L6.42146 26.2263L6.35908 26.1836L6.32239 26.1598L6.32734 26.1629L7.2813 24.6049L7.31946 24.6291L7.37955 24.6688L7.47515 24.7342L7.59835 24.823L7.74806 24.9357L7.92382 25.0744L8.12261 25.2388L8.34296 25.43L8.58369 25.65L8.8422 25.8971L9.11695 26.1742L9.40647 26.4815L9.70883 26.8194L10.0218 27.189L10.3442 27.5911L10.6738 28.0262L11.009 28.4952L11.3484 28.9998L11.689 29.5391L12.0307 30.1143L12.3704 30.727L12.7068 31.3771L13.0378 32.0657L13.3629 32.7937L13.6785 33.5621L13.9839 34.3701L14.2776 35.2201L14.5569 36.1117L14.8211 37.0464L15.0679 38.0245L15.295 39.0465L15.5021 40.1139ZM15.5021 40.1139C15.591 40.6101 15.2606 41.0856 14.7644 41.1744C14.2681 41.2632 13.7927 40.9329 13.7038 40.4366L15.5021 40.1139ZM26.6634 50.8251L26.6453 52.6521L26.5951 52.6506L26.496 52.6472L26.341 52.6381L26.1366 52.6218L25.8864 52.5961L25.5919 52.5595L25.2567 52.5088L24.8844 52.4427L24.4789 52.358L24.0431 52.2537L23.5797 52.1271L23.0922 51.9755L22.5842 51.7971L22.0584 51.5896L21.5191 51.3504L20.9692 51.0779L20.4121 50.7687L19.8516 50.4217L19.2915 50.034L18.7344 49.6039L18.1852 49.1284L17.647 48.6068L17.1243 48.0361L16.6201 47.4148L16.139 46.7409L15.6839 46.0137L15.2587 45.2309L14.8671 44.3911L14.513 43.4935L14.1989 42.5361L13.9283 41.5176L13.7038 40.4366L15.5021 40.1139L15.7062 41.0988L15.9504 42.0176L16.2319 42.8744L16.546 43.6708L16.8907 44.4093L17.2623 45.0938L17.6576 45.7257L18.0737 46.3081L18.5083 46.8433L18.9577 47.3339L19.4196 47.7821L19.8916 48.1903L20.3701 48.56L20.8532 48.8941L21.3366 49.1934L21.8188 49.4602L22.2962 49.6972L22.7653 49.9047L23.2229 50.0858L23.6667 50.2415L24.0922 50.3734L24.4974 50.4841L24.8788 50.5756L25.2321 50.6489L25.5545 50.7067L25.8422 50.7498L26.0935 50.7812L26.3036 50.8024L26.4696 50.8156L26.5867 50.8224L26.6562 50.8251H26.6634ZM26.6634 50.8251C27.1676 50.83 27.5728 51.2434 27.5679 51.7476C27.563 52.2518 27.1495 52.657 26.6453 52.6521L26.6634 50.8251Z" fill="#674575"/>
<path d="M60.9366 65.9199C60.6973 65.4762 60.8633 64.9217 61.307 64.6825C61.7507 64.4432 62.3052 64.6092 62.5444 65.0529L60.9366 65.9199ZM58.1023 82.286L56.9511 80.8679L57.7145 80.2133L58.4009 79.5553L59.0151 78.895L59.5604 78.2351L60.0409 77.5763L60.4604 76.9206L60.8224 76.269L61.1312 75.6231L61.3901 74.9839L61.6026 74.3532L61.7715 73.7322L61.9011 73.1222L61.9937 72.5246L62.0523 71.9403L62.0811 71.3719L62.0822 70.8212L62.0583 70.2894L62.0137 69.7781L61.9506 69.2893L61.8727 68.826L61.7828 68.3887L61.6842 67.9805L61.5803 67.6029L61.4737 67.2582L61.3682 66.9475L61.2673 66.675L61.1732 66.4396L61.0904 66.2457L61.0223 66.0953L60.9706 65.9876L60.9385 65.9237L60.9366 65.9199L62.5444 65.0529L62.5689 65.0997L62.6124 65.187L62.6785 65.325L62.764 65.5125L62.8627 65.7449L62.9726 66.0204L63.0902 66.3383L63.2114 66.6958L63.3339 67.0919L63.453 67.5239L63.566 67.9911L63.6688 68.4911L63.758 69.0217L63.8302 69.5822L63.8816 70.17L63.9084 70.7834L63.9073 71.4202L63.874 72.0786L63.8056 72.7567L63.6979 73.4525L63.5471 74.163L63.3502 74.8861L63.103 75.6197L62.8026 76.3616L62.4454 77.108L62.0281 77.8579L61.5481 78.6082L61.0027 79.3569L60.3878 80.1007L59.7018 80.8381L58.9406 81.5679L58.1023 82.286ZM58.1023 82.286C57.7107 82.6039 57.1355 82.5441 56.8176 82.1526C56.4998 81.761 56.5595 81.1858 56.9511 80.8679L58.1023 82.286ZM47.342 95.6402L49.1667 95.5578L47.342 95.5574L47.3447 95.5128L47.3503 95.4384L47.3616 95.3261L47.3794 95.1753L47.4062 94.989L47.4425 94.7687L47.4909 94.5143L47.5518 94.2293L47.6274 93.913L47.7196 93.5664L47.8292 93.1922L47.9588 92.7897L48.1088 92.3626L48.2812 91.9102L48.4773 91.4336L48.6992 90.9343L48.9487 90.4143L49.2257 89.8742L49.533 89.3152L49.8724 88.738L50.2447 88.1443L50.6518 87.5358L51.0943 86.9129L51.5751 86.2772L52.0948 85.6297L52.6549 84.9713L53.2573 84.3043L53.9033 83.6289L54.5938 82.9463L55.3311 82.2573L56.1166 81.5645L56.9511 80.8679L58.1023 82.286L57.3064 82.9508L56.5587 83.6103L55.8592 84.2638L55.2049 84.9101L54.5953 85.5477L54.0284 86.1763L53.5023 86.7939L53.0158 87.4005L52.5676 87.9939L52.1552 88.5736L51.7776 89.1383L51.4333 89.6867L51.1212 90.2185L50.8388 90.7321L50.5844 91.2269L50.3577 91.7008L50.1562 92.1532L49.979 92.5837L49.824 92.9908L49.6898 93.3733L49.5753 93.7297L49.4785 94.0592L49.3985 94.3612L49.3334 94.6337L49.2809 94.8779L49.2409 95.0892L49.2113 95.2687L49.1906 95.415L49.1774 95.5265L49.1698 95.6047L49.1664 95.6459L49.1667 95.6406L47.342 95.6402ZM49.1667 95.6406C49.1441 96.1444 48.7166 96.5341 48.2128 96.5114C47.709 96.4887 47.3193 96.0612 47.342 95.5574L49.1667 95.6406ZM38.4087 82.286L39.5599 80.8679L40.3945 81.5645L41.1795 82.2573L41.9168 82.9463L42.6078 83.6289L43.253 84.3043L43.8554 84.9713L44.4159 85.6297L44.9352 86.2776L45.4156 86.9129L45.8582 87.5358L46.2652 88.1446L46.6375 88.738L46.9762 89.3148L47.2838 89.8738L47.5616 90.4146L47.8103 90.9347L48.0318 91.4336L48.2283 91.9098L48.401 92.3626L48.5507 92.7901L48.68 93.1922L48.79 93.5667L48.8814 93.913L48.957 94.2286L49.0186 94.5151L49.0666 94.7694L49.1025 94.989L49.1293 95.1753L49.1471 95.3261L49.1585 95.4384L49.1641 95.5128L49.1667 95.5578L47.342 95.6402L47.3424 95.6459L47.339 95.6047L47.3315 95.5265L47.3182 95.415L47.2974 95.2687L47.2675 95.0884L47.2279 94.8771L47.1761 94.6345L47.1103 94.3612L47.0302 94.0589L46.9338 93.7297L46.8189 93.3729L46.6851 92.9908L46.5305 92.5841L46.3529 92.1532L46.1518 91.7004L45.9251 91.2265L45.6715 90.7325L45.3888 90.2188L45.0758 89.6867L44.7322 89.1379L44.3546 88.5736L43.9424 87.9939L43.4937 87.4001L43.0077 86.7939L42.4819 86.1763L41.915 85.5477L41.3053 84.9101L40.6515 84.2638L39.9519 83.6103L39.2047 82.9508L38.4087 82.286ZM38.4087 82.286C38.0172 81.9681 37.9574 81.3929 38.2753 81.0013C38.5931 80.6098 39.1684 80.5501 39.5599 80.8679L38.4087 82.286ZM32.7564 73.1203L34.5615 72.8383L34.6004 73.0727L34.6455 73.3089L34.6954 73.5462L34.752 73.7862L34.8144 74.0277L34.8832 74.2704L34.958 74.5142L35.04 74.7598L35.1292 75.0074L35.2249 75.2557L35.328 75.5056L35.4384 75.7557L35.5567 76.0071L35.6829 76.2592L35.8175 76.5124L35.9603 76.7672L36.1115 77.0219L36.271 77.277L36.44 77.5329L36.6183 77.7895L36.8062 78.0458L37.0034 78.3028L37.211 78.5605L37.4283 78.8183L37.6559 79.0753L37.8943 79.3323L38.1434 79.5893L38.4038 79.846L38.6752 80.1022L38.9586 80.3584L39.2531 80.6136L39.5599 80.8679L38.4087 82.286L38.0723 82.0074L37.7484 81.7266L37.4363 81.4447L37.1354 81.1612L36.8463 80.8759L36.5684 80.5894L36.302 80.3014L36.0465 80.0126L35.802 79.7231L35.568 79.4328L35.3443 79.1418L35.1315 78.85L34.9282 78.5579L34.735 78.2657L34.5513 77.9728L34.3782 77.6803L34.2142 77.3885L34.0593 77.0967L33.9133 76.8045L33.7762 76.5131L33.6484 76.2229L33.5286 75.9337L33.4171 75.6454L33.3143 75.3585L33.2187 75.0728L33.131 74.7882L33.0508 74.5047L32.9787 74.2239L32.9129 73.9454L32.8539 73.6679L32.8022 73.3931L32.7564 73.1203ZM32.7564 73.1203C32.6786 72.6221 33.0199 72.1546 33.518 72.0767C34.0162 71.9989 34.4837 72.3402 34.5615 72.8383L32.7564 73.1203Z" fill="#674575"/>
<path d="M35.5737 30.5913C35.8129 31.035 35.647 31.5895 35.2033 31.8287C34.7596 32.068 34.2051 31.9021 33.9659 31.4583L35.5737 30.5913ZM38.4088 14.226L39.56 15.6441L38.7965 16.2986L38.1102 16.9567L37.496 17.6169L36.9506 18.2768L36.4698 18.9356L36.0507 19.5914L35.6886 20.243L35.3794 20.8889L35.1209 21.5276L34.9085 22.1584L34.7392 22.7798L34.6099 23.3898L34.5173 23.9874L34.4583 24.5717L34.4296 25.1397L34.4285 25.6904L34.4523 26.2222L34.4969 26.7339L34.5597 27.2222L34.6375 27.6856L34.7275 28.1225L34.8261 28.5307L34.9304 28.9087L35.037 29.2534L35.142 29.5633L35.2434 29.8365L35.3371 30.072L35.4199 30.2655L35.4879 30.416L35.5397 30.5237L35.5718 30.5875L35.5737 30.5913L33.9659 31.4583L33.9413 31.4115L33.8978 31.3241L33.8317 31.1862L33.7463 30.9988L33.6477 30.7659L33.538 30.4912L33.4201 30.1733L33.2984 29.815L33.1767 29.4197L33.0573 28.9873L32.9443 28.5201L32.8415 28.0205L32.7523 27.4891L32.6805 26.929L32.6291 26.3416L32.6022 25.7282L32.6033 25.0914L32.6366 24.4326L32.7054 23.7545L32.8131 23.0595L32.9636 22.3489L33.1608 21.6255L33.408 20.8919L33.7089 20.1504L34.0657 19.4039L34.4829 18.6541L34.9625 17.9038L35.5083 17.1551L36.1232 16.4113L36.8092 15.6739L37.5704 14.9441L38.4088 14.226ZM38.4088 14.226C38.8003 13.9081 39.3755 13.9678 39.6934 14.3594C40.0112 14.7509 39.9515 15.3262 39.56 15.6441L38.4088 14.226ZM49.1668 0.871745L47.342 0.954902L49.1668 0.954533L49.1641 0.999489L49.1585 1.07397L49.1471 1.18621L49.1293 1.33703L49.1025 1.52334L49.0666 1.74292L49.0186 1.9973L48.957 2.28342L48.8814 2.59937L48.79 2.94521L48.68 3.32013L48.5507 3.72189L48.401 4.14934L48.2283 4.60252L48.0318 5.07835L47.8103 5.57689L47.5616 6.09772L47.2838 6.63818L46.9762 7.19755L46.6371 7.77392L46.2652 8.36732L45.8582 8.97658L45.4152 9.59906L44.9352 10.2344L44.4159 10.8822L43.8554 11.5406L43.253 12.2077L42.6078 12.8831L41.9169 13.5657L41.1795 14.2547L40.3945 14.9475L39.56 15.6441L38.4088 14.226L39.2047 13.5611L39.9519 12.9016L40.6515 12.2481L41.3053 11.6018L41.915 10.9642L42.4819 10.3357L43.0077 9.71813L43.4937 9.11189L43.9427 8.51813L44.3546 7.93872L44.7322 7.37405L45.0762 6.82528L45.3888 6.29348L45.6715 5.77948L45.9251 5.28586L46.1518 4.8119L46.3529 4.35873L46.5305 3.92825L46.6851 3.52195L46.8189 3.13909L46.9338 2.7827L47.0302 2.45309L47.1103 2.15114L47.1761 1.87749L47.2279 1.63522L47.2675 1.42395L47.2974 1.24364L47.3182 1.09737L47.3315 0.985906L47.339 0.907658L47.3424 0.866467L47.342 0.872115L49.1668 0.871745ZM47.342 0.872115C47.3647 0.368304 47.7918 -0.0217364 48.2956 0.000940809C48.7994 0.023618 49.1894 0.450722 49.1668 0.954533L47.342 0.872115ZM58.1023 14.226L56.9511 15.6441L56.1166 14.9475L55.3311 14.2547L54.5938 13.5657L53.9033 12.8831L53.2574 12.2077L52.6549 11.5406L52.0948 10.8822L51.5751 10.2348L51.0947 9.59906L50.6518 8.97658L50.2447 8.36732L49.8724 7.77429L49.533 7.19718L49.2257 6.63781L48.9487 6.09809L48.6993 5.57763L48.4774 5.07835L48.2812 4.60215L48.1089 4.14975L47.9589 3.72226L47.8292 3.32013L47.7196 2.94558L47.6274 2.59937L47.5518 2.28265L47.4909 1.99804L47.4426 1.74369L47.4062 1.52334L47.3794 1.33703L47.3617 1.18621L47.3504 1.07397L47.3447 0.999489L47.342 0.954902L49.1668 0.871745L49.1664 0.866467L49.1698 0.907658L49.1774 0.985906L49.1906 1.09737L49.2113 1.24364L49.2409 1.42317L49.2809 1.63448L49.3334 1.87823L49.3985 2.15114L49.4786 2.45272L49.5753 2.7827L49.6898 3.13872L49.824 3.52159L49.979 3.92862L50.1562 4.35873L50.3577 4.81116L50.5844 5.28549L50.8388 5.77985L51.1212 6.29385L51.4334 6.82487L51.7777 7.37405L52.1552 7.93872L52.5672 8.51813L53.0158 9.11148L53.5023 9.71813L54.0284 10.3357L54.5953 10.9642L55.2049 11.6018L55.8592 12.2481L56.5588 12.9016L57.3064 13.5611L58.1023 14.226ZM58.1023 14.226C58.4939 14.5438 58.5536 15.1191 58.2358 15.5106C57.9179 15.9022 57.3427 15.9619 56.9511 15.6441L58.1023 14.226ZM63.7368 23.2874L61.934 23.5837L61.8936 23.352L61.8471 23.1181L61.7953 22.8818L61.7379 22.6449L61.6743 22.406L61.6044 22.1656L61.5285 21.9237L61.4457 21.6814L61.3557 21.4369L61.259 21.1909L61.1555 20.9441L61.0447 20.6965L60.9257 20.4482L60.7994 20.198L60.6649 19.9478L60.5224 19.6968L60.3716 19.4447L60.2121 19.1926L60.0435 18.9394L59.8666 18.6866L59.6795 18.4326L59.483 18.1782L59.2774 17.9242L59.0616 17.6699L58.8356 17.4155L58.5993 17.1611L58.3522 16.9075L58.0944 16.6539L57.8261 16.4007L57.5456 16.1479L57.2542 15.8954L56.9511 15.6441L58.1023 14.226L58.4349 14.5015L58.7551 14.7789L59.0642 15.0574L59.362 15.3379L59.6478 15.6195L59.9229 15.9026L60.1871 16.1871L60.4404 16.4717L60.6834 16.7579L60.9162 17.0451L61.1377 17.3327L61.3497 17.62L61.5523 17.9091L61.7443 18.1979L61.9272 18.487L62.1007 18.7761L62.2644 19.0649L62.4193 19.3536L62.5652 19.6416L62.7024 19.9293L62.8313 20.2169L62.9515 20.503L63.0633 20.7876L63.1677 21.0714L63.264 21.3545L63.3528 21.6365L63.4341 21.9161L63.5082 22.1943L63.5755 22.4706L63.6356 22.7446L63.6896 23.0172L63.7368 23.2874ZM63.7368 23.2874C63.8185 23.7851 63.4813 24.2553 62.9836 24.337C62.4858 24.4186 62.0157 24.0814 61.934 23.5837L63.7368 23.2874Z" fill="#674575"/>
<path d="M41.418 47.3344C41.3941 47.8382 40.966 48.2271 40.4621 48.2033C39.9583 48.1795 39.5694 47.7512 39.5932 47.2474L41.418 47.3344ZM43.9805 42.8481L44.072 44.6728H44.0727L43.9495 44.6823L43.8274 44.6978L43.7065 44.7197L43.5855 44.748L43.4646 44.7828L43.3451 44.8229L43.2272 44.869L43.1112 44.9207L42.9966 44.9782L42.8836 45.0413L42.7722 45.1101L42.6637 45.1834L42.5586 45.2613L42.457 45.3437L42.3579 45.4313L42.263 45.5224L42.1716 45.6184L42.0843 45.7175L42.0023 45.8192L41.9241 45.925L41.8507 46.0338L41.7831 46.1434L41.7207 46.2568L41.6633 46.3725L41.6114 46.4892L41.5657 46.6072L41.526 46.7258L41.4921 46.8468L41.4637 46.9685L41.4422 47.0894L41.427 47.2112L41.418 47.3344L39.5932 47.2474L39.6091 47.0305L39.6363 46.815L39.6744 46.6019L39.7225 46.394L39.7799 46.1892L39.8475 45.9866L39.9243 45.7893L40.0093 45.5961L40.1031 45.4079L40.2047 45.2242L40.3147 45.0443L40.4319 44.8712L40.5555 44.7034L40.6874 44.5398L40.8253 44.3833L40.9689 44.2329L41.1197 44.0881L41.2762 43.9498L41.4391 43.8175L41.6077 43.6928L41.7804 43.5756L41.9585 43.466L42.1418 43.3636L42.3304 43.2691L42.5235 43.1833L42.7208 43.1062L42.9219 43.0382L43.1267 42.98L43.3353 42.9312L43.5484 42.8926L43.7628 42.8651L43.9797 42.8481H43.9805ZM43.9797 42.8481C44.4835 42.8227 44.9133 43.2101 44.9386 43.7139C44.9639 44.2178 44.5765 44.6475 44.0727 44.6728L43.9797 42.8481ZM48.7873 46.7844L46.9807 47.0528V47.0539L46.9591 46.9333L46.9311 46.812L46.8975 46.693L46.8582 46.5766L46.8118 46.4602L46.7599 46.3449L46.7029 46.2326L46.6394 46.1219L46.5706 46.0119L46.4973 45.9061L46.4179 45.8025L46.3347 45.702L46.247 45.6056L46.1545 45.5122L46.057 45.4215L45.9572 45.3357L45.854 45.2548L45.7466 45.1781L45.6371 45.106L45.5244 45.039L45.4095 44.9767L45.2923 44.92L45.1725 44.8686L45.0527 44.8225L44.9325 44.7832L44.8101 44.7491L44.6872 44.7208L44.5644 44.6989L44.4416 44.683L44.3176 44.6732L44.1948 44.6698L44.072 44.6728L43.9805 42.8481L44.1986 42.8428L44.4152 42.8492L44.6291 42.8658L44.8418 42.893L45.0524 42.9308L45.2591 42.9781L45.4632 43.0348L45.6642 43.1013L45.8612 43.1761L46.0528 43.2593L46.2418 43.3507L46.4262 43.4501L46.6054 43.5571L46.7808 43.6716L46.95 43.7937L47.1152 43.923L47.2739 44.0586L47.4259 44.2L47.5729 44.3485L47.7143 44.5046L47.8481 44.6656L47.9743 44.8319L48.0945 45.005L48.2063 45.1823L48.3106 45.3656L48.4071 45.555L48.4944 45.7481L48.5726 45.9469L48.6422 46.151L48.7007 46.3585L48.7491 46.5682L48.7873 46.7833V46.7844ZM48.7873 46.7833C48.8618 47.2818 48.5178 47.7474 48.0193 47.8219C47.5208 47.8964 47.0551 47.5524 46.9807 47.0539L48.7873 46.7833ZM44.8796 50.1845L45.3551 51.948L44.8944 50.1803L45.0123 50.1474L45.1294 50.1081L45.2447 50.0628L45.3577 50.0114L45.4688 49.9543L45.5785 49.8916L45.6858 49.8232L45.7894 49.7502L45.8903 49.6716L45.9889 49.5877L46.0842 49.4993L46.1768 49.4052L46.2648 49.3088L46.3483 49.2079L46.4281 49.1032L46.5037 48.9947L46.5747 48.8836L46.6409 48.7694L46.7018 48.6534L46.7576 48.534L46.8083 48.4138L46.8533 48.2917L46.893 48.1685L46.9266 48.0445L46.9546 47.9209L46.9762 47.7962L46.9924 47.6696L47.0026 47.5449L47.0063 47.4221L47.0041 47.2981L46.9954 47.1752L46.9807 47.0528L48.7873 46.7844L48.8141 47.0006L48.8289 47.2164L48.8334 47.4319L48.8266 47.6469L48.8096 47.8593L48.7827 48.0691L48.7461 48.2777L48.7 48.4845L48.6444 48.6878L48.5805 48.8874L48.5076 49.0843L48.4267 49.277L48.3375 49.466L48.2404 49.6516L48.1357 49.8322L48.0238 50.0084L47.9043 50.1796L47.7778 50.3455L47.6436 50.5069L47.5026 50.6622L47.3563 50.81L47.2029 50.9529L47.043 51.0889L46.8763 51.2182L46.7032 51.3403L46.5248 51.454L46.3412 51.5599L46.1514 51.657L45.956 51.7454L45.7553 51.8241L45.5505 51.8936L45.3403 51.9522L44.8796 50.1845ZM45.3403 51.9522C44.8513 52.075 44.3543 51.7783 44.2314 51.2892C44.1086 50.8002 44.4053 50.3032 44.8944 50.1803L45.3403 51.9522ZM50.6521 53.0932L48.9793 53.8279L48.9797 53.8284L48.9214 53.7044L48.8579 53.5834L48.7877 53.4632L48.7121 53.3461L48.6319 53.2334L48.5454 53.1223L48.4536 53.0138L48.3579 52.9107L48.257 52.8098L48.1519 52.713L48.0427 52.6204L47.9305 52.5327L47.8148 52.4499L47.6946 52.3709L47.5725 52.2972L47.449 52.2292L47.3224 52.1669L47.1927 52.1094L47.0623 52.0576L46.9308 52.0119L46.7977 51.9714L46.6654 51.9378L46.5328 51.9102L46.399 51.8887L46.2656 51.8736L46.1322 51.8649L46.001 51.8622L45.8691 51.8664L45.7384 51.8766L45.6102 51.894L45.4817 51.9178L45.3551 51.948L44.8796 50.1845L45.1007 50.1308L45.3222 50.0896L45.5456 50.0602L45.7678 50.0424L45.9889 50.0352L46.2108 50.0394L46.4296 50.0541L46.6469 50.0791L46.8624 50.1135L47.0767 50.1577L47.2876 50.2117L47.4955 50.2741L47.7003 50.3455L47.901 50.4253L48.0979 50.5129L48.2926 50.6093L48.4834 50.7136L48.6682 50.8251L48.8481 50.9434L49.025 51.07L49.1963 51.2038L49.3614 51.3441L49.5209 51.4907L49.6747 51.6438L49.8225 51.8044L49.9627 51.9703L50.0969 52.1419L50.2246 52.3218L50.3433 52.5063L50.4544 52.6952L50.558 52.8918L50.6517 53.0929L50.6521 53.0932ZM50.6517 53.0929C50.8547 53.5543 50.6449 54.0937 50.1834 54.2966C49.722 54.4996 49.1826 54.2898 48.9797 53.8284L50.6517 53.0929ZM49.5523 59.4179L48.175 58.2175L48.1754 58.2171L48.2706 58.1037L48.3621 57.9873L48.4498 57.8671L48.534 57.7436L48.6138 57.6173L48.6894 57.4888L48.7608 57.3565L48.8289 57.2216L48.8916 57.0859L48.9498 56.9468L49.0043 56.8058L49.0537 56.6645L49.0979 56.5213L49.138 56.3761L49.1728 56.2321L49.2027 56.0858L49.2276 55.9392L49.2476 55.7926L49.2628 55.6463L49.2722 55.5L49.2767 55.3537L49.2763 55.2086L49.2703 55.0639L49.2594 54.9206L49.2431 54.7785L49.2216 54.6372L49.1947 54.4981L49.1622 54.3597L49.1248 54.2241L49.0821 54.0906L49.0333 53.958L48.9793 53.8279L50.6521 53.0932L50.7349 53.2935L50.8093 53.4965L50.8755 53.7017L50.9325 53.9092L50.9809 54.1163L51.0214 54.3257L51.0535 54.5351L51.078 54.746L51.0943 54.9573L51.1026 55.1678L51.1037 55.3787L51.0969 55.5892L51.083 55.799L51.0618 56.0087L51.0335 56.2166L50.998 56.423L50.9559 56.6282L50.9069 56.8334L50.8509 57.0353L50.7885 57.2359L50.7194 57.4348L50.6445 57.6294L50.5629 57.8229L50.4744 58.0146L50.3808 58.2016L50.2806 58.3861L50.174 58.5682L50.061 58.7466L49.9427 58.9201L49.8187 59.0902L49.688 59.2565L49.5519 59.4183L49.5523 59.4179ZM49.5519 59.4183C49.2204 59.7981 48.6429 59.8374 48.263 59.506C47.8832 59.1745 47.8439 58.597 48.1754 58.2171L49.5519 59.4183ZM43.7579 61.9426L43.7367 60.1156H43.7374L43.8951 60.1122L44.0534 60.1046L44.211 60.0937L44.369 60.0789L44.5274 60.0604L44.6827 60.0385L44.8395 60.012L44.9964 59.9822L45.151 59.9493L45.3037 59.9122L45.4567 59.8714L45.6095 59.8264L45.7595 59.7792L45.9069 59.7278L46.0539 59.6726L46.1983 59.6144L46.3412 59.552L46.4829 59.4859L46.6216 59.4171L46.7576 59.3445L46.8915 59.269L47.0238 59.1892L47.1523 59.1072L47.2778 59.0214L47.4013 58.9318L47.5219 58.8392L47.6379 58.7444L47.7524 58.645L47.8636 58.5425L47.9705 58.4379L48.0741 58.3294L48.175 58.2175L49.5523 59.4179L49.4136 59.5721L49.2699 59.7221L49.1214 59.8677L48.9702 60.0064L48.8156 60.1413L48.6558 60.2717L48.4936 60.396L48.3284 60.5158L48.1591 60.6311L47.9875 60.7411L47.8137 60.8458L47.6368 60.9463L47.4569 61.0416L47.2751 61.1323L47.0918 61.2173L46.9058 61.2986L46.7168 61.3749L46.5275 61.446L46.3355 61.5125L46.1424 61.5741L45.9496 61.6304L45.7542 61.6826L45.5569 61.7302L45.3585 61.7729L45.1616 61.8103L44.9624 61.8436L44.7609 61.8723L44.561 61.8954L44.3607 61.9146L44.1592 61.9286L43.9586 61.9377L43.7571 61.9426H43.7579ZM43.7571 61.9426C43.2529 61.9479 42.8391 61.5431 42.8338 61.0389C42.8285 60.5347 43.2332 60.1209 43.7374 60.1156L43.7571 61.9426ZM37.8436 60.1889L38.7885 58.6249L38.9325 58.7107L39.0769 58.7943L39.2224 58.8755L39.3702 58.9553L39.518 59.0327L39.6669 59.1072L39.817 59.1802L39.9673 59.2508L40.1197 59.3189L40.2727 59.385L40.4255 59.4481L40.5789 59.509L40.7327 59.5668L40.8885 59.6224L41.0445 59.6753L41.2003 59.7252L41.3575 59.7728L41.5147 59.8174L41.6712 59.859L41.8284 59.8971L41.9875 59.933L42.1466 59.9659L42.3042 59.9954L42.463 60.0215L42.6225 60.0449L42.7816 60.0649L42.9408 60.082L43.0995 60.0955L43.2586 60.1058L43.4181 60.1122L43.5776 60.1156H43.7367L43.7579 61.9426H43.5587L43.3599 61.9384L43.1619 61.9298L42.9642 61.9173L42.7668 61.9006L42.5707 61.8799L42.3753 61.8553L42.181 61.8266L41.9875 61.7944L41.7936 61.7582L41.602 61.7185L41.4119 61.6758L41.2215 61.6293L41.0317 61.5794L40.8435 61.5257L40.6575 61.4698L40.4716 61.4101L40.2875 61.3473L40.1046 61.282L39.922 61.2135L39.7406 61.1421L39.5607 61.0677L39.3834 60.9909L39.2069 60.9115L39.0308 60.8295L38.8573 60.7453L38.6842 60.6579L38.513 60.5684L38.3441 60.4773L38.1751 60.3832L38.008 60.2868L37.8436 60.1889ZM37.8436 60.1889C37.412 59.9281 37.2733 59.3661 37.5341 58.9345C37.7949 58.5029 38.3569 58.3641 38.7885 58.6249L37.8436 60.1889Z" fill="#674575"/>
<path d="M38.2988 38.4815C37.9329 38.1346 37.9174 37.5559 38.2644 37.1901C38.6113 36.8242 39.19 36.8087 39.5558 37.1557L38.2988 38.4815ZM44.3649 38.92L44.4669 40.744L44.2549 40.753L44.0433 40.7564L43.8316 40.7541L43.6203 40.7466L43.4086 40.7334L43.1981 40.7145L42.9895 40.6907L42.7809 40.6616L42.5718 40.6268L42.3651 40.5867L42.1599 40.5421L41.9554 40.4919L41.7528 40.4371L41.5514 40.3773L41.3495 40.3116L41.1523 40.2417L40.9553 40.1672L40.7607 40.0871L40.5687 40.0028L40.3775 39.9132L40.1893 39.8191L40.0033 39.7205L39.8192 39.6169L39.6386 39.5088L39.461 39.3965L39.2845 39.2787L39.1121 39.1566L38.9435 39.0307L38.7772 38.8999L38.6143 38.765L38.4548 38.6255L38.2988 38.4815L39.5558 37.1557L39.6756 37.2664L39.7988 37.3741L39.9247 37.4788L40.0539 37.5801L40.1862 37.6788L40.32 37.7736L40.4557 37.8643L40.5956 37.9524L40.7369 38.0371L40.8801 38.1179L41.0261 38.1954L41.1734 38.2691L41.3224 38.3391L41.4743 38.4052L41.6266 38.4679L41.7812 38.5265L41.9377 38.5821L42.0933 38.6327L42.2518 38.6796L42.4112 38.7231L42.5718 38.762L42.7333 38.7975L42.8954 38.8285L43.0567 38.8557L43.2193 38.878L43.3841 38.8973L43.547 38.9116L43.7103 38.9219L43.8739 38.9279L44.0379 38.9294L44.2012 38.9268L44.3649 38.92ZM44.3649 38.92C44.8683 38.892 45.2999 39.2775 45.3279 39.7809C45.3558 40.2844 44.9703 40.716 44.4669 40.744L44.3649 38.92ZM48.9483 36.6322L50.3444 37.8099L50.2057 37.9709L50.0625 38.127L49.9162 38.279L49.7647 38.4279L49.6108 38.5715L49.4532 38.7117L49.2915 38.8481L49.1275 38.9793L48.9592 39.1071L48.7892 39.2299L48.6153 39.3489L48.4377 39.4642L48.2582 39.5738L48.0764 39.6793L47.8915 39.7798L47.7052 39.8758L47.5155 39.9676L47.3238 40.0546L47.13 40.137L46.9338 40.2141L46.7373 40.2862L46.5378 40.3539L46.3355 40.4166L46.1337 40.4737L45.93 40.5263L45.7232 40.5739L45.5161 40.6154L45.3082 40.6521L45.0996 40.6831L44.8902 40.7088L44.6785 40.7292L44.4669 40.744L44.3649 38.92L44.5282 38.909L44.6899 38.8931L44.8532 38.8727L45.0157 38.8485L45.1775 38.8202L45.3385 38.7877L45.4976 38.7514L45.6575 38.7102L45.817 38.6652L45.973 38.6168L46.1288 38.5635L46.2852 38.5065L46.4383 38.446L46.5899 38.3818L46.7399 38.3137L46.8888 38.2415L47.0359 38.1659L47.1806 38.0866L47.3238 38.0038L47.4648 37.9176L47.6024 37.8288L47.7385 37.7355L47.8722 37.6391L48.0034 37.5393L48.1319 37.4361L48.2574 37.3307L48.3803 37.2214L48.5008 37.1088L48.6169 36.9947L48.7306 36.876L48.8413 36.7554L48.9483 36.6322ZM48.9483 36.6322C49.2733 36.2467 49.8498 36.198 50.2353 36.523C50.6208 36.848 50.6695 37.4244 50.3444 37.8099L48.9483 36.6322Z" fill="#674575"/>
<path d="M44.2209 36.5711L44.1801 38.3974H44.1797L44.0712 38.392L43.9616 38.3807L43.855 38.3637L43.7526 38.3422L43.6472 38.3142L43.5459 38.2806L43.4495 38.2435L43.3561 38.2023L43.2639 38.1562L43.1732 38.1048L43.0881 38.0508L43.0057 37.9929L42.926 37.931L42.8501 37.8659L42.7771 37.7979L42.7087 37.7276L42.6448 37.6562L42.5813 37.5791L42.5201 37.4963L42.4664 37.4169L42.4146 37.333L42.3663 37.2457L42.3247 37.163L42.2831 37.0722L42.2461 36.9785L42.2128 36.8844L42.1841 36.788L42.1603 36.6939L42.1395 36.5945L42.1232 36.4947L42.1115 36.3942L42.1043 36.2918L43.9291 36.2041L43.9303 36.2234L43.9329 36.243L43.9355 36.2619L43.9397 36.2805L43.9453 36.3027L43.9506 36.3205L43.9567 36.3383L43.9635 36.3549L43.9711 36.3715L43.9824 36.3938L43.9907 36.4093L44.0009 36.4252L44.0123 36.4426L44.0205 36.4536L44.0312 36.4664L44.0444 36.4811L44.0569 36.494L44.0678 36.5046L44.0795 36.5144L44.0913 36.5235L44.1025 36.5314L44.115 36.5393L44.1241 36.5446L44.1347 36.5499L44.1472 36.5556L44.1589 36.5601L44.1679 36.5628L44.1759 36.565L44.1884 36.5677L44.199 36.5696L44.2088 36.5703L44.2212 36.5711H44.2209ZM44.2212 36.5711C44.7254 36.5824 45.1249 37.0008 45.1136 37.505C45.1022 38.0092 44.6839 38.4087 44.1797 38.3974L44.2212 36.5711ZM44.4737 36.4985L45.6854 37.8652L45.6851 37.8656L45.6427 37.9022L45.6004 37.9366L45.5569 37.9703L45.5146 38.0009L45.4734 38.0296L45.428 38.0591L45.3808 38.0886L45.3328 38.1165L45.2909 38.1396L45.2417 38.1653L45.1914 38.1895L45.1476 38.2091L45.1038 38.228L45.052 38.2484L45.0051 38.2658L44.9617 38.2813L44.9091 38.2983L44.8573 38.3131L44.8124 38.3252L44.7648 38.3369L44.7175 38.3475L44.6661 38.358L44.6136 38.3671L44.572 38.3736L44.5243 38.38L44.4719 38.386L44.4193 38.3909L44.3717 38.394L44.3248 38.3962L44.2776 38.3974L44.2303 38.3981L44.1801 38.3974L44.2209 36.5711H44.2303H44.2428L44.2553 36.5707L44.2681 36.5699L44.2802 36.5692L44.2867 36.5688L44.2938 36.5681L44.3052 36.5662L44.3225 36.5635L44.3282 36.5628L44.335 36.5613L44.346 36.559L44.3558 36.5564L44.3676 36.5533L44.3732 36.5514L44.3766 36.5503L44.389 36.5461L44.3981 36.5431L44.4008 36.5416L44.4113 36.5371L44.4212 36.5325L44.4246 36.531L44.4276 36.5295L44.4378 36.5238L44.4412 36.5223L44.4446 36.5201L44.4491 36.517L44.4564 36.5117L44.4624 36.5076L44.4665 36.5042L44.471 36.5008L44.4741 36.4981L44.4737 36.4985ZM44.4741 36.4981C44.8517 36.164 45.4292 36.1988 45.7633 36.5764C46.0974 36.954 46.0627 37.5315 45.6851 37.8656L44.4741 36.4981ZM44.4397 35.8583L45.5199 34.385L45.5168 34.3828L45.6223 34.4648L45.7202 34.5521L45.8132 34.6454L45.8983 34.7437L45.975 34.8427L46.0468 34.9478L46.1103 35.0544L46.167 35.1621L46.2191 35.2762L46.2633 35.39L46.3007 35.5022L46.3325 35.616L46.359 35.732L46.3793 35.8492L46.3937 35.9671L46.4024 36.0873L46.405 36.2056L46.402 36.3213L46.3934 36.4396L46.3782 36.5594L46.3574 36.6765L46.331 36.7929L46.2973 36.9109L46.2569 37.0276L46.2104 37.141L46.1575 37.2525L46.0962 37.364L46.0294 37.4706L45.9553 37.5745L45.8718 37.6774L45.7822 37.7734L45.6854 37.8652L44.4737 36.4985L44.4835 36.4891L44.493 36.4785L44.5017 36.4679L44.5115 36.4539L44.5217 36.4381L44.53 36.4226L44.5391 36.4033L44.5478 36.3821L44.555 36.3613L44.5614 36.3387L44.5675 36.3129L44.5724 36.2857L44.5754 36.2604L44.5773 36.2321L44.578 36.2011L44.5776 36.172L44.5758 36.1455L44.572 36.1175L44.5675 36.0903L44.5614 36.0635L44.5539 36.0359L44.5452 36.0098L44.5365 35.9875L44.5282 35.9694L44.5168 35.9486L44.5063 35.9304L44.4964 35.9161L44.4847 35.9002L44.4744 35.8889L44.4646 35.8787L44.4537 35.8692L44.4427 35.8605L44.4397 35.8583ZM44.4427 35.8605C44.0349 35.5642 43.9446 34.9924 44.2409 34.5846C44.5372 34.1768 45.109 34.0864 45.5168 34.3828L44.4427 35.8605ZM44.1854 35.8118L43.9692 33.9976H43.9688L44.0141 33.9927L44.0674 33.9878L44.1143 33.9848L44.1612 33.9825L44.2141 33.981H44.2613L44.3086 33.9817L44.3558 33.9836L44.4083 33.9863L44.4555 33.9904L44.5028 33.9946L44.5557 34.0014L44.603 34.0082L44.6548 34.0169L44.7065 34.0271L44.7534 34.0373L44.7999 34.0482L44.852 34.0622L44.905 34.0777L44.9507 34.0925L45.0014 34.1098L45.0513 34.1287L45.0959 34.1465L45.1469 34.1684L45.1975 34.1919L45.2402 34.2134L45.2875 34.2376L45.3385 34.2663L45.3861 34.2947L45.4303 34.3234L45.4726 34.3514L45.5199 34.385L44.4397 35.8583L44.4378 35.8571L44.4302 35.8518L44.4238 35.8481L44.4208 35.8462L44.4197 35.8454L44.414 35.8424L44.4038 35.8375L44.4008 35.836L44.3974 35.8344L44.3868 35.8303L44.3815 35.828L44.3762 35.8265L44.366 35.8231L44.3622 35.822L44.3569 35.8209L44.346 35.8182L44.3346 35.8155L44.3282 35.8144L44.3218 35.8133L44.3109 35.8118L44.3048 35.811L44.2931 35.8099L44.2806 35.8087L44.2742 35.8084L44.2617 35.808H44.25H44.2375H44.2307L44.2186 35.8087L44.2057 35.8095L44.1993 35.8099L44.1857 35.8118H44.1854ZM44.1857 35.8118C43.685 35.8715 43.2299 35.514 43.1701 35.0132C43.1104 34.5124 43.468 34.0573 43.9688 33.9976L44.1857 35.8118ZM43.9291 36.2041L42.1043 36.2918V36.2925L42.1017 36.1901L42.1036 36.0896L42.11 35.9886L42.121 35.8889L42.1361 35.7887L42.1561 35.6893L42.1792 35.596L42.2067 35.5003L42.2393 35.4058L42.2737 35.317L42.3141 35.2248L42.3575 35.1367L42.404 35.0517L42.4547 34.9674L42.5103 34.8843L42.5688 34.8049L42.6301 34.7286L42.6962 34.6537L42.7642 34.5831L42.8387 34.5127L42.9166 34.4462L42.9956 34.385L43.0795 34.3261L43.1671 34.2709L43.2571 34.2202L43.3505 34.1737L43.4476 34.1314L43.547 34.0943L43.6498 34.0619L43.7534 34.0354L43.8595 34.0138L43.9692 33.9976L44.1854 35.8118L44.1747 35.8129L44.1638 35.8155L44.1517 35.8186L44.1426 35.8216L44.1324 35.8254L44.1223 35.8299L44.112 35.8348L44.1014 35.8409L44.0916 35.8469L44.0811 35.8545L44.0693 35.8636L44.0595 35.8719L44.0501 35.8809L44.038 35.8934L44.0278 35.9048L44.0164 35.9191L44.0062 35.9327L43.9975 35.9463L43.9877 35.9618L43.9782 35.9796L43.9695 35.9966L43.9631 36.0117L43.9552 36.0325L43.9492 36.0499L43.9442 36.0676L43.9385 36.09L43.9351 36.1069L43.9321 36.1255L43.9303 36.1444L43.9291 36.1636L43.9287 36.184L43.9291 36.2033V36.2041ZM43.9291 36.2033C43.9536 36.7072 43.5651 37.1357 43.0613 37.1603C42.5575 37.1849 42.1289 36.7963 42.1043 36.2925L43.9291 36.2033ZM43.9291 36.2033C43.9536 36.7072 43.5651 37.1357 43.0613 37.1603C42.5575 37.1849 42.1289 36.7963 42.1043 36.2925L43.9291 36.2033Z" fill="#674575"/>
<path d="M49.979 54.8162C49.4748 54.8162 49.0655 54.4069 49.0655 53.9027C49.0655 53.3985 49.4748 52.9892 49.979 52.9892V54.8162ZM52.5022 46.3766L53.9437 47.4991L53.9445 47.4979L53.7842 47.7194L53.6429 47.9451L53.517 48.1783L53.4052 48.4186L53.3065 48.6639L53.2203 48.9149L53.1447 49.1726L53.079 49.4342L53.0219 49.7003L52.9724 49.9694L52.9293 50.24L52.8915 50.5129L52.8571 50.7858L52.825 51.0594L52.7933 51.3319L52.7607 51.6021L52.7252 51.8716L52.6844 52.1392L52.6364 52.4049L52.5782 52.668L52.5068 52.9295L52.418 53.1884L52.3072 53.4454L52.1685 53.6975L51.9977 53.9398L51.7905 54.1658L51.5479 54.3661L51.2727 54.5331L50.9738 54.6609L50.6563 54.7493L50.3233 54.8004L49.979 54.8162V52.9892L50.1487 52.9817L50.2776 52.9624L50.3728 52.9359L50.4405 52.9072L50.4896 52.8769L50.5312 52.8422L50.5728 52.7961L50.6174 52.7322L50.6646 52.6457L50.7126 52.533L50.7599 52.3943L50.8041 52.2318L50.8449 52.0459L50.8823 51.8399L50.9164 51.6153L50.9481 51.3738L50.9791 51.1165L51.0108 50.847L51.0437 50.5658L51.0804 50.2725L51.1227 49.9709L51.1718 49.6602L51.2304 49.3435L51.2995 49.0199L51.382 48.6919L51.4795 48.3608L51.5944 48.0259L51.7293 47.6907L51.885 47.3574L52.0645 47.0251L52.2702 46.6974L52.5015 46.3777L52.5022 46.3766ZM52.5015 46.3777C52.8106 45.9793 53.3847 45.9071 53.7831 46.2163C54.1815 46.5255 54.2536 47.0996 53.9445 47.4979L52.5015 46.3777ZM55.0587 44.8288L55.4351 46.6166H55.4359L55.3819 46.6287L55.3263 46.6419L55.2753 46.6551L55.222 46.6702L55.1653 46.6876L55.1127 46.7046L55.0598 46.7231L55.0054 46.7432L54.9544 46.7628L54.903 46.7844L54.8512 46.807L54.7991 46.8316L54.7473 46.8569L54.6977 46.8823L54.649 46.9083L54.5998 46.9367L54.5496 46.9665L54.505 46.9941L54.4585 47.0251L54.4112 47.0576L54.3666 47.0898L54.3232 47.1226L54.2816 47.1559L54.2397 47.191L54.1977 47.2273L54.1584 47.2636L54.1199 47.301L54.0828 47.3385L54.0461 47.3781L54.0099 47.4186L53.9766 47.4575L53.9437 47.4991L52.5022 46.3766L52.5653 46.2979L52.6311 46.2197L52.6969 46.146L52.7646 46.0738L52.8348 46.0024L52.9058 45.934L52.9784 45.8674L53.0514 45.8032L53.1258 45.7408L53.203 45.6796L53.2804 45.621L53.359 45.564L53.4365 45.511L53.5163 45.4581L53.6002 45.4056L53.6799 45.3583L53.7616 45.3119L53.8459 45.2661L53.9302 45.2227L54.0136 45.1822L54.0976 45.1433L54.1834 45.1055L54.2695 45.0696L54.3576 45.0348L54.443 45.0035L54.5307 44.9728L54.6187 44.9445L54.7034 44.9188L54.7922 44.8931L54.8833 44.8693L54.9699 44.8485L55.058 44.8288H55.0587ZM55.058 44.8288C55.5516 44.7245 56.0365 45.0401 56.1408 45.5337C56.2451 46.0273 55.9295 46.5122 55.4359 46.6166L55.058 44.8288ZM58.0687 45.6996L56.761 46.9749L56.7595 46.9737L56.7281 46.9423L56.6971 46.9136L56.6634 46.8849L56.6295 46.8573L56.5955 46.832L56.5607 46.8082L56.5252 46.7855L56.4866 46.7625L56.45 46.742L56.4122 46.7231L56.3725 46.7046L56.3324 46.6876L56.2924 46.6717L56.2496 46.657L56.2088 46.6438L56.1665 46.6321L56.1215 46.6207L56.0792 46.6113L56.0357 46.6033L55.9896 46.5965L55.9439 46.5905L55.8974 46.5863L55.8509 46.5829L55.8063 46.5814H55.7598L55.713 46.5822L55.6665 46.5848L55.6199 46.5882L55.5734 46.5935L55.5281 46.5995L55.482 46.6075L55.4351 46.6166L55.0587 44.8288L55.1547 44.8099L55.2522 44.7937L55.3505 44.7801L55.4491 44.7695L55.5477 44.7616L55.6464 44.7566L55.7454 44.7544L55.8441 44.7551L55.9453 44.7589L56.044 44.7654L56.1427 44.7748L56.2413 44.7869L56.3388 44.802L56.439 44.8205L56.5388 44.8421L56.6351 44.8663L56.7334 44.8938L56.8317 44.9252L56.9265 44.9588L57.0225 44.9959L57.117 45.0363L57.2104 45.0798L57.3041 45.1274L57.396 45.1781L57.4844 45.2306L57.5744 45.2881L57.6613 45.3489L57.7475 45.4128L57.8306 45.4797L57.9119 45.5492L57.9928 45.6241L58.0702 45.7008L58.0687 45.6996ZM58.0702 45.7008C58.4217 46.0625 58.413 46.6411 58.0513 46.9926C57.6896 47.3441 57.111 47.3354 56.7595 46.9737L58.0702 45.7008ZM59.2222 48.6276L57.4027 48.7917V48.7921L57.396 48.7218L57.3881 48.6492L57.3793 48.577L57.3703 48.5075L57.3597 48.4375L57.3487 48.3676L57.3366 48.2988L57.3234 48.2293L57.3098 48.1624L57.2947 48.0947L57.2792 48.029L57.2629 47.9658L57.2448 47.9004L57.2262 47.837L57.207 47.7765L57.1873 47.7179L57.1654 47.6574L57.1439 47.6004L57.1208 47.5444L57.097 47.4889L57.0732 47.4382L57.0486 47.388L57.0225 47.3385L56.9953 47.2904L56.9681 47.2447L56.9405 47.2012L56.9121 47.1593L56.8827 47.1181L56.8529 47.0792L56.8233 47.0436L56.7923 47.0085L56.761 46.9749L58.0687 45.6996L58.1431 45.7786L58.2142 45.8591L58.283 45.943L58.3476 46.0273L58.4089 46.1116L58.4682 46.1989L58.5245 46.2877L58.5774 46.3766L58.6273 46.4661L58.6753 46.5572L58.7211 46.6491L58.7646 46.7436L58.8042 46.8354L58.8424 46.9284L58.8783 47.0225L58.9115 47.1147L58.9441 47.2103L58.9739 47.3063L59.0015 47.4001L59.0272 47.4934L59.0525 47.5906L59.0748 47.6858L59.096 47.7799L59.1156 47.8763L59.1334 47.97L59.15 48.0645L59.1655 48.1594L59.1791 48.2535L59.192 48.3487L59.203 48.4413L59.2132 48.5335L59.2222 48.6273V48.6276ZM59.2222 48.6273C59.2676 49.1296 58.8972 49.574 58.3949 49.6194C57.8926 49.6647 57.4481 49.2944 57.4027 48.7921L59.2222 48.6273ZM58.6205 51.8807L57.0596 50.9313L57.0599 50.9309L57.0886 50.8818L57.117 50.8304L57.1431 50.7793L57.1681 50.7268L57.1922 50.672L57.2153 50.6157L57.2376 50.5571L57.2576 50.5004L57.2769 50.4399L57.2958 50.3764L57.3128 50.3133L57.3287 50.2506L57.3434 50.1848L57.3571 50.1179L57.3692 50.0506L57.3805 49.9807L57.3903 49.9119L57.399 49.8405L57.407 49.7691L57.4126 49.6987L57.4179 49.6243L57.422 49.5499L57.425 49.4754L57.427 49.4002L57.4273 49.3272L57.4266 49.2501L57.4254 49.1734L57.4228 49.0986L57.4194 49.0218L57.4149 48.9459L57.4092 48.868L57.4027 48.7917L59.2222 48.6276L59.2301 48.7267L59.2374 48.8242L59.2434 48.9244L59.2483 49.0245L59.2517 49.1265L59.2536 49.2267L59.2543 49.3272L59.2532 49.4312L59.2506 49.5336L59.2468 49.636L59.2411 49.7377L59.2343 49.8394L59.2249 49.9452L59.2139 50.0484L59.2014 50.1516L59.1863 50.2566L59.1697 50.3591L59.1508 50.4634L59.1296 50.5665L59.1066 50.6701L59.0809 50.7744L59.0525 50.8776L59.0223 50.9789L58.9894 51.0817L58.9527 51.186L58.9146 51.2861L58.8734 51.3871L58.8288 51.488L58.7812 51.5881L58.7302 51.6875L58.6769 51.7843L58.6202 51.8811L58.6205 51.8807ZM58.6202 51.8811C58.3579 52.3115 57.7954 52.4484 57.3649 52.1861C56.9345 51.9238 56.7976 51.3614 57.0599 50.9309L58.6202 51.8811ZM55.3002 53.0992L56.0833 51.4491H56.0841L56.1056 51.4585L56.1253 51.4661L56.1472 51.4725L56.168 51.4778L56.1899 51.4812L56.2145 51.4842L56.2364 51.4857H56.261L56.2882 51.4842L56.3177 51.4812L56.3457 51.477L56.3755 51.471L56.411 51.4619L56.4443 51.4517L56.476 51.4404L56.5119 51.4256L56.5486 51.409L56.586 51.3897L56.6227 51.3693L56.6597 51.3462L56.6964 51.3217L56.7342 51.2941L56.772 51.2642L56.8067 51.2344L56.843 51.2007L56.8782 51.1663L56.9107 51.1312L56.9435 51.0934L56.9745 51.0545L57.0044 51.0152L57.0328 50.9732L57.0596 50.9313L58.6205 51.8807L58.5567 51.9808L58.4897 52.078L58.4191 52.1732L58.3458 52.2643L58.269 52.3528L58.1882 52.4393L58.1054 52.5213L58.0207 52.5995L57.9308 52.6763L57.84 52.7477L57.7471 52.8161L57.65 52.8815L57.5502 52.9431L57.4477 53.0006L57.3446 53.0531L57.2376 53.1022L57.1291 53.1465L57.015 53.1873L56.9001 53.2216L56.7875 53.2504L56.6684 53.2753L56.5459 53.2938L56.4258 53.3059L56.3025 53.312L56.1767 53.3112L56.0489 53.3037L55.9239 53.2886L55.7976 53.2663L55.671 53.236L55.5463 53.1986L55.4208 53.1525L55.2994 53.0992H55.3002ZM55.2994 53.0992C54.844 52.8826 54.6501 52.3373 54.8667 51.8818C55.0833 51.4264 55.6287 51.2325 56.0841 51.4491L55.2994 53.0992ZM54.5693 49.3405L55.8785 50.6149L55.8732 50.621L55.8668 50.6289L55.8607 50.6384L55.8551 50.6493L55.8486 50.664L55.8403 50.6856L55.8339 50.7072L55.8282 50.7313L55.8233 50.7604L55.8191 50.7956L55.8169 50.8304V50.8666L55.8187 50.9056L55.8229 50.9471L55.8286 50.9891L55.8369 51.0299L55.8475 51.0745L55.8592 51.1146L55.8736 51.1562L55.8898 51.1966L55.9057 51.2321L55.9242 51.2673L55.9446 51.3024L55.9628 51.3308L55.9813 51.3557L56.002 51.3806L56.0202 51.4003L56.0361 51.4154L56.0523 51.429L56.0644 51.4377L56.0742 51.4442L56.0833 51.4491L55.3002 53.0992L55.1694 53.0308L55.0447 52.9541L54.9283 52.869L54.8214 52.7798L54.72 52.6838L54.6271 52.5833L54.5428 52.4812L54.4623 52.3724L54.3889 52.2602L54.324 52.1486L54.2639 52.0326L54.2087 51.9124L54.1614 51.7926L54.1191 51.6709L54.0824 51.5454L54.0522 51.4215L54.0272 51.293L54.0088 51.1641L53.9963 51.0348L53.9906 50.9029L53.9914 50.7691L53.9997 50.6353L54.0144 50.5042L54.0375 50.3692L54.0696 50.2324L54.1108 50.0975L54.16 49.9663L54.22 49.8337L54.2922 49.7025L54.3739 49.5767L54.4657 49.4561L54.5693 49.3405ZM54.5693 49.3405C54.9212 48.9791 55.4998 48.9712 55.8611 49.3231C56.2224 49.675 56.2303 50.2536 55.8785 50.6149L54.5693 49.3405Z" fill="#674575"/>
</svg>
