<svg width="152" height="152" viewBox="0 0 152 152" fill="none" xmlns="http://www.w3.org/2000/svg">
<path d="M139.474 88.8923C140.287 88.4887 141.09 87.9724 141.806 87.3805C141.35 86.5966 140.732 85.8495 140.082 85.2051C139.279 85.6541 138.531 86.1768 137.815 86.7244C138.282 87.4682 138.856 88.2079 139.474 88.8923ZM139.583 89.7768L139.279 89.9083L139.051 89.6664C138.227 88.7816 137.457 87.7903 136.861 86.811L136.698 86.5434L136.948 86.3438C137.848 85.6083 138.835 84.9072 139.908 84.3342L140.201 84.1774L140.45 84.3996C141.329 85.2141 142.164 86.2138 142.749 87.2721L142.912 87.5616L142.651 87.7838C141.741 88.5949 140.689 89.2881 139.583 89.7768Z" fill="#28579B"/>
<path d="M134.389 104.373C135.278 104.186 136.167 103.885 137.002 103.487C136.763 102.612 136.384 101.745 135.885 100.952C135.007 101.191 134.139 101.501 133.304 101.854C133.575 102.693 133.955 103.554 134.389 104.373ZM134.258 105.25L133.933 105.302L133.77 105.012C133.217 103.962 132.697 102.796 132.371 101.701L132.285 101.401L132.567 101.268C133.64 100.789 134.768 100.354 135.95 100.068L136.264 99.9875L136.449 100.264C137.099 101.274 137.663 102.454 137.956 103.62L138.032 103.94L137.739 104.094C136.644 104.647 135.484 105.068 134.258 105.25Z" fill="#28579B"/>
<path d="M125.583 118.09C126.515 118.15 127.438 118.06 128.349 117.884C128.305 116.961 128.175 116.042 127.904 115.157C126.982 115.167 126.038 115.231 125.161 115.382C125.215 116.262 125.399 117.208 125.583 118.09ZM125.236 118.904L124.911 118.874L124.824 118.552C124.542 117.388 124.369 116.167 124.304 115.002L124.293 114.688L124.586 114.628C125.735 114.42 126.982 114.312 128.175 114.312L128.5 114.313L128.609 114.627C129.01 115.785 129.216 117.035 129.216 118.246L129.227 118.578L128.901 118.654C127.73 118.941 126.461 119.021 125.236 118.904Z" fill="#28579B"/>
<path d="M113.666 129.193C114.533 129.471 115.488 129.656 116.388 129.688C116.583 128.781 116.659 127.838 116.626 126.927C115.726 126.698 114.804 126.544 113.937 126.477C113.785 127.366 113.677 128.278 113.666 129.193ZM113.124 129.904L112.809 129.795V129.461C112.809 128.241 112.961 127.043 113.189 125.898L113.243 125.585L113.557 125.603C114.707 125.661 115.954 125.886 117.103 126.186L117.429 126.268L117.461 126.599C117.548 127.817 117.429 129.058 117.157 130.253L117.071 130.578L116.745 130.575C115.542 130.562 114.262 130.294 113.124 129.904Z" fill="#28579B"/>
<path d="M109.87 131.739C112.484 132.013 116.68 132.832 119.391 133.613C119.337 132.188 119.456 130.446 119.565 128.688C119.662 126.921 119.868 125.256 120.064 123.921C118.773 124.086 117.038 123.979 115.401 123.747C113.763 123.512 112.126 123.041 110.922 122.552C111.302 125.169 110.846 129.243 109.87 131.739ZM122.536 121.484C123.186 121.379 123.946 121.299 124.77 121.235C125.572 121.162 126.429 121.09 127.307 121.042C129.064 120.957 130.832 120.888 132.23 120.943C131.84 119.591 131.504 117.863 131.168 116.129C131.005 115.268 130.875 114.417 130.767 113.619C130.637 112.807 130.528 112.05 130.474 111.389C129.856 111.619 129.14 111.828 128.37 112.003C127.579 112.162 126.743 112.288 125.919 112.37C124.282 112.553 122.59 112.512 121.278 112.321C121.777 113.556 122.2 115.178 122.417 116.822C122.536 117.646 122.612 118.493 122.634 119.289C122.644 120.074 122.612 120.823 122.536 121.484ZM132.263 108.419C134.714 107.413 138.769 106.098 141.535 105.484C140.841 104.279 140.038 102.667 139.301 101.082C138.607 99.504 137.869 97.911 137.457 96.6641C136.351 97.4155 134.887 98.1907 133.282 98.7504C131.71 99.3249 130.116 99.7263 128.782 99.8575C130.365 101.965 131.959 105.771 132.263 108.419ZM138.444 93.3412C139.528 92.5369 140.906 91.5758 142.413 90.652C143.899 89.7238 145.395 88.8042 146.675 88.1806C144.712 86.1582 142.012 82.842 140.526 80.6616C138.802 82.7037 135.408 85.0251 132.924 85.9253C133.933 86.758 135.104 87.9769 136.102 89.3149C137.067 90.6411 137.978 92.1181 138.444 93.3412ZM103.819 142.717C104.112 141.326 104.643 139.619 105.207 137.986C105.75 136.299 106.335 134.699 106.877 133.493C105.554 133.293 103.928 132.796 102.41 132.168C100.859 131.489 99.4061 130.673 98.3542 129.892C98.0832 132.195 96.9554 135.503 95.5672 137.716L94.8623 135.526C95.4806 134.279 96.0551 132.913 96.413 131.568C96.7815 130.237 96.977 129.029 96.9554 128.211L96.89 126.439L98.1157 127.713C98.9506 128.542 100.729 129.696 102.649 130.481C103.613 130.884 104.622 131.234 105.544 131.481C106.454 131.703 107.289 131.83 107.908 131.833C108.548 130.779 109.079 128.639 109.339 126.595C109.556 124.486 109.48 122.427 109.155 121.29L108.645 119.573L110.152 120.504C111.172 121.126 113.167 121.765 115.227 122.059C117.32 122.403 119.445 122.362 120.682 122.07C120.996 120.86 121.039 118.702 120.736 116.631C120.443 114.536 119.879 112.579 119.25 111.532L118.329 110L120.031 110.533C121.202 110.897 123.241 110.99 125.334 110.786C127.438 110.591 129.509 110.038 130.615 109.448C130.604 108.179 130.159 106.112 129.324 104.158C128.912 103.185 128.468 102.263 128.002 101.47C127.513 100.672 127.036 100.018 126.613 99.594L125.345 98.3426L127.134 98.439C128.349 98.4964 130.333 98.0758 132.339 97.3645C134.258 96.6365 136.221 95.6131 137.099 94.748C136.796 93.5291 135.809 91.6321 134.53 89.9525C133.304 88.274 131.786 86.8177 130.767 86.2115L129.227 85.3169L130.984 84.9635C132.144 84.714 133.987 83.8119 135.755 82.6191C137.414 81.4304 139.073 79.9533 139.691 78.8951C139.322 78.2098 138.628 77.3356 137.772 76.4531H140.082C140.287 76.7045 140.483 76.955 140.656 77.1946C140.851 76.9595 141.057 76.709 141.274 76.4531H143.584C142.673 77.418 141.947 78.29 141.535 78.9635C142.174 80.0913 143.454 81.8227 144.94 83.5503C146.338 85.2594 147.846 86.961 148.887 87.6897L150.383 88.788L148.583 89.3443C147.39 89.7087 145.471 90.8494 143.53 92.0085C141.654 93.1938 139.767 94.3923 138.856 95.2714C139.181 96.5175 140.016 98.5237 141.003 100.564C141.925 102.567 142.987 104.603 143.779 105.558L144.972 106.999L143.096 107.092C142.467 107.115 141.611 107.285 140.656 107.53C139.691 107.771 138.585 108.073 137.533 108.404C135.419 109.087 133.271 109.758 132.198 110.397C132.144 111.655 132.523 113.854 132.935 116.046C133.347 118.23 133.868 120.459 134.378 121.572L135.18 123.266L133.347 122.892C132.144 122.65 129.845 122.664 127.633 122.78C125.399 122.89 123.186 123.051 121.961 123.38C121.603 124.583 121.452 126.826 121.289 129.035C121.17 131.282 121.083 133.522 121.322 134.749L121.679 136.593L119.998 135.785C118.871 135.218 116.658 134.693 114.501 134.26C112.278 133.778 110.131 133.444 108.84 133.423C108.526 133.972 108.179 134.771 107.842 135.712C107.485 136.626 107.127 137.671 106.78 138.742C106.118 140.903 105.457 143.014 105.403 144.288L105.283 146.171L103.852 144.95C103.201 144.381 102.041 143.708 100.74 143.036C99.4276 142.38 97.9528 141.618 96.6515 141.05L95.9361 138.861C98.3648 139.872 101.651 141.409 103.819 142.717Z" fill="#28579B"/>
<path d="M99.3516 136.996C100.132 137.474 101 137.886 101.878 138.166C102.291 137.329 102.594 136.43 102.789 135.535C101.976 135.094 101.13 134.722 100.295 134.443C99.9265 135.246 99.6011 136.105 99.3516 136.996ZM98.6577 137.558L98.3867 137.376L98.4733 137.052C98.7771 135.873 99.211 134.711 99.7205 133.694L99.8505 133.411L100.154 133.503C101.25 133.843 102.388 134.341 103.44 134.943L103.732 135.108L103.678 135.431C103.461 136.611 103.039 137.81 102.475 138.901L102.323 139.198L101.998 139.109C100.816 138.76 99.6665 138.222 98.6577 137.558Z" fill="#28579B"/>
<path d="M83.5521 140.973C84.1814 141.634 84.9184 142.238 85.6993 142.739C86.3067 142.042 86.8381 141.235 87.25 140.418C86.5671 139.788 85.8512 139.228 85.1029 138.738C84.539 139.412 84.0076 140.174 83.5521 140.973ZM82.7497 141.348L82.5222 141.105L82.6847 140.812C83.2811 139.744 83.9751 138.723 84.734 137.863L84.9404 137.629L85.2008 137.799C86.1763 138.397 87.1525 139.16 88.0305 140.005L88.2694 140.236L88.1284 140.534C87.6189 141.626 86.9246 142.689 86.1003 143.605L85.8728 143.848L85.5802 143.677C84.5284 143.046 83.5521 142.241 82.7497 141.348Z" fill="#28579B"/>
<path d="M67.2537 140.908C67.7095 141.704 68.2731 142.48 68.9129 143.152C69.6719 142.612 70.3662 141.972 70.9735 141.28C70.4746 140.505 69.9107 139.771 69.3143 139.126C68.5985 139.647 67.9045 140.247 67.2537 140.908ZM66.3863 141.069L66.2344 140.777L66.4513 140.534C67.2862 139.646 68.23 138.835 69.1624 138.191L69.4228 138.01L69.6397 138.234C70.4312 139.055 71.1905 140.038 71.83 141.075L72.0034 141.358L71.7975 141.613C71.0491 142.545 70.0952 143.399 69.0758 144.082L68.8048 144.268L68.566 144.034C67.6986 143.16 66.9393 142.133 66.3863 141.069Z" fill="#28579B"/>
<path d="M51.4866 136.804C51.7255 137.689 52.0834 138.572 52.5279 139.388C53.3953 139.062 54.2412 138.611 54.9895 138.092C54.7076 137.217 54.3387 136.37 53.9267 135.593C53.1133 135.912 52.2675 136.324 51.4866 136.804ZM50.5977 136.743L50.5217 136.425L50.8146 136.244C51.8336 135.593 52.9508 135.037 54.0242 134.645L54.3062 134.539L54.4581 134.813C55.022 135.804 55.5209 136.944 55.8785 138.106L55.9763 138.424L55.705 138.62C54.7506 139.335 53.6122 139.927 52.4519 140.335L52.1375 140.441L51.975 140.153C51.3457 139.092 50.8687 137.912 50.5977 136.743Z" fill="#28579B"/>
<path d="M37.2378 128.892C37.2593 129.804 37.3791 130.742 37.6176 131.639C38.5175 131.565 39.4609 131.327 40.3173 131.01C40.2527 130.093 40.1008 129.195 39.9163 128.311C39.038 128.421 38.1271 128.619 37.2378 128.892ZM36.3919 128.608L36.4138 128.274L36.7173 128.176C37.8776 127.815 39.103 127.534 40.2417 127.42L40.5452 127.388L40.6322 127.696C40.9032 128.824 41.1091 130.019 41.1742 131.238L41.1961 131.568L40.8922 131.694C39.7753 132.141 38.5175 132.464 37.3137 132.542L36.9777 132.562L36.8799 132.241C36.5439 131.062 36.3598 129.822 36.3919 128.608Z" fill="#28579B"/>
<path d="M33.6593 126.061C33.9197 127.386 34.2126 129.033 34.3967 130.796C34.6027 132.542 34.7871 134.282 34.809 135.709C37.4656 134.792 41.6296 133.767 44.2321 133.366C43.1262 130.921 42.4754 126.873 42.7249 124.241C41.543 124.791 39.9378 125.336 38.3005 125.657C36.6958 125.964 34.9606 126.164 33.6593 126.061ZM47.3121 134.969C47.9191 136.141 48.5699 137.72 49.1984 139.372C49.8383 140.975 50.4566 142.656 50.8255 144.03C51.9964 143.23 53.5472 142.334 55.076 141.527C56.6161 140.693 58.1559 139.89 59.3703 139.407C58.546 138.334 57.6895 136.895 57.0171 135.371C56.3557 133.818 55.8568 132.242 55.6293 130.95C54.6205 131.781 53.2217 132.668 51.7035 133.422C50.2178 134.13 48.613 134.698 47.3121 134.969ZM62.7427 140.179C63.6321 141.145 64.662 142.547 65.6813 143.962C66.7116 145.357 67.7094 146.842 68.4249 148.073C69.3467 146.998 70.6265 145.75 71.9058 144.589C73.1962 143.391 74.4759 142.236 75.5387 141.464C74.4759 140.63 73.2831 139.445 72.2638 138.142C71.2229 136.804 70.3551 135.393 69.8022 134.206C69.0323 135.268 67.8935 136.469 66.6247 137.574C65.3453 138.659 63.9465 139.57 62.7427 140.179ZM79.0087 141.382C80.093 142.102 81.4378 143.184 82.7822 144.325C84.116 145.422 85.4607 146.603 86.4476 147.629C87.0874 146.371 88.0199 144.832 88.9632 143.389C89.9175 141.927 90.8825 140.472 91.7068 139.466C90.4815 138.917 89.0392 138.08 87.7164 137.055C86.3826 136.013 85.1894 134.878 84.3654 133.848C83.8775 135.061 83.0751 136.514 82.1208 137.903C81.1449 139.248 80.0171 140.498 79.0087 141.382ZM21.3626 123.684C22.0671 123.619 22.8589 123.584 23.6828 123.57C24.5287 123.545 25.418 123.532 26.2964 123.54C28.0312 123.57 29.7558 123.609 31.0786 123.746C30.8507 122.438 30.7967 120.761 30.9592 119.084C31.0352 118.25 31.1436 117.432 31.2952 116.664C31.469 115.884 31.6641 115.159 31.881 114.534C29.5713 115.01 26.101 114.93 23.5638 114.306L25.418 112.952C26.7518 113.192 28.3135 113.248 29.6689 113.206C31.0242 113.169 32.2495 112.965 33.0304 112.686L34.7111 112.07L33.8547 113.646C33.2908 114.723 32.8244 116.699 32.6294 118.812C32.4449 120.889 32.5749 123.054 32.9654 124.239C34.2016 124.474 36.3378 124.406 38.3981 123.962C40.4477 123.569 42.3998 122.825 43.3972 122.158L44.861 121.154L44.4272 122.894C44.1562 124.042 44.1781 126.111 44.5141 128.199C44.861 130.234 45.5009 132.339 46.1843 133.362C46.8128 133.327 47.6371 133.162 48.5374 132.895C49.4483 132.598 50.4347 132.202 51.3781 131.751C53.2542 130.869 54.9785 129.632 55.7699 128.761L56.9302 127.428L56.9521 129.2C56.9846 130.371 57.4941 132.415 58.3509 134.317C58.7739 135.266 59.2728 136.205 59.7713 137.021C60.2811 137.826 60.8125 138.469 61.257 138.902C62.4498 138.56 64.2935 137.393 65.8873 136.048C67.4815 134.702 68.8369 133.097 69.3792 132.054L70.1816 130.472L70.648 132.179C70.9625 133.306 71.9818 135.164 73.2831 136.787C73.9336 137.6 74.6494 138.387 75.3433 139.051C76.0267 139.713 76.699 140.198 77.252 140.507C77.783 140.174 78.4229 139.647 79.0847 138.964C79.7461 138.264 80.4185 137.443 81.0255 136.596C82.2402 134.92 83.162 133.004 83.433 131.865L83.8125 130.137L84.6908 131.682C85.2763 132.697 86.7186 134.229 88.3778 135.496C90.026 136.758 91.9347 137.835 93.1271 138.117C93.6695 137.547 94.2988 136.663 94.8623 135.526L95.5672 137.716C95.4047 138.001 95.2202 138.276 95.0467 138.526C95.3287 138.622 95.6322 138.737 95.9361 138.861L96.6515 141.05C95.4697 140.545 94.3959 140.068 93.637 139.888C92.7477 140.824 91.5118 142.626 90.308 144.53C89.1261 146.428 87.9548 148.338 87.575 149.551L87.0005 151.341L85.9162 149.796C85.2007 148.743 83.5305 147.288 81.8279 145.801C80.9824 145.066 80.1146 144.361 79.3447 143.772C78.5639 143.166 77.8484 142.643 77.2951 142.346C76.7421 142.668 76.0592 143.235 75.3108 143.866C74.5625 144.495 73.7385 145.242 72.9252 146.02C71.3094 147.58 69.7043 149.124 69.0432 150.21L68.0454 151.808L67.3731 150.045C66.9392 148.853 65.6813 147.006 64.402 145.168C63.1116 143.325 61.7778 141.586 60.8451 140.696C60.2377 140.873 59.4462 141.249 58.5569 141.679C57.6786 142.1 56.6917 142.62 55.7049 143.169C53.7531 144.271 51.812 145.375 50.9011 146.261L49.5239 147.552L49.3179 145.678C49.1984 144.409 48.4289 142.329 47.659 140.209C47.2576 139.155 46.8457 138.125 46.4553 137.233C46.0648 136.312 45.685 135.526 45.338 134.995C44.0587 135.079 41.9225 135.524 39.7428 136.111C37.5847 136.654 35.405 137.281 34.3101 137.905L32.6725 138.797L32.9329 136.936C33.1173 135.696 32.9109 133.468 32.694 131.228C32.423 129.025 32.152 126.799 31.74 125.612C30.4928 125.349 28.2916 125.287 26.036 125.293C23.8238 125.282 21.5357 125.385 20.3433 125.686L18.5321 126.149L19.2476 124.417C19.8878 122.836 20.3973 119.216 20.7227 116.37L22.5879 115.015C22.3819 117.628 21.9155 121.252 21.3626 123.684Z" fill="#28579B"/>
<path d="M25.4071 117.691C25.1901 118.585 25.082 119.514 25.0926 120.437C26.0035 120.569 26.9363 120.615 27.8581 120.506C28.0097 119.617 28.1291 118.665 28.1506 117.78C27.2617 117.674 26.318 117.651 25.4071 117.691ZM24.6697 117.196L24.7566 116.877L25.0926 116.859C26.2855 116.804 27.5327 116.845 28.6821 117.001L28.9965 117.044V117.36C28.975 118.529 28.8775 119.752 28.6386 120.932L28.5736 121.256L28.2482 121.302C27.0448 121.476 25.765 121.463 24.5722 121.234L24.2468 121.173L24.2362 120.842C24.1818 119.629 24.3227 118.376 24.6697 117.196Z" fill="#28579B"/>
<path d="M16.7214 103.898C16.2766 104.715 15.9406 105.598 15.7342 106.486C16.5804 106.841 17.5019 107.1 18.3912 107.241C18.7816 106.402 19.1176 105.525 19.3561 104.671C18.5106 104.358 17.6104 104.094 16.7214 103.898ZM16.125 103.239L16.2981 102.953L16.6235 103.018C17.8167 103.247 18.9661 103.622 20.061 104.049L20.3539 104.167L20.2779 104.472C20.0069 105.584 19.53 106.773 19.0417 107.847L18.9007 108.145L18.5756 108.109C17.3394 107.988 16.1575 107.628 15.0297 107.129L14.7262 106.989L14.7912 106.664C15.0297 105.488 15.5286 104.282 16.125 103.239Z" fill="#28579B"/>
<path d="M11.7657 88.3779C11.1368 89.0559 10.551 89.8312 10.139 90.6381C10.8764 91.194 11.7007 91.6703 12.5462 92.0305C13.132 91.318 13.6634 90.5511 14.0969 89.7858C13.3486 89.274 12.5791 88.7868 11.7657 88.3779ZM11.3428 87.5917L11.5813 87.3574L11.8738 87.5018C12.9801 88.0215 14.0104 88.6708 14.9318 89.3606L15.1922 89.5481L15.0513 89.8236C14.4983 90.8319 13.7825 91.8599 12.991 92.7852L12.7847 93.0365L12.4812 92.9205C11.3538 92.4877 10.269 91.8483 9.30411 91.0837L9.0437 90.8731L9.19564 90.5761C9.71608 89.4906 10.5075 88.4508 11.3428 87.5917Z" fill="#28579B"/>
<path d="M10.8113 72.1113C10.0305 72.6121 9.29307 73.2229 8.69666 73.9006C9.26056 74.6228 9.9439 75.2865 10.6703 75.8429C11.4183 75.2994 12.1236 74.6878 12.7305 74.0514C12.1341 73.3714 11.4943 72.71 10.8113 72.1113ZM10.6053 71.247L10.8873 71.0769L11.1473 71.2905C12.0907 72.0668 12.9044 72.9474 13.6524 73.8484L13.8584 74.0937L13.6414 74.3246C12.8715 75.1682 11.9066 75.9846 10.9198 76.6865L10.6594 76.8792L10.3884 76.6895C9.39096 75.9903 8.51222 75.1032 7.77483 74.1258L7.56885 73.8583L7.77483 73.6069C8.54472 72.6851 9.58598 71.8729 10.6053 71.247Z" fill="#28579B"/>
<path d="M13.9124 56.1144C13.0344 56.4058 12.1561 56.8129 11.4183 57.3201C11.7982 58.1637 12.2751 58.9752 12.839 59.6929C13.7068 59.3512 14.5417 58.9358 15.2897 58.4728C14.8777 57.667 14.4223 56.8669 13.9124 56.1144ZM13.9234 55.2262L14.2488 55.1317L14.4333 55.4027C15.1597 56.3888 15.7342 57.447 16.2334 58.5053L16.3635 58.7918L16.103 58.9619C15.1381 59.5855 14.0103 60.1362 12.8825 60.5754L12.579 60.6956L12.3621 60.4442C11.5703 59.5194 10.9304 58.4415 10.4644 57.3091L10.3344 57.0004L10.6053 56.8084C11.5812 56.1076 12.7846 55.5766 13.9234 55.2262Z" fill="#28579B"/>
<path d="M15.4851 51.8288C13.2079 53.1418 9.3256 54.9484 6.66897 55.9103C7.5583 57.0306 8.49071 58.5094 9.43408 59.9944C10.3994 61.4885 11.2018 62.9492 11.8307 64.1455C12.774 63.2486 14.2488 62.3203 15.702 61.547C17.1659 60.7726 18.7601 60.1936 20.0285 59.8814C18.1852 57.9878 16.1575 54.4238 15.4851 51.8288ZM11.2668 67.5686C10.3449 68.5067 9.00019 69.6205 7.67735 70.7339C6.34356 71.8413 4.89033 72.9355 3.74098 73.7141C4.87975 74.5792 6.15912 75.7766 7.43886 76.9812C8.72919 78.188 9.88951 79.4034 10.7788 80.4076C11.4943 79.304 12.6765 78.0405 13.8909 76.9324C15.1162 75.8174 16.526 74.8555 17.6753 74.2364C16.526 73.5319 15.2787 72.4733 14.1078 71.2684C12.915 70.065 11.9391 68.7278 11.2668 67.5686ZM11.0823 83.8637C9.70507 86.114 7.17846 89.5613 5.31364 91.679C6.61455 92.2387 8.16529 93.0835 9.68353 93.9357C11.2558 94.7835 12.6656 95.6751 13.7824 96.4245C14.1948 95.1784 15.0297 93.6591 15.9296 92.2852C16.862 90.8993 17.9792 89.6252 18.9332 88.7434C16.4065 87.9682 12.9044 85.8181 11.0823 83.8637ZM14.9427 99.6935C14.5848 100.962 13.9344 102.586 13.316 104.198C12.6656 105.819 11.9497 107.467 11.3102 108.705C14.0969 109.181 18.2177 110.294 20.7118 111.175C20.8963 108.516 22.2951 104.636 23.7698 102.451C22.4251 102.386 20.8093 102.067 19.2155 101.57C17.5888 101.089 16.0815 100.391 14.9427 99.6935ZM13.9453 39.3907C14.5198 40.6943 15.0837 42.3784 15.5936 44.0353C16.1575 45.7203 16.602 47.3534 16.8839 48.6547C18.0552 48.0379 19.6815 47.4913 21.2757 47.1062C22.924 46.7419 24.5832 46.5609 25.8845 46.5749C24.7567 44.546 23.7373 41.2037 23.5638 38.5993L25.4181 39.9535C25.8085 42.6808 27.0119 45.8276 28.0097 47.1096C28.0097 47.1096 28.2811 47.4607 28.5411 47.8111C28.8231 48.16 29.105 48.5107 29.105 48.5107L27.3592 48.2004C26.2095 48.0096 24.0843 48.1244 22.0671 48.6146C21.0588 48.852 20.0285 49.1525 19.1395 49.5017C18.2721 49.8562 17.5238 50.2433 17.0139 50.6069C17.1114 51.831 17.9467 53.8795 18.9332 55.6793C20.0069 57.5207 21.2648 59.1354 22.1975 59.8663L23.6179 60.9518L21.8612 61.0863C20.6683 61.1827 18.6731 61.8324 16.8404 62.8079C14.9427 63.7592 13.2401 65.0409 12.4271 66.0016C12.85 67.1654 14.1513 68.9372 15.5611 70.4346C17.0574 71.9528 18.6731 73.2042 19.7684 73.6793L21.4273 74.3774L19.7359 74.9511C18.6191 75.3438 16.8404 76.4713 15.3007 77.8724C13.7068 79.2663 12.373 80.9262 11.8307 82.0582C12.5031 83.0851 14.2273 84.4775 15.9511 85.5826C17.7728 86.6866 19.66 87.4954 20.8309 87.6862L22.5985 87.9531L21.1132 88.9214C20.1264 89.5776 18.6731 91.1086 17.5344 92.8446C16.3419 94.5862 15.4526 96.5296 15.2141 97.7613C16.125 98.5822 18.1308 99.5071 20.0939 100.137C22.1325 100.75 24.1383 101.072 25.3421 100.953L27.1204 100.768L25.917 102.082C25.5156 102.526 25.0711 103.204 24.6266 104.025C24.1928 104.837 23.7914 105.784 23.4444 106.775C22.6964 108.769 22.371 110.853 22.4035 112.123C23.1084 112.461 24.2037 112.746 25.4181 112.952L23.5638 114.306C23.2384 114.228 22.9349 114.144 22.642 114.055C22.6311 114.355 22.6095 114.679 22.588 115.015L20.7228 116.369C20.8747 115.064 20.9393 113.94 20.8747 113.149C19.7794 112.562 17.5888 112.001 15.4526 111.422C14.3679 111.145 13.2729 110.894 12.2861 110.706C11.3212 110.509 10.4534 110.382 9.83546 110.387L7.95931 110.389L9.06557 108.891C9.81354 107.9 10.7788 105.812 11.5922 103.764C12.4811 101.678 13.2185 99.6329 13.468 98.3728C12.5246 97.5391 10.5728 96.4363 8.64264 95.3474C6.65801 94.285 4.68434 93.2406 3.4594 92.9368L1.63729 92.4704L3.09052 91.2972C4.08793 90.5187 5.50866 88.7445 6.82091 86.9674C8.21972 85.1672 9.41253 83.3746 9.99798 82.2177C9.27156 81.1734 7.67735 79.6203 6.07256 78.0862C4.40277 76.5646 2.75414 75.0695 1.64825 74.4749L0 73.575L1.68075 72.7987C2.83011 72.2889 4.6628 70.9237 6.3651 69.526C8.15471 68.1238 9.792 66.6861 10.6159 65.7034C10.1934 64.5159 9.00019 62.614 7.82929 60.7284C6.60396 58.8424 5.35672 56.9765 4.44586 56.125L3.07956 54.8399L4.90129 54.508C6.14853 54.3002 8.25222 53.4313 10.258 52.5023C12.3405 51.5922 14.2707 50.6 15.3226 49.8626C15.2682 49.2314 15.0731 48.3871 14.8018 47.4248C14.5417 46.4709 14.2273 45.4157 13.8799 44.3487C13.1429 42.2069 12.4377 40.1088 11.7437 39.0449L10.7354 37.4552C10.7354 37.4552 11.2018 37.4877 11.6682 37.5202C12.1342 37.5614 12.6115 37.6015 12.6115 37.6015C14.3354 37.7414 17.8923 37.0897 20.7228 36.5356L22.588 37.8899C20.0285 38.4961 16.461 39.1783 13.9453 39.3907Z" fill="#28579B"/>
<path d="M20.9178 41.4034C20.0069 41.4741 19.0526 41.6442 18.1852 41.9401C18.3477 42.8555 18.6296 43.7645 18.9985 44.6024C19.9094 44.4852 20.8203 44.2891 21.6442 44.0264C21.4707 43.1514 21.2432 42.269 20.9178 41.4034ZM21.1457 40.5436L21.4707 40.5308L21.6011 40.8418C22.0456 41.9737 22.371 43.1658 22.5551 44.2914L22.6095 44.6047L22.3166 44.7045C21.2322 45.0688 20.0179 45.33 18.8031 45.4645L18.4777 45.5023L18.3367 45.2064C17.8167 44.1243 17.4478 42.9099 17.2743 41.6941L17.2308 41.3614L17.5343 41.2428C18.6946 40.8343 19.9525 40.5935 21.1457 40.5436Z" fill="#28579B"/>
<path d="M31.3607 28.8916C30.4498 28.7336 29.506 28.6826 28.5846 28.74C28.4867 29.6422 28.5521 30.618 28.7036 31.5183C29.6145 31.6328 30.5254 31.6427 31.4257 31.62C31.4797 30.7416 31.4582 29.8104 31.3607 28.8916ZM31.7942 28.11L32.1196 28.1836L32.1521 28.5098C32.304 29.72 32.3365 30.9662 32.2386 32.1068L32.2171 32.419L31.8917 32.4345C30.7533 32.5135 29.528 32.4821 28.3136 32.3128L27.9882 32.2674L27.9228 31.9454C27.6843 30.7666 27.6193 29.4849 27.7497 28.269L27.7928 27.9418L28.1292 27.9104C29.3545 27.7952 30.6123 27.8628 31.7942 28.11Z" fill="#28579B"/>
<path d="M44.5685 19.346C43.7333 18.976 42.8443 18.6963 41.9225 18.5304C41.619 19.3914 41.4126 20.308 41.3476 21.2381C42.1935 21.5548 43.0938 21.8334 43.9718 22.0231C44.2431 21.1818 44.4385 20.2664 44.5685 19.346ZM45.1975 18.7179L45.49 18.8687L45.4359 19.1953C45.2734 20.3696 45.013 21.61 44.6335 22.6955L44.5357 22.9937L44.2216 22.9321C43.0718 22.6955 41.9006 22.378 40.7837 21.9211L40.4802 21.7967L40.4912 21.4668C40.5452 20.2611 40.7837 18.9848 41.2392 17.8702L41.3586 17.561L41.6946 17.6109C42.8984 17.7976 44.0912 18.151 45.1975 18.7179Z" fill="#28579B"/>
<path d="M59.7392 13.4088C59.0234 12.8135 58.2319 12.3471 57.3967 11.957C56.8872 12.7265 56.4533 13.5531 56.1494 14.4224C56.8978 14.9553 57.7005 15.458 58.492 15.8488C58.9584 15.1028 59.3813 14.2403 59.7392 13.4088ZM60.5091 12.9579L60.7476 13.1756L60.6282 13.4813C60.4006 14.0399 60.1512 14.5899 59.8583 15.1145C59.5873 15.6568 59.2834 16.1807 58.9689 16.6641L58.7958 16.9287L58.5135 16.7945C57.4617 16.2933 56.3992 15.647 55.434 14.9497L55.163 14.7547L55.2605 14.4368C55.6184 13.2614 56.1823 12.1301 56.8978 11.1478L57.0822 10.8757L57.3967 11.0057C57.9496 11.2412 58.5029 11.5209 59.0234 11.8429C59.5548 12.1812 60.0537 12.5565 60.5091 12.9579Z" fill="#28579B"/>
<path d="M75.9183 11.445C75.3759 10.6978 74.7145 10.0409 73.9987 9.45622C73.3157 10.0742 72.6978 10.7731 72.1879 11.5331C72.7733 12.2399 73.4348 12.9243 74.1071 13.4999C74.747 12.8937 75.3759 12.1684 75.9183 11.445ZM76.7751 11.1967L76.9592 11.4711L76.7638 11.7368C76.4062 12.2213 76.0158 12.6848 75.6144 13.1292C75.2134 13.5877 74.7905 14.0181 74.3566 14.4097L74.1287 14.6221L73.8902 14.4218C73.0012 13.6776 72.1229 12.7811 71.3636 11.866L71.1576 11.6109L71.3311 11.3279C71.9709 10.2738 72.7953 9.32624 73.7277 8.54766L73.9771 8.33521L74.2372 8.53555C74.7255 8.9033 75.1919 9.31302 75.6144 9.75031C76.0373 10.2057 76.4278 10.6959 76.7751 11.1967Z" fill="#28579B"/>
<path d="M80.4835 11.6347C79.9846 11.1989 79.4423 10.6479 78.8678 10.0741C78.2929 9.51022 77.6965 8.88809 77.1001 8.24519C75.9073 6.93823 74.7364 5.63166 73.8796 4.51254C73.0987 5.67928 71.9709 7.02931 70.8541 8.39674C69.7262 9.73394 68.5879 10.9948 67.6441 11.948C68.7829 12.589 70.1167 13.6616 71.3095 14.8371C72.4913 15.9819 73.5326 17.3191 74.2265 18.4446C74.8664 17.279 75.8423 15.9051 76.9701 14.7002C77.534 14.0864 78.13 13.4942 78.7378 12.9598C79.3338 12.4341 79.9302 12.0001 80.4835 11.6347ZM64.2066 12.4642C63.6212 12.1619 62.9598 11.7779 62.2655 11.3462C61.561 10.9418 60.8345 10.4884 60.0862 10.0148C58.622 9.04646 57.1472 8.06602 56.0413 7.19748C55.564 8.52258 54.816 10.1157 54.0677 11.7163C53.6992 12.5066 53.3084 13.2787 52.9289 13.9878C52.5494 14.7123 52.1919 15.3945 51.8555 15.9585C52.4844 16.1406 53.1893 16.3855 53.9157 16.7023C54.6531 17.0352 55.4015 17.4222 56.1173 17.8406C57.5596 18.6574 58.8934 19.6854 59.8367 20.608C60.1621 19.3188 60.7691 17.753 61.561 16.302C61.951 15.5665 62.3849 14.8446 62.8403 14.1768C63.2848 13.5369 63.7621 12.9533 64.2066 12.4642ZM48.6565 17.3157C46.0864 16.6902 42.031 15.3802 39.4394 14.2588C39.2874 15.6425 38.9945 17.4102 38.6585 19.1291C38.3006 20.8208 37.9427 22.5276 37.5632 23.7885C38.897 23.8267 40.5453 24.0682 42.161 24.5489C43.7662 24.9998 45.295 25.6201 46.4553 26.2958C46.4553 24.9889 46.6398 23.2865 47.0517 21.6923C47.4422 20.0777 48.0166 18.4609 48.6565 17.3157ZM34.8091 25.8945C33.4643 25.9164 31.7832 25.8793 30.0049 25.735C28.2811 25.6182 26.5134 25.4703 25.1146 25.2201C25.3206 26.5993 25.4831 28.406 25.5591 30.1313C25.6456 31.8673 25.7325 33.6134 25.6456 34.9165C26.9688 34.6369 28.628 34.4589 30.3084 34.5156C31.9895 34.576 33.6159 34.7767 34.9066 35.1399C34.5702 33.8757 34.3533 32.2066 34.3317 30.5323C34.3317 28.8905 34.4727 27.1667 34.8091 25.8945ZM91.8263 6.31498C90.7744 7.23756 89.3537 8.28824 87.9224 9.33026C87.2175 9.84125 86.5017 10.3292 85.8293 10.7684C85.1569 11.2303 84.5065 11.6498 83.9426 11.9805C84.409 12.4461 84.9079 13.0032 85.3958 13.6234C85.8728 14.2678 86.3392 14.9682 86.7727 15.6818C87.6404 17.0904 88.3234 18.6256 88.7138 19.8967C90.2971 18.1517 93.1381 16.1826 95.5673 15.1904L94.8624 17.3799C93.637 17.9631 92.3358 18.8471 91.2729 19.6722C90.1996 20.4984 89.3212 21.3847 88.8658 22.0699L87.868 23.5541L87.6295 21.7846C87.456 20.5744 86.6642 18.6982 85.5802 16.8844C84.5174 15.0669 83.1292 13.4534 82.1208 12.6824C80.9824 13.2485 79.3123 14.5309 77.8915 16.1153C76.4712 17.6729 75.3109 19.3588 74.9095 20.5116L74.3131 22.1954L73.6411 20.543C73.1747 19.4152 71.9384 17.7756 70.4527 16.2963C68.9564 14.7773 67.2216 13.5864 66.0609 13.0769C65.085 13.8903 63.7837 15.5786 62.8078 17.4427C61.821 19.3101 61.1161 21.2218 61.0186 22.4384L60.8667 24.2194L59.7933 22.7854C59.0668 21.8072 57.4726 20.529 55.6509 19.4651C53.8398 18.383 51.8555 17.6369 50.5977 17.4483C49.8709 18.4934 49.0144 20.4164 48.5375 22.4917C48.2986 23.5152 48.1251 24.5357 48.0386 25.4424C47.9626 26.3726 47.9736 27.1882 48.0601 27.7782L48.353 29.5371L46.9648 28.4101C46.0105 27.647 44.1562 26.8302 42.1176 26.2304C40.1223 25.6809 37.9427 25.374 36.7174 25.5539C36.2513 26.7165 35.9365 28.833 35.98 30.9443C35.98 33.0189 36.3598 35.0998 36.8258 36.1865L37.5307 37.8109C37.5307 37.8109 37.1293 37.6212 36.7174 37.4326C36.316 37.2516 35.915 37.0694 35.915 37.0694C34.8412 36.5955 32.781 36.2137 30.6883 36.1627C28.6061 36.117 26.4265 36.3641 25.2877 36.8426C25.1902 37.6167 25.2011 38.7066 25.4181 39.9535L23.5639 38.5993C23.5313 38.2675 23.5094 37.9421 23.4988 37.6394C23.2169 37.7263 22.9021 37.8086 22.588 37.8899L20.7228 36.5357C21.9806 36.2537 23.119 36.0066 23.8458 35.7031C24.0083 34.4286 23.9543 32.2437 23.8023 29.9956C23.6504 27.7695 23.466 25.5301 23.054 24.3286C23.054 24.3286 22.9021 23.8829 22.7505 23.4373C22.6095 22.9925 22.4795 22.5492 22.4795 22.5492L24.2468 23.1585C25.44 23.5795 27.6627 23.7798 29.9074 23.9816C32.1305 24.1335 34.3533 24.27 35.6115 24.0923C36.0775 22.9003 36.5764 20.7773 36.9778 18.5519C37.4113 16.3885 37.7367 14.1083 37.6607 12.8796L37.5417 11.0167L39.114 12.0413C39.6344 12.3872 40.4258 12.7504 41.3477 13.1117C42.2695 13.4976 43.3323 13.885 44.3947 14.2402C46.4878 14.9172 48.6346 15.6504 49.8818 15.7543C50.6627 14.7762 51.628 12.7503 52.5929 10.7476C53.5363 8.73309 54.4362 6.62906 54.6747 5.42339L55.022 3.58537L56.2908 4.96343C57.1147 5.8656 58.9909 7.20164 60.8451 8.41298C62.7209 9.62319 64.597 10.8292 65.7899 11.2574C66.7877 10.5189 68.2299 8.76975 69.6718 7.09089C71.082 5.37007 72.4698 3.56162 73.0012 2.45233L73.7926 0.76062L74.671 2.40959C75.2564 3.48978 76.7206 5.24121 78.2279 6.8819C79.7352 8.49538 81.275 10.1621 82.3053 10.8508C83.4656 10.3715 85.2873 9.06494 87.0981 7.76781C88.8983 6.46425 90.6875 5.03867 91.4793 4.09605L92.6718 2.65718L93.1166 4.47356C93.3116 5.30619 93.854 6.50884 94.5044 7.85321C95.1659 9.20024 95.9467 10.5688 96.6516 11.8546L95.9361 14.0452C94.5698 11.8145 92.8241 8.59932 91.8263 6.31498Z" fill="#28579B"/>
<path d="M92.0863 13.5357C91.7393 12.6823 91.2729 11.8776 90.72 11.1349C89.9066 11.5662 89.1367 12.0738 88.4428 12.7019C88.8442 13.5149 89.3102 14.3544 89.8201 15.0766C90.59 14.6473 91.3708 14.1049 92.0863 13.5357ZM92.9756 13.5055L93.0841 13.8184L92.8346 14.0271C91.9018 14.772 90.8609 15.4701 89.8416 16.0219L89.5597 16.1708L89.3752 15.9145C89.0392 15.4474 88.7138 14.939 88.4103 14.4095C88.1068 13.9 87.8139 13.3641 87.5644 12.8187L87.4235 12.5198L87.662 12.2885C88.0958 11.8659 88.5728 11.4668 89.0827 11.1024C89.5922 10.7562 90.1236 10.4482 90.6769 10.1836L90.9694 10.0408L91.1864 10.3008C91.9347 11.2465 92.5632 12.347 92.9756 13.5055Z" fill="#28579B"/>
<path d="M107.213 19.6061C107.094 18.6778 106.845 17.7802 106.498 16.9309C105.598 17.1415 104.709 17.4646 103.906 17.8754C104.069 18.7885 104.329 19.693 104.633 20.5226C105.49 20.2917 106.379 19.9617 107.213 19.6061ZM108.081 19.7935L108.114 20.1224L107.81 20.2611C106.715 20.7687 105.554 21.1504 104.416 21.4418L104.112 21.5178L103.993 21.2252C103.57 20.156 103.245 18.9348 103.017 17.7692L102.952 17.4461L103.245 17.2813C104.307 16.6607 105.49 16.2434 106.682 16.0004L107.007 15.9354L107.148 16.2382C107.647 17.3301 107.962 18.5878 108.081 19.7935Z" fill="#28579B"/>
<path d="M120.345 29.2507C120.443 28.3429 120.465 27.3651 120.324 26.4724C119.391 26.4595 118.459 26.556 117.57 26.7578C117.504 27.6807 117.526 28.6131 117.634 29.488C118.535 29.4612 119.435 29.4113 120.345 29.2507ZM121.148 29.6411L121.094 29.9665L120.768 30.0282C119.576 30.2561 118.35 30.3426 117.201 30.3252H116.886L116.832 30.0142C116.68 28.88 116.658 27.6274 116.745 26.4172L116.767 26.0907L117.092 26.0007C118.264 25.6896 119.51 25.5672 120.736 25.6201L121.072 25.6352L121.126 25.9607C121.332 27.1611 121.322 28.4525 121.148 29.6411Z" fill="#28579B"/>
<path d="M130.691 41.8426C131.005 40.9861 131.244 40.0643 131.363 39.1418C130.474 38.8931 129.519 38.7652 128.609 38.7414C128.316 39.6205 128.132 40.5175 128.002 41.397C128.858 41.6173 129.769 41.77 130.691 41.8426ZM131.374 42.4129L131.244 42.7156L130.918 42.6949C129.693 42.62 128.468 42.4174 127.362 42.1064L127.069 42.0217L127.112 41.7073C127.242 40.5738 127.513 39.3647 127.904 38.2123L128.002 37.8964L128.338 37.8933C129.541 37.8835 130.799 38.0634 131.981 38.4149L132.296 38.5166L132.263 38.8511C132.144 40.073 131.84 41.3047 131.374 42.4129Z" fill="#28579B"/>
<path d="M137.577 56.6088C138.108 55.8616 138.553 55.0279 138.889 54.1658C138.108 53.6975 137.219 53.335 136.329 53.0878C135.852 53.8641 135.44 54.6851 135.072 55.5113C135.842 55.9342 136.709 56.3095 137.577 56.6088ZM138.097 57.3353L137.891 57.5979L137.577 57.4914C136.438 57.1078 135.278 56.6153 134.291 56.0404L134.02 55.8847L134.139 55.5895C134.584 54.5093 135.104 53.4231 135.776 52.4026L135.961 52.1226L136.275 52.2019C137.435 52.4926 138.65 52.9654 139.669 53.6158L139.951 53.7927L139.843 54.1083C139.42 55.2622 138.845 56.3704 138.097 57.3353Z" fill="#28579B"/>
<path d="M138.813 61.0036C139.387 59.7787 140.114 58.2786 141.003 56.7392C141.871 55.2089 142.727 53.6865 143.551 52.5216C140.851 51.6943 136.893 50.0838 134.551 48.8857C134.009 51.5098 132.165 55.1711 130.409 57.1553C131.688 57.4036 133.315 57.9025 134.822 58.6017C136.308 59.3013 137.826 60.1559 138.813 61.0036ZM133 45.7834C133.206 44.4723 133.575 42.8165 134.052 41.1052C134.464 39.4289 134.963 37.7165 135.462 36.3861C134.052 36.3415 132.263 36.1593 130.56 35.9144C128.826 35.6823 127.101 35.4317 125.843 35.1075C125.876 36.4564 125.724 38.1242 125.366 39.754C124.987 41.4034 124.477 42.9673 123.902 44.1522C125.204 44.0721 126.863 44.1749 128.533 44.4538C130.137 44.7607 131.786 45.2278 133 45.7834ZM123.555 32.4973C123.414 31.1994 123.425 29.4449 123.414 27.7132C123.403 25.9855 123.49 24.1672 123.62 22.7854C122.233 23.1055 120.487 23.3331 118.752 23.5402C116.995 23.7722 115.314 23.8841 113.969 23.9359C114.381 25.1832 114.588 26.9051 114.674 28.5447C114.739 30.2126 114.588 31.8967 114.327 33.1753C115.607 32.7414 117.212 32.4682 118.893 32.3238C120.573 32.1794 122.233 32.2826 123.555 32.4973ZM111.117 21.9679C110.673 20.7229 110.239 19.0399 109.794 17.3667C109.578 16.5201 109.382 15.6576 109.209 14.8273C109.036 14.0109 108.873 13.2394 108.775 12.5425C107.506 13.1899 105.88 13.823 104.242 14.4837C102.605 15.1156 101 15.6719 99.7095 16.0514C100.414 17.1652 101.065 18.7473 101.531 20.3446C102.03 21.9168 102.291 23.6033 102.356 24.911C102.909 24.5561 103.57 24.1876 104.286 23.8516C104.99 23.5285 105.761 23.2227 106.563 22.9547C108.146 22.395 109.784 22.0666 111.117 21.9679ZM147.358 70.1671C146.176 69.4437 144.69 68.4202 143.291 67.38C141.914 66.3324 140.515 65.2873 139.539 64.3946C138.943 65.5863 138.021 66.9699 136.883 68.2312C135.776 69.4901 134.584 70.6093 133.478 71.3697C134.53 71.8671 135.776 72.6242 136.948 73.5241C138.086 74.4232 139.203 75.4622 140.082 76.4532H137.772C136.774 75.4762 135.603 74.5056 134.475 73.741C133.347 72.9764 132.23 72.417 131.45 72.1827L129.736 71.6936L131.352 70.9162C132.436 70.3871 133.976 69.0597 135.397 67.4711C136.741 65.9041 137.935 64.0718 138.303 62.8885C137.447 61.9689 135.69 60.7727 133.749 59.9181C131.862 59.0356 129.845 58.4868 128.652 58.4479L126.874 58.4022L128.24 57.2464C129.14 56.472 130.322 54.7935 131.298 52.9033C132.198 51.0555 132.924 48.9692 132.968 47.7393C132.436 47.4022 131.667 47.053 130.777 46.742C129.877 46.4385 128.836 46.1879 127.817 46.0016C125.789 45.6089 123.653 45.6032 122.504 45.8481L120.779 46.2442L121.81 44.7921C122.471 43.8261 123.241 41.8686 123.664 39.8246C123.881 38.806 124.033 37.7568 124.108 36.798C124.173 35.8504 124.119 35.0174 124.011 34.4014C122.85 33.9777 120.66 33.8432 118.589 33.9861C116.496 34.1456 114.468 34.6217 113.416 35.1497L111.833 35.9718L112.462 34.3126C112.874 33.201 113.145 31.1102 113.037 29.036C112.982 26.9225 112.56 24.8305 112.039 23.6887C110.803 23.5761 108.656 23.9782 106.682 24.6321C104.676 25.3328 102.865 26.2327 101.965 27.0483L100.62 28.2423L100.837 26.4712C100.891 25.8771 100.859 25.0584 100.74 24.1388C100.599 23.2367 100.382 22.226 100.089 21.2165C99.5141 19.1669 98.5602 17.2877 97.7903 16.279C97.0095 16.4256 95.9686 16.83 94.8623 17.3799L95.5672 15.1904C95.8816 15.0669 96.1746 14.9509 96.4565 14.8552C96.2936 14.6069 96.1205 14.3313 95.9361 14.0452L96.6515 11.8546C97.2914 13.001 97.9094 13.9541 98.4192 14.5517C99.0372 14.4595 99.8721 14.2199 100.805 13.8945C101.748 13.5596 102.789 13.1627 103.819 12.7678C104.86 12.3604 105.902 11.9212 106.812 11.4915C107.712 11.0784 108.482 10.6818 108.981 10.3095L110.499 9.21008L110.478 11.0772C110.467 12.3006 110.9 14.5702 111.443 16.7087C111.953 18.9057 112.549 21.0136 113.08 22.1728C114.338 22.2933 116.561 22.0416 118.773 21.7846C121.007 21.4747 123.208 21.1591 124.38 20.6829L126.125 19.9878C126.125 19.9878 126.006 20.4391 125.887 20.89C125.757 21.3401 125.637 21.791 125.637 21.791C125.291 23.0099 125.193 25.2633 125.161 27.4883C125.117 29.7451 125.171 31.9258 125.399 33.1924C125.995 33.407 126.863 33.5764 127.828 33.7465C128.793 33.9245 129.899 34.0828 131.005 34.2139C133.239 34.4751 135.462 34.7147 136.72 34.5348C136.72 34.5348 137.186 34.4709 137.652 34.4071C138.119 34.3504 138.585 34.294 138.585 34.294L137.652 35.9313C137.002 37.0312 136.405 39.1587 135.776 41.3339C135.484 42.4174 135.223 43.4889 135.017 44.4527C134.79 45.4267 134.638 46.2801 134.606 46.9143C135.7 47.5984 137.674 48.4922 139.799 49.298C141.849 50.1239 143.996 50.8873 145.243 51.034L147.097 51.2736L145.785 52.6259C144.918 53.5217 143.768 55.4473 142.64 57.393C141.567 59.3338 140.472 61.2935 140.103 62.5003C140.971 63.4403 142.684 64.796 144.528 66.1094C146.295 67.4213 148.204 68.6953 149.364 69.15L151.088 69.8417L149.494 70.8232C148.746 71.2665 147.792 72.1566 146.729 73.188C145.644 74.2202 144.528 75.3893 143.584 76.4532H141.274C142.098 75.4467 143.15 74.2984 144.256 73.1793C145.33 72.0647 146.393 70.98 147.358 70.1671Z" fill="#28579B"/>
<path d="M140.559 72.6318C141.242 72.0377 141.893 71.3422 142.435 70.5931C141.795 69.9456 141.036 69.3701 140.233 68.9101C139.572 69.5401 138.954 70.234 138.401 70.9423C139.041 71.5463 139.778 72.1231 140.559 72.6318ZM140.873 73.4625L140.613 73.6662L140.331 73.4852C139.333 72.8314 138.314 72.0626 137.511 71.2591L137.284 71.0398L137.468 70.784C138.184 69.847 138.943 68.9275 139.854 68.1066L140.103 67.8821L140.385 68.0374C141.448 68.6096 142.511 69.3712 143.324 70.2548L143.541 70.4967L143.367 70.773C142.673 71.7859 141.838 72.7141 140.873 73.4625Z" fill="#28579B"/>
<path d="M48.1035 74.6239C48.1035 74.6239 48.2445 73.7247 48.407 72.1426C48.5045 71.3531 48.7869 70.4369 48.9928 69.3526C49.1009 68.8136 49.3508 68.2781 49.5133 67.6881C49.7083 67.1068 49.8602 66.4714 50.1857 65.8716C51.1396 63.3503 52.8313 60.6211 55.087 58.0881C57.3426 55.5581 60.2487 53.2874 63.4911 51.6966C66.7332 50.0906 70.2682 49.1775 73.641 48.953C77.0241 48.7274 80.234 49.1125 82.8472 49.7924C85.4282 50.5774 87.521 51.4274 88.8767 52.2419C89.5491 52.6399 90.113 52.9188 90.4705 53.1407C90.8175 53.3894 91.0019 53.5224 91.0019 53.5224L92.0863 51.9055C92.0863 51.9055 91.8803 51.7649 91.5224 51.4992C91.1323 51.2619 90.5355 50.9592 89.8091 50.534C88.3559 49.6677 86.1222 48.7481 83.3461 47.9121C80.5595 47.1823 77.122 46.7691 73.5001 47.0118C69.8887 47.2526 66.0937 48.2318 62.6343 49.9507C59.1643 51.6542 56.0522 54.0822 53.6337 56.791C51.2265 59.5009 49.4264 62.4266 48.3855 65.1255C48.0491 65.7696 47.8866 66.4473 47.6696 67.0709C47.4852 67.7032 47.2252 68.2789 47.1057 68.856C46.8888 70.014 46.5853 70.9986 46.4768 71.8426C46.3033 73.532 46.1624 74.4935 46.1624 74.4935L48.1035 74.6239Z" fill="#28579B"/>
<path d="M101.282 36.3901C100.664 37.363 100.176 38.3853 99.8615 39.3355C99.5142 40.3571 98.5927 41.141 97.6384 41.9997C96.8576 42.711 96.0227 43.5232 95.4263 44.4919C93.9949 46.7755 92.7262 47.7208 92.5092 47.7374C92.3682 47.5235 92.5633 45.9739 93.8649 43.609C94.4179 42.6071 94.7104 41.5193 94.9599 40.4546C95.2528 39.1957 95.5022 37.9843 96.2177 37.2001C96.8795 36.4737 97.5299 35.5586 98.0833 34.5382C99.5142 31.9299 100.111 28.4872 97.8338 27.5136C96.717 27.0158 95.5892 27.4051 94.6458 28.2793C93.702 29.1399 92.9106 30.5496 92.3902 31.9367C91.9888 33.0188 91.7284 34.1107 91.6203 35.0889C91.4899 36.1604 90.7525 37.1158 89.9936 38.1869C89.3646 39.0815 88.7357 40.0185 88.3559 41.0987C87.4235 43.6329 86.3826 44.8136 86.1762 44.8725C86.0031 44.6881 85.8727 43.1222 86.6426 40.5382C86.979 39.4417 87.0331 38.315 87.055 37.2167C87.0875 35.9184 87.0765 34.6792 87.6079 33.766C88.1068 32.9202 88.5513 31.8887 88.8658 30.7775C89.2777 29.3493 89.4837 27.7618 89.2562 26.4832C89.0177 25.222 88.3453 24.2419 87.1525 23.9793C85.9703 23.7211 84.9509 24.3134 84.2029 25.3826C83.4656 26.4734 82.9882 27.9773 82.7607 29.4554C82.5982 30.5972 82.5653 31.7209 82.6628 32.7002C82.7713 33.7562 82.2402 34.873 81.7304 36.0662C81.2859 37.0712 80.8739 38.1166 80.722 39.2531C80.3425 41.9241 79.5727 43.2893 79.3772 43.3868C79.1607 43.2413 78.7158 41.7298 78.9328 39.0426C79.0409 37.8997 78.8568 36.7847 78.6508 35.7038C78.4123 34.4112 78.1413 33.2573 78.4773 32.2228C78.7808 31.2696 79.0087 30.1875 79.0953 29.0272C79.3447 26.0225 78.4773 22.7789 76.0157 22.74C74.801 22.7377 73.9336 23.4947 73.4347 24.7288C72.9252 25.9488 72.7623 27.5166 72.8493 29.008C72.9252 30.1615 73.1312 31.2666 73.4241 32.2054C73.7386 33.2183 73.4566 34.4188 73.1962 35.6898C72.9793 36.7613 72.7842 37.8695 72.8708 39.0135C73.0447 41.7049 72.5783 43.1948 72.4154 43.3293C72.1769 43.2284 71.4179 41.8383 71.0706 39.1643C70.9406 38.0256 70.5396 36.9692 70.1167 35.9521C69.6178 34.7778 69.1083 33.6813 69.2273 32.608C69.3248 31.6124 69.3143 30.4793 69.1623 29.3319C68.7829 26.3706 67.2756 23.3625 64.8359 23.8266C64.2391 23.9404 63.7621 24.2386 63.4042 24.6638C63.0572 25.0965 62.8403 25.6929 62.7209 26.3336C62.4718 27.6273 62.6449 29.192 63.0463 30.6309C63.3502 31.7458 63.7837 32.7845 64.272 33.6436C64.803 34.5684 64.7595 35.8013 64.7815 37.0928C64.7815 38.185 64.8249 39.3053 65.15 40.4055C65.8874 42.9998 65.7358 44.5494 65.5944 44.7119C65.3454 44.6597 64.3151 43.4495 63.4258 40.9067C63.0463 39.8125 62.4393 38.8918 61.821 38.0093C61.0836 36.9627 60.3572 35.9914 60.2377 34.9199C60.1512 33.9266 59.9017 32.8227 59.5003 31.7342C58.5135 28.9177 56.3992 26.2825 54.1107 27.2218C52.9614 27.6557 52.5494 28.8526 52.5713 30.1418C52.6038 31.4518 53.1027 32.9428 53.7967 34.2672C54.3277 35.2929 54.957 36.22 55.6184 36.9608C56.3338 37.7598 56.5508 38.9667 56.8437 40.2226C57.0716 41.2854 57.3426 42.3694 57.885 43.3781C59.1534 45.7604 59.3159 47.2971 59.2184 47.4834C58.9474 47.4607 57.7221 46.5521 56.3123 44.25C55.7269 43.2662 54.935 42.4869 54.1436 41.7484C53.1999 40.8723 52.289 40.0695 51.953 39.0494C51.6495 38.1015 51.1831 37.0753 50.5757 36.0919C49.0144 33.5426 46.3903 31.3944 44.3301 32.7607C42.3779 34.2691 43.5817 37.4488 45.501 39.7343C46.2384 40.627 47.0517 41.4033 47.8541 41.9933C48.7215 42.632 49.1769 43.7633 49.7083 44.9277C50.1532 45.9157 50.6411 46.9176 51.3895 47.7903C53.1243 49.8649 53.5797 51.3049 53.5472 51.5393C53.3083 51.6077 51.9095 50.9557 50.0553 48.9941C49.2744 48.1536 48.3315 47.5507 47.4096 46.9891C46.3034 46.3208 45.2296 45.7237 44.6986 44.7966C44.2106 43.9345 43.5383 43.0289 42.7359 42.194C41.7056 41.1161 40.4587 40.1693 39.2224 39.7225C38.6041 39.4992 37.9971 39.3994 37.4332 39.4655C36.8583 39.523 36.3598 39.7671 35.969 40.2335C34.3427 42.1017 36.1534 44.9492 38.5175 46.7906C39.4065 47.5129 40.3827 48.1025 41.2936 48.5178C42.2695 48.9672 42.9524 49.9722 43.7117 50.9991C44.3516 51.8699 45.024 52.7437 45.9349 53.4498C48.0601 55.1143 48.8734 56.4776 48.8625 56.6976C48.6346 56.8106 47.1167 56.4568 44.9046 54.9216C43.9718 54.2609 42.9199 53.8641 41.89 53.5042C40.6643 53.0756 39.4934 52.709 38.7779 51.9146C38.1271 51.1749 37.2922 50.43 36.3379 49.7791C35.0906 48.9397 33.6703 48.2707 32.369 48.0851C31.7185 47.9952 31.0787 48.0106 30.5688 48.2057C30.0484 48.4022 29.6145 48.7533 29.311 49.2825C28.0857 51.4372 30.4388 53.8349 33.1279 55.1536C34.1582 55.6687 35.232 56.0426 36.2079 56.2629C37.2593 56.5014 38.1271 57.334 39.0924 58.1875C39.9163 58.9162 40.7837 59.6418 41.825 60.1384C44.2431 61.3248 45.3165 62.4851 45.3494 62.6987C45.143 62.8536 43.5817 62.8192 41.0982 61.7802C40.0358 61.3312 38.9295 61.1589 37.8346 61.0209C36.5439 60.8542 35.3185 60.7413 34.4617 60.1124C33.6812 59.528 32.694 58.9762 31.6207 58.5401C30.2438 57.9773 28.7036 57.6182 27.3808 57.707C26.0904 57.8015 25.0601 58.3742 24.6697 59.5322C24.2903 60.6925 24.7892 61.7704 25.765 62.614C26.7519 63.4686 28.2157 64.1016 29.6474 64.4758C30.7752 64.7657 31.8916 64.9078 32.8679 64.9108C33.9303 64.9161 34.9931 65.5617 36.1209 66.1947C37.0753 66.7337 38.0731 67.2617 39.1895 67.5308C41.8031 68.1835 43.0828 69.0932 43.1694 69.2951C42.9959 69.4878 41.4452 69.7808 38.7995 69.2841C37.6717 69.0649 36.5439 69.1292 35.4489 69.2214C34.1473 69.3242 32.9439 69.4761 31.957 69.0358C31.0677 68.6291 29.9943 68.2943 28.8555 68.0913C27.3917 67.8309 25.776 67.7973 24.5613 68.1662C23.325 68.5275 22.4251 69.2951 22.2735 70.503C22.1541 71.5451 22.6964 72.3833 23.5638 72.9926L40.8057 74.1378C39.9704 73.9503 39.0814 73.8071 38.1815 73.7421C37.3247 73.6816 36.4569 73.3898 35.5245 73.058C34.1257 72.5598 32.6835 71.9668 31.0567 72.2303C30.2438 72.3648 29.2891 72.3996 28.3136 72.3142C25.6241 72.095 24.2903 71.0628 24.2037 70.7514C24.3662 70.3976 25.906 69.6843 28.5736 70.0608C29.5604 70.1927 30.4713 70.4346 31.2306 70.746C32.7485 71.3564 34.2992 71.0953 35.7849 70.9184C36.7608 70.7967 37.6826 70.7056 38.5285 70.8337C40.0033 71.0548 41.5536 71.0952 42.7574 70.9304C43.9827 70.7653 44.9046 70.4184 45.0455 69.7309C45.2081 69.0423 44.5357 68.3472 43.4623 67.6823C42.4214 67.0285 41.0116 66.4234 39.5694 66.0072C38.7454 65.7695 37.9427 65.3043 37.1078 64.7872C35.839 64.0075 34.5487 63.1261 32.9004 63.049C32.087 63.0109 31.1437 62.8506 30.2113 62.5641C27.6193 61.792 26.524 60.4994 26.5134 60.1766C26.7303 59.8595 28.3895 59.4778 30.9267 60.4019C31.8486 60.7337 32.694 61.163 33.3774 61.626C34.7437 62.5414 36.3054 62.6064 37.7907 62.741C38.767 62.8253 39.6778 62.9274 40.4802 63.2301C41.89 63.757 43.3754 64.1073 44.6226 64.218C45.8695 64.3186 46.8238 64.1636 47.1058 63.5207C47.6152 62.2451 45.165 60.183 42.5405 58.743C41.7815 58.3382 41.0982 57.7146 40.3933 57.0317C39.298 56.0002 38.214 54.8653 36.6308 54.4488C35.839 54.2416 34.9606 53.8878 34.0932 53.4109C31.7401 52.116 30.9267 50.6174 30.9592 50.2954C31.2631 50.0339 32.9329 50.0013 35.232 51.4338C36.0669 51.9535 36.8039 52.551 37.3791 53.1474C38.5175 54.3293 40.0358 54.7178 41.4452 55.1578C42.3779 55.4375 43.2778 55.7455 44.0047 56.2073C46.5313 57.794 49.6324 58.9966 50.4132 57.8688C50.7927 57.2724 50.5107 56.3982 49.8384 55.38C49.1664 54.364 48.0926 53.2178 46.9648 52.2536C46.3034 51.7018 45.761 50.9458 45.1975 50.1272C44.3516 48.8879 43.5163 47.5477 42.0635 46.8156C41.3261 46.449 40.5452 45.9232 39.7973 45.2769C37.7586 43.5179 37.2593 41.8761 37.3791 41.5692C37.7042 41.3621 39.3634 41.6898 41.3151 43.58C42.02 44.2595 42.6164 44.9916 43.0394 45.6832C43.9177 47.0801 45.3056 47.7646 46.6288 48.5178C47.5071 49.0062 48.3095 49.4831 48.9275 50.086C51.0641 52.1625 53.8397 53.9718 54.816 53.0065C55.8784 52.1224 54.4361 49.1956 52.6254 46.8122C52.094 46.1368 51.7145 45.2822 51.3456 44.3615C50.7496 42.968 50.2178 41.4781 48.9494 40.4675C48.3095 39.9602 47.6481 39.2822 47.0517 38.4972C45.425 36.3557 45.2734 34.6356 45.436 34.3571C45.8154 34.2498 47.3987 34.9403 48.9059 37.1774C49.4589 37.9896 49.8818 38.8302 50.1638 39.599C50.7171 41.1236 51.953 42.1116 53.0808 43.1094C53.8397 43.7632 54.5231 44.3929 54.9895 45.1087C55.8244 46.3545 56.8437 47.5454 57.7655 48.3422C58.7199 49.1502 59.5328 49.5093 60.1512 49.1804C61.3765 48.5591 60.5631 45.3495 59.2834 42.6517C58.9039 41.8814 58.7199 40.9641 58.5354 39.9807C58.2425 38.4753 58.0475 36.9585 56.9956 35.6735C56.4748 35.0378 55.9763 34.2464 55.5534 33.354C54.3931 30.9 54.6315 29.2321 54.8591 29.0133C55.2495 28.9804 56.6487 29.974 57.6571 32.4746C58.0365 33.3854 58.275 34.2997 58.3944 35.1108C58.6114 36.7231 59.6198 37.9401 60.5091 39.1458C61.1055 39.9372 61.6475 40.692 61.9619 41.4914C62.5149 42.8815 63.2527 44.2531 64.0006 45.2207C64.3695 45.7041 64.749 46.0857 65.1069 46.3125C65.4644 46.5423 65.8224 46.6712 66.1693 46.5684C67.4816 46.1909 67.3406 42.8682 66.6576 39.9622C66.4513 39.1337 66.4513 38.1775 66.4838 37.2088C66.5272 35.7223 66.6467 34.1681 65.8874 32.7032C65.5189 31.9681 65.1934 31.0746 64.9659 30.1161C64.3476 27.4916 64.9224 25.9084 65.1934 25.7342C65.5839 25.7818 66.7442 27.035 67.1996 29.692C67.3731 30.6604 67.4271 31.6071 67.3621 32.4258C67.2537 34.0544 67.9695 35.4491 68.5984 36.8112C69.0213 37.707 69.3902 38.5569 69.5202 39.4017C70.0407 42.3633 71.201 45.3245 72.5783 45.2637C73.9446 45.1541 74.4975 41.8448 74.4325 38.8899C74.4109 38.0343 74.606 37.1351 74.8448 36.1819C75.1918 34.7343 75.6363 33.2357 75.2024 31.6502C74.9854 30.8524 74.8554 29.912 74.8339 28.9286C74.7795 26.2327 75.6688 24.7968 75.9723 24.6811C76.3302 24.8066 77.1976 26.2663 77.1001 28.9623C77.0785 29.9457 76.9266 30.8826 76.6991 31.6722C76.2433 33.2456 76.6666 34.7573 76.9916 36.2155C77.2191 37.1766 77.4036 38.0818 77.3711 38.9387C77.2951 40.4308 77.4145 41.9823 77.6965 43.16C78 44.3411 78.4448 45.2388 79.1388 45.3136C79.8436 45.3971 80.4726 44.6556 81.0149 43.5319C81.5679 42.3958 82.0123 40.946 82.2833 39.4644C82.4243 38.6208 82.8041 37.7814 83.2377 36.8966C83.8775 35.5496 84.6149 34.1715 84.5284 32.5331C84.4739 31.7088 84.539 30.762 84.7234 29.796C85.2223 27.1458 86.3826 25.9205 86.708 25.8683C87.044 26.0645 87.597 27.6696 86.9465 30.2862C86.708 31.2428 86.3716 32.1295 85.9812 32.8563C85.2223 34.305 85.3092 35.8678 85.3413 37.3607C85.3523 38.3445 85.3523 39.2682 85.1354 40.0978C84.7669 41.5465 84.5609 43.0799 84.593 44.2995C84.6259 45.5513 84.8753 46.4879 85.5477 46.7071C86.2087 46.9317 86.979 46.3155 87.7489 45.3453C88.4972 44.3963 89.2562 43.0376 89.8201 41.6539C90.1455 40.859 90.6875 40.116 91.2949 39.3366C92.2057 38.1491 93.2251 36.9529 93.4635 35.3353C93.5826 34.5208 93.854 33.6076 94.2334 32.7024C95.2743 30.2148 96.6731 29.2536 96.9985 29.2668C97.2805 29.5269 97.4974 31.2035 96.3156 33.6273C95.8817 34.5144 95.3722 35.3111 94.8298 35.9423C93.778 37.2024 93.5505 38.7478 93.2576 40.2082C93.0731 41.1712 92.8781 42.0715 92.4986 42.8369C91.197 45.5068 90.308 48.7307 91.5008 49.4008C91.9347 49.6502 92.5092 49.4767 93.1056 49.1275C93.713 48.773 94.396 48.169 95.0683 47.4403L104.709 33.0861C103.429 33.6749 102.204 34.96 101.282 36.3901Z" fill="#28579B"/>
<path d="M91.0019 53.5224C91.0019 53.5224 91.1864 53.6528 91.5224 53.8977C91.6962 54.0179 91.9128 54.1668 92.1732 54.3414C92.2923 54.4272 92.4332 54.5202 92.5742 54.6177C92.7156 54.7349 92.8562 54.8596 92.9972 54.9919C93.301 55.2489 93.637 55.5354 93.9949 55.8464C94.179 55.9984 94.3635 56.1578 94.5698 56.3226C94.7429 56.5089 94.9274 56.7032 95.1118 56.9039C95.4913 57.305 95.9036 57.7256 96.3481 58.1648C96.7385 58.6334 97.1286 59.1656 97.5519 59.6883C99.1891 61.8453 100.816 64.6093 101.878 67.8204C102.952 71.0227 103.462 74.6379 103.223 78.2825C102.974 81.9252 101.998 85.4428 100.501 88.4747C99.0372 91.5176 97.0639 94.0431 95.1553 95.9657C94.6564 96.4257 94.2119 96.9027 93.7455 97.3146C93.2466 97.6907 92.7912 98.0539 92.3573 98.4009C92.1517 98.5759 91.9347 98.7437 91.7393 98.9055C91.5224 99.0419 91.3164 99.1746 91.0994 99.3023C90.709 99.5616 90.3405 99.8012 90.0045 100.018C89.8526 100.129 89.6897 100.233 89.5491 100.333C89.3862 100.411 89.2343 100.483 89.1042 100.553C88.8332 100.692 88.5944 100.811 88.4103 100.907C88.0305 101.105 87.8354 101.209 87.8354 101.209L88.6923 102.954C88.6923 102.954 88.9092 102.841 89.3102 102.631C89.5056 102.528 89.7551 102.4 90.0476 102.251C90.1995 102.177 90.3515 102.098 90.5246 102.013C90.6875 101.908 90.85 101.796 91.0239 101.678C91.3708 101.447 91.7718 101.191 92.2057 100.912C92.4117 100.776 92.6396 100.634 92.8671 100.486C93.0841 100.314 93.3116 100.134 93.5395 99.9497C94.0059 99.5843 94.5044 99.195 95.0143 98.7849C95.5132 98.3446 95.9902 97.8362 96.5216 97.3426C98.5602 95.2869 100.686 92.5834 102.258 89.3236C103.852 86.0758 104.893 82.3047 105.164 78.4117C105.414 74.5177 104.882 70.641 103.733 67.2119C102.594 63.771 100.859 60.812 99.1026 58.5042C98.6362 57.9437 98.2348 57.3768 97.8009 56.8756C97.3349 56.3994 96.901 55.9492 96.4891 55.5255C96.2937 55.3116 96.0877 55.1049 95.9036 54.9053C95.6867 54.7273 95.4913 54.5572 95.2853 54.3932C94.8949 54.0617 94.5479 53.7548 94.2225 53.4782C94.06 53.3394 93.908 53.206 93.767 53.0813C93.6155 52.9751 93.4635 52.8761 93.3335 52.7832C93.0625 52.5953 92.8346 52.4369 92.6502 52.3081C92.2817 52.0458 92.0863 51.9055 92.0863 51.9055L91.0019 53.5224Z" fill="#28579B"/>
<path d="M97.5409 118.638C97.0095 117.612 96.359 116.685 95.6976 115.944C94.9927 115.146 94.7758 113.938 94.4938 112.683C94.255 111.62 93.984 110.537 93.442 109.527C92.1732 107.146 91.9997 105.608 92.1078 105.421C92.3792 105.444 93.6045 106.354 95.0143 108.655C95.5997 109.639 96.3915 110.419 97.183 111.157C98.1157 112.034 99.0372 112.836 99.3736 113.856C99.6665 114.805 100.143 115.831 100.75 116.813C102.301 119.363 104.926 121.512 106.986 120.144C108.949 118.637 107.745 115.456 105.826 113.171C105.099 112.278 104.275 111.503 103.472 110.912C102.605 110.273 102.149 109.143 101.607 107.978C101.163 106.99 100.686 105.989 99.9375 105.115C98.2023 103.041 97.7469 101.601 97.7794 101.367C98.0179 101.299 99.4276 101.949 101.271 103.911C102.052 104.751 102.995 105.354 103.928 105.916C105.023 106.585 106.097 107.182 106.617 108.109C107.116 108.972 107.788 109.876 108.591 110.711C109.621 111.789 110.868 112.736 112.104 113.184C112.712 113.407 113.329 113.505 113.893 113.44C114.468 113.383 114.978 113.138 115.368 112.672C116.984 110.805 115.162 107.956 112.809 106.115C111.909 105.393 110.955 104.803 110.033 104.387C109.057 103.939 108.374 102.933 107.615 101.906C106.986 101.035 106.303 100.161 105.392 99.4561C103.266 97.792 102.453 96.4276 102.464 96.2077C102.681 96.0947 104.21 96.4484 106.422 97.9848C107.365 98.6454 108.406 99.0419 109.437 99.401C110.651 99.8304 111.833 100.196 112.538 100.991C113.189 101.73 114.034 102.475 114.999 103.126C116.236 103.966 117.656 104.635 118.958 104.821C119.608 104.91 120.237 104.895 120.768 104.699C121.278 104.503 121.712 104.151 122.016 103.623C123.241 101.468 120.888 99.0703 118.198 97.7528C117.157 97.2365 116.106 96.8626 115.119 96.6434C114.056 96.4038 113.199 95.5712 112.234 94.7178C111.41 93.9891 110.532 93.2634 109.502 92.7668C107.083 91.5815 106.021 90.4212 105.978 90.2077C106.173 90.0512 107.745 90.086 110.239 91.1249C111.28 91.5751 112.397 91.7463 113.492 91.8839C114.772 92.0509 116.008 92.164 116.854 92.7929C117.646 93.3772 118.621 93.9301 119.695 94.3663C121.083 94.929 122.623 95.287 123.935 95.1978C125.236 95.1036 126.266 94.5322 126.646 93.3741C127.036 92.2134 126.527 91.1359 125.572 90.2923C124.575 89.4367 123.111 88.8032 121.669 88.429C120.551 88.1395 119.435 87.9978 118.459 87.9944C117.396 87.9887 116.344 87.3439 115.206 86.7105C114.251 86.1715 113.254 85.6442 112.148 85.3744C109.523 84.7228 108.244 83.812 108.168 83.6113C108.331 83.417 109.881 83.1256 112.527 83.6211C113.655 83.8399 114.783 83.7761 115.878 83.6839C117.19 83.5818 118.383 83.4291 119.37 83.8694C120.259 84.2769 121.332 84.6109 122.471 84.8139C123.935 85.0739 125.54 85.1076 126.765 84.7402C127.99 84.3781 128.901 83.6101 129.042 82.4033C129.173 81.1942 128.5 80.2509 127.34 79.6239C126.169 78.995 124.629 78.6771 123.143 78.609C121.994 78.5569 120.866 78.648 119.901 78.8475C118.86 79.0611 117.7 78.6491 116.463 78.2633C115.412 77.9333 114.327 77.6234 113.189 77.5897C110.488 77.4918 109.057 76.8641 108.938 76.683C109.068 76.4585 110.521 75.8523 113.221 75.7918C114.36 75.7744 115.455 75.4796 116.507 75.1648C117.754 74.7951 118.882 74.4013 119.944 74.6292C120.931 74.8428 122.037 74.9489 123.186 74.9145C126.201 74.8492 129.335 73.6598 129.129 71.1929C128.945 68.7215 125.475 68.1825 122.558 68.6946C121.419 68.8829 120.335 69.2041 119.424 69.5998C118.459 70.025 117.233 69.8621 115.943 69.7419C114.859 69.6346 113.731 69.5552 112.614 69.7601C109.957 70.2246 108.417 69.909 108.276 69.757C108.352 69.5121 109.654 68.6164 112.278 67.9958C113.394 67.7422 114.425 67.2198 115.357 66.699C116.474 66.0852 117.515 65.4597 118.589 65.4616C119.586 65.4661 120.714 65.3357 121.842 65.0583C124.737 64.3731 127.579 62.5491 126.874 60.171C126.689 59.5897 126.375 59.143 125.887 58.8459C125.399 58.5496 124.802 58.3848 124.141 58.3319C122.829 58.2245 121.3 58.5617 119.901 59.1075C118.828 59.5312 117.841 60.0712 117.038 60.6495C116.171 61.2697 114.945 61.365 113.666 61.5146C112.581 61.6371 111.475 61.7921 110.412 62.2294C107.908 63.2377 106.357 63.2475 106.184 63.1281C106.216 62.8681 107.311 61.7183 109.729 60.5712C110.77 60.0875 111.627 59.3815 112.441 58.6725C113.405 57.8364 114.295 57.0034 115.347 56.7823C116.322 56.5804 117.396 56.2184 118.437 55.7131C121.126 54.4344 123.544 52.0522 122.384 49.8662C121.799 48.7969 120.584 48.4976 119.305 48.6548C118.003 48.8196 116.572 49.467 115.336 50.2909C114.36 50.9278 113.514 51.6629 112.842 52.398C112.115 53.1864 110.944 53.5334 109.729 53.9424C108.699 54.284 107.647 54.6646 106.704 55.3128C104.47 56.8201 102.952 57.1432 102.768 57.0608C102.735 56.8084 103.516 55.4908 105.652 53.8531C106.574 53.1634 107.268 52.293 107.918 51.4267C108.699 50.404 109.393 49.402 110.38 48.9704C111.291 48.5724 112.267 47.9975 113.178 47.2874C114.349 46.3701 115.423 45.2237 115.997 44.0483C116.561 42.8857 116.648 41.6475 115.835 40.7442C114.143 38.9504 111.106 40.4676 109.036 42.6113C108.222 43.4356 107.539 44.3325 107.029 45.1931C106.487 46.1184 105.403 46.6955 104.307 47.3437C103.375 47.8879 102.432 48.4726 101.64 49.3034C99.775 51.2271 98.3433 51.8788 98.1158 51.8602C98.0288 51.627 98.5387 50.1598 100.295 48.1158C101.043 47.2526 101.553 46.2518 102.009 45.265C102.562 44.1001 103.05 42.9693 103.917 42.349C104.719 41.7742 105.544 41.0118 106.292 40.1282C107.257 38.9875 108.07 37.6416 108.385 36.3687C108.71 35.0942 108.548 33.8776 107.528 33.1924C106.682 32.5831 105.663 32.6372 104.709 33.0862L95.0683 47.4404C95.6538 46.8156 96.2286 46.1108 96.7385 45.3693C97.2155 44.6598 97.9094 44.0437 98.6577 43.4054C99.8071 42.4291 101.043 41.4654 101.629 39.9407C101.911 39.1716 102.356 38.3356 102.92 37.5301C104.459 35.3134 106.032 34.6573 106.357 34.7344C106.585 35.0458 106.444 36.7213 104.774 38.8432C104.177 39.6198 103.505 40.2941 102.844 40.8028C101.553 41.8222 101.011 43.272 100.414 44.6466C100.024 45.5676 99.6336 46.4211 99.1026 47.0901C97.248 49.4409 95.7407 52.3927 96.7925 53.2787C97.0745 53.4998 97.4324 53.5606 97.8444 53.513C98.2673 53.4551 98.7772 53.2635 99.3086 52.9793C100.403 52.4101 101.651 51.472 102.725 50.4387C103.342 49.8446 104.155 49.3823 105.034 48.9107C106.357 48.1884 107.777 47.499 108.656 46.1304C109.09 45.4406 109.697 44.7161 110.412 44.0438C112.386 42.1952 114.067 41.8709 114.36 42.0096C114.544 42.3415 113.991 44.003 111.931 45.7313C111.183 46.3667 110.391 46.8829 109.664 47.2352C108.201 47.9423 107.344 49.2761 106.476 50.5102C105.902 51.3254 105.338 52.0772 104.676 52.6203C102.388 54.5399 100.306 57.1024 101.174 58.1746C101.911 59.3383 105.012 58.1864 107.55 56.6326C108.287 56.1795 109.176 55.8929 110.131 55.6102C111.573 55.1733 113.123 54.7893 114.262 53.6354C114.826 53.053 115.574 52.4695 116.409 51.9622C118.708 50.5589 120.443 50.5793 120.682 50.7963C120.736 51.1837 119.901 52.6793 117.515 53.9454C116.648 54.4107 115.77 54.7523 114.978 54.9473C113.394 55.3389 112.289 56.4659 111.183 57.4872C110.456 58.1637 109.751 58.7821 109.003 59.1766C107.669 59.8664 106.379 60.75 105.5 61.5936C104.589 62.4504 104.177 63.2173 104.394 63.8874C104.904 65.1626 108.179 64.6766 111.009 63.689C111.811 63.3961 112.744 63.2982 113.741 63.2203C115.227 63.102 116.778 63.0608 118.166 62.1575C118.86 61.7021 119.706 61.2837 120.638 60.9628C123.186 60.0682 124.813 60.4745 125.008 60.7263C125.008 61.1189 123.87 62.4036 121.278 63.1436C120.335 63.4199 119.402 63.5695 118.589 63.5945C116.951 63.6508 115.639 64.5193 114.349 65.2862C113.503 65.7945 112.69 66.2534 111.877 66.4798C110.423 66.877 108.981 67.4712 107.951 68.1088C107.43 68.4297 107.029 68.7562 106.736 69.0945C106.444 69.435 106.303 69.7774 106.368 70.1255C106.617 71.4726 109.935 71.6831 112.907 71.3055C113.752 71.1876 114.663 71.2926 115.639 71.4272C117.114 71.6233 118.654 71.9053 120.183 71.3131C120.953 71.0126 121.875 70.7817 122.85 70.6637C125.529 70.3221 127.047 71.0583 127.188 71.3467C127.101 71.7273 125.735 72.7455 123.046 72.9277C122.07 73.0003 121.126 72.9518 120.313 72.8041C118.708 72.5191 117.244 73.0936 115.824 73.5721C114.891 73.8929 114.002 74.1715 113.156 74.2203C111.66 74.308 110.131 74.5891 108.981 74.9958C107.864 75.4066 106.997 75.9403 106.997 76.6463C106.975 78.0243 110.195 78.9213 113.134 79.1639C113.991 79.2248 114.869 79.5154 115.791 79.8484C117.201 80.3461 118.643 80.9384 120.259 80.6757C121.083 80.5416 122.027 80.5056 123.002 80.5911C125.692 80.8103 127.036 81.8424 127.123 82.1539C126.96 82.5073 125.421 83.2208 122.742 82.8444C121.766 82.7121 120.855 82.4717 120.085 82.1603C118.567 81.5488 117.027 81.8099 115.542 81.9868C114.566 82.1082 113.644 82.1992 112.798 82.0715C111.323 81.8512 109.762 81.8099 108.558 81.9747C107.344 82.1399 106.411 82.4868 106.27 83.1755C106.118 83.8626 106.801 84.558 107.853 85.2225C108.905 85.8763 110.315 86.4826 111.757 86.8979C112.581 87.1353 113.373 87.6009 114.208 88.1191C115.488 88.8977 116.778 89.779 118.415 89.8561C119.24 89.8943 120.172 90.0558 121.115 90.3419C123.696 91.1133 124.802 92.4059 124.824 92.7298C124.586 93.0454 122.937 93.4282 120.411 92.503C119.478 92.1715 118.632 91.7418 117.949 91.2792C116.593 90.3638 115.021 90.2995 113.546 90.1642C112.56 90.0795 111.638 89.9775 110.835 89.6763C109.426 89.1482 107.962 88.7979 106.704 88.6883C105.457 88.5874 104.503 88.7416 104.221 89.3845C103.711 90.6597 106.151 92.7234 108.786 94.1622C109.545 94.567 110.228 95.1902 110.944 95.8736C112.028 96.9046 113.113 98.0411 114.685 98.4565C115.488 98.6636 116.366 99.017 117.222 99.4943C119.586 100.789 120.411 102.288 120.356 102.61C120.074 102.871 118.383 102.905 116.106 101.471C115.271 100.952 114.522 100.355 113.948 99.7589C112.809 98.5759 111.302 98.1889 109.881 97.7482C108.949 97.4674 108.048 97.1598 107.333 96.6979C104.806 95.1113 101.694 93.9086 100.913 95.0364C100.534 95.6339 100.816 96.5066 101.488 97.5248C102.171 98.5411 103.223 99.6875 104.362 100.651C105.023 101.203 105.565 101.959 106.118 102.778C106.986 104.017 107.81 105.357 109.263 106.09C109.99 106.456 110.781 106.983 111.519 107.628C113.568 109.387 114.056 111.029 113.948 111.336C113.633 111.543 111.963 111.217 110.022 109.326C109.307 108.645 108.71 107.914 108.287 107.222C107.409 105.826 106.021 105.142 104.687 104.387C103.819 103.899 103.017 103.422 102.41 102.819C100.263 100.742 97.4868 98.9339 96.5 99.8988C95.4482 100.782 96.89 103.709 98.7118 106.093C99.2326 106.768 99.6121 107.623 99.9915 108.544C100.566 109.938 101.108 111.427 102.377 112.438C103.017 112.945 103.678 113.623 104.264 114.408C105.902 116.551 106.054 118.27 105.891 118.548C105.511 118.655 103.939 117.965 102.421 115.729C101.868 114.916 101.434 114.075 101.163 113.306C100.61 111.782 99.3736 110.795 98.2348 109.796C97.4868 109.143 96.8035 108.512 96.3261 107.796C95.5022 106.551 94.4938 105.361 93.5505 104.563C92.6071 103.755 91.7937 103.397 91.1648 103.724C90.297 104.167 90.4815 105.861 91.0669 107.777L98.7118 123.277C98.8312 121.853 98.3217 120.143 97.5409 118.638Z" fill="#28579B"/>
<path d="M87.8355 101.209C87.8355 101.209 87.6404 101.316 87.261 101.518C86.8705 101.69 86.2847 101.893 85.5583 102.199C84.116 102.826 81.9258 103.391 79.2578 103.83C76.5797 104.158 73.3482 104.114 70.0297 103.444C66.7117 102.776 63.3173 101.403 60.3352 99.3825C57.3211 97.3774 54.74 94.7423 52.8423 91.9361C50.9446 89.1275 49.6324 86.1998 49.0035 83.5719C48.7759 82.9355 48.7109 82.2862 48.5915 81.6845C48.494 81.0759 48.3205 80.5131 48.277 79.9632C48.2336 78.8626 48.0601 77.9159 48.0711 77.121C48.1251 75.5325 48.1036 74.6239 48.1036 74.6239L46.1624 74.4935C46.1624 74.4935 46.1843 75.4664 46.1299 77.1656C46.1189 78.0145 46.2928 79.0308 46.3468 80.2085C46.3903 80.7962 46.5744 81.4002 46.6723 82.0507C46.8023 82.697 46.8782 83.3909 47.1277 84.0743C47.7997 86.8874 49.1985 90.0254 51.2266 93.0313C53.2653 96.0326 56.0304 98.851 59.2513 100.999C62.4499 103.162 66.0828 104.633 69.6287 105.349C73.1856 106.068 76.6447 106.112 79.5077 105.759C82.3593 105.297 84.7124 104.682 86.2632 104.015C87.044 103.69 87.6729 103.468 88.0849 103.283C88.4753 103.069 88.6923 102.954 88.6923 102.954L87.8355 101.209Z" fill="#28579B"/>
<path d="M28.1832 74.2962C29.3435 74.3484 30.4604 74.2585 31.4257 74.0589C32.4665 73.8442 33.6269 74.2562 34.8741 74.6425C35.915 74.972 36.9884 75.282 38.1381 75.3156C40.8382 75.4143 42.2695 76.042 42.3889 76.2234C42.2695 76.4468 40.8057 77.0538 38.1162 77.1135C36.9559 77.1309 35.8715 77.4261 34.8091 77.7413C33.5618 78.1102 32.445 78.5036 31.3822 78.2761C30.3954 78.0637 29.2891 77.9552 28.1292 77.9918C25.1146 78.0568 21.9912 79.2455 22.1976 81.7136C22.371 84.1839 25.8516 84.7228 28.769 84.2107C29.9184 84.0232 30.9918 83.7024 31.8917 83.3055C32.8679 82.8815 34.0932 83.0428 35.3836 83.1634C36.4683 83.2718 37.5848 83.3498 38.7235 83.1449C41.3806 82.6808 42.8984 82.9964 43.0504 83.1483C42.9744 83.3932 41.6731 84.2889 39.049 84.9103C37.9317 85.1643 36.9018 85.6866 35.969 86.2063C34.8522 86.8201 33.8113 87.4467 32.7379 87.4433C31.7401 87.4392 30.6123 87.5692 29.4845 87.8466C26.5784 88.5322 23.7483 90.357 24.4528 92.7343C24.6372 93.3156 24.9627 93.7631 25.44 94.0594C25.9276 94.3553 26.524 94.5201 27.1858 94.5734C28.4867 94.6819 30.0269 94.3444 31.4147 93.7979C32.4885 93.3749 33.4749 92.8337 34.2883 92.2573C35.1561 91.6356 36.3814 91.5404 37.6607 91.3907C38.7455 91.269 39.8514 91.1133 40.9142 90.6771C43.4079 89.6676 44.9586 89.6589 45.1431 89.778C45.1106 90.0373 44.0153 91.187 41.5971 92.334C40.5562 92.8178 39.7104 93.5234 38.8864 94.2336C37.9212 95.07 37.0318 95.9019 35.98 96.123C35.0041 96.3256 33.9304 96.6877 32.8895 97.1934C30.1894 98.4705 27.7928 100.853 28.9535 103.039C29.528 104.108 30.7533 104.408 32.0221 104.251C33.3234 104.087 34.7547 103.438 36.0015 102.615C36.9559 101.977 37.8233 101.242 38.4851 100.508C39.2009 99.7188 40.3828 99.3731 41.5971 98.963C42.6274 98.6213 43.6793 98.2407 44.6336 97.5933C46.8673 96.086 48.3636 95.7617 48.57 95.8445C48.6025 96.097 47.8216 97.4156 45.6745 99.0529C44.7527 99.7415 44.0587 100.612 43.4079 101.48C42.6274 102.501 41.9225 103.504 40.9467 103.935C40.0358 104.333 39.0595 104.908 38.1596 105.619C36.9668 106.535 35.9044 107.681 35.3295 108.857C34.7656 110.02 34.6787 111.258 35.4921 112.161C37.1838 113.954 40.2089 112.439 42.2914 110.294C43.1044 109.47 43.7877 108.573 44.2972 107.713C44.8396 106.788 45.913 106.21 47.0192 105.562C47.9516 105.018 48.8954 104.433 49.6868 103.603C51.552 101.678 52.9833 101.027 53.2112 101.045C53.2978 101.278 52.7883 102.746 51.0312 104.789C50.2832 105.654 49.7734 106.654 49.3179 107.64C48.765 108.805 48.2771 109.936 47.4097 110.556C46.6073 111.131 45.772 111.894 45.024 112.777C44.0697 113.918 43.2563 115.264 42.9309 116.538C42.6055 117.812 42.7794 119.027 43.7987 119.713C45.8155 121.143 48.4505 119.045 50.0338 116.515C50.6627 115.542 51.1506 114.52 51.4651 113.571C51.8121 112.548 52.7445 111.764 53.6772 110.906C54.4691 110.194 55.304 109.383 55.9004 108.414C57.3317 106.13 58.6005 105.184 58.8174 105.168C58.9584 105.382 58.752 106.932 57.4617 109.296C56.8978 110.298 56.6162 111.386 56.3664 112.452C56.0629 113.711 55.8244 114.921 55.1086 115.705C54.4471 116.431 53.7967 117.348 53.2437 118.368C51.8121 120.975 51.2156 124.418 53.4928 125.393C54.61 125.889 55.7378 125.501 56.6812 124.626C57.6136 123.766 58.416 122.356 58.9259 120.969C59.3378 119.886 59.5983 118.794 59.7067 117.817C59.8258 116.745 60.5741 115.791 61.3221 114.718C61.962 113.824 62.5909 112.886 62.9813 111.807C63.9031 109.272 64.944 108.091 65.15 108.034C65.3235 108.217 65.4539 109.784 64.6836 112.367C64.3476 113.464 64.2936 114.59 64.272 115.688C64.2391 116.987 64.2501 118.226 63.7187 119.139C63.2202 119.985 62.7753 121.016 62.4499 122.129C62.0379 123.557 61.8425 125.143 62.0704 126.422C62.3093 127.683 62.9813 128.663 64.1741 128.927C65.367 129.184 66.3753 128.592 67.1131 127.523C67.8611 126.433 68.338 124.929 68.5659 123.451C68.7288 122.308 68.761 121.185 68.6525 120.205C68.555 119.15 69.0864 118.032 69.5962 116.84C70.0298 115.835 70.4527 114.79 70.6046 113.652C70.9841 110.982 71.754 109.617 71.9384 109.518C72.1554 109.665 72.6108 111.175 72.3938 113.863C72.2963 115.006 72.4698 116.12 72.6758 117.202C72.9143 118.495 73.1857 119.648 72.8493 120.684C72.5348 121.635 72.3179 122.719 72.2423 123.878C71.9928 126.883 72.8383 130.127 75.3109 130.165C76.5252 130.169 77.393 129.412 77.9025 128.176C78.4124 126.958 78.5639 125.388 78.4774 123.898C78.4124 122.744 78.206 121.639 77.9025 120.7C77.5881 119.687 77.87 118.486 78.1195 117.215C78.347 116.144 78.5424 115.036 78.4555 113.892C78.2714 111.201 78.7484 109.71 78.9218 109.576C79.1494 109.678 79.9087 111.067 80.2447 113.742C80.3857 114.88 80.787 115.936 81.2209 116.953C81.7089 118.127 82.2184 119.224 82.1099 120.298C82.0014 121.294 82.0014 122.427 82.1643 123.573C82.5328 126.535 84.062 129.543 86.4911 129.08C87.0875 128.965 87.5645 128.668 87.9115 128.241C88.2694 127.809 88.4863 127.213 88.6163 126.572C88.8548 125.278 88.6813 123.713 88.2909 122.274C87.9765 121.159 87.543 120.12 87.055 119.263C86.5342 118.337 86.5671 117.105 86.5452 115.813C86.5342 114.721 86.5017 113.6 86.1763 112.499C85.4393 109.905 85.5908 108.357 85.7318 108.193C85.9813 108.246 87.0112 109.456 87.9005 111.999C88.2803 113.093 88.8873 114.013 89.5057 114.897C90.2321 115.943 90.9695 116.914 91.0779 117.985C91.1755 118.979 91.4249 120.083 91.8153 121.171C92.8022 123.987 94.9274 126.622 97.2155 125.683C98.2023 125.308 98.6253 124.35 98.7118 123.277L91.067 107.777C91.3274 108.597 91.6524 109.448 92.0432 110.254C92.4117 111.025 92.6177 111.941 92.8022 112.925C93.0841 114.43 93.2795 115.948 94.3204 117.233C94.8514 117.867 95.3503 118.659 95.7623 119.551C96.9336 122.005 96.706 123.674 96.4781 123.893C96.0771 123.924 94.6783 122.932 93.6696 120.431C93.3011 119.52 93.0516 118.606 92.9431 117.796C92.7156 116.183 91.7069 114.965 90.807 113.761C90.2105 112.969 89.6682 112.213 89.3647 111.414C88.8114 110.025 88.0744 108.652 87.326 107.685C86.9571 107.202 86.5777 106.821 86.2201 106.593C85.8618 106.364 85.4933 106.234 85.1679 106.337C83.8451 106.715 83.986 110.038 84.6694 112.944C84.8754 113.772 84.8754 114.729 84.8425 115.696C84.81 117.183 84.68 118.737 85.4283 120.202C85.8187 120.937 86.1441 121.831 86.3607 122.789C86.979 125.414 86.4042 126.997 86.1332 127.172C85.7428 127.125 84.593 125.871 84.127 123.214C83.9535 122.245 83.8991 121.298 83.9645 120.481C84.073 118.85 83.3462 117.456 82.7282 116.094C82.3053 115.198 81.9364 114.349 81.7958 113.504C81.2859 110.542 80.1256 107.582 78.7484 107.642C77.3821 107.751 76.8291 111.06 76.8941 114.015C76.9157 114.872 76.7207 115.771 76.4822 116.723C76.1352 118.171 75.6903 119.669 76.1242 121.256C76.3412 122.053 76.4712 122.994 76.4822 123.977C76.5472 126.673 75.6578 128.108 75.3544 128.224C74.9855 128.099 74.1181 126.639 74.2156 123.944C74.2481 122.96 74.3891 122.023 74.6279 121.233C75.0724 119.66 74.6604 118.149 74.3241 116.689C74.1071 115.729 73.923 114.823 73.9661 113.968C74.0311 112.476 73.9121 110.923 73.6192 109.745C73.3263 108.565 72.8927 107.666 72.1769 107.591C71.483 107.508 70.865 108.25 70.3011 109.373C69.7588 110.51 69.3143 111.96 69.0433 113.441C68.8914 114.284 68.5119 115.123 68.089 116.01C67.4491 117.356 66.7117 118.734 66.8092 120.372C66.8527 121.196 66.7877 122.144 66.6032 123.11C66.1043 125.759 64.9334 126.985 64.619 127.037C64.2826 126.84 63.7297 125.237 64.3911 122.619C64.619 121.662 64.955 120.775 65.3454 120.049C66.1043 118.6 66.0068 117.037 65.9853 115.544C65.9743 114.561 65.9743 113.637 66.1913 112.807C66.5707 111.36 66.7661 109.826 66.7332 108.605C66.7007 107.354 66.4513 106.417 65.7789 106.198C65.1069 105.975 64.3476 106.589 63.5887 107.561C62.8294 108.51 62.0704 109.868 61.5065 111.251C61.1815 112.045 60.6391 112.789 60.0318 113.569C59.1209 114.756 58.1125 115.953 57.8631 117.57C57.7327 118.386 57.4727 119.298 57.0932 120.203C56.0629 122.69 54.6531 123.651 54.3277 123.638C54.0352 123.378 53.8292 121.702 55.022 119.278C55.4449 118.392 55.9544 117.594 56.4858 116.963C57.5486 115.703 57.7765 114.159 58.0581 112.697C58.2425 111.734 58.4485 110.835 58.839 110.068C60.1402 107.4 61.0186 104.175 59.8258 103.504C59.5113 103.332 59.1428 103.357 58.7199 103.524C58.3075 103.689 57.874 103.958 57.4076 104.352C56.4643 105.128 55.434 106.3 54.5991 107.536C54.1108 108.245 53.4168 108.862 52.6579 109.501C51.5301 110.477 50.2723 111.44 49.7084 112.966C49.4049 113.733 48.971 114.571 48.4071 115.376C46.8673 117.592 45.2841 118.248 44.9696 118.171C44.7417 117.859 44.8827 116.185 46.5419 114.063C47.1493 113.285 47.8216 112.611 48.483 112.104C49.7734 111.083 50.3157 109.633 50.9012 108.258C51.3026 107.338 51.6926 106.484 52.235 105.815C54.0677 103.465 55.5855 100.513 54.5341 99.6266C54.2521 99.4063 53.8942 99.3447 53.4822 99.3934C53.0483 99.4509 52.5494 99.6429 52.0075 99.926C50.9337 100.495 49.6759 101.433 48.6025 102.467C47.9736 103.061 47.1712 103.523 46.3034 103.995C44.9696 104.718 43.5492 105.406 42.6709 106.775C42.237 107.465 41.6296 108.19 40.9032 108.861C38.9511 110.71 37.2594 111.034 36.9559 110.897C36.7824 110.564 37.3247 108.902 39.385 107.175C40.1443 106.539 40.9357 106.024 41.6731 105.671C43.1263 104.964 43.9718 103.629 44.8611 102.396C45.436 101.581 45.9889 100.828 46.6504 100.285C48.9385 98.3654 51.0206 95.8029 50.1532 94.7318C49.4155 93.568 46.3144 94.7185 43.7662 96.2723C43.0394 96.727 42.1501 97.0131 41.1961 97.2962C39.7429 97.7324 38.2031 98.1171 37.0753 99.2698C36.5004 99.8523 35.763 100.435 34.9172 100.943C32.6075 102.346 30.8723 102.326 30.6554 102.109C30.5798 101.723 31.4257 100.228 33.8113 98.9607C34.6787 98.4943 35.5571 98.153 36.3485 97.9587C37.9317 97.5661 39.038 96.4394 40.1443 95.4193C40.8707 94.7413 41.5646 94.1244 42.3345 93.7287C43.6468 93.0401 44.9371 92.156 45.8264 91.3128C46.7263 90.456 47.1493 89.688 46.9323 89.0191C46.4228 87.7427 43.1369 88.2295 40.3283 89.2175C39.515 89.5093 38.5826 89.6067 37.5848 89.6857C36.0994 89.8033 34.5487 89.8441 33.1714 90.7477C32.4775 91.2032 31.6207 91.6216 30.6883 91.9436C28.1507 92.8371 26.5134 92.4316 26.307 92.1791C26.318 91.7864 27.4458 90.5025 30.0374 89.7617C30.9918 89.4865 31.9136 89.3369 32.7485 89.312C34.3642 89.2557 35.6875 88.3859 36.9778 87.6191C37.8233 87.1107 38.637 86.653 39.4609 86.4262C40.9032 86.0294 42.3345 85.4341 43.3754 84.7965C43.8962 84.4764 44.2972 84.1491 44.5792 83.8119C44.8721 83.4703 45.024 83.1275 44.9586 82.7794C44.7096 81.4327 41.3806 81.2234 38.4201 81.5998C37.5632 81.7177 36.6633 81.6126 35.6875 81.4781C34.2127 81.2819 32.6725 81 31.1437 81.5923C30.3738 81.8924 29.452 82.1237 28.4761 82.2416C25.7976 82.5833 24.2793 81.847 24.1278 81.5597C24.2143 81.178 25.5916 80.1598 28.2811 79.9776C29.2566 79.9058 30.2113 79.9546 31.0137 80.1012C32.6294 80.3862 34.0823 79.8117 35.503 79.3332C36.4354 79.0123 37.3138 78.7338 38.1816 78.6851C39.6669 78.5981 41.1961 78.3173 42.3345 77.9106C43.4623 77.4998 44.3301 76.965 44.3301 76.2589C44.3516 75.2766 42.7574 74.5914 40.8057 74.1379L23.5639 72.9927C24.7457 73.8064 26.4809 74.2203 28.1832 74.2962Z" fill="#28579B"/>
<path d="M66.0937 64.2539C66.7442 63.7255 66.6248 62.2693 65.8008 60.9321C64.9875 59.5907 63.4912 58.9588 62.5368 59.7189C62.0595 60.0711 61.8754 60.6785 61.962 61.3168C62.0379 61.9559 62.3849 62.6185 62.9272 63.1835C63.4692 63.7493 64.1197 64.1363 64.6836 64.3276C65.2475 64.5117 65.7358 64.5053 66.0937 64.2539Z" fill="#28579B"/>
<path d="M70.1711 81.3382C68.8694 82.5159 67.1021 84.1369 65.5838 85.9035C64.0656 87.67 62.8187 89.6143 62.6128 91.2962C62.4283 92.5695 62.9378 93.5952 63.7621 94.1754C64.6189 94.7219 65.7683 94.7934 66.8636 94.1527C69.8887 92.4459 72.0359 86.667 73.2287 83.3792C73.2287 83.3671 72.9902 83.3357 72.6867 83.1645C72.3503 83.0375 71.9493 82.8032 71.5589 82.5605C71.3745 82.4237 71.1904 82.2861 71.0165 82.158C70.854 82.0072 70.7021 81.8738 70.5721 81.7634C70.3336 81.5087 70.1711 81.3382 70.1711 81.3382ZM78.6073 83.1981C79.3232 84.804 80.3316 86.9803 81.535 88.9593C82.7387 90.9243 84.2245 92.7407 85.7533 93.4486C88.0633 94.607 90.308 92.772 89.7766 90.3006C89.0717 86.8793 84.2785 83.0681 81.5028 80.913C81.5028 80.913 81.4703 80.961 81.4159 81.0457C81.3509 81.1194 81.2534 81.2278 81.134 81.3556C81.0255 81.4901 80.8955 81.6451 80.722 81.7819C80.5595 81.9271 80.4075 82.1016 80.2015 82.2275C79.8436 82.528 79.4317 82.76 79.1387 82.9331C78.8133 83.0809 78.6073 83.1981 78.6073 83.1981ZM82.9776 75.7354C86.4801 75.362 92.5632 74.6356 94.9493 72.1026C96.706 70.2786 95.7516 67.5373 93.1816 67.3086C91.5008 67.1068 89.2777 67.8702 87.2281 68.91C85.1678 69.9554 83.162 71.2794 81.7194 72.2662C81.7194 72.2662 81.8279 72.4722 82.0233 72.7651C82.1858 73.0731 82.4137 73.4863 82.5653 73.9296C82.6628 74.1424 82.7066 74.3733 82.7712 74.5823C82.8366 74.7887 82.8691 74.9893 82.8907 75.1624C82.9232 75.3329 82.9557 75.4761 82.9776 75.5759C82.9776 75.6764 82.9776 75.7354 82.9776 75.7354ZM77.2305 69.28C77.9569 65.8542 79.1607 59.799 77.4905 56.7694C76.8941 55.648 75.8857 55.1026 74.8664 55.1219C73.8576 55.1827 72.8927 55.7878 72.3828 56.9674C71.6674 58.5106 71.6999 60.8214 72.0578 63.1216C72.4263 65.4184 73.0771 67.7236 73.5647 69.41C73.5647 69.41 73.7926 69.3484 74.118 69.2573C74.3025 69.2342 74.4975 69.2018 74.7144 69.1553C74.9314 69.1379 75.1589 69.1194 75.3868 69.1009C75.8528 69.0997 76.3083 69.1107 76.6556 69.1746C77.0135 69.1908 77.2305 69.2928 77.2305 69.28ZM56.1173 73.5478C58.6545 75.8968 64.8359 76.1712 68.3164 76.2831C68.3164 76.2831 68.3164 76.1667 68.3274 75.9932C68.3274 75.8197 68.3814 75.5911 68.3924 75.3601C68.3924 75.1258 68.5009 74.9024 68.5224 74.7289C68.5659 74.5554 68.5878 74.4395 68.5878 74.4395L71.9818 75.4066C72.0034 75.4112 71.8949 75.7732 71.8624 76.1236C71.8514 76.3005 71.8514 76.4759 71.8514 76.607C71.8734 76.7374 71.8734 76.8251 71.8734 76.8251C71.8514 76.8285 71.9059 77.0582 71.9384 77.2956C71.9818 77.4086 72.0034 77.5243 72.0253 77.6154C72.0578 77.6993 72.0899 77.7556 72.0899 77.7556C72.0899 77.7556 72.1553 77.9888 72.2744 78.2012C72.3938 78.4223 72.5348 78.6185 72.5238 78.6287C72.5238 78.623 72.6323 78.7692 72.8061 78.9775C72.9902 79.1793 73.2506 79.4209 73.5326 79.6216C73.8361 79.7909 74.1396 79.9848 74.4109 80.0456C74.6604 80.1658 74.8664 80.1541 74.8554 80.1703C74.8554 80.1586 74.9748 80.2335 75.1589 80.2255C75.3324 80.2671 75.5712 80.2591 75.8097 80.2689C75.9182 80.2417 76.0373 80.2527 76.1457 80.2418C76.2652 80.2104 76.3627 80.1945 76.4496 80.1889C76.6227 80.1378 76.7421 80.1076 76.7421 80.1076C76.7421 80.1076 76.7856 80.1042 76.8616 80.0792C76.9375 80.0422 77.0351 79.9957 77.1651 79.9621C77.4036 79.8234 77.7615 79.6933 78.0219 79.4428C78.0979 79.3993 78.1738 79.3407 78.2279 79.2704C78.2819 79.205 78.3579 79.1597 78.4123 79.0992C78.5098 78.9526 78.6614 78.8766 78.7052 78.7496C78.8677 78.5459 78.9437 78.3834 78.9437 78.3834C78.9437 78.3834 79.1932 77.9865 79.3447 77.4986C79.4747 77.0061 79.4642 76.5378 79.4642 76.5378C79.4642 76.5378 79.4967 76.3621 79.4642 76.1009C79.4857 75.9648 79.3991 75.8208 79.3991 75.6515C79.3772 75.5718 79.3447 75.4913 79.3232 75.4044C79.3122 75.3167 79.2797 75.2301 79.2472 75.1507C79.1493 74.7973 78.9218 74.5022 78.7918 74.2618C78.6939 74.1616 78.6293 74.0694 78.5968 74.0002C78.5423 73.9394 78.5098 73.9134 78.5098 73.9134C78.5098 73.9134 78.4123 73.8256 78.2929 73.6911C78.2279 73.6389 78.1519 73.572 78.0759 73.4874C77.9894 73.4201 77.8809 73.3668 77.7944 73.2832C77.588 73.1665 77.393 73.0361 77.2191 72.9775C77.0676 72.8758 76.9266 72.8769 76.9266 72.8671C76.9266 72.8834 76.775 72.7708 76.4927 72.739C76.2217 72.6457 75.8642 72.6543 75.5278 72.637C75.1699 72.6555 74.8229 72.7251 74.5625 72.8018C74.3025 72.891 74.1396 72.9571 74.1396 72.9484C74.1396 72.9484 74.0311 73.0232 73.8576 73.0901C73.706 73.1869 73.4891 73.3006 73.3047 73.4624C72.9252 73.7716 72.6107 74.1238 72.6323 74.1389C72.6323 74.1389 72.5892 74.2161 72.5023 74.3147C72.4263 74.4243 72.3503 74.5793 72.2528 74.7324C72.1013 75.0468 72.0034 75.4165 71.9818 75.4066L68.5878 74.4395C68.5878 74.4395 68.6309 74.3287 68.6853 74.1628C68.7609 74.0037 68.7828 73.7584 68.9019 73.5588C69.0213 73.354 69.0863 73.1294 69.1733 72.9798C69.2708 72.8324 69.3248 72.7326 69.3248 72.7326C66.2997 70.9933 60.8991 67.9753 57.5051 68.6379C56.2363 68.8537 55.4555 69.6636 55.13 70.6134L51.747 69.6519C52.0614 68.7063 52.5713 67.8158 53.3302 67.1491C54.122 66.4888 55.0329 66.0073 56.1494 65.8531C57.3751 65.6754 58.6873 65.8361 59.9882 66.2155C61.3115 66.6109 62.6128 67.2175 63.8381 67.9027C66.2887 69.2766 68.4465 70.9294 69.8347 71.9714C69.8347 71.9714 69.8672 71.9246 69.9212 71.8414C69.9866 71.7677 70.0951 71.6622 70.2036 71.5364C70.3117 71.4011 70.4526 71.2533 70.6151 71.1169C70.778 70.9725 70.93 70.8012 71.125 70.6777C71.472 70.3817 71.8843 70.1538 72.1768 69.9781C72.4913 69.8352 72.6867 69.7192 72.6867 69.7192C72.0034 68.1273 70.919 65.6309 70.1711 62.9338C69.4227 60.2534 69.0432 57.266 69.9972 54.9832C70.8105 52.912 72.7298 51.6977 74.7469 51.6119C75.7447 51.5794 76.7531 51.8386 77.6315 52.3341C78.4989 52.8761 79.2362 53.6256 79.7351 54.6147C80.8305 56.8699 80.6895 59.7949 80.1471 62.5675C79.5832 65.3251 78.6833 67.8994 78.13 69.5359C78.13 69.5359 78.3579 69.5812 78.6614 69.7483C78.9868 69.8719 79.3772 70.1062 79.7571 70.3447C79.9411 70.489 80.1365 70.6104 80.2991 70.7415C80.4616 70.89 80.6135 71.0216 80.7435 71.1308C80.9824 71.375 81.134 71.5473 81.134 71.5473C83.7365 69.3276 89.3102 64.1096 94.3309 64.4362C95.4262 64.5216 96.4456 64.8871 97.2264 65.5118C97.6384 65.8187 97.9963 66.1763 98.2998 66.5754C98.5818 66.9821 98.8097 67.4288 98.9831 67.8963C99.3736 68.8223 99.3951 69.8764 99.2001 70.8553C98.9832 71.8433 98.4517 72.7889 97.6924 73.5577C95.8817 75.3091 93.0731 76.0941 90.2645 76.4195C87.456 76.7445 84.734 76.6811 83.0101 76.6482C83.0101 76.6482 82.9991 77.5613 82.7497 78.4658C82.4787 79.3679 82.0123 80.1496 82.0123 80.1496C83.498 81.0336 85.8512 82.4131 88.0633 84.1611C90.2755 85.9175 92.2492 88.0624 92.8671 90.5066C93.1166 91.5596 93.0731 92.6473 92.7371 93.5994C92.3792 94.531 91.8047 95.4147 91.0019 96.0035C90.6009 96.3093 90.167 96.5651 89.7116 96.7636C89.2452 96.9416 88.7467 97.0553 88.2474 97.1064C87.25 97.2269 86.1872 96.998 85.2223 96.496C80.7764 94.1331 78.7808 86.7637 77.729 83.5027C77.729 83.5027 77.523 83.57 77.1866 83.6501C77.0135 83.674 76.8071 83.7076 76.6012 83.7522C76.3842 83.7737 76.1673 83.776 75.9397 83.804C75.4843 83.804 75.0289 83.7968 74.6925 83.7325C74.3455 83.7151 74.118 83.6332 74.118 83.6332C73.7276 85.3192 73.1421 87.9815 72.1663 90.615C71.1791 93.2656 69.7481 95.8202 67.6225 97.1616C66.6901 97.7463 65.6708 97.9946 64.6405 97.9976C63.6427 97.9598 62.6449 97.6465 61.81 97.092C60.1402 95.9589 59.1428 93.9149 59.5438 91.7266C59.9452 89.2858 61.8319 86.9447 63.8812 85.0565C65.9418 83.1603 68.1755 81.6104 69.5962 80.616C69.6177 80.605 69.3358 80.2342 69.1408 79.8181C68.9019 79.4144 68.7609 78.9756 68.7609 78.9756C68.7609 78.9756 68.7178 78.8679 68.6524 78.7077C68.6203 78.5384 68.5659 78.3173 68.4899 78.0992C68.4139 77.6483 68.3274 77.1992 68.3493 77.197C66.6247 77.3565 63.914 77.6211 61.1055 77.5016C59.7067 77.44 58.275 77.2695 56.9522 76.9105C55.6399 76.5518 54.4471 75.9977 53.4928 75.1942C52.6254 74.4795 52.094 73.5871 51.7795 72.612C51.476 71.6429 51.5195 70.6191 51.747 69.6519L55.13 70.6134C54.9025 71.592 55.1414 72.6914 56.1173 73.5478Z" fill="#28579B"/>
<path d="M84.3114 63.5695C84.9838 64.0552 86.3716 63.449 87.38 62.2735C88.4212 61.0679 88.5188 59.4869 87.521 58.7839C86.5016 58.1206 85.0488 58.8425 84.3439 60.233C83.6281 61.6371 83.6065 63.1152 84.3114 63.5695Z" fill="#28579B"/>
<path d="M90.601 80.6984C90.3296 81.4902 91.3274 82.6139 92.7697 83.2144C94.2225 83.8161 95.7623 83.4257 96.1312 82.274C96.4241 81.0997 95.3178 79.9591 93.778 79.7074C92.2273 79.4556 90.7854 79.8854 90.601 80.6984Z" fill="#28579B"/>
<path d="M76.2432 91.9588C75.3974 91.9773 74.6384 93.2431 74.5084 94.8143C74.389 96.3703 75.2348 97.7471 76.4496 97.7173C77.6745 97.6455 78.4123 96.2478 78.1738 94.6785C77.9349 93.1486 77.0785 91.9036 76.2432 91.9588Z" fill="#28579B"/>
<path d="M61.1055 81.7884C60.9316 81.3916 60.5197 81.1247 59.9452 80.9849C59.3597 80.8504 58.6114 80.8428 57.8521 81.037C57.0931 81.232 56.4533 81.6127 56.0413 82.1127C55.6399 82.6116 55.4664 83.2239 55.694 83.7761C56.0953 84.9213 57.7111 85.1737 59.1099 84.4635C60.5091 83.7553 61.3765 82.5799 61.1055 81.7884Z" fill="#28579B"/>
</svg>
